<svg xmlns="http://www.w3.org/2000/svg" width="1041" height="1040.02" viewBox="0 0 1041 1040.02"><title>10_curved_rim_1041 (2)</title><g id="Layer_2" data-name="Layer 2"><g id="Layer_1-2" data-name="Layer 1"><g id="_10_curved_rim_1041" data-name="10_curved_rim_1041"><path d="M1041,520h0c-.4,11.6-6,11.4-6.2,23h-1.2c.2-11.2-5-11.6-5-22.2v-.6h0c-.2-11.4,5.4-11.6,5-23h1.2C1035,508.42,1040.6,508.22,1041,520Z" style="fill:#182755"/><path d="M1034.8,542.82c-.6,11.6,4.8,11.8,4,23.6s-7,11-8.2,22.4l-1.2-.2h0c1.4-11.4-3.8-12-3-23.4s6.6-11,7.2-22.4Z" style="fill:#182755"/><path d="M1038.8,473.22c.8,11.6-4.6,12-4,23.6h-1.2c-.6-11.6-6.4-11.2-7.2-22.6s4.4-12,3-23.4l1.2-.2C1031.8,462.22,1038,461.62,1038.8,473.22Z" style="fill:#182755"/><path d="M1030.6,589c-1.4,11.4,4,12.2,2,23.8s-7.4,10.4-10.2,21.6l-1.2-.2c2.6-11.2-3-12.4-1-23.6s7.8-10.4,9.2-21.8Z" style="fill:#182755"/><path d="M1032.4,427c2,11.6-3.4,12.4-2,23.8l-1.2.2c-1.4-11.4-7.2-10.6-9.2-21.8s3.6-12.4,1-23.6l1.2-.2C1025,416.62,1030.4,415.42,1032.4,427Z" style="fill:#182755"/><path d="M1022.4,634.42c-2.6,11.2,3,12.6-.2,24-.2.8-.4,1.4-.6,2-3.4,9.2-8,8.4-11.4,18.6l-1.2-.4c3.8-11-2-12.6,1.2-23.6s8.4-9.6,11-20.8Z" style="fill:#182755"/><path d="M1022.2,381.42c3.2,11.2-2.4,12.8.2,24l-1.2.2c-2.6-11.2-7.8-10-11-20.8-3.2-11,2.6-12.6-1.2-23.6l1.2-.4C1013.8,371.62,1018.8,370.22,1022.2,381.42Z" style="fill:#182755"/><path d="M1009,678.62l1.2.4c-3.8,11,1.8,12.8-2.4,23.8-4.4,10.8-9.4,8.8-13.8,19.4l-1.2-.4c4.4-10.6-1-12.8,3.2-23.4S1005.2,689.62,1009,678.62Z" style="fill:#182755"/><path d="M1010,360.82l-1.2.4c-3.8-11-8.8-9.2-12.8-19.8-4.2-10.6,1.2-12.8-3.2-23.4l1.2-.4c4.4,10.6,9.6,8.6,13.8,19.4S1006.2,349.82,1010,360.82Z" style="fill:#182755"/><path d="M992.8,721.82l1.2.4c-4.8,10.6.4,12.8-4.4,23.6-5.4,10.4-10.4,7.8-15.6,18.2l-1-.6c5.2-10.2.2-12.8,5.4-23C983,730,988,732.42,992.8,721.82Z" style="fill:#182755"/><path d="M993.8,317.42l-1.2.4c-4.8-10.6-9.8-8.2-14.6-18.6-5.2-10.2-.2-12.6-5.4-23l1-.6c5.2,10.2,10.4,7.6,15.6,18.2C994.2,304.62,989,307,993.8,317.42Z" style="fill:#182755"/><path d="M972.8,763.42l1,.6c-5.6,10-.8,12.8-6.6,23-6,10-11,7-17.2,16.6l-1-.6h0c6.2-9.8,1.6-12.6,7.4-22.4C962.2,770.62,967.2,773.42,972.8,763.42Z" style="fill:#182755"/><path d="M973.8,275.82l-1,.6c-5.6-10-10.6-7.2-16.2-17.2-6-9.8-1.4-12.6-7.4-22.4l1-.6c6.2,9.8,11.2,6.6,17.2,16.6C973,263,968.2,265.82,973.8,275.82Z" style="fill:#182755"/><path d="M949.2,803l1,.6c-6.2,9.6-2,12.8-8.6,22.2h0l-1.8,2.4c-5.8,6.4-10.4,4.4-16.6,12.6l-1-.8a24.41,24.41,0,0,0,5-10.6,24.85,24.85,0,0,1,4.4-10.8h0C937.8,809.22,942.8,812.62,949.2,803Z" style="fill:#182755"/><path d="M950,236.22l-1,.6c-6.2-9.6-11.2-6.4-17.6-15.4h0c-6.6-9.4-2.4-12.4-9.4-21.6l1-.8c6.8,8.8,11.6,5.6,18,14.2.2.2.4.6.6.8h0C948,223.62,943.6,226.62,950,236.22Z" style="fill:#182755"/><path d="M922,840l1,.8c-7,9.2-3,12.6-10.6,21.4s-11.8,5-19.8,13.4l-1.6-.2.8-.8c8-8.4,3.8-12,11.2-20.8C910.4,845.42,915,849.22,922,840Z" style="fill:#182755"/><path d="M922.8,199l-1,.8c-7-9.2-11.6-5.2-19-14-7.2-8.4-3.6-12.2-10.6-20l1.6-.2c7,6.4,11.2,3.6,18.4,11.8C919.8,186.42,915.8,189.82,922.8,199Z" style="fill:#182755"/><path d="M893.8,165.62l-1.6.2c-.2-.2-.4-.6-.8-.8-8-8.4-12-4.4-20.2-12.2s-4.4-12.2-13.2-19.6l1.6-.2c8.2,6.6,12,3,20.2,10.8,8.6,8,4.6,12,12.4,20.4C892.8,164.82,893.4,165.22,893.8,165.62Z" style="fill:#182755"/><path d="M891,875.42l1.6.2c-8,8.4-4,12.4-12.4,20.4s-12.2,4-21,11.6l-1.6-.2c.2-.2.6-.4.8-.6,8.8-7.6,4.8-11.8,13-19.6S883.6,882.82,891,875.42Z" style="fill:#182755"/><path d="M859.8,133l-1.6.2c-8.8-7.6-12.2-3.4-21.2-10.4s-5.4-11.8-14.8-18.4l.8-1c9.4,6.6,12.6,2.4,22,9.6,9.2,7.2,5.4,11.8,14.2,19.2C859.2,132.62,859.6,132.82,859.8,133Z" style="fill:#182755"/><path d="M857.6,907.22l1.6.2c-8.8,7.4-5,12-14.2,19.2-9,6.8-12.2,3.2-21,9l-.6-1c8.4-6.4,5.2-11,14-17.8C846,910.22,849.4,913.82,857.6,907.22Z" style="fill:#182755"/><path d="M823.2,934.82l.6,1c-.2.2-.6.4-.8.6-9.4,6.6-6,11.6-15.8,17.8s-12.8,1.6-22.6,7.6a2.76,2.76,0,0,0-.8.6l-.6-1a1.53,1.53,0,0,1,1-.4c9.6-5.8,7-10.6,15.6-16.4.2-.2.6-.4.8-.6,9.6-6.2,12.6-1.8,22-8.4C822.6,935.22,823,935,823.2,934.82Z" style="fill:#182755"/><path d="M822.8,103.42l-.8,1h0c-9.4-6.6-12.4-2.2-22-8.4-9.6-6-6.4-11-16.4-17l.6-1h0c10,6,12.8,1.4,22.6,7.6C816.8,91.82,813.4,96.82,822.8,103.42Z" style="fill:#182755"/><path d="M784.4,77.82l-.6,1c-10-5.8-12.8-1-22.8-6.4-10.2-5.2-7.6-10.2-17.8-15.4l.6-1.2h0c10.2,5.2,12.8.2,23.2,5.6C777.2,67.22,774.4,72.22,784.4,77.82Z" style="fill:#182755"/><path d="M783,961.42l.6,1c-9,5.6-6.6,10.4-16.4,16a7.1,7.1,0,0,1-1.8.8c-9,3.8-11.8-.2-21.4,4.6-.4.2-.6.4-1,.4l-.4-1.2c.2-.2.6-.2,1-.4,10.2-5.2,7.6-10.2,17.8-15.6C770.8,962,773.8,966.42,783,961.42Z" style="fill:#182755"/><path d="M743.6,55.82,743,57c-10.6-4.8-12.8.4-23.2-4.4-10.6-4.4-8.4-9.4-19.2-13.8l.4-1.2h0c10.8,4.2,12.8-1,23.6,3.4C735.4,46,733.2,51.22,743.6,55.82Z" style="fill:#182755"/><path d="M742.4,983.22l.4,1.2c-9.4,4.6-7.6,9.6-18,14.2-10.8,4.4-13-.8-23.6,3.4-.4.2-.6.2-1,.4l-.4-1.2c.4,0,.6-.2,1-.4,10.8-4.2,8.8-9.4,19.2-13.8C730.2,982.62,732.8,987.42,742.4,983.22Z" style="fill:#182755"/><path d="M681.2,25c10.8,3.8,9.2,8.8,19.8,13l-.4,1.2c-7.8-3-11-.8-16.2-.8a19.73,19.73,0,0,1-7-1.2h0c-9.8-3.4-9.4-7.8-17.6-11l.2-1.4c8.8,1.2,11.2-3.4,21.2.2Z" style="fill:#182755"/><path d="M677.4,1003.22h0c10.4-3.6,12.6,1.6,22.6-2l.4,1.2c-9.8,4-8.4,8.8-19.2,12.6h0c-9.6,3.2-12.2-.8-20.2.4l-.2-1.6C668.2,1010.62,668.2,1006.42,677.4,1003.22Z" style="fill:#182755"/><path d="M660.8,1013.82l.2,1.6c-1,.2-2.2.4-3.6.8-9.4,2.8-9.8,6.8-16.6,9.6a22.78,22.78,0,0,1-4.4,1.4c-11.4,2.6-12.6-2.8-24-1a8.66,8.66,0,0,0-1,.2l-.2-1.2a1.8,1.8,0,0,0,1-.2c11.4-2,10.2-7.4,21.4-10.2a12,12,0,0,1,2.4-.4c9-1.2,11,3.4,21.2.4A15.51,15.51,0,0,0,660.8,1013.82Z" style="fill:#182755"/><path d="M660,24.42l-.2,1.4c-.8-.4-1.8-.6-2.8-1-10.2-3-12.2,1.8-21.4.4-.8-.2-1.4-.2-2.2-.4-11-2.6-10-8-21.4-10l.2-1.2c11.4,2,12.4-3.6,23.8-1,11.4,2.8,10.2,7.8,21.2,11.2C658.4,24,659.2,24.22,660,24.42Z" style="fill:#182755"/><path d="M612.2,13.42l-.2,1.2c-11.4-2-12.2,3.4-23.6,2s-10.6-7.4-22.2-8.2l.2-1.2h0c11.6.8,12.2-4.4,23.8-3S600.8,11.42,612.2,13.42Z" style="fill:#182755"/><path d="M611.4,1025.42l.2,1.2c-10.4,2.2-9.8,7.6-21,9-11.6,1.4-12.2-3.8-23.8-3a1.5,1.5,0,0,0-1,.2v-1.2h1c11.6-.8,10.8-7,22.2-8.2C599.8,1022,600.8,1027,611.4,1025.42Z" style="fill:#182755"/><path d="M566.4,7.22l-.2,1.2c-11.6-.8-11.8,4.6-23.2,4h-1.2c-10.2-.6-10.4-6-21.6-6.2V5h0c11.6.2,11.6-5.4,23.4-5C555.4.62,555,6.42,566.4,7.22Z" style="fill:#182755"/><path d="M565.6,1031.62v1.2c-10.4,1-10.4,6.6-21.8,7.2h-1.4c-10.4-.2-11-5.4-22-5v-1.2c11.6-.2,11.4-6,22.8-6.2C554.4,1027,555,1032,565.6,1031.62Z" style="fill:#182755"/><path d="M520.6,1033.62v1.2h0c-11.6-.2-11.6,5.4-23.4,5-11.6-.6-11.4-6.4-22.8-7.2v-1.2c11.6.8,11.8-4.6,23.2-4C509.2,1027.82,509,1033.42,520.6,1033.62Z" style="fill:#182755"/><path d="M520.2,5.22v1.2c-11.6.2-11.4,6-22.8,6.2-11,.6-11.6-4.6-22.2-4.2V7.22c10.4-1,10.4-6.6,21.8-7.2C508.6-.18,508.8,5.42,520.2,5.22Z" style="fill:#182755"/><path d="M475.2,7.22v1.2h-1c-11.6.8-10.8,7-22.2,8.2-11,1.4-12-3.6-22.6-2.2l-.2-1.2c10.4-2.2,9.8-7.6,21-9,11.6-1.4,12.2,3.8,23.8,3Z" style="fill:#182755"/><path d="M474.4,1031.62v1.2h0c-11.6-.8-12.2,4.4-23.8,3s-10.8-7.2-22-9.2l.2-1.2c11.4,2,12.2-3.4,23.6-2C463.6,1024.62,463,1030.82,474.4,1031.62Z" style="fill:#182755"/><path d="M429.2,13.42l.2,1.2a1.8,1.8,0,0,0-1,.2c-11.4,2-10.2,7.4-21.4,10.2a10,10,0,0,1-2.4.4c-9,1.4-11-3.4-21.2-.4a15,15,0,0,0-3.6,1.4l-.2-1.6c1-.2,2.2-.4,3.6-.8,11-3.2,9.8-8.4,21.2-11.2,11.4-2.6,12.6,2.8,23.8,1A1.29,1.29,0,0,1,429.2,13.42Z" style="fill:#182755"/><path d="M428.8,1025.42l-.2,1.2c-11.4-2-12.6,3.6-23.8.8-11.4-2.8-10.2-7.8-21.2-11.2a14,14,0,0,0-2.8-.6l.2-1.4c.8.4,1.8.6,2.8,1,10.2,3,12.2-1.8,21.4-.4.8.2,1.4.2,2.2.4C418.6,1017.82,417.4,1023.42,428.8,1025.42Z" style="fill:#182755"/><path d="M381,1014.22l-.2,1.4c-8.6-1.6-11,3-21.2-.6h0c-.4-.2-.6-.2-1-.4-9.8-3.8-8.4-8.6-18.8-12.6l.4-1.2c7.8,3,11,.8,16.2.8a21.46,21.46,0,0,1,7.2,1.2h0C373.2,1006.62,373,1011,381,1014.22Z" style="fill:#182755"/><path d="M379.6,24.62l.2,1.6a26.83,26.83,0,0,0-6.6,4.4,26.66,26.66,0,0,1-9.8,6.2h0c-10.4,3.6-12.6-1.6-22.6,1.8l-.4-1.2c9.4-4,8.4-8.6,18.2-12.2.4-.2.6-.2,1-.4h0C369.2,21.62,371.6,25.82,379.6,24.62Z" style="fill:#182755"/><path d="M340.4,37.62l.4,1.2c-.4,0-.6.2-1,.4-10.8,4.2-8.6,9.4-19.2,13.8-10,4.6-12.6-.2-22.2,4l-.4-1.2c9.4-4.6,7.6-9.6,17.8-14.2,10.8-4.4,13,.8,23.6-3.4C339.8,37.82,340,37.62,340.4,37.62Z" style="fill:#182755"/><path d="M340.2,1001l-.4,1.2h0c-10.8-4.2-12.8,1-23.6-3.4-10.6-4.8-8.4-10-18.8-14.8l.6-1c10,4.6,12.6,0,21.8,3.6.4.2,1,.4,1.4.6C331.4,991.62,329.4,996.82,340.2,1001Z" style="fill:#182755"/><path d="M297.8,55.62l.4,1.2c-.4.2-.6.2-1,.4-10.2,5.2-7.8,10.4-17.8,15.6-9.6,5.4-12.4,1-21.8,6l-.6-1.2c9-5.6,6.6-10.4,16.4-15.8,10.4-5.4,13-.4,23.2-5.6C297.2,55.82,297.6,55.82,297.8,55.62Z" style="fill:#182755"/><path d="M297.6,983l-.6,1h0c-10.2-5.2-12.8-.2-23.2-5.6-10.2-5.6-7.4-10.8-17.4-16.4l.6-1c10,5.8,12.8,1,22.8,6.4C290,972.62,287.4,977.82,297.6,983Z" style="fill:#182755"/><path d="M257.8,78.62c-.4.2-.6.4-.8.4-9.8,6-6.8,11-16.4,17-9.6,6.2-12.6,1.8-22,8.4-.2.2-.6.4-.8.6l-.8-1c.2-.2.6-.4.8-.6,9.4-6.6,6-11.6,15.8-18,9.8-6.2,12.8-1.6,22.6-7.6a2.76,2.76,0,0,0,.8-.6Z" style="fill:#182755"/><path d="M257.2,961l-.8,1h0c-9.8-6-12.8-1.4-22.6-7.6-9.8-6.4-6.4-11.4-15.8-17.8l.8-1c9.4,6.6,12.4,2.2,22,8.4S247.2,955.22,257.2,961Z" style="fill:#182755"/><path d="M218.6,935.62l-.8,1h0c-9.4-6.6-12.6-2.4-21.8-9.6s-5.4-11.8-14.2-19.2c-.2-.2-.6-.4-.8-.6l1.6-.2c8.4,7.2,12,3.6,20.4,9.8.2.2.6.4.8.6C212.8,924.22,209.2,929,218.6,935.62Z" style="fill:#182755"/><path d="M216.8,104.22l.8,1c-8.4,6.4-5.2,11.2-14,17.8-8.8,6.8-12.2,3.2-20.4,9.8l-1.6-.2c8.8-7.4,5-12,14.2-19.2C204.8,106.42,208,110,216.8,104.22Z" style="fill:#182755"/><path d="M183.2,132.82c-.2.2-.6.4-.8.6-8.8,7.6-4.8,11.8-13.2,19.6-8,7.6-12,4-19.4,11.4l-1.6-.2c8-8.4,4-12.4,12.4-20.4s12.2-4,21-11.6Z" style="fill:#182755"/><path d="M182.6,906.82l-1.6.2c-8.2-6.6-12-3-20.2-10.8a30.81,30.81,0,0,1-2.6-2.8c-5-6.2-2.8-10.2-9.8-17.6a9.24,9.24,0,0,0-1.4-1.4l1.6-.2c.2.2.4.6.8.8,8,8.4,12,4.4,20.2,12.2S173.8,899.22,182.6,906.82Z" style="fill:#182755"/><path d="M149.8,164.62l-.8.8c-8,8.4-3.8,12-11.2,20.8-7.4,8.6-12,4.8-19,14l-1-.8c6.8-8.8,3.2-12.4,9.8-20.6.2-.2.4-.6.6-.8,7.6-8.8,11.8-5,19.8-13.4Z" style="fill:#182755"/><path d="M148.6,874.22l-1.6.2c-7-6.4-11.2-3.6-18.4-12-7.6-9-3.6-12.2-10.6-21.4l1-.8c7,9.2,11.6,5.2,19,14C145.2,862.62,141.6,866.42,148.6,874.22Z" style="fill:#182755"/><path d="M119,840.22l-1,.8c-6.6-8.6-11.2-5.8-17.4-13.4a11.09,11.09,0,0,1-1.2-1.6h0l10.2-7.4h0C116,828,112,831,119,840.22Z" style="fill:#182755"/><path d="M117.8,199.22l1,.8c-7,9.2-3,12.2-9.2,21.4h0c-6.4,9.4-11.4,6-17.8,15.6l-1-.6c6.2-9.6,2-12.8,8.6-22.2h0C106,204.82,110.8,208.42,117.8,199.22Z" style="fill:#182755"/><path d="M109.4,818.62,99.2,826c-6.4-9.4-2.2-12.4-8.4-22.2l1-.6C98.2,812.82,103,809.42,109.4,818.62Z" style="fill:#182755"/><path d="M91.8,803.22l-1,.6c-6.2-9.8-11.2-6.6-17.2-16.6-5.8-10.2-1-13-6.6-23l1-.6c5.6,10,10.6,7.2,16.2,17.2a4.37,4.37,0,0,1,.6,1C90,790.62,85.8,793.62,91.8,803.22Z" style="fill:#182755"/><path d="M90.6,236.42l1,.6c-6,9.4-1.8,12.4-7,21.6a2.76,2.76,0,0,1-.6.8c-5.6,10-10.6,7-16.2,17.2l-1-.6c5.6-10,.8-12.8,6.6-23,.8-1.2,1.6-2.2,2.2-3.2C80.8,243.62,85.2,245,90.6,236.42Z" style="fill:#182755"/><path d="M68,763.62l-1,.6c-5.2-10.2-10.2-7.8-15.6-18.2-4.8-10.6.4-13-4.4-23.6l1.2-.4c4.8,10.6,9.8,8.2,14.6,18.6C67.8,750.82,62.8,753.42,68,763.62Z" style="fill:#182755"/><path d="M66.8,276l1,.6c-5.2,10.2-.2,12.8-5.4,23-4.6,10.4-9.8,8-14.6,18.6l-1.2-.6c4.8-10.4-.4-12.8,4.4-23.6C56.6,283.82,61.6,286.42,66.8,276Z" style="fill:#182755"/><path d="M48,722l-1.2.4c-4.4-10.6-9.6-8.6-13.8-19.4a2.84,2.84,0,0,1-.4-1.2c-3.4-9.8,1.8-12.2-1.8-22.6l1.2-.4c3.8,11,8.8,9.2,12.8,19.8C49,709.22,43.6,711.42,48,722Z" style="fill:#182755"/><path d="M46.8,317.82l1.2.6c-4.4,10.6,1,12.8-3.2,23.4a7.1,7.1,0,0,1-.8,1.8c-3.8,8.6-8.6,7.6-12,18l-1.2-.4c3.8-10.8-1.8-12.8,2.4-23.8S42.4,328.42,46.8,317.82Z" style="fill:#182755"/><path d="M32,678.82l-1.2.4c-3.8-10.8-8.8-9.4-12-20.6s2.4-12.6-.2-24l1.2-.2c2.6,11.2,7.8,10,11,20.8C34,666.22,28.2,668,32,678.82Z" style="fill:#182755"/><path d="M30.6,361l1.2.4c-3.8,11,2,12.6-1.2,23.6s-8.4,9.6-11,20.8l-1.2-.4c2.6-11.2-3-12.6.2-23.8C22,370.42,26.8,372,30.6,361Z" style="fill:#182755"/><path d="M20.6,610.82c2,11.2-3.6,12.4-1,23.6l-1.2.2c-2.6-11.2-8.2-10.2-10.2-21.6-2-11.6,3.4-12.4,2-23.8l1.2-.2C12.8,600.62,18.6,599.62,20.6,610.82Z" style="fill:#182755"/><path d="M19.6,405.82c-2.6,11.2,3,12.4,1,23.6s-7.8,10.4-9.2,21.8l-1.2-.2h0c1.4-11.4-4-12.2-2-23.8s7.6-10.4,10.2-21.6Z" style="fill:#182755"/><path d="M14.6,565.62c.8,11.4-4.4,12-3,23.4l-1.2.2c-1.4-11.4-7.4-10.8-8.2-22.4s4.6-12,4-23.6H7.4C7.8,554.62,13.8,554.22,14.6,565.62Z" style="fill:#182755"/><path d="M11.4,451.22c-1.4,11.4,3.8,12,3,23.4s-6.6,11-7.2,22.4H6c.4-11.6-4.8-11.8-4-23.6s7-11,8.2-22.4Z" style="fill:#182755"/><path d="M12.4,520c.2,11.4-5.4,11.6-5,23H6.2c-.2-11.6-6-11.4-6.2-23H0c.4-11.4,6-11.4,6.2-22.8H7.4c-.2,11.2,5,11.6,5,22.2v.6Z" style="fill:#182755"/></g></g></g></svg>