<svg xmlns="http://www.w3.org/2000/svg" width="561.45" height="563.01" viewBox="0 0 561.45 563.01"><title>1_inner_rim_563 (2)</title><g id="Layer_2" data-name="Layer 2"><g id="Layer_1-2" data-name="Layer 1"><g id="_1_inner_rim_563" data-name="1_inner_rim_563"><g id="Inner_Rim_1" data-name="Inner Rim 1"><path d="M560.6,299a3.37,3.37,0,0,1,.8,2.8c-.2,4.2-3.6,5.4-6.8,5.6h-4c-10.8-.6-20.8.4-24,2-2.8,1.4-3.4,3.4-1.2,3.8l-.2,2.2c-2.2-.2-2.2,1.8,0,4,2.6,2.4,12,6,22.6,8.2l3.8,1c3.2,1,6,3,5.2,7a4,4,0,0,1-1.6,2.4c-1.4,1-3.8,1-5.4,1a18.32,18.32,0,0,1-11.2-4,94,94,0,0,1-8.8-6.8l-3.2-3c-1.2-1.2-2-2.8-3.2-4-1.6-1.6-1.6.6-1.4,1.8,1,5,13.2,14.4,18.8,17.4l3.2,1.8a25.8,25.8,0,0,1,3.2,1.8c1.8,1.6,1.4,5.8-.4,7.4-2.2,2.2-7.2-.2-9.4-1.2-4.6-2.2-8.6-6.2-12-10.2a35.84,35.84,0,0,1,6.8-51.8,37,37,0,0,1,14.2-6.6c2.4-.4,7.8-1.4,9.2,1.2,1.2,2,.6,6.2-1.6,7.2-1,.6-2.4.6-3.6,1l-3.4,1c-6,1.6-20.6,7.4-22.6,12-.4,1.2-1.2,3.4.8,2.2,1.4-.8,2.6-2.2,4-3l3.8-2a109.72,109.72,0,0,1,10.2-4.2,22.73,22.73,0,0,1,5-1.2,20.37,20.37,0,0,1,7,.4C557.2,297,559.6,297.64,560.6,299Z" style="fill:#182755"/><path d="M558.6,226.64c0-.2,4.2,18-8.4,30.2-3.8,3.6-8.4,6.8-13.4,8-2.4.6-7.6,1.8-9.4-.4-1.4-1.8-1.2-5.4.8-6.6a17.3,17.3,0,0,1,3.4-1.4L535,255c6-2,19-11,19.8-16.8.2-1.4.2-4-1.4-2.2-1.2,1.4-1.8,3-3.2,4.4l-3.4,3.2a69.1,69.1,0,0,1-9.2,6.4,21.87,21.87,0,0,1-11.8,2.8c-1.6-.2-4-.2-5.2-1.2a4.2,4.2,0,0,1-1.4-2.2c-.4-3.6,2.4-5.2,5.6-6.2l3.8-.8c10.6-2,20-5.6,22.6-8.4s2-5.4-1.4-4.2c-3.4,1.4-13.6,6.8-23.2,7.8-9.8,1-11.4-2.4-11.4-2.4s.4-3.8,9.6-6.4c9.4-2.8,21-1.6,24.6-1.6s3.2-2.8-.2-4.4-13.6-1.2-24.2.8l-3.8.6c-3.4.4-6.6,0-7.4-3.6a3.27,3.27,0,0,1,.4-2.4c.8-1.4,2.8-2.4,4.4-3.2a24.44,24.44,0,0,1,6.8-2,22.66,22.66,0,0,1,5.2.2,54.2,54.2,0,0,1,11,2.4l4.2,1.6c1.6.6,3,2,4.6,2.8,2.2,1,1.2-1.4.4-2.6-2.8-5.2-18.4-8.2-24.6-8h-3.6a21.64,21.64,0,0,1-3.6,0c-2.2-.4-3.8-3.8-3.2-5.8.8-2.8,6-3.8,8.4-4,5.2-.8,10.6.4,15.6,2.4C555.6,208.44,558.8,226.84,558.6,226.64Z" style="fill:#182755"/><path d="M561.4,319s-1.6,4.2-11.4,3.4c-9.6-.8-20.2-5.8-23.6-6.8a2.54,2.54,0,0,0-1.2-.2l.2-2.2a3.27,3.27,0,0,0,1.4,0c3.6,0,15-2.2,24.6-.4C561,314.44,561.4,319,561.4,319Z" style="fill:#182755"/><path d="M536.4,370c9.4,15,1,31.6,1,31.4.2,0-7.4,17-24.6,19.4a31.64,31.64,0,0,1-15.6-1.4c-2.2-.8-7.2-3-7.2-6,0-2.2,2.2-5,4.6-4.8a23.25,23.25,0,0,1,3.6.8l3.4.8c6,1.8,21.8,2.4,25.8-1.8,1-1,2.6-3,.2-2.6-1.8.4-3.4,1.4-5.2,1.6l-4.4.4a70.24,70.24,0,0,1-11.2-.2,20.31,20.31,0,0,1-5-1.2,18.47,18.47,0,0,1-6-3.6c-1.2-1-3-2.4-3.6-4a3.25,3.25,0,0,1,.2-2.4c1.6-3.2,5-2.8,8-1.8l3.6,1.6c9.8,4.6,19.6,7.4,23.2,6.6,3.8-.8,4.8-3.2,1.2-4.2-3.6-.8-15-2.6-23.4-7.4s-7.8-8.6-7.8-8.6,2.4-3,11.6.4,17.8,11,20.8,13.2,4.2-.4,2.4-3.6-10-9-19.8-13.6l-3.6-1.8c-3-1.8-5.4-4-4-7.4a3.18,3.18,0,0,1,1.8-1.8c1.6-.6,3.8-.2,5.4,0a20.2,20.2,0,0,1,6.6,2.4,15.66,15.66,0,0,1,4,3.2c2.8,2.4,5,5.4,7.4,8.4l2.6,3.8c1,1.6,1.2,3.4,2,5,1,2.2,1.8-.4,1.8-1.8.4-5.8-9.8-17.6-15.2-21l-3-2.2a10.55,10.55,0,0,1-3-2.2c-1.6-1.8-1-5.2.8-6.6,2.4-1.8,7,.6,9.2,1.8A32.2,32.2,0,0,1,536.4,370Z" style="fill:#182755"/><path d="M532.8,174.84c2.4.2,4.2,3.8,4,6.2-.4,3.2-5.8,4-8.2,4.4-5.2,1-10.6.2-15.6-1.2a34.19,34.19,0,0,1-22.4-17.4,34.77,34.77,0,0,1-2.6-28.2c1.6-4.8,4-10,7.4-13.8,1.6-1.8,5.4-5.8,8.2-4.4,2.2,1,4.2,4.6,3,6.6a17.07,17.07,0,0,1-2.2,2.8l-2.2,2.8c-4.2,5-12.2,18.2-11.2,23,.2,1.2,1,3.4,2,1.2.8-1.6.8-3.4,1.6-5l2-4c1.8-3.2,3.6-6.4,5.6-9.4a21.23,21.23,0,0,1,3.4-4,20.71,20.71,0,0,1,5.8-3.8c1.6-.6,3.6-1.4,5.4-1a6.33,6.33,0,0,1,2.4,1.6c2.4,3.6.4,6.4-2.2,8.4l-3.2,2.4c-9,6-16.6,12.6-18.2,15.8s-.4,5.2,2.4,3,10.8-10.6,19.6-14.8,12-1,12-1,1.2,4.4-7.2,9.6c-8.4,5-19.6,7.2-23,8.4s-2.4,3.2,1.2,3.8l-.4,2.8c-2-.2-.6,1.6.4,2.4,3.8,3.4,19,3.8,25.4,3l3.6-.4C530.4,175.24,531.6,174.84,532.8,174.84Z" style="fill:#182755"/><path d="M535.6,162a4.59,4.59,0,0,1,.2,2.8c-.6,1.8-2.4,3-3.8,4a17.19,17.19,0,0,1-6.4,3,21.8,21.8,0,0,1-5.2.6,67.47,67.47,0,0,1-11-.4l-4.4-.4c-1.8-.2-3.2-1-5-1.4h-.2l.4-2.8h0c3.6.4,13.2-2.4,23.2-6.8l3.6-1.4C530.2,158.24,533.8,158,535.6,162Z" style="fill:#182755"/><path d="M496,437.44c2.2,1,7.2,3.2,6.8,6.4-.2,2.4-3,5.4-5.4,5a17,17,0,0,1-3.4-1.2l-3.4-1.2c-5.8-2.4-21-6-25.4-3.6-1,.6-2.6,1.8-1.2,2.2l-.2,2.8c-3.4-.4-4.8,1.4-1.8,3.2,3,2,13.4,7,20.2,14s4.4,11,4.4,11-3.8,2.4-11.2-3.8c-7.4-6.4-13-16.4-15.2-19.4s-3.8-1.2-3.2,2.4l-2.8.2c-.4-1.4-1.6.2-2.2,1.2-2.2,4.4,2.2,19.4,5,25.2l1.4,3.2a10.19,10.19,0,0,1,1.4,3.4c.6,2.4-2.2,5.4-4.6,5.8-3.2.4-5.6-4.4-6.8-6.4-2.4-4.6-3.4-10.2-3.8-15.2a35.61,35.61,0,0,1,35.8-38C485.8,434.64,491.4,435.24,496,437.44Z" style="fill:#182755"/><path d="M497.8,459.44a5.31,5.31,0,0,1-1,2.8c-2.8,3.2-6,2.2-8.8.4l-3.2-2.4c-8.4-6.8-17.2-12-20.6-12.4h-.4l.2-2.8h.6c1.6.2,3.4-.2,5.2,0l4.4.6a65.39,65.39,0,0,1,10.8,2.6,14.41,14.41,0,0,1,4.8,2,22.66,22.66,0,0,1,5.4,4.4C496.2,455.84,497.6,457.44,497.8,459.44Z" style="fill:#182755"/><path d="M441.2,121.24a226.94,226.94,0,1,1-160.4-66.4A225.41,225.41,0,0,1,441.2,121.24ZM506,281.64c0-124.2-101-225.2-225.2-225.2s-225.2,101-225.2,225.2,101,225.2,225.2,225.2S506,405.84,506,281.64Z" style="fill:#182755"/><path d="M474,74.84c0-.2,14,12,10.8,29.4-1,5.2-2.8,10.4-6.2,14.4-1.6,1.8-5,5.8-7.8,5-2.2-.6-4.2-3.6-3.2-5.8a14,14,0,0,1,2-3.2l2-3c3.8-5.2,9-19.8,6.2-25.2-.6-1.2-2.2-3.4-2.4-1-.2,1.8.2,3.6,0,5.4l-1,4.4a79.42,79.42,0,0,1-3.6,10.4,31.83,31.83,0,0,1-2.6,4.4,19.13,19.13,0,0,1-5.2,4.6c-1.4.8-3.4,2.2-5,2a3.69,3.69,0,0,1-2.4-1c-2.4-2.6-1.2-5.6,1-8.2l2.6-3c7.4-7.8,13-16.2,13.4-20,.4-3.6-1.6-5.6-3.6-2.4s-7,13.4-14.4,20c-7.2,6.6-10.6,4.8-10.6,4.8s-2-3.4,4-11c6-7.8,16-13.6,19-15.6,3-2.2,1-4.2-2.8-3.4s-11.8,6.8-19.2,14.8l-2.8,2.8c-2.4,2.2-5.4,3.8-8.2,1.4a4,4,0,0,1-1.2-2.2c-.2-1.6,1-3.6,1.8-5.2a22.82,22.82,0,0,1,4.2-5.6,24.25,24.25,0,0,1,4.4-3,65.39,65.39,0,0,1,10.2-4.4l4.2-1.2a49,49,0,0,1,5.4-.4c2.4-.4.2-1.8-1.2-2.4-5.2-2.4-19.6,4-24.6,8l-3,2a16.55,16.55,0,0,1-3,2.2c-2.2,1-5.2-.8-6-2.8-1-2.8,2.8-6.6,4.6-8.2a31.29,31.29,0,0,1,14-7.2C461,61.64,474.4,74.64,474,74.84Z" style="fill:#182755"/><path d="M473.2,478c2,2.6,3.2,5.8,0,8.8a4.21,4.21,0,0,1-2.6,1c-1.8,0-3.6-1.4-5-2.4a17,17,0,0,1-4.8-5.2,17.61,17.61,0,0,1-2.2-4.8c-1.2-3.6-2.2-7-3.2-10.6l-1-4.2c-.4-1.8,0-3.4-.2-5v-.4l2.8-.2c.8,3.6,6.4,12,13.6,20Z" style="fill:#182755"/><path d="M433.8,487.44c2.4,4.6,2.8,10.2,2.6,15.4-1,17.4-17.2,26-17.6,26,.2,0-15.8,9.6-31.4,1.4-4.6-2.4-9.2-6-11.8-10.4-1.4-2-4.2-6.6-2.4-9,1.2-1.8,4.8-2.8,6.6-1.2a16.13,16.13,0,0,1,2.4,2.8l2.2,2.8c3.8,5,16.4,14.8,22,13.6,1.4-.2,4-1,1.6-2-1.6-.8-3.6-.8-5.2-1.8l-3.8-2.2a49.14,49.14,0,0,1-8.8-6.8,20.16,20.16,0,0,1-3.4-3.8,23,23,0,0,1-2.8-6.4c-.4-1.6-1-3.8-.4-5.4a2.89,2.89,0,0,1,1.6-1.8c3.2-1.6,5.6.6,7.6,3.4l2,3.4c5.2,9.4,11.6,17.4,15,19s5.8.2,3.4-2.6S402.6,511,398.6,502c-4-8.8-1.4-11.6-1.4-11.6s3.8-1,9.2,7.2c5.6,8,8,19.4,9.2,22.8s3.6,2,4-1.6c.4-3.8-3-13.2-8.2-22.6l-1.8-3.6c-1.4-3-2-6.4,1-8.2a3.44,3.44,0,0,1,2.4-.4c1.6.4,3.2,2,4.4,3.2a20,20,0,0,1,4,5.8,14.34,14.34,0,0,1,1.4,5,51.19,51.19,0,0,1,1,11v4.4c0,1.8-1,3.6-1.2,5.2-.4,2.4,1.6.8,2.6-.4,3.8-4.4,2.2-19.8,0-26l-1.2-3.4a19,19,0,0,1-1.2-3.6c-.4-2.4,2.4-4.8,4.6-4.8C430.4,480.44,432.8,485.24,433.8,487.44Z" style="fill:#182755"/><path d="M429.8,50.44c1.4,2.8-2.4,6.6-4,8.4-3.6,3.8-8.6,6.4-13.4,8.2A35.27,35.27,0,0,1,384,66c-.2,0-13.6-5.4-18.6-21.4a37.34,37.34,0,0,1-2-15.6c.4-2.4,1-7.8,4-8.4,2.2-.4,6,1.2,6.4,3.6a10.92,10.92,0,0,1-.2,3.6l-.2,3.6c-.4,6.4.8,21.8,4.4,25.2.8.8,2.6,2,2.4.2H383c.6,2.4,2,3.2,3,1.6l2.4.2c-1.4,2.6.6,3.4,3.6,1.8,3.2-1.8,9.4-9.6,14.8-19L409,38c2-2.8,4.8-4.8,8.4-2.8a3.89,3.89,0,0,1,1.8,2.2c.6,1.8-.2,3.8-.8,5.4a22.18,22.18,0,0,1-3.4,6,32.36,32.36,0,0,1-3.8,3.6,92.59,92.59,0,0,1-9.2,6.2l-3.8,2.2c-1.6.8-3.2,1-4.8,1.8-2.2,1,.2,1.6,1.4,1.8,5,.6,17.6-8,22.4-12.4l2.8-2.4a29.86,29.86,0,0,1,2.8-2.4C425,46.64,428.8,48.44,429.8,50.44Z" style="fill:#182755"/><path d="M403.2,26.24s3.6,3-.2,12-11.8,17.2-13.8,20.2c-.2.2-.2.4-.4.6l-2.4-.2a9.75,9.75,0,0,0,.6-1.4c1-3.4,2.6-14.8,7.2-23.4C398.6,25.24,403.2,26.24,403.2,26.24Z" style="fill:#182755"/><path d="M386.8,20.84c4,1.6,4,5,3.2,8.2l-1.2,3.8c-3.8,10-6.2,20-5.6,23.6,0,.2.2.4.2.8h-2.8v-.4c-.4-1.6-1.4-3.2-1.6-5l-.6-4.4c-.4-3.6-.8-7.2-1-11a22,22,0,0,1,.4-5.2,15,15,0,0,1,2.6-6.4c1-1.4,2.2-3.4,3.8-4A3.76,3.76,0,0,1,386.8,20.84Z" style="fill:#182755"/><path d="M362.4,534.64c1.2,2.2,3.8,6.8,1.6,9.2-1.6,1.8-5.6,2.4-7.4.8a17.27,17.27,0,0,1-2-3.2l-2-3c-3.4-5.4-13.4-17.2-18.4-17.8-1.2-.2-3.6,0-1.8,1.4,1.2,1.2,3,1.8,4.2,3l3,3.2c2.4,2.6,5,5.6,7.2,8.4a32.89,32.89,0,0,1,2.8,4.4,19,19,0,0,1,1.8,6.8c0,1.6.2,4-.8,5.4a5.1,5.1,0,0,1-2.4,1.6c-4.2,1-6.2-1.8-7.4-4.8l-1.2-3.8c-2.8-10.4-6.8-19.8-9.2-22.2-2.4-2.2-4.4-2.2-4,.4l-2.2.2c-.4-2.4-2.4-1.8-3.8,1.2-1.6,3.4-2,13.4-.8,24l.2,4c0,3.4-1,6.6-5.2,7.2a3.81,3.81,0,0,1-2.8-.8c-1.4-1-2.2-3.2-2.6-4.8a16.47,16.47,0,0,1-.8-7,47.63,47.63,0,0,1,1-5.2,92.05,92.05,0,0,1,3.8-10.4l1.8-4c.8-1.6,2-2.8,2.8-4.2,1-2-1.2-1.2-2.2-.8-4.4,2.2-9.6,17-10.8,23.2l-.8,3.6a23.25,23.25,0,0,1-.8,3.6c-1,2.2-5,3-7.2,2-2.8-1.4-2-6.8-1.8-9.2a39,39,0,0,1,6-14.6,35.28,35.28,0,0,1,23.6-15.8,36,36,0,0,1,27.6,6.4A38,38,0,0,1,362.4,534.64Z" style="fill:#182755"/><path d="M340.6,17.84c2.4,4.8,4,10,3.6,15.2-.2,2.4-.6,7.8-3.4,8.8-2,.8-5.4-.4-6-2.8a10.92,10.92,0,0,1-.2-3.6l-.2-3.6c-.2-6.4-4.6-21.2-9.8-24-1.2-.6-3.8-1.4-2.4.6a35.37,35.37,0,0,1,3.2,4.4l1.8,4.2a53.49,53.49,0,0,1,3.2,10.6,21.8,21.8,0,0,1,.6,5.2,19.66,19.66,0,0,1-1.4,6.8c-.6,1.6-1.4,3.6-2.8,4.6a3.61,3.61,0,0,1-2.4.6c-3.6-.6-4.2-3.8-4.2-7.2l.2-4c1.2-10.8.8-20.8-1-24s-4.6-3.6-4.4,0,2.2,15,.2,24.6-5.8,10.2-5.8,10.2-3.6-1.6-3.2-11.2c.2-9.8,4.8-20.2,6-23.8,1-3.4-1.6-3.8-4.2-1.2-2.6,2.8-5.4,12.6-6.6,23.2l-.6,4c-.6,3.2-2.2,6.2-5.8,6a3,3,0,0,1-2.2-1.2c-1-1.2-1.4-3.4-1.6-5.2a20.73,20.73,0,0,1,.2-7,21.28,21.28,0,0,1,1.8-5,92.34,92.34,0,0,1,5.6-9.6l2.8-3.6c1.2-1.4,2.8-2.2,4-3.6,1.8-1.8-1-1.6-2.2-1.2-5.8,1.2-13.6,14.8-15.2,21l-1,3.4A25.33,25.33,0,0,1,286,33c-1.2,2.2-4.8,2.4-6.6,1.2-2.4-1.6-1.6-6.8-1.2-9.2.8-5.2,3.6-10,7-14C296.4-2.56,314.8.24,314.6.24,314.2.44,332.8,1.84,340.6,17.84Z" style="fill:#182755"/><path d="M334.8,548.64c1.2,9.6-3,11.6-3,11.6s-4.6-.2-6.8-9.8-.6-21-.8-24.6a2.54,2.54,0,0,0-.2-1.2l2.2-.2c0,.2.2.6.2.8C328,528.84,333.6,539,334.8,548.64Z" style="fill:#182755"/><path d="M281.6,528.84c2.4,1.6,1.6,6.8,1.2,9.2a31.29,31.29,0,0,1-7.2,14c-11.2,13.6-29.6,10.8-29.6,10.6.2.2-18.4-1.6-26-17.4a31.51,31.51,0,0,1-3.6-15.2c.2-2.4.6-7.8,3.4-8.8,2-.8,5.4.4,6,2.8a21.74,21.74,0,0,1,.2,3.6l.2,3.6c.2,6.4,4.4,21.4,9.8,24,1.2.6,3.8,1.6,2.4-.6-1-1.6-2.4-2.8-3.2-4.4l-1.8-4.2a71.25,71.25,0,0,1-3.2-10.6,15.27,15.27,0,0,1-.4-5.2,19.66,19.66,0,0,1,1.4-6.8c.6-1.6,1.4-3.6,2.8-4.6a3.61,3.61,0,0,1,2.4-.6c3.6.6,4.2,3.8,4.2,7.2l-.4,4c-1.4,10.8-1,21,1,24,1.8,3.2,4.6,3.6,4.4,0s-2.2-15-.2-24.6,5.8-10.2,5.8-10.2,3.6,1.6,3.2,11.4-5,20.2-6.2,23.8c-1,3.4,1.6,3.8,4.2,1.2,2.6-2.8,5.4-12.6,6.8-23.2l.6-4c.6-3.2,2.2-6.2,5.8-6a3,3,0,0,1,2.2,1.2c1,1.2,1.4,3.4,1.6,5.2a20.73,20.73,0,0,1-.2,7,21.28,21.28,0,0,1-1.8,5,92.34,92.34,0,0,1-5.6,9.6l-2.8,3.6c-1.2,1.4-2.8,2.2-4.2,3.6-1.8,1.8,1,1.6,2.2,1.2,5.8-1.2,13.6-14.8,15.2-21l1-3.4a25.33,25.33,0,0,1,1.2-3.6C276,527.84,279.6,527.64,281.6,528.84Z" style="fill:#182755"/><path d="M264.4,7.24c2.8,1.4,2,6.8,1.8,9.2-.6,5.2-3.2,10.2-6,14.6a36.91,36.91,0,0,1-23.6,16,35.47,35.47,0,0,1-27.8-6.4c-4.2-3.2-8.2-6.8-10.8-11.4-1.2-2.2-3.8-6.8-1.8-9.2,1.6-1.8,5.6-2.6,7.4-.8a9.85,9.85,0,0,1,2,3l2,3c3.4,5.4,13.4,17,18.4,17.8,1.2.2,3.6,0,1.8-1.4-1.2-1.2-3-1.8-4.2-3l-3-3.2q-3.9-4.2-7.2-8.4a32.89,32.89,0,0,1-2.8-4.4,20.16,20.16,0,0,1-1.8-6.8c0-1.6-.2-4,.8-5.4a3.48,3.48,0,0,1,2.4-1.6c4.2-1,6.2,1.8,7.4,4.8l1.2,3.8c2.8,10.4,6.8,19.6,9.4,22.2,2.4,2.2,4.4,2.2,4-.4l2.2-.2c.4,2.2,2.2,1.8,3.6-.6l2.8.4c-1,2.2,1.2,1.2,2.2.8,4.4-2.2,9.6-17,10.8-23.2l.8-3.6a11.68,11.68,0,0,1,.8-3.6C258.2,6.84,262.2,6,264.4,7.24Z" style="fill:#182755"/><path d="M251.2,7.84a16.47,16.47,0,0,1,.8,7,47.63,47.63,0,0,1-1,5.2,92.05,92.05,0,0,1-3.8,10.4l-1.8,4c-.8,1.6-2,2.8-2.8,4.2l-2.8-.4c0-.2.2-.4.2-.6,1.4-3.2,1.8-13.4.8-24.2l-.2-4c0-3.4,1-6.6,5.2-7.2a3.81,3.81,0,0,1,2.8.8C250,4.24,250.6,6.44,251.2,7.84Z" style="fill:#182755"/><path d="M236.2,38.84,234,39a8.66,8.66,0,0,1-.2-1c-1.2-3.4-6.8-13.6-8.2-23.2s2.8-11.6,2.8-11.6,4.6.2,6.8,9.8c2.2,9.4.8,21,.8,24.6A2.54,2.54,0,0,1,236.2,38.84Z" style="fill:#182755"/><path d="M197.2,519a37.34,37.34,0,0,1,2,15.6c-.4,2.4-1,7.8-4,8.4-2.2.4-6-1.2-6.4-3.6a10.92,10.92,0,0,1,.2-3.6l.2-3.6c.4-6.4-.8-21.8-4.4-25.2-1-.8-2.8-2.2-2.4,0l-2.8.4c-.4-2.8-2-4-3-2.6l-2.4-.4c.8-2.2-1.2-2.8-3.8-1.2-3.2,1.8-9.4,9.8-14.8,19l-2.2,3.4c-2,2.8-4.8,5-8.4,2.8a3.89,3.89,0,0,1-1.8-2.2c-.6-1.8.2-3.8.6-5.4a22.18,22.18,0,0,1,3.4-6,32.36,32.36,0,0,1,3.8-3.6,105.41,105.41,0,0,1,9.2-6.2l3.8-2.2c1.6-.8,3.2-1,4.8-1.8,2-1-.2-1.6-1.4-1.8-5-.6-17.6,8-22.4,12.4l-2.6,2.4a11.06,11.06,0,0,1-2.8,2.4c-2.2,1.2-5.8-.6-6.8-2.8-1.4-2.8,2.4-6.6,4-8.4,3.6-3.8,8.6-6.4,13.2-8.2a34.36,34.36,0,0,1,28.4,1C178.6,497.64,192,503,197.2,519Z" style="fill:#182755"/><path d="M186.8,43c1.2,2,4,6.6,2.4,9-1.2,1.8-4.8,2.6-6.6,1.2a16.13,16.13,0,0,1-2.4-2.8l-2.4-2.8c-3.8-5-16.2-14.8-22-13.8-1.4.2-4,1-1.6,2,1.6.8,3.6.8,5.2,1.8l3.8,2.2a49.14,49.14,0,0,1,8.8,6.8,30.74,30.74,0,0,1,3.4,3.8,25.94,25.94,0,0,1,2.8,6.4c.4,1.6,1,3.8.4,5.4A2.89,2.89,0,0,1,177,64c-3.2,1.6-5.6-.6-7.6-3.4l-2-3.4c-5.2-9.4-11.6-17.4-15-19s-5.8-.2-3.4,2.6,10.6,10.8,14.6,19.8c4,8.8,1.2,11.6,1.2,11.6s-3.8.8-9.2-7.2-8-19.4-9-22.8c-1.2-3.4-3.6-2.2-4,1.6s2.8,13.2,8.2,22.6l1.8,3.6c1.4,3,2,6.4-1,8.4a3.44,3.44,0,0,1-2.4.4c-1.6-.4-3.2-2-4.4-3.2a20,20,0,0,1-4-5.8,14.34,14.34,0,0,1-1.4-5,51.19,51.19,0,0,1-1-11l.2-4.4c0-1.8,1-3.4,1.2-5.2.4-2.4-1.6-.8-2.6.4-3.8,4.4-2.2,20,0,26l1.2,3.4a19,19,0,0,1,1.2,3.6c.4,2.4-2.4,4.8-4.6,4.8-3,.2-5.4-4.6-6.4-6.8-2.2-4.6-2.8-10.2-2.4-15.4,1.2-17.4,17.4-26,17.6-26-.2-.2,15.8-9.4,31.4-1.2A26.68,26.68,0,0,1,186.8,43Z" style="fill:#182755"/><path d="M185.6,527.24a22,22,0,0,1-.4,5.2,18,18,0,0,1-2.6,6.4c-1,1.4-2.2,3.4-3.8,4a4.47,4.47,0,0,1-2.8,0c-4-1.6-4-5-3.2-8.2l1.2-3.8c3.8-10.2,6-20,5.4-23.6l2.8-.4c.4,1.8,1.2,3.2,1.6,5l.6,4.2A106.41,106.41,0,0,1,185.6,527.24Z" style="fill:#182755"/><path d="M174,504.24l2.4.4a11.88,11.88,0,0,0-.8,1.6c-1,3.4-2.4,14.8-7,23.6-4.6,8.6-9.2,7.8-9.2,7.8s-3.6-2.8.2-12c3.8-9,11.6-17.2,13.8-20.2C173.8,504.84,174,504.64,174,504.24Z" style="fill:#182755"/><path d="M137,482.64c1,2.8-2.8,6.6-4.4,8.2a30.29,30.29,0,0,1-14,7.2c-17,4.2-30.4-8.6-30.2-8.8,0,.2-14-12-11-29.4,1-5.2,2.8-10.4,6.2-14.4,1.6-1.8,5-6,7.8-5.2,2.2.6,4.2,3.6,3.2,5.8a14,14,0,0,1-2,3.2l-2,3c-3.6,5.2-8.8,20-6.2,25.2.6,1.2,2.2,3.4,2.4.8.2-1.8-.4-3.6,0-5.4l1-4.4a94.36,94.36,0,0,1,3.6-10.6,31.83,31.83,0,0,1,2.6-4.4,19.13,19.13,0,0,1,5.2-4.6c1.4-.8,3.2-2.2,5-2.2a3.69,3.69,0,0,1,2.4,1c2.4,2.6,1.2,5.6-1,8.4l-2.6,3c-7.4,8-13,16.4-13.4,20-.4,3.8,1.6,5.6,3.6,2.4s7-13.4,14.2-20,10.6-4.8,10.6-4.8,2,3.4-4,11c-6,7.8-16,13.6-19,15.8s-1,4,2.8,3.4c3.8-.8,11.8-7,19-14.8l2.8-2.8c2.4-2.2,5.4-3.8,8.2-1.4A4,4,0,0,1,129,470c.2,1.6-1,3.6-1.6,5.2a22.82,22.82,0,0,1-4.2,5.6,20.18,20.18,0,0,1-4.2,3,50.69,50.69,0,0,1-10.2,4.4l-4.2,1.2a49,49,0,0,1-5.4.4c-2.4.4-.2,1.8,1.2,2.4,5.2,2.4,19.8-4.2,24.6-8l2.8-2.2a16.55,16.55,0,0,1,3-2.2C133,478.84,136.2,480.44,137,482.64Z" style="fill:#182755"/><path d="M117.6,90.24a35.64,35.64,0,0,1-9.8,26.8,36.37,36.37,0,0,1-26.2,11c-5.2-.2-10.8-.8-15.4-3-2.2-1-7-3.4-6.8-6.4.2-2.4,3.2-5.2,5.6-5a17,17,0,0,1,3.4,1.2l3.4,1.2c5.8,2.4,21,6,25.4,3.6,1-.6,2.6-1.8,1.2-2.2l.4-2.8c3.4.4,4.8-1.4,1.8-3.4s-13.4-7-20.2-14c-6.6-7-4.4-11-4.4-11s3.8-2.4,11.2,3.8c7.4,6.4,12.8,16.6,15,19.4,2.2,3,3.8,1.2,3.2-2.4l2.8-.6c.4,2.2,1.6.4,2.2-.8,2.2-4.4-2.2-19.4-4.8-25.2L104.2,77a10.19,10.19,0,0,1-1.4-3.4c-.4-2.4,2.2-5.4,4.6-5.8,3.2-.4,5.6,4.4,6.8,6.4A58.79,58.79,0,0,1,117.6,90.24Z" style="fill:#182755"/><path d="M108,106.84l-2.8.6c-.8-3.6-6.2-11.8-13.4-20l-2.4-3c-2-2.8-3.2-6,0-8.8a4.21,4.21,0,0,1,2.6-1c1.8,0,3.6,1.4,5,2.4a23.94,23.94,0,0,1,4.8,5.2A20.88,20.88,0,0,1,104,87a110.34,110.34,0,0,1,3.2,10.8l1,4.2A12.56,12.56,0,0,0,108,106.84Z" style="fill:#182755"/><path d="M98.6,114.84l-.4,2.8h-.4c-1.8-.2-3.4.2-5.2,0l-4.4-.8a70.62,70.62,0,0,1-10.8-2.6,14.41,14.41,0,0,1-4.8-2,22.66,22.66,0,0,1-5.4-4.4c-1-1.2-2.6-3-2.6-4.8a4.21,4.21,0,0,1,1-2.6c2.8-3.2,6-2.2,8.8-.4l3.2,2.4c8.4,6.8,17,12,20.6,12.4Z" style="fill:#182755"/><path d="M70.6,395.44a35.18,35.18,0,0,1,2.4,28.2c-1.6,4.8-4,10-7.6,13.8-1.6,1.8-5.4,5.8-8.2,4.4-2.2-1-4.2-4.6-3-6.6.6-1.2,1.6-2,2.2-3l2.2-2.8c4.2-5,12.2-18,11.2-23-.2-1.2-1-3.4-2-1.2-.6,1.6-.8,3.4-1.6,5l-2,4a91.38,91.38,0,0,1-5.8,9.4,21.23,21.23,0,0,1-3.4,4,19.06,19.06,0,0,1-6,3.8c-1.6.6-3.6,1.4-5.4,1a6.33,6.33,0,0,1-2.4-1.6c-2.4-3.6-.2-6.4,2.4-8.4l3.2-2.2c9-5.8,16.6-12.6,18.2-15.8s.4-5.2-2.4-3S51.8,412,43,416.24s-12,.8-12,.8-1-4.4,7.2-9.6c8.4-5,19.6-7,23-8.2s2.4-3.2-1.2-3.8l.4-2.8c2,.2.6-1.6-.4-2.4-3.6-3.4-19-4-25.4-3.2l-3.6.4a22,22,0,0,1-3.6.4c-2.4-.2-4.2-3.8-4-6.2.4-3,5.8-4,8.2-4.4,5.2-1,10.6,0,15.6,1.2A34,34,0,0,1,70.6,395.44Z" style="fill:#182755"/><path d="M69,165a3.25,3.25,0,0,1-.2,2.4c-1.6,3.2-5,2.8-8.2,1.8l-3.6-1.6c-9.8-4.6-19.6-7.2-23.2-6.6-3.8.6-4.8,3.2-1.2,4.2,3.6.8,15,2.4,23.4,7.4,8.4,4.8,8,8.6,8,8.6s-2.4,3-11.6-.4-17.8-11-20.8-13.2-4.2.4-2.4,3.6,10.2,9,20,13.4l3.6,1.8c3,1.6,5.4,4,4,7.4a3.18,3.18,0,0,1-1.8,1.8c-1.6.6-3.8.2-5.4,0a18.67,18.67,0,0,1-6.6-2.4,21.23,21.23,0,0,1-4.2-3.2,49.49,49.49,0,0,1-7.4-8.4L28.8,178c-1-1.6-1.4-3.4-2.2-5-1.2-2.2-1.8.4-1.8,1.8-.4,5.8,9.8,17.4,15.2,21l3,2c1,.8,2.2,1.2,3,2.2,1.6,1.8,1,5.2-.8,6.6-2.4,1.8-7-.6-9.2-1.8-4.6-2.4-8.4-6.6-11.2-11-9.6-15-1.2-31.6-1.2-31.4,0-.4,7.4-17,24.6-19.4,5.2-.8,10.8-.6,15.6,1.4,2.2,1,7.2,3,7.2,6,0,2.2-2.2,5-4.6,4.8a23.25,23.25,0,0,1-3.6-.8l-3.4-.8c-6-1.8-21.8-2.4-25.8,1.8-1,1-2.6,3.2-.2,2.6,1.8-.4,3.4-1.4,5.2-1.6L43,156a70.24,70.24,0,0,1,11.2.2,14.1,14.1,0,0,1,5,1.2,22.18,22.18,0,0,1,6,3.4C66.8,162,68.6,163.44,69,165Z" style="fill:#182755"/><path d="M61.4,392l-.4,2.8h0c-3.6-.4-13.4,2.4-23.2,6.6l-3.6,1.4c-3.2,1-6.6,1.2-8.4-2.6a4.59,4.59,0,0,1-.2-2.8c.6-1.8,2.4-3,3.8-4a18.79,18.79,0,0,1,6.4-3,21.8,21.8,0,0,1,5.2-.6,99.29,99.29,0,0,1,11,.4l4.4.4a36.49,36.49,0,0,1,5,1.4Z" style="fill:#182755"/><path d="M47.6,341.64a3.27,3.27,0,0,1-.4,2.4c-.8,1.4-2.8,2.4-4.4,3.2a25.19,25.19,0,0,1-6.6,2A22.66,22.66,0,0,1,31,349a65,65,0,0,1-10.8-2.4L16,345c-1.6-.6-3-2-4.6-2.8-2.2-1.2-1.2,1.4-.4,2.6,2.8,5.2,18.2,8.4,24.6,8h3.6a21.64,21.64,0,0,1,3.6,0c2.2.4,3.8,3.8,3.2,5.8-.8,2.8-6,3.6-8.4,4-5.2.8-10.8-.4-15.6-2.4-16.2-6.6-19.4-25-19.2-24.8,0,.2-4.2-18,8.6-30.2,3.8-3.6,8.4-6.8,13.4-8,2.4-.6,7.6-1.8,9.4.6,1.4,1.8,1.2,5.4-.8,6.6a17.3,17.3,0,0,1-3.4,1.4l-3.4,1.4c-6,2-18.8,10.8-19.8,16.6-.2,1.4-.2,4,1.4,2.2,1.2-1.4,1.8-3,3.2-4.2l3.4-3a53.05,53.05,0,0,1,9.2-6.2,20.29,20.29,0,0,1,4.8-2,20.39,20.39,0,0,1,7-.8c1.6.2,3.8.2,5.2,1.2a4.2,4.2,0,0,1,1.4,2.2c.4,3.6-2.4,5.2-5.6,6.2l-3.8.8c-10.6,2-20,5.6-22.6,8.2-2.6,2.8-2,5.4,1.4,4s13.6-6.8,23.4-7.8S46.6,327,46.6,327s-.4,3.8-9.8,6.4-21,1.6-24.6,1.4c-3.6,0-3.2,2.8.2,4.4s13.6,1.4,24.2-.8l3.8-.6C43.6,337.64,46.8,338.24,47.6,341.64Z" style="fill:#182755"/><path d="M36,223.64a35.88,35.88,0,0,1,8,27.2,35.26,35.26,0,0,1-14.6,24.4c-4.2,3-9.2,5.8-14.2,6.8-2.4.4-7.6,1.6-9.2-1.2-1.2-2-.6-6,1.6-7.2a24.18,24.18,0,0,1,3.6-1l3.4-1c6-1.6,20.4-7.6,22.6-12.2.4-1.2,1.2-3.4-.8-2.2-1.4.8-2.6,2.2-4.2,3l-3.8,2c-3.4,1.6-6.8,3.2-10.2,4.4a15.21,15.21,0,0,1-5,1.2,20.37,20.37,0,0,1-7-.4c-1.6-.4-3.8-1-5-2.4a3.37,3.37,0,0,1-.8-2.8c.4-4.2,3.6-5.4,6.8-5.6h4c10.8.4,20.8-.4,24-2.2,2.8-1.4,3.4-3.4,1.2-3.8l.2-2.2c2.2.2,2.2-1.8-.2-4-2.6-2.4-12-5.8-22.6-8.2l-3.8-1c-3.2-1-6-2.8-5.2-7a4,4,0,0,1,1.6-2.4c1.4-1,3.8-1,5.4-1a16,16,0,0,1,6.8,1.4,26.77,26.77,0,0,1,4.6,2.6,73.58,73.58,0,0,1,8.8,6.8l3.2,2.8c1.4,1.2,2,2.8,3.2,4,1.6,1.6,1.6-.6,1.4-1.8-.8-5-13.2-14.4-18.8-17.4l-3.2-1.8a25.8,25.8,0,0,1-3.2-1.8c-1.8-1.6-1.4-5.8.4-7.4,2.2-2.2,7.2.2,9.4,1.2C28.6,215.84,32.6,219.84,36,223.64Z" style="fill:#182755"/><path d="M36.2,248.84,36,251a3.27,3.27,0,0,0-1.4,0c-3.6.2-15,2.2-24.6.6-9.6-1.8-10-6.2-10-6.2s1.6-4.2,11.4-3.6c9.6.8,20.2,5.8,23.6,6.8A2.54,2.54,0,0,0,36.2,248.84Z" style="fill:#182755"/></g></g></g></g></svg>