<svg xmlns="http://www.w3.org/2000/svg" width="619.2" height="617.4" viewBox="0 0 619.2 617.4"><title>2_inner_gears_619 (2)</title><g id="Layer_2" data-name="Layer 2"><g id="Layer_1-2" data-name="Layer 1"><g id="_2_inner_gears_619" data-name="2_inner_gears_619"><path d="M262,607c-.8,4.4-3.6,7.6-6.6,7s-4.6-4.4-3.8-9h0c-1,3.8-3.8,6.6-6.6,5.8-2.8-.6-4.2-4-3.6-8h0c-1,4.4-4.2,7.4-7,6.6-3-.6-4.4-4.8-3.2-9.2h0c-1.4,3.8-4.2,6.2-7,5.4-2.6-.8-4-4.2-3-8.2h0c-1.4,4.4-4.6,7-7.6,6-2.8-1-4-5.2-2.4-9.4h0c-1.6,3.8-4.8,5.8-7.4,5-2.6-1-3.6-4.6-2.4-8.4h0c-1.6,4.2-5,6.8-8,5.6-2.8-1.2-3.6-5.2-1.8-9.4h0c-1.8,3.6-5,5.4-7.6,4.2s-3.2-4.8-1.8-8.6h0c-1.8,4.2-5.6,6.4-8.4,5s-3.2-5.6-1.2-9.6h0c-2.2,3.4-5.4,5-8,3.8s-3-5-1.4-8.8h0c-2.2,4-6,5.8-8.6,4.4a4.83,4.83,0,0,1-2.2-4.4,10.49,10.49,0,0,1,1.6-5.2c-2.4,3.2-5.8,4.8-8.2,3.2s-2.6-5.2-.6-8.8h0c-2.4,3.8-6.4,5.6-9,3.8-2.4-1.8-2.4-6,.2-9.8h0c-2.6,3-6.2,4.2-8.4,2.6s-2.2-5.2-.2-8.8h0c-2.8,3.6-6.8,5-9.2,3.2l-.8-.8c-1.6-2-1-5.8,1.6-9h0c-2.8,2.8-6.4,4-8.6,2-2-1.8-1.8-5.6.6-8.8h0c-3,3.4-7.2,4.6-9.4,2.6-2.4-2-1.6-6.4,1.6-9.6h0c-3,2.8-6.6,3.4-8.6,1.4s-1.6-5.6,1.2-8.6h0c-3.2,3.2-7.4,4-9.4,1.8-2.2-2.2-1.2-6.4,2.2-9.4h0c-3.2,2.4-7,3-8.8.8-1.8-2-1-5.8,1.8-8.6h0c-3.4,3-7.6,3.6-9.6,1.2-2-2.2-.6-6.4,2.8-9.2h0c-3.4,2.2-7,2.4-8.8.2s-.6-5.8,2.4-8.4h0c-3.6,2.8-7.8,3-9.6.6s-.2-6.4,3.4-9h0c-3.4,2-7.2,2-8.8-.4s-.2-5.8,3-8.4h0c-3.8,2.4-8,2.4-9.8-.2-1.6-2.6.2-6.4,4-8.8h0c-3.6,1.8-7.2,1.4-8.6-1s.2-5.8,3.4-8h0c-4,2.2-8.4,2-9.6-.8-1.4-2.8.8-6.4,4.8-8.4h0c-3.8,1.6-7.4,1-8.6-1.6-1.4-2.4.6-5.8,4.2-7.8h0c-4.2,2-8.4,1.2-9.6-1.6s1-6.4,5.2-8h0c-3.8,1.2-7.4.4-8.4-2.2s1-5.8,4.6-7.6h0c-4.2,1.6-8.4.8-9.6-2.2-1-2.8,1.6-6.2,6-7.8h0c-4,1-7.4-.2-8.4-2.8s1.4-5.6,5-7.2h0c-4.4,1.4-8.4.2-9.2-2.8s2-6.2,6.4-7.2h0c-4,.8-7.6-.6-8.2-3.4s1.8-5.6,5.6-6.8h0c-4.4,1-8.4-.4-9.2-3.4s2.4-6,6.8-6.8h0c-4,.4-7.4-1.2-7.8-4s2-5.4,6-6.4h0c-4.6.8-8.4-1-8.8-4.2-.4-3,2.8-5.8,7.4-6.4h0c-4,.2-7.2-1.6-7.6-4.4-.2-2.8,2.6-5.2,6.6-6h0c-4.6.4-8.2-1.6-8.4-4.8-.2-3,3.2-5.6,7.6-5.8h0c-4-.2-7-2.2-7.2-5,0-2.8,2.8-5,6.8-5.4h0c-4.6,0-8.2-2.2-8.2-5.2s3.8-5.4,8.2-5.2h0c-4-.4-7-2.6-6.8-5.4,0-2.8,3.2-4.8,7.2-5h0C4,293.6.6,291,1,288c.2-3,4-5.2,8.4-4.8h0c-4-.6-6.8-3.2-6.6-6,.4-2.8,3.6-4.6,7.6-4.4h0c-4.4-.6-7.8-3.4-7.4-6.4s4.2-4.8,8.8-4.2h0c-4-1-6.4-3.6-6-6.4s3.8-4.4,7.8-4h0C9.2,251,6,248,6.8,245c.6-3,4.8-4.4,9.2-3.4h0c-3.8-1.2-6.2-4-5.6-6.8s4.2-4,8.2-3.4h0c-4.4-1.2-7.2-4.4-6.4-7.2.8-3,4.8-4.2,9.2-2.8h0c-3.8-1.6-6-4.4-5-7.2.8-2.6,4.4-3.8,8.4-2.8h0c-4.2-1.4-6.8-4.8-6-7.8,1-2.8,5.2-3.8,9.6-2.2h0c-3.6-1.8-5.6-5-4.6-7.6s4.6-3.6,8.4-2.2h0c-4.2-1.8-6.4-5.4-5.2-8.2s5.4-3.4,9.6-1.6h0c-3.4-2-5.4-5.4-4.2-7.8s5-3.2,8.8-1.6h0c-4-2-6.2-5.8-4.8-8.4,1.4-2.8,5.8-3,9.6-.8h0c-3.4-2.2-4.8-5.6-3.4-8s5-2.8,8.6-1h0c-4-2.4-5.8-6.2-4-8.8,1.6-2.6,5.8-2.6,9.8-.2-3.8-2.4-5.6-6.4-3.8-9,1.8-2.4,6-2.4,9.8.2h0c-3.2-2.6-4.2-6.2-2.6-8.4s5.4-2.2,8.8-.2h0c-3.6-2.8-5-6.8-3.2-9.2s6.2-2,9.6.8c-3.6-2.8-5-7-2.8-9.2,2-2.4,6.2-1.8,9.6,1.2h0c-2.8-2.8-3.6-6.6-1.8-8.6,1.8-2.2,5.6-1.6,8.8.8h0c-3.4-3.2-4.2-7.2-2.2-9.4,2.2-2.2,6.2-1.4,9.4,1.8h0c-2.6-3-3-6.8-1-8.6,2-2,5.6-1.2,8.6,1.4h0c-3.2-3.2-3.8-7.6-1.6-9.6,2.4-2,6.4-.8,9.4,2.6h0c-2.4-3.2-2.6-7-.6-8.8s5.8-.8,8.6,2h0c-2.8-3.6-3.2-7.8-.8-9.6s6.4-.6,9.2,3.2h0c-2.2-3.4-2.2-7.2,0-8.8s5.8-.4,8.4,2.6h0c-2.6-3.8-2.8-8-.2-9.8,2.6-1.6,6.4,0,9,3.8h0c-2-3.6-1.6-7.2.6-8.8,2.4-1.6,5.8-.2,8.2,3.2h0c-2.4-3.8-2.2-8.2.6-9.6,2.6-1.6,6.4.4,8.6,4.4h0c-1.6-3.6-1.2-7.4,1.2-8.8,2.4-1.2,5.8.4,8,3.8h0c-2-4-1.6-8.4,1.2-9.6,2.6-1.4,6.4,1,8.4,5h0c-1.4-3.8-.6-7.4,2-8.6s5.8.8,7.6,4.2h0c-1.8-4.2-1-8.4,1.8-9.4,2.8-1.2,6.4,1.4,8,5.6h0c-1.2-3.8-.2-7.6,2.4-8.4s5.8,1.2,7.4,5h0c-1.4-4.2-.4-8.4,2.4-9.4s6.2,1.6,7.6,6h0c-.8-4,.4-7.4,3-8.2s5.6,1.6,7,5.4h0c-1.2-4.4.2-8.6,3.2-9.2s6.2,2.2,7.2,6.6h0c-.6-4,1-7.4,3.6-8,2.8-.6,5.6,2,6.6,5.8h0C251.4,9,253,5,256,4.6c3-.6,6,2.6,6.6,7h0c-.2-4,1.4-7.4,4.2-7.6,2.8-.4,5.4,2.4,6.2,6.2h0c-.6-4.6,1.4-8.4,4.4-8.8s5.8,3.2,6,7.6h0c0-4,2-7.2,4.8-7.4s5.2,2.6,5.8,6.6h0c-.2-4.6,2-8.2,5-8.2s5.4,3.4,5.6,8h0c.2-4,2.4-7,5.2-7.2,2.8,0,5,3.2,5.2,7.2h0c0-4.6,2.4-8,5.6-8,3,0,5.2,3.6,5,8.2h0c.6-4,3-6.8,5.6-6.6C334,1.8,336,5,336,9h0c.4-4.4,3-8,6-7.6s5,4.2,4.4,8.8h0c.8-4,3.4-6.6,6.2-6.2s4.6,3.6,4.2,7.6h0c.8-4.4,3.6-7.6,6.6-7s4.6,4.4,3.8,8.8h0c1-3.8,3.8-6.6,6.6-5.8,2.8.6,4.2,4,3.6,8h0c1-4.4,4.2-7.4,7-6.6,3,.6,4.4,4.8,3.2,9.2h0c1.4-3.8,4.2-6,7-5.4,2.6.8,4,4.2,3,8.2h0c1.4-4.4,4.6-7.2,7.6-6.2,2.8,1,4,5.2,2.4,9.4h0c1.6-3.8,4.6-5.8,7.4-5,2.6,1,3.6,4.6,2.4,8.4h0c1.4-3.6,4-5.8,6.6-5.8a3.4,3.4,0,0,1,1.4.2c2.8,1.2,3.6,5.2,1.8,9.4h0c1.8-3.6,5-5.4,7.6-4.2s3.4,4.8,2,8.6h0c2-4,5.6-6.4,8.4-5s3.2,5.6,1.2,9.6h0c2.2-3.4,5.4-5,8-3.8s3,5,1.2,8.6h0c2.2-4,6-6,8.6-4.4s2.8,5.8.6,9.6h0c2.4-3.4,5.8-4.8,8.2-3.2s2.6,5.2.6,8.8h0c2.4-3.8,6.4-5.6,9-3.8,2.4,1.8,2.4,6-.2,9.8h0c2.6-3.2,6.2-4.2,8.4-2.6s2.2,5.4.2,8.8h0c2.8-3.6,6.8-5,9.2-3.2s2,6.2-.8,9.6h0c2.8-2.8,6.4-4,8.6-2,2,1.8,1.8,5.6-.6,8.8h0c3-3.4,7.2-4.6,9.4-2.6s1.6,6.4-1.6,9.6h0c3-2.6,6.6-3.4,8.6-1.4s1.6,5.6-1,8.6h0c3.2-3.2,7.4-4,9.4-1.8.2.2.4.4.4.6,1.4,2.4.4,6-2.6,8.8h0c3.2-2.4,7-3,8.8-.8s1,5.8-1.8,8.6h0c3.4-3,7.6-3.6,9.6-1.2,2,2.2.6,6.4-2.8,9.2h0c3.4-2.2,7-2.4,8.8-.2s.8,5.8-2.2,8.4h0c3.6-2.8,8-3,9.6-.6,1.8,2.4.2,6.4-3.4,9h0c3.4-2,7.2-2,8.8.4s.2,5.8-3,8.4h0c3.8-2.4,8-2.4,9.8.2,1.6,2.6-.2,6.4-4,8.8h0c3.6-1.8,7.2-1.4,8.6,1s-.2,5.8-3.4,8h0c4-2.2,8.4-2,9.6.8,1.4,2.8-.6,6.4-4.8,8.4,4-2,8.2-1.6,9.6,1.2,0,.2.2.2.2.4,1,2.6-1.4,6.2-5.2,7.8h0c3.8-1.4,7.4-.6,8.6,2s-.6,5.8-4.2,7.6h0c4.2-1.8,8.4-1,9.4,1.8s-1.4,6.4-5.6,8c4.2-1.6,8.4-.8,9.6,2.2,1,2.8-1.6,6.4-6,7.8h0c4-1,7.4.2,8.4,2.8s-1.2,5.6-5,7.2h0c4.4-1.4,8.4,0,9.2,2.8.8,3-2,6.2-6.4,7.2h0c4-.8,7.6.6,8.2,3.4s-1.8,5.6-5.6,6.8h0c4.4-1,8.4.4,9.2,3.4s-2.4,6-6.8,6.8h0c4-.4,7.4,1.2,7.8,4s-2,5.4-6,6.4h0c4.4-.8,8.4,1,8.8,4.2.4,3-2.8,5.8-7.4,6.4h0c4-.2,7.2,1.6,7.6,4.4.2,2.8-2.6,5.2-6.6,6h0c4.6-.4,8.2,1.6,8.4,4.8.2,3-3.2,5.6-7.6,5.8h0c4,.2,7,2.2,7.2,5,0,2.8-2.8,5-7,5.4h0c4.6,0,8.2,2.2,8.2,5.2s-3.6,5.2-8,5.2H611c4,.4,7,2.6,6.8,5.4,0,2.8-3.2,4.8-7.2,5h0c4.6.2,8,2.8,7.6,5.8-.2,3-4,5.2-8.4,4.8h0c4,.6,6.8,3.2,6.6,6-.4,2.8-3.6,4.6-7.6,4.4h0c4.4.6,7.8,3.4,7.4,6.4s-4.2,4.8-8.8,4.2h0c4,1,6.4,3.6,6,6.4s-3.8,4.4-7.8,4h0c4.4.8,7.6,3.8,7,6.8-.8,3-4.8,4.4-9.2,3.4h0c3.8,1.2,6.2,4,5.6,6.8s-4.2,4-8.2,3.4h0c4.4,1.2,7.2,4.4,6.4,7.2-.8,3-4.8,4.2-9.2,2.8h0c3.8,1.6,6,4.4,5,7.2-.8,2.6-4.4,3.8-8.4,2.8h0c4.2,1.4,6.8,4.8,6,7.8-1,2.8-5.2,3.8-9.6,2.2h0c3.6,1.8,5.6,5,4.6,7.6s-4.6,3.6-8.4,2.2h0c4.2,1.8,6.4,5.4,5.2,8-1.2,2.8-5.4,3.4-9.6,1.6h0c3.4,2,5.4,5.4,4,7.8-1.2,2.4-5,3-8.8,1.6h0c4,2,6.2,5.8,4.8,8.4-1.4,2.8-5.8,3-9.6.8h0c3.4,2.2,4.8,5.6,3.4,8s-5,2.8-8.6,1h0c4,2.4,5.8,6.2,4,8.8-1.6,2.6-5.8,2.6-9.6.2h0c3.2,2.4,4.6,6,3,8.4-1.6,2.2-5.4,2.4-8.8.4h0c3.8,2.6,5.2,6.6,3.6,9-1.8,2.4-6,2.2-9.6-.4h0c3,2.6,4,6.2,2.2,8.4s-5.4,2-8.8-.2h0c3.6,2.8,5,7,2.8,9.2-2,2.4-6.2,1.8-9.6-1.2h0c2.8,2.8,3.6,6.6,1.8,8.6s-5.6,1.6-8.8-.8h0c3.4,3,4.2,7.2,2.2,9.4l-.6.6c-2.2,1.4-5.8.6-8.8-2.4h0c2.6,3,3,6.8,1,8.6-2,2-5.6,1.2-8.6-1.4h0c3,3.2,3.8,7.6,1.6,9.6-2.4,2-6.4.8-9.4-2.6h0c2.4,3.2,2.6,7,.6,8.8s-5.8.8-8.6-2h0c2.8,3.6,3.2,7.8.8,9.6-2.4,2-6.4.6-9.2-3h0c2.2,3.4,2.2,7.2,0,8.8s-5.8.4-8.4-2.6h0c2.6,3.8,2.8,8,.2,9.8-2.6,1.6-6.4,0-9-3.8h0c2,3.6,1.6,7.2-.6,8.8-2.4,1.6-5.8.2-8.2-3.2h0c2.4,3.8,2.2,8-.6,9.6-2.6,1.6-6.4-.4-8.6-4.4h0c1.6,3.6,1.2,7.4-1.2,8.6s-5.8-.4-8-3.8h0c2,4,1.6,8.2-1.2,9.6s-6.4-1-8.4-5h0c1.4,3.8.6,7.4-2,8.6s-5.8-.6-7.6-4.2h0c1.8,4.2,1,8.4-1.8,9.4a3.4,3.4,0,0,1-1.4.2c-2.4,0-5.2-2.4-6.6-5.8h0c1.2,3.8.2,7.6-2.4,8.4s-5.8-1.2-7.4-5h0c1.4,4.4.4,8.4-2.4,9.4s-6.2-1.8-7.6-6h0c.8,4-.4,7.4-3,8.2s-5.6-1.6-7-5.4h0c1.2,4.4-.2,8.6-3.2,9.2s-6.2-2.2-7.2-6.6h0c.6,4-1,7.4-3.6,8-2.8.6-5.6-2-6.6-5.8h0c.8,4.4-.8,8.4-3.8,8.8-3,.6-6-2.6-6.6-7h0c.2,4-1.4,7.4-4.2,7.6-2.8.4-5.4-2.4-6.2-6.2h0c.6,4.6-1.4,8.4-4.4,8.8-3,.2-5.8-3.2-6-7.6h0c0,4-2,7.2-4.8,7.4s-5.2-2.6-5.6-6.6h0c.2,4.6-2,8.2-5,8.2s-5.4-3.4-5.6-8h0c-.2,4-2.4,7-5.2,7.2-2.8,0-5-3.2-5.2-7.2h0c0,4.6-2.4,8-5.6,8-3,0-5.2-3.6-5-8.2-.2,4.6-2.8,8-5.8,7.6-3-.2-5.2-4-4.8-8.4h0c-.6,4-3.2,6.8-6,6.6-2.8-.4-4.6-3.6-4.4-7.6h0c-.6,4.4-3.4,7.8-6.4,7.4C263,615.4,261.2,611.4,262,607ZM616.6,329.8c.2-1.6-2.2-3.4-5.8-3.6l-.4,6.4C613.8,333,616.4,331.4,616.6,329.8Zm-5.8-39.4c3.6-.2,5.8-2,5.8-3.6-.2-1.6-2.8-3-6.2-2.8ZM616,319c0-1.4-2-3-4.8-3.4l-.2,6.2C614,321.8,616,320.4,616,319Zm-4.8-18c3-.4,4.8-2,4.8-3.4s-2-2.8-5-3Zm3.4,39.4c.2-1.4-1.8-3-4.6-3.6-.2,2-.4,4.2-.6,6.2C612.4,343.2,614.4,341.8,614.6,340.4ZM610,279.8c2.8-.6,4.8-2.2,4.6-3.6s-2.4-2.6-5.2-2.6C609.6,275.6,610,277.8,610,279.8Zm-1.2-10.4c3.6-.4,5.8-2.4,5.6-4s-2.8-2.8-6.4-2.4Zm5.6,81.8c.2-1.6-2-3.6-5.6-4l-.8,6.4C611.6,354.2,614.2,352.8,614.4,351.2Zm3-42.8c0-1.6-2.6-3.2-6-3.2v6.4C614.8,311.6,617.4,310,617.4,308.4Zm-5.8,53.2c.2-1.4-1.4-3.2-4.2-4l-1.2,6.2C609.2,364.2,611.4,363,611.6,361.6ZM607.4,259c2.8-.8,4.6-2.6,4.2-4-.2-1.4-2.4-2.4-5.4-2.2Zm3.4,113.4c.4-1.6-1.8-3.6-5.2-4.4-.4,2.2-1,4.2-1.4,6.2C607.6,375.2,610.4,374,610.8,372.4Zm-5.4-123.8c3.4-.6,5.6-2.8,5.2-4.4s-3.2-2.6-6.6-1.8A34.58,34.58,0,0,1,605.4,248.6Zm2.6,59.8c1-104.8-58.2-207.2-149.4-258.8-90-53.2-208.6-53.2-298.8,0C68.6,101.2,9.4,203.6,10.4,308.4c-1,104.8,58.2,207.2,149.4,258.8,90,53.2,208.6,53.2,298.8,0C549.8,515.6,609,413.2,608,308.4Zm-.8,74.2c.4-1.4-1.2-3.2-4-4.2l-1.4,6.2C604.6,385,607,384,607.2,382.6Zm-4-144.4c2.8-1,4.4-3,4-4.2-.2-1.4-2.6-2.4-5.6-1.8Zm2.2,155.2c.4-1.6-1.4-3.8-4.8-4.8l-1.8,6.2C602.2,395.8,605,394.8,605.4,393.4Zm-4.8-165.2c3.4-1,5.4-3.2,4.8-4.8-.4-1.6-3.2-2.4-6.6-1.4Zm.8,175c.4-1.4-1-3.4-3.6-4.4l-2,6C598.6,405.4,600.8,404.6,601.4,403.2ZM597.6,218c2.8-1.2,4.2-3.2,3.6-4.4-.4-1.4-2.8-2.2-5.6-1.4ZM599,413.8c.4-1.4-1.2-4-4.6-5.2-.6,2-1.4,4-2.2,6C595.4,416,598.4,415.2,599,413.8ZM594.2,208c3.4-1.2,5-3.6,4.6-5-.6-1.4-3.4-2.2-6.8-1A36.31,36.31,0,0,1,594.2,208Zm-3.6-9.8c3.2-1.2,5-3.8,4.4-5.2s-3.4-2-6.8-.8ZM594,423.4c.4-1.2-.8-3.4-3.4-4.8l-2.2,5.8C591.2,425.4,593.4,424.6,594,423.4Zm-3.2,10.2c.6-1.4-1-4-4.2-5.4L584,434C587.2,435.6,590.2,435.2,590.8,433.6Zm-4.2-245.2c2.6-1.4,3.8-3.6,3.2-4.8s-3-1.8-5.8-.8Zm-4.4-9.6c3.2-1.6,4.8-4.2,4-5.6s-3.6-1.8-6.8-.2C580.4,175,581.4,176.8,582.2,178.8Zm3,264.2c.6-1.2-.6-3.4-3-5a48.74,48.74,0,0,1-2.8,5.6C582.2,444.6,584.6,444.2,585.2,443Zm-3.8,10c.8-1.4-.6-4-3.8-5.6l-3,5.6C577.6,454.8,580.6,454.4,581.4,453Zm-4-283.6c3.2-1.6,4.6-4.2,3.8-5.6s-3.6-1.8-6.8,0Zm-2.2,292.4c.6-1.2-.2-3.4-2.6-5.2l-3.2,5.4C572,463.4,574.4,463,575.2,461.8ZM572.4,160c2.4-1.6,3.4-4,2.6-5.2-.6-1.2-3.2-1.6-5.8-.2Zm-1.8,311.6c.8-1.2-.4-4-3.4-5.8l-3.4,5.4C566.8,473,569.8,473,570.6,471.6ZM567.2,151c3-1.8,4.2-4.6,3.4-5.8-.8-1.4-3.8-1.4-6.8.4Zm-3.4,329.2c.8-1.2,0-3.6-2.4-5.4l-3.6,5.2C560.6,481.4,563,481.2,563.8,480.2ZM561.4,142c2.2-1.8,3.2-4.2,2.4-5.4s-3.2-1.2-5.8.2Zm-2.8,347.4c.8-1.2-.2-4.2-3-6.2l-3.8,5.2C554.6,490.6,557.6,490.8,558.6,489.4Zm-3.2-356c2.8-2,3.8-4.8,3-6.2-1-1.2-3.8-1.2-6.8,1Zm-4.2,364c.8-1,.2-3.4-2-5.6l-3.8,5C547.8,498.4,550.4,498.4,551.2,497.4Zm-2-372.6c2.2-2,2.8-4.4,2-5.6-.8-1-3.4-1-5.8.6Zm-4,381.6c1-1.2.2-4-2.6-6.2l-4.2,4.8C541.2,507.4,544.2,507.6,545.2,506.4Zm-2.4-389.8c2.8-2.2,3.6-5.2,2.4-6.2-1-1.2-4-.8-6.6,1.4Zm-5.4,397.2c.8-1,.4-3.4-1.6-5.6a45.83,45.83,0,0,1-4.2,4.6C534,514.6,536.6,515,537.4,513.8Zm-1.6-405.2c2-2.2,2.4-4.6,1.6-5.6s-3.4-.8-5.8,1A45.83,45.83,0,0,1,535.8,108.6Zm-5,413.8c1-1.2.4-4-2-6.4l-4.4,4.6C526.8,523,529.8,523.6,530.8,522.4Zm-2-421.6c2.6-2.4,3.2-5.4,2-6.4-1-1.2-4-.6-6.4,1.8Zm-6.2,428.4c1-1,.8-3.4-1.2-5.8l-4.6,4.4C519,529.8,521.6,530.2,522.6,529.2Zm-1.2-436c1.8-2.2,2.2-4.8,1.2-5.6s-3.4-.6-5.8,1.4Zm-6,444.2c1.2-1,.8-4-1.6-6.6-1.6,1.6-3.2,2.8-4.8,4.2C511.4,537.6,514.2,538.4,515.4,537.4ZM513.8,86c2.4-2.6,2.8-5.6,1.6-6.6s-4-.2-6.4,2.4C510.6,83.2,512.2,84.4,513.8,86Zm-7.2,457.6c1-1,1-3.4-.8-5.8l-4.8,4C503.2,544,505.6,544.6,506.6,543.6ZM505.8,79c1.6-2.4,1.8-4.8.8-5.8-1-.8-3.4-.4-5.6,1.8ZM499,551.2c1.2-1,1-4-1.2-6.8l-5,4C494.8,551.2,497.6,552.2,499,551.2Zm-1.4-479c2.2-2.8,2.4-5.8,1.2-6.6-1.2-1-4,0-6.2,2.8Zm-7.8,484.6c1.2-.8,1.2-3.2-.4-5.8l-5.2,3.6C486.2,556.8,488.6,557.6,489.8,556.8Zm-.4-491c1.6-2.6,1.4-5,.4-5.8-1.2-.8-3.6,0-5.4,2.2ZM481.6,564c1.2-1,1.2-4-.8-6.8l-5.2,3.6C477.4,563.6,480.2,564.8,481.6,564Zm-.8-504.4c2-3,2-6,.8-6.8s-4,.2-6,3.2ZM472,568.8c1.2-.8,1.4-3.2,0-5.8l-5.2,3.4C468.4,568.6,470.8,569.6,472,568.8Zm0-515c1.4-2.6,1.2-5.2,0-5.8-1.2-.8-3.4.2-5.2,2.4Zm-8.8,521.4c1.4-.8,1.6-3.8-.2-6.8l-5.6,3.2C459.2,574.8,462,576,463.2,575.2Zm-.2-527c1.8-3,1.6-6,.2-6.8s-4,.4-5.8,3.6Zm-9.6,531.4c1.2-.6,1.6-3,.4-5.8l-5.6,2.8C450,579.2,452.2,580.2,453.4,579.6ZM453.8,43c1.2-2.8.8-5.2-.4-5.8s-3.4.4-5.2,3Zm-9.4,542.4c1.4-.8,1.8-3.6.2-6.8a51.82,51.82,0,0,1-5.8,2.8C440.4,584.6,443,586.2,444.4,585.4Zm0-547.2c1.6-3.2,1.2-6.2-.2-6.8-1.4-.8-4,.8-5.6,4A39.08,39.08,0,0,1,444.4,38.2ZM434.2,589c1.2-.6,1.8-3,.8-5.8l-5.8,2.6C430.8,588.4,432.8,589.6,434.2,589ZM435,33.6c1-2.8.4-5.2-.8-5.8s-3.4.6-4.8,3.2ZM424.8,594.2c1.4-.6,2-3.4.8-6.8l-6,2.4C420.8,593,423.2,594.8,424.8,594.2Zm.6-564.8c1.4-3.2.8-6.2-.8-6.8-1.4-.6-4,1.2-5.2,4.4Zm-10-4c.8-2.8,0-5.2-1.2-5.8-1.4-.4-3.4,1-4.6,3.6C411.6,24,413.6,24.6,415.4,25.4Zm-1,571.6c1.2-.4,2-2.8,1.2-5.8-2,.8-4,1.4-5.8,2.2C411,596.2,413,597.4,414.4,597Zm-10,4.6c1.4-.4,2.4-3.4,1.2-6.8l-6,2C400.6,600.2,403,602,404.4,601.6ZM405.6,22c1.2-3.4.2-6.2-1.2-6.8-1.4-.4-3.8,1.4-4.8,4.6ZM394,603.6c1.4-.4,2.2-2.6,1.6-5.6l-6,1.8C390.6,602.4,392.6,604,394,603.6Zm1.4-584.8c.6-2.8-.4-5.2-1.6-5.6-1.4-.4-3.2,1.2-4.4,3.8ZM383.8,607.4c1.6-.4,2.6-3.2,1.6-6.6l-6.2,1.6C380,605.8,382.4,607.8,383.8,607.4ZM385.4,16c.8-3.4-.2-6.2-1.6-6.6-1.6-.4-3.8,1.6-4.6,5ZM373.2,608.8c1.4-.4,2.4-2.6,2-5.6-2,.4-4,1-6.2,1.4C370,607.6,371.8,609.2,373.2,608.8ZM375,13.4c.4-3-.8-5.2-2-5.6-1.4-.4-3.2,1.2-4.2,4.2C371,12.4,373,13,375,13.4ZM362.8,611.8c1.6-.2,2.8-3,2.2-6.4l-6.4,1.2C359.2,610,361.2,612.2,362.8,611.8Zm2-600.4c.6-3.4-.6-6.2-2.2-6.4s-3.6,1.8-4.2,5.4ZM352,612.4c1.4-.2,2.6-2.2,2.4-5.2l-6.2.8C348.8,610.8,350.6,612.6,352,612.4ZM354.4,9.6c.2-3-1-5-2.4-5.2s-3.2,1.6-3.8,4.4ZM341.4,615c1.6-.2,3-2.8,2.6-6.4-2.2.2-4.2.6-6.4.8C338,612.8,340,615.2,341.4,615ZM344,8.2c.4-3.6-1-6.2-2.6-6.4S338,4,337.6,7.4C339.8,7.6,341.8,8,344,8.2ZM333.4,609.6l-6.2.4c.4,3,2,4.8,3.4,4.6C332,614.6,333.4,612.4,333.4,609.6ZM327.2,6.8l6.2.4c0-3-1.4-5-2.8-5.2C329.2,2,327.6,3.8,327.2,6.8ZM320,616.4c1.6,0,3.2-2.6,3-6l-6.4.2C316.6,614,318.4,616.4,320,616.4ZM323,6.6c.2-3.6-1.4-6-3-6s-3.4,2.4-3.4,6Zm-13.8,609c1.4,0,2.8-2,3.2-5h-6.2C306.4,613.4,307.8,615.4,309.2,615.6Zm3-609.4c-.2-3-1.8-5-3.2-5s-2.8,2-3.2,5ZM302,610.4l-6.4-.2c-.2,3.6,1.4,6,3,6C300,616.4,301.8,614,302,610.4ZM295.4,6.6l6.4-.2c0-3.6-1.8-6-3.4-6C296.8.6,295.2,3,295.4,6.6Zm-4,603.4-6.4-.4c-.2,3.6,1.2,6,2.8,6.2C289.2,615.8,291.2,613.6,291.4,610ZM285,7.2l6.2-.4c-.4-3-2-4.8-3.4-4.6C286.4,2.2,285,4.2,285,7.2Zm-7.8,606.6c1.4.2,3-1.8,3.6-4.6l-6.2-.6C274.4,611.6,275.8,613.6,277.2,613.8ZM280.8,7.6C280.4,4,278.6,1.8,277,2s-3,2.8-2.6,6.4A33,33,0,0,1,280.8,7.6ZM270.4,608l-6.4-.8c-.6,3.4.8,6.2,2.4,6.4C267.8,613.8,270,611.6,270.4,608ZM264,9.6l6.2-.8c-.6-2.8-2.4-4.6-3.8-4.4C265,4.4,263.8,6.6,264,9.6Zm-4,597-6.2-1.2c-.6,3.4.6,6.2,2.2,6.4C257.2,612.2,259.4,610,260,606.6ZM253.4,11.4l6.4-1.2c-.6-3.6-2.6-5.6-4.2-5.4C254.2,5.2,252.8,8,253.4,11.4Zm-8,597.4c1.4.4,3.2-1.2,4.2-4.2-2-.4-4.2-1-6.2-1.4C243,606.2,244,608.6,245.4,608.8Zm4-596.6c-.8-2.8-2.8-4.4-4-4.2-1.4.4-2.4,2.6-2,5.6A44.27,44.27,0,0,1,249.4,12.2ZM239.2,602.4,233,601c-.8,3.4.2,6.2,1.6,6.6C236.2,607.8,238.4,605.8,239.2,602.4ZM233,16l6.2-1.4c-.8-3.4-3-5.4-4.6-5.2S232,12.4,233,16Zm-4,583.8-6-1.8c-.6,2.8.4,5.2,1.6,5.6C226,604,228,602.6,229,599.8Zm-6.2-581,6-1.8c-1-2.8-3-4.2-4.4-3.8C223.2,13.6,222.2,15.8,222.8,18.8Zm-4,578-6-2c-1.2,3.4-.2,6.2,1.2,6.8C215.4,602,217.8,600.2,218.8,596.8ZM212.8,22l6-2c-1-3.4-3.4-5.2-4.8-4.6C212.4,15.8,211.6,18.6,212.8,22Zm-8.6,575c1.2.4,3.4-1,4.6-3.6-2-.6-4-1.4-6-2.2C202.2,594.2,202.8,596.6,204.2,597Zm4.6-573.6c-1.2-2.6-3.4-4-4.6-3.6-1.4.4-2,2.8-1.2,5.8A28.91,28.91,0,0,1,208.8,23.4ZM199,589.8l-6-2.4c-1.4,3.2-.6,6.2.8,6.8S197.8,593,199,589.8ZM193,29.4l6-2.4c-1.2-3.4-3.8-5-5.2-4.4C192.2,23.2,191.6,26.2,193,29.4Zm-3.8,556.4-5.8-2.6c-1,2.8-.4,5.2.8,5.8C185.6,589.6,187.8,588.4,189.2,585.8ZM183.4,33.6l5.8-2.6c-1.4-2.6-3.6-3.8-4.8-3.2C183,28.4,182.4,30.8,183.4,33.6Zm-9.2,551.8c1.4.8,4-.8,5.6-4-2-.8-3.8-2-5.8-2.8C172.4,581.8,172.8,584.8,174.2,585.4Zm5.4-550c-1.6-3.2-4.2-4.8-5.6-4-1.4.6-1.8,3.6-.2,6.8C175.8,37.2,177.6,36.2,179.6,35.4Zm-9.4,541.2-5.6-2.8c-1.2,2.8-.8,5.2.4,5.8C166.4,580.2,168.6,579.2,170.2,576.6ZM164.6,43l5.6-2.8c-1.6-2.4-3.8-3.6-5.2-3C163.8,37.8,163.4,40.2,164.6,43Zm-6.4,3.6L161,45c-1.8-3-4.4-4.4-5.8-3.6s-1.6,3.8.2,6.8Zm2.8,525-2.8-1.6-2.8-1.6c-1.8,3-1.6,6-.2,6.8C156.4,576,159.2,574.8,161,571.6Zm-9.2-5.2-5.2-3.4c-1.4,2.6-1.2,5.2,0,5.8C147.6,569.6,150,568.8,151.8,566.4ZM146.4,53.8l5.2-3.4c-1.8-2.4-4.2-3.2-5.2-2.4C145.2,48.8,145,51.2,146.4,53.8Zm-3.4,507-5.2-3.6c-2,3-2,6-.8,6.8S141,563.6,143,560.8ZM137.6,59.6,143,56c-2-3-4.8-4-6-3.2C135.6,53.8,135.6,56.8,137.6,59.6Zm-3.4,495.2-5.2-3.6c-1.6,2.6-1.4,5-.4,5.8C129.8,557.6,132.2,557,134.2,554.8ZM129,65.8l5.2-3.6c-2-2.2-4.4-3-5.4-2.2C127.6,60.8,127.4,63.2,129,65.8Zm-3.2,482.6-5-4c-2.2,2.8-2.4,5.8-1.2,6.8S123.6,551.4,125.8,548.4Zm-5.2-476,5-4c-2.2-2.8-5-3.6-6.2-2.8S118.4,69.6,120.6,72.4ZM117.4,542l-4.8-4c-1.6,2.4-1.8,4.8-.8,5.8C113,544.6,115.2,544,117.4,542ZM112.6,79l4.8-4.2c-2.2-2.2-4.4-2.6-5.6-1.8C110.8,74.2,110.8,76.6,112.6,79Zm-3.2,456.2-4.8-4.2c-2.4,2.6-2.8,5.6-1.6,6.6C104.2,538.4,107.2,537.8,109.4,535.2ZM104.6,86c1.6-1.6,3.2-2.8,4.8-4.2-2.4-2.6-5.2-3.4-6.4-2.4S102.2,83.4,104.6,86Zm-3,442L97,523.6c-1.8,2.2-2.2,4.8-1.2,5.8C97,530.2,99.4,529.8,101.6,528ZM97,93.2l4.6-4.4c-2.2-2-4.6-2.4-5.6-1.4C94.8,88.6,95.2,91,97,93.2ZM94,520.6,89.6,516c-2.6,2.4-3.2,5.4-2,6.4C88.6,523.6,91.6,523.2,94,520.6ZM89.6,100.8,94,96.2c-2.4-2.4-5.4-3-6.6-1.8C86.4,95.6,87,98.4,89.6,100.8ZM86.8,513c-1.4-1.4-2.8-3.2-4.2-4.6-2,2.2-2.4,4.6-1.6,5.6S84.4,514.8,86.8,513ZM82.6,108.6l4.2-4.8c-2.4-1.8-4.8-2-5.8-1C80,104,80.6,106.4,82.6,108.6ZM79.8,505l-4.2-4.8c-2.8,2.2-3.6,5.2-2.4,6.2C74.2,507.6,77.2,507.4,79.8,505ZM75.6,116.6l4.2-4.8c-2.6-2.2-5.6-2.6-6.8-1.4C72,111.6,72.8,114.4,75.6,116.6ZM73,496.8l-3.8-5c-2.2,2-2.8,4.4-2,5.6C68.2,498.6,70.6,498.4,73,496.8ZM69,125l4-5c-2.8-2.2-5.8-2.4-6.6-1.2C65.4,120,66.2,122.8,69,125ZM66.6,488.6l-3.8-5.2c-2.8,2-3.8,4.8-3,6.2C60.8,490.8,63.8,490.8,66.6,488.6ZM63,133.4l3.6-5.2c-2.6-1.6-5-1.4-5.8-.4C60,129,60.6,131.4,63,133.4Zm-6.2,8.8,3.6-5.2c-3-2-6-2-6.8-.8S54,140.2,56.8,142.2ZM60.4,480l-3.6-5.2c-2.2,1.8-3.2,4.2-2.4,5.4C55.4,481.4,57.8,481.4,60.4,480Zm-5.8-8.8-3.4-5.4c-3,1.8-4.2,4.6-3.4,5.8C48.8,473,51.8,473.2,54.6,471.2ZM51.2,151l3.4-5.4c-3-1.8-6-1.8-6.8-.4C47,146.4,48.2,149.2,51.2,151ZM49,462.2l-3.2-5.4c-2.4,1.8-3.4,4-2.8,5.2C44,463.2,46.4,463.4,49,462.2Zm-3-302,3.2-5.4c-2.6-1.2-5.2-1-5.8.2C42.6,156.2,43.4,158.4,46,160.2Zm-2.2,293-3-5.6c-3.2,1.6-4.6,4.2-3.8,5.6S40.8,454.8,43.8,453.2Zm-3-283.8,3-5.6c-3.2-1.8-6-1.4-6.8,0C36.4,165.2,37.8,167.8,40.8,169.4ZM39,443.8c-1-1.8-2-3.8-2.8-5.6-2.6,1.6-3.8,3.8-3,5C33.8,444.4,36.2,444.8,39,443.8Zm-2.8-265a48.74,48.74,0,0,1,2.8-5.6c-2.8-1-5.2-.6-5.8.6C32.4,175,33.6,177.2,36.2,178.8ZM34.4,434.2l-2.6-5.8c-3.2,1.4-4.8,4-4.2,5.4C28.4,435.2,31.2,435.8,34.4,434.2ZM31.8,188.4l2.6-5.8c-3.2-1.4-6.2-1-6.8.4C27,184.6,28.6,187,31.8,188.4ZM30.2,424.6,28,418.8c-2.6,1.4-4,3.4-3.4,4.8C25,424.8,27.4,425.4,30.2,424.6ZM27.8,198.2l2.4-5.8c-2.8-.8-5.2-.2-5.8,1S25.2,196.8,27.8,198.2ZM26.4,414.8c-.8-2-1.6-4-2.2-6-3.4,1.2-5.2,3.6-4.6,5C20,415.4,23,416,26.4,414.8ZM24,208.2c.6-2,1.4-4,2.2-6-3.2-1.2-6.2-.6-6.8,1C19,204.4,20.8,207,24,208.2ZM22.8,404.8l-2-6c-2.8,1.2-4.2,3.2-3.6,4.4C17.6,404.6,20,405.4,22.8,404.8ZM20.8,218l2-6c-2.8-.6-5.2.2-5.6,1.4C16.6,214.8,18,216.8,20.8,218ZM19.6,394.8l-1.8-6.2c-3.4,1-5.4,3.2-4.8,4.8C13.4,394.8,16.2,395.8,19.6,394.8ZM17.8,228.2l1.8-6.2c-3.4-1-6.2,0-6.6,1.4C12.6,225,14.4,227.2,17.8,228.2Zm-1,156.4-1.4-6c-2.8,1-4.4,3-4,4.2C11.4,384.2,13.8,385,16.8,384.6ZM15.2,238.4l1.4-6.2c-3-.4-5.2.6-5.6,1.8C10.8,235.4,12.4,237.4,15.2,238.4Zm-.8,136c-.4-2-1-4.2-1.4-6.2-3.4.8-5.6,2.8-5.2,4.4C8,374,10.8,375.2,14.4,374.4ZM13,248.8c.4-2.2,1-4.2,1.4-6.2-3.4-.8-6.2.4-6.6,1.8S9.4,248,13,248.8ZM11,259l1.2-6.2c-3-.2-5.2.8-5.4,2.2S8.2,258.2,11,259Zm1.2,105L11,357.8c-2.8.8-4.6,2.6-4.2,4C7,363.2,9.2,364.2,12.2,364Zm-1.8-10.4-.8-6.4c-3.6.4-5.8,2.4-5.6,4S6.8,354.2,10.4,353.6Zm-.8-84,.8-6.4c-3.4-.6-6.2.8-6.4,2.4C3.8,267,6,269.2,9.6,269.6ZM9,273.8c-3,0-5.2,1.2-5.2,2.6-.2,1.4,1.8,3,4.6,3.6A59.25,59.25,0,0,1,9,273.8ZM3.8,340.6c.2,1.4,2.4,2.6,5.2,2.6-.2-2-.6-4.2-.6-6.2C5.4,337.4,3.6,339.2,3.8,340.6ZM8,332.8l-.4-6.4c-3.6.2-5.8,2-5.8,3.6C2,331.4,4.6,333,8,332.8Zm-.4-42.2.4-6.4c-3.6-.2-6.2,1.2-6.2,2.8C1.8,288.4,4,290.4,7.6,290.6ZM7.2,301l.2-6.2c-3,.2-5,1.6-5,3S4.2,300.6,7.2,301Zm.2,21.2L7.2,316c-3,.4-4.8,2-4.8,3.4C2.4,320.6,4.4,322,7.4,322.2Zm-.4-17c-3.6,0-6,1.6-6,3.2s2.6,3.2,6,3.2Z" style="fill:#182755"/><path d="M518.2,99.4a295.57,295.57,0,1,1-418,418,295.57,295.57,0,1,1,418-418Zm84.4,209C602.6,146.6,471,15,309.2,15S15.8,146.6,15.8,308.4,147.4,601.8,309.2,601.8,602.6,470.2,602.6,308.4Z" style="fill:#182755"/></g></g></g></svg>