<svg xmlns="http://www.w3.org/2000/svg" width="758.4" height="758" viewBox="0 0 758.4 758"><title>4_inner_gears_758 (2)</title><g id="Layer_2" data-name="Layer 2"><g id="Layer_1-2" data-name="Layer 1"><g id="_4_inner_gears_758" data-name="4_inner_gears_758"><path d="M757.8,377h0a1.69,1.69,0,0,1-.4,1.2,11.6,11.6,0,0,1-2.4,2c-1.4.8-2.6,1.4-2.6,3,0,1.4,1.2,2.2,2.6,3s2.8,1.6,2.8,3.2-1.4,2.4-2.8,3.2-2.6,1.4-2.6,2.8,1.2,2.2,2.6,3,2.6,1.8,2.6,3.4c-.2,1.6-1.6,2.4-3,3s-2.8,1.2-2.8,2.8c-.2,1.4,1,2.2,2.4,3.2,1.4.8,2.6,1.8,2.6,3.4-.2,1.6-1.6,2.2-3,3-1.4.6-2.8,1.2-3,2.6s1,2.4,2.2,3.2c1.2,1,2.6,2,2.4,3.6s-1.8,2.2-3.2,2.8-2.8,1.2-3,2.6,1,2.4,2.2,3.4,2.4,2,2.2,3.6c-.4,1.6-1.8,2.2-3.4,2.6-1.4.6-2.8,1-3,2.4s.8,2.4,2,3.4,2.4,2.2,2.2,3.6c-.4,1.6-1.8,2.2-3.4,2.6-1.4.4-2.8,1-3.2,2.4s.8,2.4,1.8,3.4c1.2,1,2.4,2.2,2,3.8s-2,2-3.4,2.4-2.8.8-3.2,2.2.8,2.4,1.8,3.6c1.2,1,2.4,2.2,1.8,3.8-.4,1.6-2,2-3.6,2.4s-3,.8-3.4,2.2.6,2.4,1.8,3.6c1,1.2,2.2,2.4,1.8,3.8-.4,1.6-2,2-3.6,2.2-1.4.4-3,.6-3.4,2s.4,2.4,1.6,3.6c1,1.2,2.2,2.4,1.6,4s-2.2,1.8-3.6,2.2c-1.6.2-3,.6-3.4,2s.4,2.4,1.6,3.6c1,1.2,2.2,2.4,1.6,4s-2.2,1.8-3.8,2-3,.4-3.6,1.8.4,2.4,1.4,3.8c1,1.2,2,2.6,1.4,4-.6,1.6-2.2,1.8-3.8,1.8-1.6.2-3,.4-3.6,1.6-.6,1.4.2,2.4,1.2,3.8,1,1.2,2,2.6,1.2,4-.6,1.4-2.2,1.6-3.8,1.8s-3,.2-3.6,1.6.2,2.6,1.2,3.8,1.8,2.6,1,4-2.4,1.6-4,1.6-3,.2-3.6,1.4c-.6,1.4.2,2.6,1,3.8.8,1.4,1.8,2.8,1,4.2s-2.4,1.6-4,1.6-3,0-3.8,1.4c-.8,1.2,0,2.6.8,3.8.8,1.4,1.6,2.8.8,4.2s-2.4,1.4-4,1.4-3,0-3.8,1.2,0,2.6.8,4,1.6,2.8.6,4.2c-.8,1.4-2.6,1.2-4,1.2-1.6,0-3-.2-3.8,1s-.2,2.6.6,4,1.4,2.8.6,4.2-2.4,1.2-4,1.2c-1.6-.2-3-.2-3.8,1s-.2,2.4.4,4c.6,1.4,1.4,2.8.4,4.2s-2.6,1.2-4.2,1-3-.4-3.8.8-.2,2.6.4,4,1.2,3,.2,4.2-2.6,1-4.2.8-3-.4-3.8.8c-1,1.2-.4,2.4.2,4,.6,1.4,1.2,3,.2,4.2s-2.6,1-4.2.8-3-.6-4,.6-.4,2.4,0,4c.6,1.4,1,3,0,4.2s-2.6.8-4.2.6c-1.6-.4-3-.6-3.8.4-1,1.2-.4,2.4,0,4,.4,1.4,1,3-.2,4.2s-2.8.8-4.2.4c-1.6-.4-3-.8-4,.4-1,1-.6,2.4-.2,4s1,3.2-.2,4.2c-1.2,1.2-2.8.8-4.2.2-1.6-.4-3-.8-4,.2s-.8,2.4-.4,4,.8,3.2-.4,4.2c-1.2,1.2-2.8.6-4.2.2s-2.8-1-4,.2c-1,1-.8,2.4-.4,4s.6,3.2-.6,4.2-2.8.6-4.2,0c-1.4-.4-2.8-1-4,0-1,1-.8,2.4-.6,4s.6,3.2-.6,4.2-2.8.4-4.2-.2-2.8-1.2-4-.2c-1.2.8-1,2.4-.8,3.8.2,1.6.4,3.2-.8,4.2s-2.8.4-4.2-.2-2.8-1.2-3.8-.2c-1.2.8-1,2.2-.8,3.8s.4,3.2-1,4c-1.4,1-2.8.2-4.2-.4s-2.8-1.2-4-.4-1,2.4-.8,3.8c.2,1.6.2,3.2-1,4.2-1.4.8-2.8.2-4.2-.6s-2.8-1.4-4-.6-1.2,2.2-1,3.8c0,1.6.2,3.2-1.2,4s-2.8,0-4.2-.6c-1.4-.8-2.6-1.4-3.8-.6s-1.2,2.2-1.2,3.8,0,3.2-1.4,4-2.8,0-4.2-.8-2.6-1.6-3.8-.8-1.2,2.2-1.4,3.8c0,1.6,0,3.4-1.4,4-1.4.8-2.8-.2-4.2-1-1.2-.8-2.6-1.6-3.8-1s-1.4,2.2-1.4,3.6c0,1.6-.2,3.2-1.6,4s-2.8-.2-4-1-2.4-1.6-3.8-1-1.4,2-1.6,3.6-.2,3.2-1.8,3.8c-1.4.6-2.8-.2-4-1.2s-2.4-1.8-3.8-1.2-1.4,2-1.6,3.6-.4,3.2-1.8,3.8c-1.6.6-2.8-.4-4-1.4s-2.4-1.8-3.8-1.4c-1.4.6-1.6,2-1.8,3.6s-.4,3.2-2,3.8-2.8-.4-4-1.4-2.2-1.8-3.6-1.4-1.6,1.8-2,3.4c-.2,1.6-.6,3.2-2,3.6-1.6.4-2.8-.6-4-1.6s-2.2-2-3.6-1.6-1.6,1.8-2,3.4-.6,3.2-2.2,3.6-2.8-.8-3.8-1.8c-1.2-1-2.2-2-3.6-1.8-1.4.4-1.8,1.8-2.2,3.4s-.8,3.2-2.4,3.6-2.8-.8-3.8-1.8c-1-1.2-2-2.2-3.6-1.8-1.4.4-1.8,1.8-2.2,3.2-.4,1.6-.8,3-2.4,3.4s-2.6-.8-3.8-2c-1-1.2-2-2.2-3.4-1.8s-1.8,1.8-2.4,3.2c-.4,1.4-1,3.2-2.6,3.4s-2.6-1-3.6-2.2-2-2.4-3.4-2-2,1.6-2.4,3c-.6,1.4-1.2,3-2.6,3.4-1.6.2-2.6-1-3.6-2.2s-1.8-2.2-3.4-2c-1.4.2-2,1.6-2.6,3s-1.2,3-2.8,3.2-2.6-1-3.6-2.4c-1-1.2-1.8-2.4-3.2-2.2s-2,1.6-2.6,3-1.2,3-2.8,3.2-2.6-1.2-3.4-2.6c-1-1.2-1.8-2.4-3.2-2.4-1.4.2-2,1.4-2.8,2.8-.6,1.4-1.4,3-3,3-1.6.2-2.4-1.2-3.4-2.6-.8-1.4-1.6-2.4-3-2.4s-2.2,1.4-2.8,2.6c-.8,1.4-1.4,2.8-3.2,2.8-1.6,0-2.4-1.4-3.2-2.8s-1.6-2.6-3-2.6-2.2,1.4-3,2.8-1.6,2.8-3.2,2.8-2.4-1.4-3.2-2.8-1.4-2.6-3-2.6c-1.4,0-2.2,1.2-3,2.6s-1.6,2.8-3.2,2.8-2.4-1.4-3.2-2.8-1.4-2.6-2.8-2.6-2.2,1.2-3.2,2.6c-.8,1.4-1.8,2.6-3.4,2.6-1.6-.2-2.4-1.6-3-3s-1.2-2.8-2.8-2.8c-1.4-.2-2.2,1-3.2,2.4-.8,1.4-1.8,2.6-3.4,2.6-1.6-.2-2.2-1.6-3-3-.6-1.4-1.2-2.8-2.6-3s-2.4,1-3.2,2.2c-1,1.2-2,2.6-3.6,2.4s-2.2-1.8-2.8-3.2-1.2-2.8-2.6-3-2.4,1-3.4,2.2-2,2.4-3.6,2.2c-1.6-.4-2.2-1.8-2.6-3.4-.6-1.4-1-2.8-2.4-3s-2.4.8-3.4,2-2.2,2.4-3.6,2.2c-1.6-.4-2.2-1.8-2.6-3.4-.4-1.4-1-2.8-2.4-3.2s-2.4.8-3.4,1.8c-1,1.2-2.2,2.4-3.8,2s-2-2-2.4-3.4-.8-2.8-2.2-3.2-2.4.8-3.6,1.8c-1.2,1.2-2.2,2.4-3.8,1.8-1.6-.4-2-2-2.4-3.6s-.8-3-2.2-3.4-2.4.6-3.6,1.8c-1.2,1-2.4,2.2-3.8,1.8-1.6-.4-2-2-2.2-3.6-.4-1.4-.6-3-2-3.4s-2.4.4-3.6,1.6c-1.2,1-2.4,2.2-3.8,1.6-1.6-.6-1.8-2.2-2.2-3.6-.2-1.6-.6-3-2-3.4s-2.4.4-3.6,1.6c-1.2,1-2.4,2.2-4,1.6s-1.8-2.2-2-3.8-.4-3-1.8-3.6-2.4.4-3.8,1.4c-1.2,1-2.6,2-4,1.4-1.6-.6-1.8-2.2-2-3.8s-.4-3-1.6-3.6c-1.4-.6-2.4.2-3.8,1.2-1.2,1-2.6,2-4,1.2-1.4-.6-1.6-2.2-1.8-3.8s-.2-3-1.6-3.6-2.6.2-3.8,1.2c-1.4,1-2.6,1.8-4,1s-1.6-2.4-1.6-4-.2-3-1.4-3.8c-1.4-.6-2.6.2-3.8,1-1.4.8-2.8,1.8-4.2,1s-1.6-2.4-1.6-4,0-3-1.2-3.8-2.6,0-3.8.8c-1.4.8-2.8,1.6-4.2.8a1.33,1.33,0,0,1-.8-1,7.29,7.29,0,0,1-.4-3c0-1.6,0-3-1.2-3.8s-2.6,0-4,.8-2.8,1.6-4.2.6c-1.4-.8-1.2-2.6-1.2-4,0-1.6.2-3-1-3.8s-2.6-.2-4,.6-2.8,1.4-4.2.6-1.2-2.4-1.2-4c.2-1.6.2-3-1-3.8s-2.4-.2-3.8.4-2.8,1.4-4.2.4-1.2-2.6-1-4.2.4-3-.8-3.8-2.6-.2-4,.4-3,1.2-4.2.2-1-2.6-.8-4.2.4-3-.8-3.8c-1.2-1-2.4-.4-4,.2-1.4.6-3,1.2-4.2.2s-1-2.6-.8-4.2.6-3-.6-4-2.4-.4-4,0c-1.4.6-3,1-4.2,0s-.8-2.6-.6-4.2c.4-1.6.6-3-.4-3.8-1.2-1-2.4-.4-4,0-1.4.4-3,1-4.2-.2s-.8-2.8-.4-4.2c.4-1.6.8-3-.4-4-1-1-2.4-.6-4-.2s-3.2,1-4.2-.2c-1.2-1.2-.6-2.8-.2-4.2.4-1.6.8-3-.2-4s-2.4-.8-4-.4-3.2.8-4.2-.4c-1.2-1.2-.6-2.8-.2-4.2s1-2.8-.2-4c-1-1-2.4-.8-3.8-.4-1.6.4-3.2.6-4.2-.6s-.6-2.8,0-4.2,1-2.8,0-4c-1-1-2.4-.8-4-.6s-3.2.6-4.2-.6-.4-2.8.2-4.2,1.2-2.8.2-4c-.8-1.2-2.4-1-3.8-.8-1.6.2-3.2.4-4.2-.8s-.4-2.8.2-4.2,1.2-2.8.2-3.8c-.8-1.2-2.2-1-3.8-.8s-3.2.4-4.2-1-.2-2.8.4-4.2,1.2-2.8.4-4-2.4-1-3.8-.8c-1.6.2-3.2.2-4.2-1-.8-1.4-.2-2.8.6-4.2s1.4-2.8.6-4-2.2-1.2-3.8-1c-1.6,0-3.2.2-4.2-1.2-.8-1.4-.2-2.8.6-4.2s1.4-2.6.6-3.8-2.2-1.2-3.6-1.2c-1.6,0-3.2,0-4-1.4s0-2.8.8-4.2,1.6-2.6.8-3.8-2.2-1.2-3.8-1.4c-1.6,0-3.2,0-4-1.4s.2-2.8,1-4.2c.8-1.2,1.6-2.6,1-3.8s-2.2-1.4-3.6-1.4c-1.6,0-3.2-.2-4-1.6s.2-2.8,1-4,1.6-2.4,1-3.8-2-1.4-3.6-1.6-3.2-.2-3.8-1.8c-.6-1.4.4-2.8,1.2-4s1.8-2.4,1.2-3.8-2-1.4-3.6-1.6-3.2-.4-3.8-1.8c-.6-1.6.4-2.8,1.4-4s1.8-2.4,1.4-3.8c-.6-1.4-2-1.6-3.6-1.8s-3.2-.4-3.8-2,.4-2.8,1.4-4,1.8-2.2,1.4-3.6-1.8-1.6-3.4-2c-1.6-.2-3.2-.6-3.6-2-.4-1.6.6-2.8,1.6-4s2-2.2,1.6-3.6-2-1.6-3.4-2c-1.6-.4-3.2-.6-3.6-2.2s.6-2.8,1.8-3.8c1.2-1.2,2.2-2.2,1.8-3.6s-1.8-1.8-3.4-2.2-3.2-.8-3.6-2.4.8-2.8,1.8-3.8c1.2-1,2.2-2,1.8-3.6-.4-1.4-1.8-1.8-3.2-2.2-1.6-.4-3-.8-3.4-2.4s.8-2.6,2-3.8c1.2-1,2.2-2,1.8-3.4s-1.8-1.8-3.2-2.4c-1.4-.4-3.2-1-3.4-2.6s1-2.6,2.2-3.6,2.4-2,2-3.4-1.6-2-3.2-2.4c-1.4-.6-3-1.2-3.4-2.6-.2-1.6,1-2.6,2.2-3.6s2.2-1.8,2.2-3.4c-.2-1.4-1.6-2-3-2.6s-3-1.2-3.2-2.8,1.2-2.6,2.4-3.6,2.4-1.8,2.2-3.2-1.6-2-3-2.6-3-1.2-3.2-2.8,1.2-2.6,2.6-3.4c1.2-1,2.4-1.8,2.4-3.2s-1.4-2-2.8-2.8c-1.4-.6-3-1.4-3-3-.2-1.6,1.2-2.4,2.6-3.4,1.4-.8,2.4-1.6,2.4-3s-1.4-2.2-2.6-2.8C1.6,395.4.2,394.8.2,393c0-1.6,1.4-2.4,2.8-3.2s2.6-1.6,2.6-3-1.4-2.2-2.8-3S0,382.2,0,380.6s1.4-2.4,2.8-3.2,2.6-1.4,2.6-3c0-1.4-1.2-2.2-2.6-3S0,369.8.2,368.2c0-1.6,1.4-2.4,2.8-3.2s2.6-1.4,2.6-2.8S4.4,360,3,359c-1.2-.8-2.6-1.6-2.6-3.2v-.2c.2-1.6,1.6-2.4,3-3s2.8-1.2,2.8-2.8c.2-1.4-1.2-2.2-2.4-3.2-1.4-.8-2.6-1.8-2.6-3.4.2-1.6,1.6-2.2,3-3,1.4-.6,2.8-1.2,3-2.6s-1-2.4-2.2-3.2c-1.2-1-2.6-2-2.4-3.6s1.6-2.2,3.2-2.8c1.4-.6,2.8-1.2,3-2.6s-1-2.4-2.2-3.4-2.4-2-2.2-3.6c.4-1.6,1.8-2.2,3.4-2.6,1.4-.6,2.8-1,3-2.4s-.8-2.4-2-3.4-2.4-2-2.2-3.6,1.8-2.2,3.2-2.6,2.8-1,3.2-2.4-.8-2.4-1.8-3.4c-1.2-1-2.4-2.2-2-3.8s2-2,3.4-2.4,2.8-.8,3.2-2.2S15,287.2,14,286c-1.2-1.2-2.4-2.2-1.8-3.8.4-1.6,2-2,3.6-2.4s3-.8,3.4-2.2-.6-2.4-1.8-3.6-2.2-2.4-1.8-3.8c.4-1.6,2-2,3.6-2.2,1.4-.4,3-.6,3.4-2s-.4-2.4-1.6-3.6c-1-1.2-2.2-2.4-1.6-3.8.6-1.6,2.2-1.8,3.6-2.2,1.6-.2,3-.6,3.4-2s-.4-2.4-1.6-3.6c-1-1.2-2-2.4-1.6-4,.6-1.6,2.2-1.8,3.8-2s3-.4,3.6-1.8-.4-2.4-1.4-3.8c-1-1.2-2-2.6-1.4-4,.6-1.6,2.2-1.8,3.8-2s3-.4,3.6-1.6c.6-1.4-.2-2.4-1.2-3.8-1-1.2-1.8-2.6-1.2-4s2.2-1.6,3.8-1.8,3-.2,3.6-1.6-.2-2.6-1.2-3.8c-1-1.4-1.8-2.6-1.2-4,.8-1.4,2.4-1.6,4-1.6s3-.2,3.6-1.4c.6-1.4-.2-2.6-1-3.8-.8-1.4-1.8-2.8-1-4.2s2.4-1.6,4-1.6,3,0,3.8-1.2,0-2.6-.8-3.8c-.8-1.4-1.6-2.8-.8-4.2s2.4-1.4,4-1.4,3,0,3.8-1.2,0-2.6-.8-3.8c-.8-1.4-1.6-2.8-.6-4.2.8-1.4,2.6-1.2,4.2-1.2s3,.2,3.8-1,0-2.6-.6-4c-.8-1.4-1.4-2.8-.6-4.2s2.4-1.2,4-1.2c1.6.2,3,.2,3.8-1s.2-2.4-.4-3.8-1.4-2.8-.4-4.2,2.6-1.2,4.2-1,3,.4,3.8-.8.2-2.6-.4-4-1.2-3-.2-4.2,2.6-1,4.2-.8,3,.4,4-.8c.8-1.2.4-2.4-.2-4-.6-1.4-1.2-3-.2-4.2s2.6-1,4.2-.8,3,.6,4-.6.4-2.4,0-4c-.6-1.4-1-3,0-4.2s2.6-.8,4.2-.6,3,.6,3.8-.4c1-1.2.4-2.4,0-4s-1-3,.2-4.2,2.8-.8,4.2-.4c1.6.4,3,.8,4-.4,1-1,.6-2.4.2-4s-.8-3.2.2-4.2c1.2-1.2,2.8-.6,4.2-.2,1.6.4,3,.8,4-.2s.8-2.4.4-4-.8-3.2.4-4.2c1.2-1.2,2.8-.6,4.2-.2s2.8,1,4-.2c1-1,.8-2.4.4-3.8-.4-1.6-.6-3.2.6-4.2s2.8-.6,4.2,0c1.4.4,2.8,1,4,0s.8-2.4.6-4-.6-3.2.6-4.2,2.8-.4,4.2.2,2.8,1.2,4,.2c1.2-.8,1-2.4.8-3.8-.2-1.6-.4-3.2.8-4.2s2.8-.4,4.2.2,2.8,1.2,3.8.2c1.2-.8,1-2.2.8-3.8s-.4-3.2,1-4.2,2.8-.2,4.2.4,2.8,1.2,4,.4,1-2.4,1-3.8c-.2-1.6-.2-3.2,1-4.2,1.4-.8,2.8-.2,4.2.6s2.8,1.4,4,.6,1.2-2.2,1-3.8c0-1.6-.2-3.2,1.2-4.2,1.4-.8,2.8-.2,4.2.6s2.6,1.4,3.8.6,1.2-2.2,1.2-3.6c0-1.6,0-3.2,1.4-4a2.89,2.89,0,0,1,1.4-.4,5,5,0,0,1,2.8,1.2c1.4.8,2.6,1.6,3.8.8s1.2-2.2,1.2-3.8,0-3.2,1.4-4,2.8.2,4.2,1,2.6,1.6,3.8,1c1.4-.6,1.4-2.2,1.4-3.6,0-1.6.2-3.2,1.6-4s2.8.2,4,1,2.4,1.6,3.8,1,1.4-2,1.6-3.6.2-3.2,1.8-3.8c1.4-.6,2.8.4,4,1.2s2.4,1.8,3.8,1.2,1.4-2,1.6-3.6.4-3.2,1.8-3.8c1.6-.6,2.8.4,4,1.4s2.4,1.8,3.8,1.4c1.4-.6,1.6-2,1.8-3.6s.4-3.2,2-3.8,2.8.4,4,1.4,2.2,1.8,3.6,1.4,1.6-1.8,2-3.4c.2-1.6.6-3.2,2.2-3.6s2.8.6,4,1.6,2.2,2,3.6,1.6,1.6-2,2-3.4c.4-1.6.6-3.2,2.2-3.6s2.8.6,3.8,1.8c1.2,1.2,2.2,2.2,3.6,1.8s1.8-1.8,2.2-3.4.8-3.2,2.4-3.6,2.8.8,3.8,1.8c1,1.2,2,2.2,3.6,1.8,1.4-.4,1.8-1.8,2.2-3.2.4-1.6.8-3,2.4-3.4s2.6.8,3.8,2c1,1.2,2,2.2,3.4,1.8s1.8-1.8,2.4-3.2c.4-1.6,1-3.2,2.6-3.4s2.6,1,3.6,2.2,2,2.4,3.4,2,2-1.6,2.4-3.2c.6-1.4,1.2-3,2.6-3.4,1.6-.2,2.6,1,3.6,2.2s1.8,2.2,3.4,2.2c1.4-.2,2-1.6,2.6-3s1.2-3,2.8-3.2,2.6,1.2,3.6,2.4,1.8,2.4,3.2,2.2,2-1.6,2.6-3,1.2-3,2.8-3.2S343,2.6,343.8,4c1,1.2,1.8,2.4,3.2,2.4s2-1.4,2.8-2.8c.6-1.4,1.4-3,3-3h.2c1.4,0,2.4,1.4,3.2,2.6.8,1.4,1.6,2.4,3,2.4S361.4,4.2,362,3c.8-1.4,1.4-2.8,3-2.8h0c1.6,0,2.4,1.4,3.2,2.8s1.6,2.6,3,2.6,2.2-1.4,3-2.8S375.8,0,377.4,0h.2c1.6,0,2.4,1.4,3,2.8.8,1.4,1.4,2.6,3,2.6,1.4,0,2.2-1.2,3-2.6S388.2,0,389.8.2c1.6,0,2.4,1.4,3.2,2.8s1.4,2.6,2.8,2.6,2.2-1.2,3-2.6S400.6.4,402.2.4c1.6.2,2.4,1.6,3,3s1.2,2.8,2.8,2.8c1.4.2,2.2-1.2,3.2-2.4.8-1.4,1.8-2.6,3.4-2.6,1.6.2,2.2,1.6,3,3,.6,1.4,1.2,2.8,2.6,3s2.2-1,3.2-2.2,2-2.6,3.6-2.4,2.2,1.6,2.8,3.2c.6,1.4,1.2,2.8,2.6,3s2.4-1,3.4-2.2,2-2.4,3.6-2.2c1.6.4,2.2,1.8,2.6,3.4.6,1.4,1,2.8,2.4,3s2.4-.8,3.4-2,2-2.4,3.6-2.2c1.6.4,2.2,1.8,2.6,3.4.4,1.4,1,2.8,2.4,3.2s2.4-.8,3.4-1.8c1-1.2,2.2-2.4,3.8-2s2,2,2.4,3.4.8,2.8,2.2,3.2,2.4-.8,3.6-1.8c1-1.2,2.2-2.4,3.8-1.8,1.6.4,2,2,2.4,3.6s.8,3,2.2,3.4,2.4-.6,3.6-1.8,2.4-2.2,3.8-1.8c1.6.4,2,2,2.2,3.6.4,1.4.6,3,2,3.4s2.4-.4,3.6-1.6c1.2-1,2.4-2.2,4-1.6s1.8,2.2,2.2,3.6c.2,1.6.6,3,2,3.4s2.4-.4,3.6-1.6c1.2-1,2.4-2,4-1.6,1.6.6,1.8,2.2,2,3.8s.4,3,1.8,3.6,2.4-.4,3.8-1.4c1.2-1,2.6-2,4-1.4,1.6.6,1.8,2.2,2,3.8s.4,3,1.6,3.6c1.4.6,2.4-.2,3.8-1.2,1.2-1,2.6-1.8,4-1.2s1.6,2.2,1.8,3.8.2,3,1.6,3.6,2.6-.2,3.8-1.2,2.6-1.8,4-1,1.6,2.4,1.6,4,.2,3,1.4,3.6,2.6-.2,3.8-1c1.4-.8,2.8-1.8,4.2-1s1.6,2.4,1.6,4,0,3,1.4,3.8c1.2.8,2.6,0,3.8-.8,1.4-.8,2.8-1.6,4.2-.8s1.4,2.4,1.4,4,0,3,1.2,3.8,2.6,0,4-.8,2.8-1.6,4.2-.6c1.4.8,1.2,2.6,1.2,4.2s-.2,3,1,3.8,2.6,0,4-.6c1.4-.8,2.8-1.4,4.2-.6s1.2,2.4,1.2,4c-.2,1.6-.2,3,1,3.8s2.4.2,4-.4c1.4-.6,2.8-1.4,4.2-.4s1.2,2.6,1,4.2-.4,3,.8,3.8,2.6.2,4-.4,3-1.2,4.2-.2,1,2.6.8,4.2-.4,3,.8,4c1.2.8,2.4.4,4-.2,1.4-.6,3-1.2,4.2-.2s1,2.6.8,4.2-.6,3,.6,4,2.4.4,4,0c1.4-.6,3-1,4.2,0s.8,2.6.6,4.2c-.4,1.6-.6,3,.4,3.8,1.2,1,2.4.4,4,0s3-1,4.2.2.8,2.8.4,4.2c-.4,1.6-.8,3,.4,4,1,1,2.4.6,4,.2s3.2-.8,4.2.2c1.2,1.2.8,2.8.2,4.2-.4,1.6-.8,3,.2,4s2.4.8,4,.4,3.2-.8,4.2.4.6,2.8.2,4.2-1,2.8.2,4c1,1,2.4.8,4,.4s3.2-.6,4.2.6.6,2.8,0,4.2c-.4,1.4-1,2.8,0,4s2.4.8,4,.6,3.2-.6,4.2.6.4,2.8-.2,4.2-1.2,2.8-.2,4c.8,1.2,2.4,1,3.8.8,1.6-.2,3.2-.4,4.2.8s.4,2.8-.2,4.2-1.2,2.8-.2,3.8c.8,1.2,2.2,1,3.8.8s3.2-.4,4,1c1,1.4.2,2.8-.4,4.2s-1.2,2.8-.4,4,2.4,1,3.8,1c1.6-.2,3.2-.2,4.2,1,.8,1.4.2,2.8-.6,4.2s-1.4,2.8-.6,4,2.2,1.2,3.8,1c1.6,0,3.2-.2,4,1.2s0,2.8-.6,4.2c-.8,1.4-1.4,2.6-.6,3.8s2.2,1.2,3.8,1.2,3.2,0,4,1.4,0,2.8-.8,4.2-1.6,2.6-.8,3.8,2.2,1.2,3.8,1.2,3.4,0,4,1.4c.8,1.4-.2,2.8-1,4.2s-1.6,2.6-1,3.8c.6,1.4,2.2,1.4,3.6,1.4,1.6,0,3.2.2,4,1.6s-.2,2.8-1,4-1.6,2.4-1,3.8,2,1.4,3.6,1.6,3.2.2,3.8,1.8c.6,1.4-.2,2.8-1.2,4s-1.8,2.4-1.2,3.8,2,1.4,3.6,1.6,3.2.4,3.8,1.8c.6,1.6-.4,2.8-1.4,4s-1.8,2.4-1.4,3.8c.6,1.4,2,1.6,3.6,1.8s3.2.4,3.8,2-.4,2.8-1.4,4-1.8,2.2-1.4,3.6,1.8,1.6,3.4,2c1.6.2,3.2.6,3.6,2.2s-.6,2.8-1.6,4-2,2.2-1.6,3.6,1.8,1.6,3.4,2,3.2.6,3.6,2.2-.8,2.8-1.8,3.8c-1,1.2-2,2.2-1.8,3.6.4,1.4,1.8,1.8,3.4,2.2s3.2.8,3.6,2.4-.8,2.8-1.8,3.8c-1.2,1-2.2,2-1.8,3.6.4,1.4,1.8,1.8,3.2,2.2,1.6.4,3,.8,3.4,2.4s-.8,2.6-2,3.8c-1.2,1-2.2,2-1.8,3.4s1.8,1.8,3.2,2.4c1.4.4,3.2,1,3.4,2.6s-1,2.6-2.2,3.6-2.4,2-2,3.4,1.6,2,3,2.4c1.4.6,3,1.2,3.4,2.6.2,1.6-1,2.6-2.2,3.6s-2.2,1.8-2,3.4c.2,1.4,1.6,2,3,2.6s3,1.2,3.2,2.8-1,2.6-2.4,3.6c-1.2,1-2.4,1.8-2.2,3.2s1.6,2,3,2.6,3,1.2,3.2,2.8-1.2,2.6-2.6,3.4c-1.2,1-2.4,1.8-2.4,3.2.2,1.4,1.4,2,2.8,2.8,1.4.6,3,1.4,3,3,.2,1.6-1.2,2.4-2.6,3.4-1.4.8-2.4,1.6-2.4,3s1.4,2.2,2.6,2.8c1.4.8,2.8,1.4,2.8,3s-1.4,2.4-2.8,3.2-2.6,1.6-2.6,3,1.4,2.2,2.8,3C756.4,374.4,757.8,375.4,757.8,377Zm-1.8,1.2a2.84,2.84,0,0,0,.4-1.2c0-1.6-1.4-2.2-2.8-3s-2.8-1.6-2.8-3.2,1.4-2.4,2.8-3.2,2.6-1.6,2.6-3-1.4-2.2-2.8-2.8c-1.4-.8-2.8-1.4-2.8-3-.2-1.6,1.2-2.4,2.6-3.4,1.2-.8,2.4-1.6,2.4-3.2-.2-1.4-1.4-2.2-2.8-2.8s-3-1.4-3-3c-.2-1.6,1.2-2.6,2.6-3.4,1.2-.8,2.4-1.8,2.4-3.2-.2-1.4-1.6-2-3-2.6s-3-1.2-3.2-2.8,1-2.6,2.4-3.4c1.2-1,2.4-1.8,2.2-3.2s-1.6-2-3-2.6-3-1.2-3.2-2.8,1-2.6,2.2-3.6,2.4-1.8,2-3.4c-.2-1.4-1.6-2-3.2-2.4-1.4-.6-3-1-3.2-2.6s1-2.6,2.2-3.6,2.2-2,2-3.4-1.8-2-3.2-2.4c-1.6-.4-3-1-3.4-2.4-.4-1.6.8-2.6,2-3.6s2.2-2,1.8-3.4-1.8-1.8-3.2-2.2c-1.6-.4-3-.8-3.4-2.4s.8-2.6,2-3.8c1-1,2.2-2.2,1.8-3.6s-1.8-1.8-3.4-2.2-3.2-.8-3.6-2.2c-.4-1.6.8-2.8,1.8-3.8,1-1.2,2.2-2.2,1.8-3.6s-1.8-1.8-3.4-2c-1.6-.4-3.2-.6-3.6-2.2-.6-1.6.6-2.6,1.6-3.8s2-2.2,1.6-3.6-2-1.6-3.4-2c-1.6-.2-3.2-.6-3.6-2-.4-1.6.6-2.8,1.6-4s2-2.2,1.4-3.6-2-1.6-3.6-1.8-3.2-.4-3.8-2c-.6-1.4.4-2.8,1.4-4s1.8-2.4,1.4-3.8c-.6-1.4-2-1.6-3.6-1.8s-3.2-.4-3.8-1.8.2-2.8,1.2-4,1.8-2.4,1.2-3.8-2-1.4-3.6-1.6-3.2-.2-3.8-1.8c-.6-1.4.2-2.8,1.2-4,.8-1.2,1.6-2.4,1-3.8s-2.2-1.4-3.6-1.4c-1.6,0-3.2-.2-4-1.6s.2-2.8,1-4.2,1.6-2.6,1-3.8c-.6-1.4-2.2-1.4-3.8-1.4s-3.2,0-4-1.4,0-2.8.8-4.2,1.6-2.6.8-3.8-2.2-1.2-3.8-1.2-3.2,0-4-1.4,0-2.8.8-4.2,1.4-2.6.6-3.8-2.2-1.2-3.8-1.2c-1.6.2-3.2.2-4-1.2s-.2-2.8.6-4.2,1.4-2.8.6-4-2.4-1-3.8-1c-1.6.2-3.2.2-4.2-1s-.2-2.8.4-4.2,1.2-2.8.4-4-2.4-1-3.8-.8c-1.6.2-3.2.4-4-1-1-1.2-.4-2.8.2-4.2s1.2-2.8.2-4-2.4-1-4-.8-3.2.4-4.2-.8-.4-2.8.2-4.2,1.2-2.8.2-4-2.4-.8-4-.6-3.2.6-4.2-.6-.4-2.8,0-4.2c.6-1.4,1-2.8,0-4s-2.4-.8-4-.4-3,.6-4.2-.4c-1-1.2-.6-2.6-.2-4.2.4-1.4.8-2.8-.2-4-1-1-2.4-.8-4-.4s-3.2.8-4.2-.4c-1.2-1.2-.6-2.8-.2-4.2.4-1.6.8-3-.2-4s-2.4-.6-4-.2-3,1-4.2-.2c-1.2-1-.8-2.6-.4-4.2s.8-3-.4-4c-1-1-2.4-.6-4-.2-1.4.4-3,1-4.2,0s-.8-2.6-.6-4.2c.4-1.6.6-3-.6-3.8-1.2-1-2.4-.4-4,0-1.4.6-3,1.2-4.2,0-1.2-1-.8-2.6-.6-4.2s.6-3-.6-3.8c-1.2-1-2.6-.4-4,.2s-3,1.2-4.2.2-1-2.6-.8-4.2.4-3-.8-3.8c-1.2-1-2.4-.4-4,.2-1.4.6-3,1.4-4.2.4-1.2-.8-1-2.6-1-4,.2-1.6.4-3-.8-3.8s-2.6-.2-4,.4-3,1.4-4.2.4-1.2-2.6-1-4.2.2-3-1-3.8-2.6-.2-4,.6-2.8,1.6-4.2.6c-1.4-.8-1.2-2.4-1.2-4,.2-1.6.2-3-1-3.8s-2.6,0-3.8.6c-1.4.8-2.8,1.6-4.2.8s-1.4-2.4-1.4-4,0-3-1.2-3.8-2.6,0-3.8.8c-1.4.8-2.8,1.6-4.2.8s-1.4-2.4-1.4-4-.2-3-1.4-3.6c-1.4-.6-2.6.2-3.8,1-1.4.8-2.6,1.8-4,1s-1.4-2.4-1.6-4c0-1.6-.2-3-1.4-3.8-1.4-.6-2.4.2-3.8,1-1.4,1-2.6,1.8-4,1.2s-1.6-2.2-1.8-3.8-.2-3-1.6-3.6-2.6.2-3.8,1.2-2.6,1.8-4,1.2-1.6-2.4-1.8-3.8c-.2-1.6-.4-3-1.8-3.6s-2.6.4-3.8,1.4-2.4,2-4,1.4c-1.4-.6-1.8-2.2-2-3.8s-.4-3-1.8-3.6-2.4.4-3.6,1.4-2.4,2.2-4,1.6-1.8-2.2-2-3.6c-.2-1.6-.6-3-2-3.4s-2.4.4-3.6,1.6c-1.2,1-2.4,2.2-3.8,1.6-1.6-.6-1.8-2.2-2.2-3.6s-.6-3-2-3.4-2.4.6-3.6,1.6c-1.2,1.2-2.2,2.2-3.8,1.8s-2-2-2.2-3.6c-.4-1.6-.8-3-2.2-3.4s-2.4.6-3.6,1.8-2.2,2.4-3.8,2-2-1.8-2.4-3.4c-.4-1.4-.8-2.8-2.4-3.2-1.4-.4-2.4.8-3.4,2s-2.2,2.4-3.6,2c-1.6-.4-2-2-2.6-3.4-.4-1.4-1-2.8-2.4-3s-2.4.8-3.4,2-2,2.4-3.6,2.2-2.2-1.8-2.6-3.4c-.6-1.4-1-2.8-2.4-3.2-1.4-.2-2.4.8-3.4,2s-2,2.6-3.6,2.4-2.2-1.6-2.8-3.2c-.6-1.4-1.2-2.8-2.6-3s-2.4,1-3.2,2.2c-1,1.2-1.8,2.6-3.4,2.4s-2.2-1.8-2.8-3.2-1.2-2.8-2.6-2.8c-1.4-.2-2.4,1.2-3.2,2.4-1,1.4-1.8,2.6-3.4,2.6-1.6-.2-2.2-1.6-3-3C404.4,2,403.6.6,402.2.6c-1.4-.2-2.2,1-3,2.4-.8,1.2-1.8,2.6-3.4,2.6s-2.4-1.4-3-2.8C392,1.4,391.4.2,390,.2c-1.6,0-2.2,1.2-3,2.6s-1.6,2.8-3.2,2.8-2.4-1.6-3.2-2.8c-.8-1.4-1.4-2.8-3-2.6-1.6,0-2.2,1.4-3,2.8s-1.6,2.8-3.2,2.8-2.4-1.4-3.2-2.6c-.8-1.4-1.6-2.6-3-2.6S363,2,362.4,3.2c-.8,1.4-1.4,2.8-3,2.8-1.6.2-2.4-1.2-3.4-2.6-.8-1.2-1.6-2.4-3.2-2.4-1.4.2-2.2,1.4-2.8,2.8s-1.4,3-3,3-2.6-1.2-3.4-2.6c-.8-1.2-1.8-2.4-3.2-2.4-1.4.2-2,1.6-2.6,3s-1.2,3-2.8,3.2-2.6-1.2-3.4-2.4c-1-1.2-1.8-2.4-3.2-2.2s-2,1.6-2.6,3-1.2,3-2.8,3.2-2.6-1-3.6-2.2-1.8-2.4-3.4-2c-1.4.2-2,1.6-2.4,3.2s-1,3-2.6,3.4-2.6-1-3.6-2.2-2-2.4-3.4-2c-1.4.2-2,1.6-2.4,3.2s-1,3.2-2.4,3.4c-1.6.4-2.6-.8-3.6-2s-2-2.2-3.4-1.8-1.8,1.8-2.2,3.2c-.4,1.6-.8,3-2.4,3.4s-2.6-.8-3.8-2c-1-1-2.2-2.2-3.6-1.8s-1.8,1.8-2.2,3.4-.8,3.2-2.2,3.6c-1.6.4-2.6-.8-3.8-1.8s-2.2-2-3.6-1.6-1.8,1.8-2,3.4c-.4,1.6-.6,3.2-2.2,3.6-1.6.6-2.6-.6-3.8-1.6s-2.2-2-3.6-1.6-1.6,1.8-2,3.4c-.2,1.6-.6,3.2-2,3.6-1.6.4-2.8-.6-4-1.6s-2.2-1.8-3.6-1.4c-1.4.6-1.6,2-1.8,3.6s-.4,3.2-2,3.8c-1.4.6-2.8-.4-4-1.4s-2.4-1.8-3.8-1.4c-1.4.6-1.6,2-1.8,3.6s-.4,3.2-1.8,3.8-2.8-.2-4-1.2-2.4-1.8-3.8-1.2-1.4,2-1.6,3.6-.2,3.2-1.8,3.8c-1.4.6-2.8-.2-4-1.2-1.2-.8-2.4-1.6-3.8-1s-1.4,2.2-1.4,3.6c0,1.6-.2,3.2-1.6,4s-2.8-.2-4.2-1-2.6-1.6-3.8-1c-1.4.6-1.4,2.2-1.4,3.8s0,3.2-1.4,4-2.8,0-4.2-.8a4.71,4.71,0,0,0-2.6-1,2.54,2.54,0,0,0-1.2.2c-1.2.8-1.2,2.2-1.2,3.8s0,3.2-1.4,4-2.8,0-4.2-.8-2.6-1.4-3.8-.6-1.2,2.2-1.2,3.8c.2,1.6.2,3.2-1.2,4s-2.8.2-4.2-.6-2.8-1.4-4-.6-1,2.4-1,3.8c.2,1.6.2,3.2-1,4.2s-2.8.2-4.2-.4-2.8-1.2-4-.4-1,2.4-.8,3.8c.2,1.6.4,3.2-1,4-1.2,1-2.8.4-4.2-.2s-2.8-1.2-4-.2-1,2.4-.8,3.8c.2,1.6.4,3.2-.8,4.2s-2.8.4-4.2-.2-2.8-1.2-4-.2-.8,2.4-.6,4,.6,3.2-.6,4.2-2.8.4-4.2,0c-1.4-.6-2.8-1-4,0s-.8,2.4-.4,3.8c.4,1.6.6,3-.4,4.2-1.2,1-2.6.6-4.2.2-1.4-.4-2.8-.8-4,.2-1,1-.8,2.4-.4,4s.8,3-.4,4.2-2.8.6-4.2.2c-1.6-.4-3-.8-4,.2s-.6,2.4-.2,4,1,3.2-.2,4.2c-1,1.2-2.6.8-4.2.4s-3-.8-4,.4c-1,1-.6,2.4-.2,4,.4,1.4,1,3,0,4.2s-2.6.8-4.2.6c-1.6-.4-3-.6-3.8.6-1,1.2-.4,2.4,0,4,.6,1.4,1.2,3,0,4.2-1,1.2-2.6.8-4.2.6s-3-.6-3.8.6c-1,1.2-.4,2.6.2,4s1.2,3,.2,4.2-2.6,1-4.2.8-3-.4-3.8.8c-1,1.2-.4,2.4.2,4,.6,1.4,1.4,3,.4,4.2-.8,1.2-2.6,1.2-4,1-1.6-.2-3-.4-3.8.8s-.2,2.6.4,4,1.4,3,.4,4.2-2.6,1.2-4.2,1-3-.2-3.8,1-.2,2.6.6,4,1.6,2.8.6,4.2c-.8,1.4-2.4,1.2-4,1.2s-3-.2-3.8,1,0,2.6.6,3.8c.8,1.4,1.6,2.8.8,4.2s-2.4,1.4-4,1.4-3,0-3.8,1.2,0,2.6.8,3.8c.8,1.4,1.6,2.8.8,4.2s-2.4,1.4-4,1.4-3,0-3.6,1.4.2,2.6,1,3.8c.8,1.4,1.8,2.6,1,4s-2.4,1.4-4,1.6c-1.6,0-3,.2-3.8,1.4-.6,1.4.2,2.4,1,3.8,1,1.2,1.8,2.6,1.2,4s-2.2,1.6-3.8,1.8-3,.2-3.6,1.6.2,2.6,1.2,3.8,1.8,2.6,1.2,4-2.4,1.6-3.8,1.8c-1.6.2-3,.4-3.6,1.8s.4,2.6,1.4,3.8,2,2.4,1.4,4c-.6,1.4-2.2,1.6-3.8,2-1.6.2-3,.4-3.6,1.8s.4,2.4,1.4,3.6,2.2,2.4,1.6,4-2.2,1.8-3.6,2c-1.6.2-3,.6-3.4,2s.4,2.4,1.6,3.6c1,1.2,2.2,2.4,1.6,3.8-.6,1.6-2.2,1.8-3.6,2.2s-3,.6-3.4,2,.6,2.4,1.6,3.6c1.2,1.2,2.2,2.2,1.8,3.8s-2,2-3.6,2.2c-1.6.4-3,.8-3.4,2.2s.6,2.4,1.8,3.6c1.2,1,2.4,2.2,2,3.8s-1.8,2-3.4,2.4c-1.4.4-2.8.8-3.2,2.4-.4,1.4.8,2.4,2,3.4s2.4,2.2,2,3.6c-.4,1.6-2,2-3.4,2.6-1.4.4-2.8,1-3,2.4s.8,2.4,2,3.4,2.4,2,2.2,3.6-1.8,2.2-3.4,2.6c-1.4.6-2.8,1-3.2,2.4C5,319,6,320,7.2,321s2.6,2,2.4,3.6-1.6,2.2-3.2,2.8c-1.4.6-2.8,1.2-3,2.6s1,2.4,2.2,3.2c1.2,1,2.6,1.8,2.4,3.4s-1.8,2.2-3.2,2.8S2,340.6,2,342c-.2,1.4,1.2,2.4,2.4,3.2,1.4,1,2.6,1.8,2.6,3.4-.2,1.6-1.6,2.2-3,3-1.4.6-2.8,1.4-2.8,2.8-.2,1.4,1,2.2,2.4,3,1.2.8,2.6,1.8,2.6,3.4s-1.4,2.4-2.8,3c-1.4.8-2.6,1.4-2.6,2.8s1.2,2.2,2.6,3,2.8,1.6,2.8,3.2-1.6,2.4-2.8,3.2c-1.4.8-2.8,1.4-2.6,3,0,1.6,1.4,2.2,2.8,3s2.8,1.6,2.8,3.2h0c0,1.6-1.4,2.4-2.8,3.2S1,390,1,391.4s1.4,2.2,2.6,2.8c1.4.8,2.8,1.4,2.8,3,.2,1.6-1.2,2.4-2.6,3.4-1.2.8-2.4,1.6-2.4,3.2.2,1.4,1.4,2.2,2.8,2.8s3,1.4,3,3S6,412,4.6,413c-1.2.8-2.4,1.8-2.4,3.2.2,1.4,1.6,2,3,2.6s3,1.2,3.2,2.8S7.2,424.2,6,425c-1.2,1-2.4,1.8-2.2,3.2s1.6,2,3,2.6,3,1.2,3.2,2.8-1,2.6-2.2,3.6-2.4,1.8-2,3.4c.2,1.4,1.6,2,3.2,2.4s3,1,3.4,2.6-1,2.6-2.2,3.6-2.4,2-2,3.4c.2,1.4,1.6,2,3.2,2.4s3.2,1,3.4,2.4c.4,1.6-.8,2.6-2,3.6s-2.2,2-1.8,3.4,1.8,1.8,3.2,2.2c1.6.4,3,.8,3.4,2.4s-.8,2.6-2,3.8c-1,1-2.2,2-1.8,3.6.4,1.4,1.8,1.8,3.4,2.2s3.2.8,3.6,2.2c.4,1.6-.8,2.6-1.8,3.8s-2,2.2-1.6,3.6,1.8,1.8,3.4,2c1.6.4,3.2.6,3.6,2.2.6,1.6-.6,2.8-1.6,3.8-1,1.2-2,2.2-1.6,3.6s1.8,1.6,3.4,2c1.6.2,3.2.6,3.6,2,.4,1.6-.6,2.8-1.6,4s-1.8,2.2-1.4,3.6c.6,1.4,2,1.6,3.6,1.8s3.2.4,3.8,2c.6,1.4-.4,2.8-1.4,4s-1.8,2.4-1.4,3.8c.6,1.4,2,1.6,3.6,1.8s3.2.4,3.8,1.8-.4,2.8-1.2,4c-1,1.2-1.8,2.4-1.2,3.8s2,1.4,3.6,1.6,3.2.2,3.8,1.6-.2,2.8-1.2,4c-.8,1.2-1.6,2.4-1,3.8s2.2,1.4,3.6,1.4c1.6,0,3.2.2,4,1.6s-.2,2.8-1,4c-.8,1.4-1.6,2.6-1,3.8.6,1.4,2.2,1.4,3.8,1.4s3.2,0,4,1.4,0,2.8-.8,4.2-1.6,2.6-.8,3.8,2.2,1.2,3.8,1.2,3.2,0,4,1.2c.8,1.4,0,2.8-.8,4.2s-1.4,2.6-.6,3.8,2.2,1.2,3.8,1c1.6,0,3.2-.2,4,1.2s.2,2.8-.6,4.2-1.4,2.8-.6,4,2.4,1,3.8,1c1.6-.2,3.2-.2,4.2,1s.2,2.8-.4,4.2-1.2,2.8-.4,4,2.4,1,3.8.8c1.6-.2,3.2-.4,4,1,1,1.2.4,2.8-.2,4.2s-1.2,2.8-.2,4,2.4,1,3.8.8c1.6-.2,3.2-.4,4.2.8s.4,2.8-.2,4.2-1.2,2.8-.2,4,2.4.8,4,.6,3.2-.6,4.2.6.4,2.8,0,4.2c-.6,1.4-1,2.8,0,4s2.4.8,3.8.4c1.6-.4,3-.6,4.2.4,1,1.2.6,2.6.2,4.2-.4,1.4-.8,2.8.2,4,1,1,2.4.8,4,.4s3-.8,4.2.4.6,2.8.2,4.2c-.4,1.6-.8,3,.2,4s2.4.6,4,.2,3.2-1,4.2.2c1.2,1,.8,2.6.4,4.2s-.8,3,.4,4c1,1,2.4.6,4,.2,1.4-.4,3-1,4.2,0s.8,2.6.6,4.2c-.4,1.6-.6,3,.6,4s2.4.4,4,0c1.4-.6,3-1,4.2,0s.8,2.6.6,4.2-.6,3,.6,4,2.6.4,4-.2,3-1.2,4.2-.2,1,2.6.8,4.2-.4,3,.8,4,2.4.4,4-.2c1.4-.6,3-1.4,4.2-.4s1.2,2.6,1,4c-.2,1.6-.4,3,.8,3.8s2.6.2,4-.4,2.8-1.4,4.2-.4c1.2,1,1.2,2.6,1,4.2s-.2,3,1,3.8,2.6.2,4-.6,2.8-1.6,4.2-.6c1.4.8,1.2,2.4,1.2,4s-.2,3,1,3.8,2.6,0,3.8-.6c1.4-.8,2.8-1.6,4.2-.8s1.4,2.4,1.4,4a6.36,6.36,0,0,0,.4,2.8,1.64,1.64,0,0,0,1,1c1.2.8,2.6,0,3.8-.8,1.4-.8,2.8-1.6,4.2-.8s1.4,2.4,1.4,4,0,3,1.4,3.6,2.6-.2,3.8-1c1.4-.8,2.6-1.8,4-1s1.4,2.4,1.6,4c0,1.6.2,3,1.4,3.6,1.4.6,2.4,0,3.8-1,1.2-1,2.6-1.8,4-1.2s1.6,2.2,1.8,3.8.2,3,1.6,3.6,2.6-.2,3.8-1.2,2.6-2,4-1.2c1.4.6,1.6,2.4,1.8,3.8.2,1.6.4,3,1.8,3.6s2.6-.4,3.8-1.4,2.4-2,4-1.4c1.4.6,1.6,2.2,2,3.8.2,1.6.4,3,1.8,3.6s2.4-.4,3.6-1.4,2.4-2.2,4-1.6,1.8,2,2,3.6.6,3,2,3.4,2.4-.4,3.6-1.6c1.2-1,2.4-2.2,3.8-1.6,1.6.6,1.8,2.2,2.2,3.6s.6,3,2,3.2c1.4.4,2.4-.6,3.6-1.6,1.2-1.2,2.2-2.2,3.8-1.8s2,2,2.2,3.6c.4,1.6.8,3,2.2,3.4s2.4-.6,3.6-1.8c1-1.2,2.2-2.4,3.8-2s2,2,2.4,3.4.8,2.8,2.4,3.2c1.4.4,2.4-.8,3.4-1.8,1-1.2,2.2-2.4,3.6-2,1.6.4,2,2,2.6,3.4.4,1.4,1,2.8,2.4,3.2,1.4.2,2.4-.8,3.4-2s2-2.4,3.6-2.2,2.2,1.8,2.6,3.4c.6,1.4,1,2.8,2.4,3s2.4-.8,3.4-2,2-2.6,3.6-2.4,2.2,1.8,2.8,3.2,1.2,2.8,2.6,3,2.4-1,3.2-2.2c1-1.2,2-2.6,3.4-2.4,1.6.2,2.2,1.8,2.8,3.2s1.2,2.8,2.6,2.8,2.4-1.2,3.2-2.4c1-1.2,1.8-2.6,3.4-2.6,1.6.2,2.2,1.6,3,3,.6,1.4,1.4,2.8,2.8,2.8,1.4.2,2.2-1,3-2.4.8-1.2,1.8-2.6,3.4-2.6s2.4,1.4,3,2.8c.8,1.4,1.4,2.6,2.8,2.8,1.4,0,2.2-1.2,3-2.6s1.6-2.8,3.2-2.8,2.4,1.6,3.2,2.8c.8,1.4,1.4,2.8,3,2.6,1.6,0,2.2-1.4,3-2.8s1.6-2.8,3.2-2.8h0c1.6,0,2.4,1.4,3.2,2.8s1.6,2.6,3,2.6,2.2-1.4,2.8-2.8c.8-1.4,1.4-2.8,3-2.8,1.6-.2,2.4,1.2,3.4,2.6.8,1.2,1.6,2.4,3.2,2.4,1.4-.2,2.2-1.4,2.8-2.8s1.4-3,3-3c1.6-.2,2.4,1.2,3.4,2.6.8,1.2,1.8,2.4,3.2,2.4,1.4-.2,2-1.6,2.6-3s1.2-3,2.8-3.2,2.6,1,3.4,2.4c1,1.2,1.8,2.4,3.2,2.2s2-1.6,2.6-3,1.2-3,2.8-3.2,2.6,1,3.6,2.2,1.8,2.4,3.4,2c1.4-.2,2-1.6,2.4-3.2.6-1.4,1-3,2.6-3.2s2.6,1,3.6,2.2,2,2.2,3.4,2,2-1.8,2.4-3.2c.4-1.6,1-3,2.4-3.4,1.6-.4,2.6.8,3.6,2s2,2.2,3.4,1.8,1.8-1.8,2.2-3.2c.4-1.6.8-3,2.4-3.4s2.6.8,3.8,2c1,1,2,2.2,3.6,1.8,1.4-.4,1.8-1.8,2.2-3.4s.8-3.2,2.2-3.6c1.6-.4,2.6.8,3.8,1.8s2.2,2.2,3.6,1.8,1.8-1.8,2-3.4c.4-1.6.6-3.2,2.2-3.6,1.6-.6,2.8.6,3.8,1.6,1.2,1,2.2,2,3.6,1.6s1.6-2,2-3.4c.2-1.6.6-3.2,2-3.6,1.6-.4,2.8.6,4,1.6s2.2,2,3.6,1.4,1.6-2,1.8-3.6.4-3.2,2-3.8c1.4-.6,2.8.4,4,1.4s2.4,1.8,3.8,1.4c1.4-.6,1.6-2,1.8-3.6s.4-3.2,1.8-3.8,2.8.2,4,1.2,2.4,1.8,3.8,1.2,1.4-2,1.6-3.6.2-3.2,1.6-3.8,2.8.2,4,1.2c1.2.8,2.4,1.6,3.8,1s1.4-2.2,1.4-3.6c0-1.6.2-3.2,1.6-4s2.8.2,4.2,1c1.2.8,2.6,1.6,3.8,1,1.4-.6,1.4-2.2,1.4-3.8s0-3.2,1.4-4,2.8,0,4.2.8,2.6,1.6,3.8.8,1.2-2.2,1.2-3.8,0-3.2,1.4-4,2.8,0,4.2.8,2.6,1.4,3.8.6,1.2-2.2,1-3.8c0-1.6-.2-3.2,1.2-4s2.8-.2,4.2.6,2.8,1.4,4,.6,1-2.4,1-3.8c-.2-1.6-.2-3.2,1-4.2s2.8-.2,4.2.4,2.8,1.2,4,.4,1-2.4.8-3.8c-.2-1.6-.4-3.2,1-4,1.2-1,2.8-.4,4.2.2s2.8,1.2,4,.2,1-2.4.8-4-.4-3.2.8-4.2,2.8-.4,4.2.2,2.8,1.2,4,.2.8-2.4.6-4-.6-3.2.6-4.2,2.8-.4,4.2,0c1.4.6,2.8,1,4,0s.8-2.4.4-4-.6-3,.4-4.2c1.2-1,2.6-.6,4.2-.2,1.4.4,2.8.8,4-.2,1-1,.8-2.4.4-4s-.8-3.2.4-4.2c1.2-1.2,2.8-.6,4.2-.2,1.6.4,3,.8,4-.2s.6-2.4.2-4-1-3,.2-4.2c1-1.2,2.6-.8,4.2-.4s3,.8,4-.4c1-1,.6-2.4.2-4-.4-1.4-1-3,0-4.2s2.6-.8,4.2-.6c1.6.4,3,.6,4-.6s.4-2.4,0-4c-.6-1.4-1-3,0-4.2s2.6-.8,4.2-.6,3,.6,4-.6.4-2.6-.2-4-1.2-3-.2-4.2,2.6-1,4.2-.8,3,.4,4-.8.4-2.4-.2-4c-.6-1.4-1.4-3-.4-4.2s2.6-1,4.2-1c1.6.2,3,.4,3.8-.8s.2-2.6-.4-4-1.4-2.8-.4-4.2c1-1.2,2.6-1.2,4.2-1s3,.2,3.8-1,.2-2.6-.6-4-1.6-2.8-.6-4.2c.8-1.4,2.4-1.2,4-1.2s3,.2,3.8-1,0-2.6-.6-3.8c-.8-1.4-1.6-2.8-.8-4.2s2.4-1.4,4-1.4,3,0,3.8-1.2,0-2.6-.8-3.8c-.8-1.4-1.6-2.8-.8-4.2s2.4-1.4,4-1.4,3,0,3.6-1.4-.2-2.6-1-3.8c-.8-1.4-1.8-2.6-1-4s2.4-1.4,4-1.6c1.6,0,3-.2,3.6-1.4.6-1.4,0-2.4-1-3.8s-1.8-2.6-1.2-4,2.2-1.6,3.8-1.8,3-.2,3.6-1.6-.2-2.6-1.2-3.8-2-2.6-1.2-4c.6-1.4,2.4-1.6,3.8-1.8,1.6-.2,3-.4,3.6-1.8s-.4-2.6-1.4-3.8-2-2.4-1.4-4c.6-1.4,2.2-1.8,3.8-2s3-.4,3.6-1.8-.4-2.4-1.4-3.6-2.2-2.4-1.6-4,2-1.8,3.6-2,3-.6,3.4-2-.4-2.4-1.6-3.6c-1-1.2-2.2-2.4-1.6-3.8.6-1.6,2.2-1.8,3.6-2.2s3-.6,3.2-2c.4-1.4-.6-2.4-1.6-3.6-1.2-1.2-2.2-2.2-1.8-3.8s2-2,3.6-2.2c1.6-.4,3-.8,3.4-2.2s-.6-2.4-1.8-3.6-2.4-2.2-2-3.8,2-2,3.4-2.4,2.8-.8,3.2-2.4c.4-1.4-.8-2.4-1.8-3.4-1.2-1-2.4-2.2-2-3.6.4-1.6,2-2,3.4-2.6,1.4-.4,2.8-1,3.2-2.4.2-1.4-.8-2.4-2-3.4s-2.4-2-2.2-3.6,1.8-2.2,3.4-2.6c1.4-.6,2.8-1,3-2.4s-.8-2.4-2-3.4-2.6-2-2.4-3.6,1.8-2.2,3.2-2.8,2.8-1.2,3-2.6-1-2.4-2.2-3.2c-1.2-1-2.6-1.8-2.4-3.4s1.8-2.2,3.2-2.8,2.8-1.2,2.8-2.6-1.2-2.4-2.4-3.2c-1.2-1-2.6-1.8-2.6-3.4s1.6-2.2,3-3c1.4-.6,2.8-1.4,2.8-2.8.2-1.4-1-2.2-2.4-3-1.2-.8-2.6-1.8-2.6-3.4s1.4-2.4,2.8-3c1.4-.8,2.6-1.4,2.8-2.8,0-1.4-1.2-2.2-2.6-3s-2.8-1.6-2.8-3.2h0c0-1.6,1.6-2.4,2.8-3.2A11.48,11.48,0,0,0,756,378.2Z" style="fill:#182755"/><path d="M750.6,370.8v7.4c0,1.6-.2,3.2-.2,5-.2,8-.2,16.2-1.2,24.2h0c-.2,4-.6,8-1,12.2-.4,4-1,8-1.4,12-.6,4-1.2,8-2,12-.6,4-1.4,8-2.2,12s-1.8,8-2.8,11.8c-1,4-2,7.8-3.2,11.8a111.51,111.51,0,0,1-3.6,11.6c-1.2,3.8-2.6,7.6-3.8,11.6L725,513.8A351.84,351.84,0,0,1,710,547c-5.6,10.8-11.6,21.4-18.2,31.6A394.74,394.74,0,0,1,663,617.8c-5.2,6.2-10.6,12.2-16.2,18.2-2.8,3-5.6,5.8-8.6,8.6s-5.8,5.6-8.8,8.4-6,5.4-9,8-6.2,5.2-9.4,7.8h0c-3.2,2.6-6.4,5-9.6,7.4s-6.6,4.8-9.8,7.2c-3.4,2.4-6.6,4.6-10,6.8s-6.8,4.4-10.4,6.4-7,4-10.6,6c-2.8,1.6-5.8,3.2-8.6,4.6a21.82,21.82,0,0,1-2.2,1.2q-5.4,3-10.8,5.4c-3.6,1.8-7.4,3.4-11,5-3.8,1.6-7.4,3.2-11.2,4.8s-7.6,3-11.4,4.2c-3.8,1.4-7.6,2.8-11.6,4-3.8,1.2-7.8,2.4-11.6,3.6-7.8,2.2-15.6,4.2-23.6,6l-12,2.4q-12,2.1-24,3.6c-12,1.4-24.2,2.2-36.4,2.4s-24.4,0-36.6-1-24.2-2.4-36.2-4.6c-8-1.4-15.8-3-23.8-5-4-1-7.8-2-11.8-3-3.8-1-7.8-2.2-11.6-3.4s-7.8-2.4-11.6-3.8l-11.4-4.2c-3.8-1.4-7.6-3-11.2-4.6-3.8-1.6-7.4-3.2-11.2-5L210,709.8c-5.8-3-11.4-6-17-9.4l-4.2-2.4c-3.6-2-7-4.2-10.4-6.4s-6.8-4.4-10.2-6.8c-3.4-2.2-6.6-4.6-10-7-3.2-2.4-6.6-4.8-9.6-7.4-3.2-2.4-6.4-5-9.4-7.6-3.2-2.6-6.2-5.2-9.2-8s-6-5.4-8.8-8.2c-3-2.8-5.8-5.6-8.6-8.6s-5.6-5.8-8.4-8.8-5.4-6-8-9.2-5.2-6.2-7.8-9.4c-5-6.4-10-12.8-14.6-19.6a381.93,381.93,0,0,1-25-41.6c-5.6-10.8-10.6-21.8-15.2-33.2a350.06,350.06,0,0,1-12-34.4c-2.2-7.8-4.4-15.6-6-23.6-.8-4-1.6-8-2.4-11.8-.8-4-1.4-8-2-12s-1.2-8-1.6-12-.8-8-1.2-12.2c-.4-4-.6-8-.8-12.2-.2-4-.4-8-.4-12.2V373.6c0-3.2.2-6.4.4-9.8.2-4.8.4-9.8.8-14.6.2-4,.6-8.2,1-12.2s1-8,1.6-12,1.2-8,2-12q.9-6,2.4-12c.8-4,1.8-8,2.8-11.8,1-4,2-7.8,3.2-11.8,1.2-3.8,2.2-7.8,3.6-11.6,1.2-3.8,2.6-7.8,3.8-11.6L33,242.8a330.26,330.26,0,0,1,15-33.2c5.6-10.8,11.6-21.4,18.2-31.6s13.6-20.2,21.2-29.8c2.6-3.2,5-6.4,7.6-9.4,2.6-3.2,5.2-6.2,8-9.2s5.4-6,8.2-9,5.6-5.8,8.6-8.6,5.8-5.6,8.8-8.4,6-5.4,9.2-8c3-2.6,6.2-5.2,9.4-7.8s6.4-5,9.6-7.4,6.6-4.8,9.8-7.2c3.4-2.4,6.8-4.6,10.2-6.8,5.4-3.6,11-6.8,16.6-10.2l4.2-2.4c3.6-2,7.2-3.8,10.8-5.8,3.6-1.8,7.2-3.6,10.8-5.6,3.6-1.8,7.4-3.4,11-5.2,3.6-1.6,7.4-3.2,11.2-4.8s7.6-3,11.4-4.4,7.6-2.8,11.6-4c3.8-1.2,7.8-2.4,11.6-3.6s7.8-2.2,11.8-3.2,7.8-2,11.8-2.8,8-1.6,11.8-2.4q12-2.1,24-3.6c4-.4,8-.8,12.2-1.2,8-.6,16.2-1,24.4-1.2,12.2-.2,24.4.2,36.4,1,12.2,1,24.2,2.4,36.2,4.6,8,1.4,16,3,23.8,5,4,1,7.8,2,11.8,3s7.8,2.2,11.6,3.4,7.8,2.4,11.6,3.8L514.8,31c3.8,1.4,7.6,3,11.2,4.6,3.8,1.6,7.4,3.2,11,5s7.2,3.6,11,5.4c3.6,1.8,7.2,3.8,10.8,5.8s7,4,10.6,6.2c2.8,1.6,5.6,3.4,8.2,5.2a12.14,12.14,0,0,1,2,1.4l10.2,6.6h0c3.4,2.2,6.6,4.6,10,7,3.2,2.4,6.6,4.8,9.8,7.4,3.2,2.4,6.4,5,9.4,7.6s6.2,5.2,9.2,8,6,5.4,8.8,8.2c3,2.8,5.8,5.8,8.6,8.6,5.6,5.8,11.2,11.8,16.4,18,2.6,3,5.2,6.2,7.6,9.4h0c5,6.4,10,12.8,14.6,19.6a418.32,418.32,0,0,1,25.2,41.6c5.6,10.8,10.6,21.8,15.2,33.2q4.5,11.4,8.4,22.8c1.2,3.8,2.4,7.8,3.6,11.6s2.2,7.8,3.2,11.8,2,7.8,2.8,11.8,1.8,8,2.4,12c.8,4,1.4,8,2,12s1.2,8,1.6,12,.8,8,1.2,12.2c.4,4,.6,8,.8,12.2C750.4,362.8,750.6,366.8,750.6,370.8Zm-5.6,7.4c0-97.8-38-189.6-107.2-258.8S476.8,12.2,379,12.2A364.72,364.72,0,0,0,196,61a371.35,371.35,0,0,0-75.8,58.2C51.2,188.6,13,280.4,13,378.2S51,567.8,120.2,637A365.57,365.57,0,0,0,379,744.2c97.8,0,189.6-38,258.8-107.2a366.31,366.31,0,0,0,79.6-118.6A369.61,369.61,0,0,0,745,378.2Z" style="fill:#182755"/><path d="M550.8,80.6c104.8,59.2,173,177.2,171.8,297.6,1.2,120.4-67,238.4-171.8,297.6-103.8,61.4-239.8,61.4-343.6,0C102.4,616.6,34.2,498.6,35.4,378.2c-1.2-120.4,67-238.4,171.8-297.6C311,19.4,447,19.4,550.8,80.6ZM719.2,378.2v-3.6c-3.6,0-6,2-5.8,3.6,0,1.6,2.4,3.6,5.8,3.6Zm0,6h0c-4.6-.2-8-2.8-8-6h0c0-3.2,3.4-5.8,8-5.8-4-.4-7-2.6-7.2-5.6,0-3,2.8-5.6,6.8-6.2h0c-4.6.2-8.2-2.2-8.6-5.4-.2-3.2,3-6,7.6-6.4h0c-4,0-7.2-2.2-7.4-5.2-.4-3,2.4-5.6,6.2-6.6h0c-4.6.6-8.4-1.6-8.8-4.8s2.8-6.4,7.2-7h0c-4,.2-7.4-1.6-8-4.6s2-5.8,5.8-7h0c-4.6.8-8.2-1-9-4.2s2.2-6.4,6.6-7.4h0c-4,.6-7.4-1.2-8.2-4-.6-3,1.6-6,5.4-7.4h0c-4.4,1.2-8.6-.4-9.4-3.6s1.8-6.6,6.2-8h0c-4,.8-7.6-.6-8.4-3.4-1-2.8,1.2-6,4.8-7.8h0c-4.4,1.4-8.4.2-9.6-2.8s1.2-6.6,5.4-8.4h0c-3.8,1-7.6,0-8.6-2.8-1.2-2.8.8-6.2,4.4-8.2h0c-4.2,1.8-8.6.8-9.8-2.2-1.4-3,.8-6.8,5-8.8h0c-3.8,1.4-7.4.4-8.8-2.2s.2-6.2,3.6-8.4h0c-4,2-8.4,1.4-9.8-1.4-1.4-3,.4-6.8,4.4-9h0c-3.8,1.6-7.6,1-9-1.6-1.6-2.6,0-6.2,3.2-8.6h0c-3.8,2.2-8.2,2-10-.8s-.2-6.8,3.6-9.2h0c-3.6,1.8-7.4,1.6-9-1-1.8-2.4-.6-6.2,2.4-8.8h0c-3.8,2.6-8.2,2.6-10,0s-.6-6.8,3-9.6h0c-3.4,2-7.4,2-9.2-.4s-1-6.2,2-9h0c-3.6,2.8-7.8,3-10,.6s-1-6.6,2.4-9.6h0c-3.2,2.4-7.2,2.4-9,.2-2-2.2-1.4-6,1.2-9h0c-3.4,3-7.6,3.6-10,1.4s-1.4-6.6,1.8-10h0c-3.2,2.6-7,3-9.2,1s-1.8-6,.6-9.2h0c-3.2,3.4-7.4,4-9.8,2s-2-6.4,1-9.8h0c-3,2.8-6.8,3.4-9,1.6-2.2-2-2.2-5.8,0-9.2h0c-2.8,3.6-7.2,4.6-9.6,2.8-2.6-2-2.4-6.4.4-10h0c-2.8,3-6.4,4-8.8,2.2s-2.6-5.6-.6-9h0c-2.6,3.8-6.8,5.2-9.4,3.2-2.8-1.8-3-6.2-.4-10h0c-2.6,3.2-6.2,4.4-8.6,2.8-2.6-1.6-3-5.4-1.2-9h0c-2.4,3.8-6.4,5.6-9.2,4s-3.2-6-1-10h0c-2.2,3.4-5.8,4.8-8.4,3.4s-3.4-5.2-2-8.8h0c-2,4-6,6-8.8,4.6s-3.8-5.6-1.8-9.8h0c-2,3.4-5.6,5.2-8.2,4-2.8-1.2-3.8-5-2.4-8.8h0c-1.8,4.2-5.6,6.4-8.6,5.2s-4-5.4-2.4-9.6h0c-1.8,3.6-5,5.6-7.8,4.4-2.8-1-4-4.6-3.2-8.4h0c-1.6,4.2-5,6.8-8.2,5.8-3-1-4.4-5.2-3.2-9.6h0c-1.6,3.8-4.8,6-7.6,5.2s-4.4-4.4-3.8-8.4h0c-1.2,4.4-4.6,7-7.8,6.4-3.2-.8-4.8-4.8-3.8-9.2h0c-1.2,3.8-4.2,6.2-7.2,5.6-3-.8-4.8-4-4.4-8h0c-.8,4.4-4,7.6-7.2,7s-5.2-4.6-4.4-9h0c-1,3.8-3.8,6.4-6.8,6.2-3-.4-5-3.6-4.8-7.6h0c-.6,4.4-3.6,7.8-6.8,7.4s-5.4-4-5-8.6h0c-.8,4-3.4,6.8-6.4,6.6s-5.2-3.4-5.4-7.4h0c-.2,4.4-3,8-6.2,8s-5.8-3.6-5.6-8.2h0c-.4,4-2.8,7-5.8,6.8-3,0-5.4-2.8-5.8-6.8h0c0,4.6-2.4,8.2-5.6,8.2-3.2.2-6-3.4-6.2-8,.2,4.6-2.2,8.2-5.4,8.6h-.4c-3,0-5.8-3.2-6.2-7.6h0c0,4-2.2,7.2-5.2,7.4-3,.4-5.6-2.4-6.6-6.2h0c.6,4.4-1.6,8.4-4.8,8.8s-6.2-2.8-7-7.2c.6,4.4-1.2,8.4-4.4,9s-6.4-2.4-7.2-7h0c.4,4-1.4,7.2-4.4,8-3,.6-6-1.8-7.2-5.6h0c1,4.4-.6,8.4-3.8,9.2-3.2.6-6.4-2-7.6-6.4h0c.6,4-.8,7.6-3.8,8.4-2.8.8-6-1.4-7.6-5.2h0c1.2,4.4-.2,8.4-3.2,9.6-3,1-6.6-1.6-8.2-5.8h0c1,4-.4,7.6-3.2,8.4-2.8,1-6.2-.8-7.8-4.4h0c1.6,4.2.4,8.4-2.4,9.6a4.71,4.71,0,0,1-1.6.4c-2.6,0-5.4-2.2-7-5.6h0c1.2,3.8.2,7.6-2.6,8.8s-6.2-.4-8.2-4h0c2,4.2,1,8.4-1.8,9.8s-6.8-.6-8.8-4.6h0c1.4,3.8.8,7.6-2,8.8-2.6,1.4-6.2,0-8.4-3.4H217c2.2,4,1.8,8.4-1,10s-6.8-.2-9.2-4h0c1.8,3.6,1.2,7.4-1.2,9-2.6,1.6-6.2.4-8.6-2.8h0c2.4,3.8,2.2,8.2-.4,10s-6.8.4-9.4-3.2h0c2,3.6,1.8,7.4-.6,9s-6.2.8-8.8-2.2h0c2.8,3.6,2.8,8,.4,10-2.6,2-6.8.8-9.6-2.6h0c2.2,3.4,2.2,7.2,0,9.2s-6,1.2-9-1.6h0c3,3.4,3.4,7.8,1,10s-6.6,1.4-9.8-2h0c2.4,3.2,2.8,7,.6,9.2-2.2,2-6,1.6-9.2-1h0c3.2,3.2,4,7.6,1.8,10s-6.6,1.8-10-1.4h0c2.6,3,3.2,6.8,1.2,9s-5.8,2-9-.2h0c3.4,3,4.4,7.2,2.2,9.6s-6.4,2.2-10-.6h0c2.8,2.8,3.8,6.6,1.8,9s-5.8,2.4-9.2.2h0c3.6,2.8,4.8,6.8,3,9.6-1.8,2.6-6.2,2.6-10,0h0c3,2.6,4.2,6.4,2.4,8.8-1.6,2.6-5.4,2.8-9,1h0c3.8,2.4,5.4,6.6,3.6,9.2-1.8,2.8-6.2,3-10,.8h0c3.2,2.4,4.6,6,3.2,8.6-1.6,2.6-5.4,3.2-9,1.6h0c4,2.2,5.8,6.2,4.4,9s-5.8,3.6-9.8,1.4h0c3.4,2.2,5,5.6,3.6,8.4-1.4,2.6-5,3.6-8.8,2.2h0c4.2,2,6.2,5.8,5,8.8-1.4,3-5.6,3.8-9.8,2.2h0c3.6,2,5.4,5.4,4.4,8.2-1.2,2.8-4.8,4-8.6,2.8h0c4.2,1.6,6.6,5.2,5.4,8.2-1,3-5.2,4.4-9.6,2.8h0c3.6,1.6,5.8,5,4.8,7.8s-4.6,4.2-8.4,3.4h0c4.4,1.4,7,4.8,6.2,8-1,3.2-5,4.6-9.4,3.6h0c3.8,1.4,6,4.4,5.4,7.4s-4.2,4.6-8.2,4h0c4.4,1,7.4,4.4,6.6,7.4-.8,3.2-4.6,5-9,4.2h0c3.8,1.2,6.4,4,5.8,7s-4,4.8-8,4.6h0c4.4.8,7.6,3.8,7.2,7s-4.2,5.2-8.8,4.8h0c4,.8,6.6,3.6,6.2,6.6s-3.4,5-7.4,5.2h0c4.6.4,7.8,3.2,7.6,6.4s-4,5.6-8.6,5.4h0c4,.6,7,3.2,6.8,6.2,0,3-3.2,5.4-7.2,5.6h0c4.6,0,8,2.6,8,6h0c0,3.2-3.4,5.8-8,5.8h0c4,.4,7.2,2.6,7.2,5.6s-2.8,5.6-6.8,6h0c4.6-.2,8.2,2.2,8.6,5.4.2,3.2-3.2,6-7.6,6.4h0c4,0,7.2,2.2,7.4,5.2.4,3-2.4,5.6-6.2,6.6h0c4.4-.6,8.4,1.6,8.8,4.8s-2.8,6.2-7.2,7h0c4-.2,7.4,1.6,8,4.6s-2,5.8-5.8,7h0c4.6-.8,8.2,1,9,4.2s-2.2,6.4-6.6,7.4h0c4-.6,7.4,1.2,8.2,4,.6,3-1.6,6-5.4,7.4h0c4.4-1.2,8.6.4,9.4,3.6.8,3-1.8,6.6-6.2,8h0c4-.8,7.6.6,8.4,3.4,1,2.8-1.2,6-4.8,7.8h0c4.2-1.4,8.4-.2,9.6,2.8s-1.2,6.6-5.4,8.4h0c3.8-1,7.6,0,8.6,2.8,1.2,2.8-.8,6.2-4.4,8.2h0c4.2-1.8,8.6-.8,9.8,2.2,1.4,3-.8,6.8-5,8.8h0c3.8-1.4,7.4-.4,8.8,2.2s-.2,6.2-3.6,8.4h0c4-2,8.4-1.4,9.8,1.4,1.4,3-.4,6.8-4.4,9h0c3.6-1.6,7.6-1,9,1.6,1.6,2.6.2,6.2-3.2,8.6h0c3.8-2.2,8.2-2,10,.8s.2,6.8-3.6,9.4c3.8-2.4,8.2-2.2,10,.4s.4,6.8-3.2,9.4h0c3.6-2,7.4-1.8,9,.6s.8,6.2-2.2,8.8h0c3.6-2.8,8-2.8,10-.4s.8,6.8-2.8,9.6c3.6-2.8,7.8-3,10-.6s1.2,6.8-2.4,9.6h0c3.2-2.4,7.2-2.6,9-.2,2,2.2,1.4,6-1.2,9h0c3.4-3,7.6-3.6,10-1.4,2.2,2.4,1.4,6.8-1.8,10h0c3.2-2.6,7-3,9.2-1s1.8,6-.6,9.2h0c3.2-3.4,7.4-4.2,9.8-2s2,6.4-1,9.8h0c3-2.8,6.8-3.4,9-1.6,2.2,2,2.2,5.8,0,9.2h0c2.8-3.6,7.2-4.8,9.6-2.8,2.6,2,2.4,6.4-.4,10h0c2.6-3,6.4-4,8.8-2.2s2.6,5.6.6,9h0c2.6-3.8,6.8-5.2,9.4-3.2,2.8,1.8,3,6,.4,10h0c2.6-3.2,6.2-4.4,8.6-2.8,2.6,1.6,3,5.4,1.2,9h.2c2.4-3.8,6.4-5.6,9.2-4s3.2,6,1,10h0c2.4-3.4,5.8-4.8,8.4-3.4s3.4,5.2,2,8.8h0c2-4,6-6,8.8-4.6s3.8,5.6,1.8,9.8h0c2-3.4,5.6-5.2,8.2-4,2.8,1.2,3.8,5,2.4,8.8h0c1.4-3.4,4.2-5.6,6.8-5.6a3.77,3.77,0,0,1,1.6.4c3,1.2,4.2,5.4,2.4,9.6h0c1.8-3.6,5-5.6,7.8-4.4,2.8,1,4.2,4.6,3.2,8.4h0c1.6-4.2,5-6.8,8.2-5.8,3,1,4.4,5.2,3.2,9.6h0c1.6-3.8,4.8-6,7.6-5.2s4.4,4.4,3.8,8.4h0c1.2-4.4,4.6-7,7.8-6.4,3.2.8,4.8,4.8,3.8,9.2h0c1.2-3.8,4.2-6.2,7.2-5.6,3,.8,4.8,4,4.4,8h0c.8-4.4,4-7.6,7.2-7s5.2,4.6,4.4,9h0c1-3.8,3.8-6.4,6.8-6.2,3,.4,5,3.6,4.8,7.6h0c.6-4.4,3.6-7.8,6.8-7.4s5.4,4,5,8.6h0c.8-4,3.4-6.8,6.4-6.6s5.2,3.4,5.4,7.4h0c.2-4.4,3-8,6.2-8s5.8,3.8,5.6,8.2h0c.4-4,2.8-7,5.8-6.8,3,0,5.4,2.8,5.8,6.8h0c0-4.6,2.4-8.2,5.6-8.2s6,3.4,6.2,8h0c.2-4,2.4-7.2,5.4-7.4s5.6,2.6,6.4,6.6h0c-.4-4.6,1.8-8.2,5-8.6s6.2,2.8,6.8,7.4h0c-.2-4,1.8-7.4,4.8-7.8s5.8,2.2,6.8,6.2h0c-.8-4.4,1.2-8.4,4.4-9s6.4,2.4,7.2,7h0c-.4-4,1.4-7.2,4.4-8,3-.6,6,1.8,7.2,5.6h0c-1-4.4.6-8.4,3.8-9.2,3.2-.6,6.4,2,7.8,6.4h0c-.6-4,.8-7.6,3.8-8.4,2.8-.8,6,1.4,7.6,5.2h0c-1.4-4.4,0-8.4,3.2-9.6,3-1,6.6,1.6,8.2,5.8h0c-1-4,.4-7.6,3.2-8.4,2.8-1,6,.8,7.8,4.4h0c-1.6-4.2-.6-8.4,2.4-9.6s6.8,1.2,8.6,5.4h0c-1.2-3.8-.2-7.6,2.6-8.8s6.2.4,8.2,4h0c-2-4.2-1-8.4,1.8-9.8s6.8.6,8.8,4.6h0c-1.4-3.8-.8-7.6,2-8.8,2.8-1.4,6.2,0,8.4,3.4h0c-2.2-4-1.8-8.4,1-10s6.8.2,9.2,4h0c-1.8-3.6-1.2-7.4,1.2-9s6.2-.4,8.6,2.8h0c-2.4-3.8-2.2-8.2.4-10s6.8-.4,9.4,3.2h0c-2-3.6-1.8-7.4.6-9,2.4-1.8,6.2-.8,8.8,2.2h0c-2.8-3.6-2.8-8-.4-10,2.6-2,6.8-.8,9.6,2.8h0c-2.2-3.4-2.2-7.2,0-9.2s6-1.2,9,1.6h0c-3-3.4-3.4-7.8-1-10s6.6-1.4,9.8,2h0c-2.4-3.2-2.8-7-.6-9.2,2.2-2,6-1.6,9.2,1h0c-3.2-3.2-4-7.6-1.8-10s6.6-1.8,10,1.4h0c-2.8-3-3.2-6.8-1.2-9s5.8-2,9,.2h0c-3.4-3-4.4-7.2-2.4-9.8,2.2-2.4,6.4-2.2,10,.6h0c-2.8-2.8-3.8-6.6-1.8-9,1.8-2.4,5.8-2.4,9.2-.2h0c-3.6-2.8-4.8-7-3-9.6s6.2-2.6,10,0h0c-3-2.6-4.2-6.2-2.4-8.8,1.6-2.4,5.4-2.8,9-1h0c-3.8-2.4-5.4-6.6-3.6-9.2,1.8-2.8,6.2-3,10-.8h0c-3.2-2.4-4.6-6-3.2-8.6,1.6-2.6,5.4-3.2,9-1.6h0c-4-2.2-5.8-6.2-4.2-9,1.4-2.8,5.8-3.6,9.8-1.4-4-2-6-6-4.6-8.8s5.6-3.8,9.8-1.8h0c-3.4-2-5.2-5.6-4-8.2,1.2-2.8,5-3.8,8.8-2.4h0c-4.2-1.8-6.4-5.6-5.2-8.6s5.4-4,9.6-2.4c-4.2-1.6-6.6-5.2-5.4-8.2,1-3,5.2-4.4,9.6-2.8h0c-3.6-1.6-5.8-5-4.8-7.8s4.6-4.2,8.4-3.4h0c-4.4-1.4-7-4.8-6.2-8,1-3,5-4.6,9.4-3.4h0c-3.8-1.4-6-4.4-5.4-7.4s4.2-4.6,8.2-4h0c-4.4-1-7.2-4.4-6.6-7.4.8-3.2,4.6-5,9-4.2h0c-3.8-1.2-6.4-4-5.8-7s4-4.8,8-4.6h0c-4.4-.8-7.6-3.8-7.2-7s4.2-5.2,8.8-4.8h0c-4-.8-6.6-3.6-6.2-6.6.2-3,3.4-5,7.4-5.2h0c-4.6-.4-7.8-3.2-7.6-6.4s4-5.6,8.6-5.4h0c-4-.6-7-3.2-6.8-6.2C712,386.8,715.2,384.6,719.2,384.2ZM719,370l-.2-7c-3,.4-4.8,2.2-4.8,3.8C714.2,368,716.2,369.6,719,370Zm0,23.6.2-7c-3,.2-5,1.8-5,3.4C714,391.4,716,393.2,719,393.6Zm-.4-35.4L718,351c-3.6.2-5.8,2.4-5.8,4C712.6,356.6,715.2,358.4,718.6,358.2Zm-.4,47.4.6-7.2c-3.6-.2-6.2,1.6-6.2,3.2C712.2,403.2,714.6,405.2,718.2,405.6Zm-.4-59.4c-.2-2.4-.4-4.8-.8-7-2.8.6-4.6,2.6-4.4,4S714.8,346.2,717.8,346.2Zm-.8,71c.2-2.4.6-4.6.8-7-3,0-5,1.6-5.2,3C712.4,414.8,714.2,416.6,717,417.2Zm-.6-82.8-1-7.2c-3.4.6-5.6,2.8-5.4,4.4C710.2,333.4,713,335,716.4,334.4Zm-1,94.8,1-7.2c-3.6-.4-6.2,1.2-6.4,2.8S712,428.6,715.4,429.2Zm-.6-106.6-1.2-7c-2.8.8-4.4,2.8-4.2,4.4C709.6,321.4,711.8,322.8,714.8,322.6Zm-1.4,118.2,1.2-7c-3-.2-5.2,1.2-5.4,2.6C709,438,710.6,440,713.4,440.8Zm-7.4-132c.4,1.6,3.2,3,6.6,2.4a71.78,71.78,0,0,0-1.6-7C707.6,304.8,705.6,307.2,706,308.8Zm6.6,136.6c-3.4-.6-6.2.6-6.6,2.2s1.6,4,5,4.8A71.78,71.78,0,0,0,712.6,445.4Zm-2.6-146-1.6-6.8c-2.8,1-4.2,3.2-4,4.6C704.8,298.6,707,299.8,710,299.4ZM708.4,464l1.6-6.8c-3-.4-5.2.8-5.6,2.2S705.6,463,708.4,464ZM707,288l-2-7c-3.4,1-5.2,3.6-4.8,5.2C700.8,287.8,703.8,288.8,707,288Zm-2,187.4,2-7c-3.4-1-6.2.2-6.8,1.8C699.8,472,701.8,474.4,705,475.4Zm-1.2-199-2.2-6.6c-2.6,1.2-4,3.4-3.6,4.8S701,277,703.8,276.4Zm-2.2,210.4,2.2-6.8c-3-.6-5.4.4-5.8,1.8C697.4,483.4,698.8,485.4,701.6,486.8ZM700,265.2c-.8-2.2-1.6-4.6-2.4-6.8-3.4,1.2-5,3.8-4.4,5.4S696.8,266.4,700,265.2ZM697.6,498a46,46,0,0,0,2.4-6.8c-3.4-1.2-6.2-.2-6.8,1.4S694.2,496.8,697.6,498Zm-1.8-244-2.6-6.6c-2.6,1.4-3.8,3.8-3.2,5.2S693,254.8,695.8,254Zm-2.6,255,2.6-6.8c-3.2-1.2-6.2-.4-6.8,1.2S690,507.8,693.2,509Zm-1.8-265.8-3-6.6c-3.2,1.4-4.6,4.2-4,5.8S688.2,244.6,691.4,243.2Zm-3,276.6,2.8-6.4c-2.8-.8-5.4-.2-6,1.2C684.8,516,685.8,518.4,688.4,519.8Zm-7.8-288.6c.8,1.4,3.2,2,6,1-1-2.2-2.2-4.2-3.2-6.4C680.8,227.6,679.8,229.8,680.6,231.2Zm2.6,299.4c1-2.2,2.2-4.2,3.2-6.4-3.2-1.6-6.2-.8-7,.6C678.8,526.2,680,529,683.2,530.6Zm-2-309-3.4-6.4c-3,1.6-4.4,4.6-3.6,6C675,222.8,678,223.4,681.2,221.6Zm-3.4,319.6,3.4-6.4c-3.2-1.6-6.2-1-7,.4S674.8,539.6,677.8,541.2Zm-2.4-330-3.6-6.2c-2.4,1.8-3.2,4.2-2.4,5.6C670.2,211.8,672.8,212.4,675.4,211.2Zm-3.6,340.2,3.6-6.2c-2.8-1.2-5.2-.8-6,.6S669.6,549.6,671.8,551.4ZM669.6,201l-3.8-6c-3,1.8-4,4.8-3.2,6.2C663.4,202.4,666.6,202.8,669.6,201Zm-4,360.6,3.8-6c-3-1.8-6.2-1.6-7-.2S662.6,559.8,665.6,561.6ZM663,191l-4-5.8c-2.2,2-2.8,4.4-2,5.6C658,192,660.4,192.2,663,191Zm-4,380.4,4-5.8c-2.6-1.4-5.2-1-6,.2S656.8,569.4,659,571.4Zm-2.6-390.2-4.2-5.8c-2.8,2.2-3.8,5.2-2.8,6.4C650.4,183.2,653.4,183.2,656.4,181.2Zm-4.2,400,4.2-5.8c-2.8-2-6-2-7-.6C648.4,576,649.4,579,652.2,581.2Zm-2.8-409.6L645,166c-2,2.2-2.6,4.6-1.6,5.8S646.8,173,649.4,171.6Zm-4.6,418.8,4.4-5.6c-2.6-1.6-5.2-1.4-6-.2S642.8,588.4,644.8,590.4ZM642,162.2l-4.8-5.4c-2.6,2.4-3.4,5.4-2.2,6.6S639.2,164.4,642,162.2Zm-4.8,437.4,4.8-5.4c-2.8-2.2-5.8-2.4-7-1C634,594.4,634.6,597.4,637.2,599.6Zm-9-445.8c1,1.2,3.6,1,6-.6-1.6-1.8-3-3.6-4.6-5.2C627.6,150.2,627.2,152.6,628.2,153.8Zm1.2,454.8c1.6-1.6,3.2-3.6,4.6-5.2-2.4-1.6-5-1.8-6-.6C627.2,603.8,627.6,606.2,629.4,608.6Zm-3.2-464-5-5.2c-2.6,2.4-3,5.6-1.8,6.8C620.6,147.2,623.6,147,626.2,144.6Zm-5,472.6,5-5.2c-2.6-2.4-5.6-2.8-6.8-1.6S618.8,614.6,621.2,617.2ZM618,136l-5-4.8c-1.8,2.4-2,5-.8,6C613,138,615.6,137.8,618,136Zm-5.2,489.4,5.2-4.8c-2.4-1.8-4.8-2.2-6-1C610.8,620.4,611,623,612.8,625.4Zm-3.4-497.6c-1.8-1.8-3.6-3.2-5.4-4.8-2.4,2.6-2.6,5.8-1.2,6.8C604,130.8,607,130.4,609.4,127.8ZM604,633.4l5.4-4.8c-2.4-2.6-5.4-3-6.6-2C601.4,627.8,601.6,630.8,604,633.4ZM600.4,120l-5.4-4.6c-1.6,2.4-1.6,5.2-.4,6C595.8,122.4,598.2,122,600.4,120ZM595,641.2l5.4-4.6c-2.2-2-4.8-2.4-5.8-1.4C593.4,636.2,593.4,638.6,595,641.2Zm-3.6-528.8-5.6-4.4c-2.2,2.8-2.2,6-.8,7C586.2,115.8,589.2,115.2,591.4,112.4Zm-5.8,536.2,5.6-4.4c-2.2-2.8-5.2-3.6-6.6-2.4C583.4,642.6,583.4,645.8,585.6,648.6ZM582,105l-5.8-4.2c-1.4,2.6-1.2,5.2,0,6C577.4,107.8,579.8,107.2,582,105Zm-6,550.6,5.8-4.2c-2-2.2-4.6-2.8-5.8-2C574.8,650.4,574.6,653,576,655.6ZM572.2,98.2l-6-4c-2,3-1.8,6-.4,7C567.4,102,570.2,101,572.2,98.2Zm-6,564.2,6-4c-2-3-5-3.8-6.2-2.8C564.6,656.4,564.4,659.4,566.2,662.4ZM562.4,91.6l-6-3.8c-1.2,2.8-1,5.2.4,6C558,94.6,560.4,93.8,562.4,91.6Zm-6.2,577,6-3.8c-1.8-2.2-4.4-3-5.6-2.2S555,666,556.2,668.6ZM552.4,85.4l-6.2-3.6c-1.8,3-1.4,6.2.2,7C547.6,89.6,550.6,88.4,552.4,85.4ZM546,674.6l6.2-3.6c-1.8-3-4.6-4.2-6.2-3.4C544.6,668.6,544.2,671.6,546,674.6ZM542,79.4l-6.2-3.2c-1,2.8-.4,5.2.8,6C537.8,82.8,540.2,81.8,542,79.4Zm-6.4,601,6.2-3.2c-1.8-2.4-4-3.4-5.4-2.8S534.6,677.6,535.6,680.4Zm-10-602.6c1.4.8,4.2-.6,5.8-3.8-2.2-1-4.2-2.2-6.4-3.2C523.4,74,524.2,77,525.6,77.8Zm5.8,604.6c-1.6-3.2-4.4-4.4-5.8-3.8-1.4.8-2.2,3.8-.6,7A47.75,47.75,0,0,0,531.4,682.4ZM520.6,68.8,514.2,66c-.8,2.8-.2,5.4,1.2,6C516.8,72.4,519.2,71.4,520.6,68.8Zm-6.4,621.8,6.4-3c-1.6-2.6-3.8-3.6-5.2-3S513.2,687.8,514.2,690.6ZM509.8,64,503,61.4c-1.2,3.2-.4,6.2,1.2,6.8S508.6,67.2,509.8,64ZM503,695l6.8-2.6c-1.4-3.2-4-4.8-5.6-4.2S501.8,691.8,503,695ZM493.8,63c1.4.4,3.6-.8,5-3.4l-6.6-2.4C491.4,60.2,492.4,62.4,493.8,63Zm4.8,633.8c-1.4-2.6-3.6-3.8-5-3.4s-2.4,2.8-1.6,5.8A64.18,64.18,0,0,0,498.6,696.8Zm-11-641-6.8-2.4c-1,3.4,0,6.4,1.6,6.8C484,60.8,486.6,59,487.6,55.8Zm-7,647.2,6.8-2.4c-1.2-3.4-3.6-5-5.2-4.6C480.6,696.8,479.6,699.6,480.6,703ZM476.2,52l-6.8-2c-.4,3,.6,5.2,2,5.6C473,56.2,475,54.8,476.2,52Zm-6.8,654.2,6.8-2c-1.2-2.8-3.2-4.2-4.8-3.8C470,701,469,703.4,469.4,706.2ZM464.8,48.8l-7-1.6c-.8,3.4.4,6.2,2,6.6C461.6,54.2,464,52.2,464.8,48.8Zm-7,660.4,7-1.6c-.8-3.4-3.4-5.4-5-5S457,705.8,457.8,709.2Zm-9-659c1.4.4,3.4-1.2,4.4-4-2.2-.4-4.6-1.2-6.8-1.6C446,47.4,447.4,49.8,448.8,50.2Zm4.4,660c-1-2.8-3-4.4-4.4-4s-2.6,2.6-2.4,5.6C448.6,711.4,450.8,710.8,453.2,710.2ZM441.6,43.8l-7.2-1.2c-.6,3.4.8,6.2,2.6,6.6C438.8,49.4,441,47.2,441.6,43.8ZM434.4,714l7.2-1.2c-.6-3.4-3-5.6-4.6-5.2C435.4,707.8,434,710.4,434.4,714ZM430,41.8l-7-.8c0,3,1.4,5.2,2.8,5.4C427.2,46.4,429.2,44.6,430,41.8Zm-7.2,673.8,7-.8c-.8-2.8-2.8-4.6-4.2-4.4C424.2,710.4,422.8,712.6,422.8,715.6ZM414,45.8c1.6.2,3.8-2,4.2-5.6-2.4-.2-4.8-.6-7.2-.8C410.8,43,412.4,45.4,414,45.8Zm4,670.4c-.4-3.6-2.6-5.8-4.2-5.6s-3.2,2.8-3,6.2A40.32,40.32,0,0,0,418,716.2ZM406.2,39l-7-.6c.2,3,1.8,5,3.2,5.2C404,43.8,405.8,42,406.2,39Zm-7,678.8,7-.6c-.6-3-2.4-4.8-3.8-4.6C400.8,712.8,399.4,715,399.2,717.8ZM394.6,38.2l-7.2-.2c0,3.6,1.8,6,3.4,6C392.4,44.2,394.4,41.8,394.6,38.2Zm-7.4,680,7.2-.2c-.2-3.6-2.2-6-3.8-5.8C389,712.2,387.2,714.8,387.2,718.2ZM382.6,38c-2.4,0-4.8-.2-7,0,.4,3,2,4.8,3.6,4.8C380.6,42.8,382.2,41,382.6,38Zm-7.2,680.4c2.4,0,4.8.2,7,0-.4-3-2-4.8-3.6-4.8C377.4,713.6,375.8,715.4,375.4,718.4Zm-8-674.2c1.6,0,3.4-2.6,3.4-6l-7.2.2C363.8,41.8,365.8,44.2,367.4,44.2Zm3.4,674c0-3.6-1.8-6-3.4-6s-3.6,2.4-3.8,5.8Zm-15-673.4c1.6-.2,3.4-2.8,3.2-6.2l-7.2.6C352,42.6,354,45,355.8,44.8Zm-4,672.6,7,.6c-.2-3-1.8-5-3.2-5.2C354,712.6,352.2,714.4,351.8,717.4ZM347,717c.4-3.6-1.2-6-3-6.2-1.6-.2-3.8,2-4.2,5.6C342.2,716.4,344.6,716.8,347,717ZM344,44.6c1.6-.2,3-2.2,3-5.2-2.4.2-4.8.4-7,.8C340.6,43,342.6,44.8,344,44.6Zm-11.4,2.6c1.6-.2,3.2-3,2.8-6.4l-7.2,1C328.6,45.2,330.8,47.4,332.6,47.2Zm2.6,668.4c0-3-1.4-5.2-2.8-5.4-1.6-.2-3.4,1.6-4.2,4.4ZM321,49c1.6-.2,3-3,2.6-6.6l-7.2,1.2C317,47.2,319.4,49.4,321,49Zm2.4,665c.6-3.4-.8-6.2-2.6-6.6-1.6-.2-4,1.8-4.6,5.2Zm-14-664c1.4-.4,2.6-2.6,2.4-5.6-2.4.4-4.6,1-7,1.6C305.8,48.8,307.8,50.4,309.4,50Zm2.2,661.8c.2-3-1-5.2-2.4-5.6s-3.4,1.2-4.4,4C307,710.8,309.4,711.4,311.6,711.8Zm-13.4-658c1.6-.4,2.8-3.2,2-6.6l-7,1.6C294.2,52.2,296.6,54.2,298.2,53.8Zm2,655.4c.8-3.4-.4-6.2-2-6.6s-4,1.6-5,5ZM286.6,55.8c1.4-.4,2.4-2.8,2-5.6l-6.8,2C283,54.8,285.2,56.2,286.6,55.8Zm2,650.4c.4-3-.6-5.2-2-5.6s-3.6,1-4.8,3.8Zm-12.8-646c1.6-.6,2.6-3.4,1.6-6.8l-6.8,2.4C271.6,59,274.2,60.8,275.8,60.2ZM277.2,703c1-3.4,0-6.4-1.6-6.8-1.6-.6-4.2,1.2-5.2,4.6ZM264.4,63c1.4-.4,2.4-2.8,1.6-5.8l-6.6,2.4C260.6,62.2,262.8,63.4,264.4,63Zm1.4,636.2c.6-2.8-.2-5.2-1.6-5.8-1.4-.4-3.6.8-5,3.4Zm-12-631c1.6-.6,2.4-3.6,1.2-6.8L248.2,64C249.6,67.2,252.2,68.8,253.8,68.2Zm1,626.8c1.2-3.2.4-6.2-1.2-6.8s-4.2,1-5.6,4.2ZM242.6,71.8c1.4-.6,2-3.2,1.2-6l-6.4,2.8C239,71.4,241.2,72.4,242.6,71.8Zm1.2,618.6c.8-2.8.2-5.4-1.2-6s-3.6.4-5.2,3ZM232.4,77.6c1.4-.8,2.2-3.8.6-7-2.2,1-4.4,2.2-6.4,3.2C228.2,77,231,78.4,232.4,77.6Zm.6,608c1.6-3.2.8-6.2-.6-7s-4.2.6-5.8,3.8C228.8,683.4,230.8,684.6,233,685.6ZM221.6,82c1.4-.6,1.8-3.2.8-6l-6.2,3.2C217.8,81.8,220.2,82.8,221.6,82Zm.8,598.2c1-2.8.4-5.2-.8-6s-3.8.2-5.4,2.6ZM212,674.6c1.8-3,1.2-6.2-.2-7s-4.4.4-6.2,3.4l3.2,1.8Zm-.2-585.8c1.4-.8,1.8-4,.2-7l-3.2,1.8-3.2,1.8C207.6,88.4,210.4,89.6,211.8,88.8Zm-10.4,5c1.2-.8,1.6-3.4.4-6l-6,3.8C197.6,93.8,200,94.6,201.4,93.8Zm.2,574.8c1.2-2.8.8-5.2-.4-6s-3.6,0-5.6,2.2ZM192,101c1.4-1,1.6-4-.4-7l-6,4C187.8,101,190.8,102,192,101Zm-.4,561.2c2-3,1.8-6,.4-7s-4.2,0-6.2,2.8ZM182,106.8c1.2-.8,1.4-3.4,0-6l-5.8,4.2C178.2,107.2,180.8,107.8,182,106.8Zm-.2,548.6c1.4-2.6,1.2-5.2,0-6s-3.8-.2-5.8,2Zm-8.6-540.6c1.4-1,1.2-4.2-.8-7l-5.6,4.4C169,115,172,115.8,173.2,114.8Zm-.8,533.6c2.2-2.8,2.2-6,.8-7s-4.4-.2-6.6,2.4Zm-9-527.2c1.2-1,1.2-3.6-.4-6l-5.4,4.6C159.8,121.8,162.4,122.2,163.4,121.2Zm-.4,520c1.6-2.4,1.6-5,.4-6s-3.6-.6-5.8,1.4Zm-7.6-511.4c1.2-1,1-4.2-1.2-6.8l-5.4,4.8C151.2,130.4,154,130.8,155.4,129.8ZM154,633.4c2.4-2.6,2.6-5.8,1.2-6.8-1.2-1-4.2-.6-6.6,2ZM146.2,137c1-1,.8-3.6-.8-6l-5.2,4.8C142.4,137.8,145,138,146.2,137Zm-1,488.4c1.8-2.4,2-5,.8-6-1-1-3.6-.8-6,1.2ZM138.6,146c1.2-1.2.6-4.2-1.8-6.8l-5,5.2C134.4,146.8,137.4,147.2,138.6,146Zm-1.8,471.2c2.6-2.4,3-5.6,1.8-6.8s-4.2-.8-6.8,1.6Zm-7-463.4c1-1.2.6-3.6-1.2-5.8-1.6,1.6-3.2,3.6-4.8,5.2C126.2,154.8,128.8,155,129.8,153.8Zm-1.4,454.6c2-2.2,2.2-4.8,1.2-6s-3.6-1-6,.6C125.4,605,126.8,606.8,128.4,608.4Zm-5.4-445c1-1.2.4-4.2-2.2-6.6l-4.6,5.4C118.8,164.4,121.8,164.6,123,163.4Zm-2.4,436.2c2.6-2.4,3.4-5.4,2.2-6.6s-4.2-1.2-7,1Zm-7.4-9.2c2.8-2.2,3.6-5.2,2.4-6.6-1-1.4-4.2-1.2-7,.8Zm1.6-418.6c1-1.2.4-3.6-1.6-5.8l-4.4,5.6C111.2,173,113.8,173,114.8,171.8Zm-6.2,9.8c1-1.4,0-4.4-2.8-6.4l-4.2,5.8C104.6,183.2,107.6,183,108.6,181.6ZM105.8,581c2.2-2,2.8-4.6,2-5.8s-3.4-1.4-6,0ZM99,571.4c2.8-2,3.8-5,2.8-6.2-1-1.4-4-1.6-7,.4Zm2-380.8c.8-1.2.2-3.6-2-5.6l-4,5.8C97.6,192.2,100.2,191.8,101,190.6Zm-8.6,371c3-2,4-4.8,3.2-6.2-1-1.4-4-1.6-7,.2ZM95.6,201c.8-1.4-.2-4.4-3.2-6.2l-4,6C91.6,202.6,94.6,202.4,95.6,201Zm-7,9.4c.8-1.2-.2-3.8-2.4-5.6L82.6,211C85.4,212.2,87.8,211.8,88.6,210.4ZM86,551.4c2.4-1.8,3.2-4.2,2.4-5.6-.8-1.2-3.2-1.8-6-.6ZM83.8,221.2c.8-1.6-.6-4.4-3.6-6l-3.4,6.4C80,223.2,83,222.6,83.8,221.2Zm-3.6,320c3-1.6,4.4-4.4,3.6-6-.8-1.4-3.8-2-7-.4Zm-2.6-310c.6-1.4-.4-3.8-2.8-5.4-1,2.2-2.2,4.2-3.2,6.4C74.4,233,76.8,232.4,77.6,231.2ZM74.8,530.4c2.4-1.6,3.4-4,2.8-5.2-.8-1.4-3.2-2-6-1A36.37,36.37,0,0,0,74.8,530.4ZM73.6,242.2c.6-1.6-.8-4.2-4-5.8l-3,6.6C69.8,244.4,73,243.8,73.6,242.2Zm-4,277.6c3.2-1.4,4.6-4.2,4-5.8s-3.8-2.2-7-.8ZM68,252.4c.6-1.4-.6-3.6-3.2-5.2l-2.6,6.6C65,254.8,67.4,254,68,252.4ZM64.8,509c2.6-1.4,3.8-3.8,3.2-5.2s-3-2.2-5.8-1.4Zm0-245.2c.6-1.6-1-4.2-4.4-5.4a68,68,0,0,0-2.4,6.8C61.4,266.4,64.2,265.4,64.8,263.8ZM60.4,498c3.4-1.2,4.8-3.8,4.4-5.4-.6-1.6-3.4-2.6-6.8-1.4C58.8,493.4,59.4,495.8,60.4,498ZM60,274.6c.4-1.4-.8-3.6-3.6-4.8l-2.2,6.8C57.2,277,59.6,276,60,274.6Zm-3.6,212c2.6-1.2,4-3.4,3.6-4.8s-2.8-2.4-5.8-1.8ZM57.6,286c.4-1.6-1.4-4-4.8-5l-2,7C54.4,288.8,57.2,287.6,57.6,286ZM52.8,475.4c3.4-1,5.2-3.6,4.8-5.2s-3.4-2.8-6.8-1.8ZM53.6,297c.4-1.4-1.2-3.6-4-4.6L48,299.2C51,299.6,53.2,298.4,53.6,297Zm-4,167c2.8-1,4.2-3.2,4-4.6-.4-1.4-2.6-2.6-5.6-2.2ZM52,308.6c.4-1.6-1.6-4-5-4.8-.6,2.4-1.2,4.6-1.6,7C48.8,311.6,51.6,310.2,52,308.6ZM47,452.4c3.4-.8,5.4-3.2,5-4.8s-3.2-3-6.6-2.4C45.8,447.8,46.4,450,47,452.4ZM48.8,320c.2-1.4-1.4-3.4-4.2-4.4l-1.2,7C46.2,322.6,48.6,321.4,48.8,320ZM44.6,440.6c2.8-.8,4.4-2.8,4.2-4.4-.2-1.4-2.4-2.8-5.4-2.6Zm3.4-109c.2-1.6-2-3.8-5.4-4.4l-1,7.2C45.2,334.8,47.8,333.2,48,331.6ZM42.6,429c3.4-.6,5.6-2.8,5.4-4.4s-3-3.2-6.4-2.8Zm-2.8-23.6c3.6-.2,5.8-2.4,5.6-4s-2.8-3.4-6.2-3.2Zm5.8-50.6c.2-1.6-2.2-3.8-5.6-4l-.6,7.2C42.8,358.2,45.4,356.6,45.6,354.8Zm-.2-11.6c.2-1.4-1.6-3.4-4.4-4-.2,2.4-.6,4.6-.8,7C43.2,346,45.2,344.6,45.4,343.2Zm-4.4,74c2.8-.6,4.6-2.6,4.4-4-.2-1.6-2.2-3-5.2-3C40.4,412.6,40.6,414.8,41,417.2Zm-2.2-35.4c3.6,0,6-2,5.8-3.6,0-1.6-2.4-3.6-5.8-3.6C38.8,377,38.6,379.4,38.8,381.8Zm.2,11.8c3-.4,4.8-2.2,4.8-3.8s-2-3-5-3.4Zm4.8-27.2c0-1.6-1.8-3.2-4.8-3.8l-.2,7C41.8,369.6,43.8,368,43.8,366.4Z" style="fill:#182755"/><path d="M627.2,130C693.4,196.4,730,284.4,730,378.2A348.86,348.86,0,0,1,627.2,626.4C560.8,692.6,472.8,729.2,379,729.2A348.86,348.86,0,0,1,130.8,626.4C64.4,560,28,472,28,378.2A348.86,348.86,0,0,1,130.8,130C197.2,63.6,285.2,27.2,379,27.2S561,63.6,627.2,130ZM727.4,378.2C727.4,186,571,29.8,379,29.8S30.6,186,30.6,378.2,186.8,726.6,379,726.6,727.4,570.4,727.4,378.2Z" style="fill:#182755"/><path d="M635.8,121.4C701.6,187.2,742.4,278,742.4,378.2c0,200.4-163,363.2-363.2,363.2a361.07,361.07,0,0,1-181.6-48.8C89,629.6,15.8,512.2,15.8,378S89,126.4,197.6,63.4a361.91,361.91,0,0,1,438.2,58ZM736.4,378.2C737.6,257.4,672,139.6,569.6,76,468.6,10.8,333.2,3,225.2,55.6c-8.4,4.2-16.8,8.4-24.8,13.2-105,59.6-175,175-178.4,295.4C16,485,76.8,605,176.6,672.8c7.8,5.2,15.6,10.4,23.8,15,103.6,61,239,63.6,345,6.8C652.6,639.4,727,526.4,735.2,406.4,736.2,397,736,387.6,736.4,378.2Z" style="fill:#182755"/></g></g></g></svg>