<svg xmlns="http://www.w3.org/2000/svg" width="847.13" height="849.2" viewBox="0 0 847.13 849.2"><title>6_Middle_grinding_inner_849 (2)</title><g id="Layer_2" data-name="Layer 2"><g id="Layer_1-2" data-name="Layer 1"><g id="_6_Middle_grinding_inner_849" data-name="6_Middle_grinding_inner_849"><path d="M847.06,394.2c1.2,15.4-14.4,16.4-15,30.4V426c-.6,15.2,16.2,15.8,14.8,31.8v.2c-1.2,15.6-17.6,13.8-19.4,28.8-2.8,15,13.6,18,9.8,33.6-3.4,15.6-19.6,11.2-23.6,26-5,14.4,10.8,19.8,4.8,34.8-5.8,15-21,8.2-27.2,22-7,13.4,7.6,21.2-.6,35-8,13.8-22,5-30.2,17.8-8.8,12.4,4.2,22.2-5.8,34.6-10.2,12.4-22.4,1.8-32.6,13-10.4,11,.8,22.4-10.8,33.4-4.8,4.2-9.2,4.8-13.8,4.6-6.6-.2-13.2-2.4-20.4,3.2-11.8,9.6-2.6,22.2-15.6,31.6-13.6,8.6-21.8-4.8-35,2.8s-5.8,21.6-20,28.8h0c-14.4,6.2-20.6-8-34.8-2.6-14.2,5.6-9,20.4-24.2,25.6-15.4,4.4-19.4-11-34.2-7.8-14.8,3.4-12,18.8-27.8,21.6-15.8,2-17.6-13.8-32.8-12.8-15.2,1.2-14.6,16.8-30.6,17.2-16-.6-15.4-16.2-30.4-17.4-15.2-1-17,14.4-32.8,12.6-15.8-3-12.8-18.2-27.6-21.8-14.8-3.2-19,11.8-34.4,7.6-15.2-5.2-9.8-20-24-25.6-14.2-5.4-20.4,8.8-35,2.2-13.8-7.2-7.2-20.4-18.6-28.2l-1.2-.8c-13.2-7.6-21.6,5.8-35-3h0c-5.2-3.8-6.6-8-7.4-12.6-1.2-6.4-.6-13.2-7.8-18.8-11.8-9.6-22.4,2.6-34.2-8.2-4.8-4.4-5.6-9-5.8-13.6-.2-6.6,1.4-13.4-4.8-20-10-11.4-22.6-.6-32.4-13.2-4-5.2-4.2-9.8-3.6-14.4.8-6.6,3.4-13-1.8-20.4-8.2-12.8-22.2-4-30.2-18-8-13.8,6.6-21.6-.4-35-6.2-13.8-21.4-7.4-27-22.2-5.8-14.8,9.8-20.2,5-34.8-4.2-14.6-20-10.4-23.4-26-1.4-6.4.4-10.6,3-14.4,3.6-5.6,8.6-10.2,7.2-19-1.8-15-18.2-13.4-19.4-29.2-1.2-16,15.4-16.4,15-31.8.6-15.2-16-15.8-14.8-31.8v-.2c1.2-15.6,17.6-13.8,19.4-28.8,2.8-15-13.6-18-9.8-33.6,3.4-15.6,19.6-11.2,23.6-26,5-14.4-10.6-19.8-4.8-34.8s21-8.2,27.2-22c7-13.6-7.6-21.2.6-35,8-13.8,22-5,30.2-17.8,8.8-12.4-4.2-22.2,5.6-34.6,10.2-12.4,22.4-1.8,32.6-13,10.4-11-.8-22.4,10.8-33.4,4.8-4.2,9.2-4.8,13.8-4.6,6.8.2,13.2,2.4,20.4-3.2,11.8-9.6,2.6-22.2,15.6-31.6,13-8.2,21.2,3.8,33.8-2.2l1.2-.6c13.2-7.6,5.8-21.6,20-28.8h0c14.4-6.2,20.6,8,34.8,2.6,14.2-5.6,9-20.4,24.2-25.6,15.4-4.4,19.4,11,34.2,7.8,14.8-3.4,12-18.8,27.8-21.6,15.8-2,17.6,13.8,32.8,12.8C409.46,16,408.86.4,424.86,0c16,.6,15.4,16.2,30.6,17.4,15.2,1,17-14.4,32.8-12.6,15.8,3,12.8,18.2,27.6,21.8,14.8,3.2,19-11.8,34.4-7.6,15.2,5.2,10,20,24,25.8,14.2,5.4,20.4-8.8,35-2.2,14.2,7.4,6.8,21.4,19.8,29,13.2,7.6,21.6-5.8,35,3h0c5.2,3.8,6.6,8,7.4,12.6,1.2,6.4.8,13.2,7.8,18.8,11.8,9.6,22.4-2.6,34.2,8.2,4.8,4.4,5.6,9,5.8,13.6.2,6.6-1.4,13.4,4.8,19.8,10,11.4,22.6.6,32.4,13.2,4,5.2,4.2,9.8,3.6,14.4-.8,6.6-3.4,13,1.8,20.2,8.2,12.8,22.2,4,30.2,18,3.6,6,2.6,11,1.2,15.8-1.8,6-4.8,11.8-.8,19.4,6.2,13.8,21.4,7.4,27.2,22.2s-9.8,20.4-5,34.8c4.2,14.6,20,10.4,23.4,26,3.6,15.6-12.8,18.6-10.2,33.6C829.66,380,845.86,378.4,847.06,394.2Zm-15.4,6.8c.4,0,.2-1.2.2-2.4h-4.4c-.2,0-1-.2-.8.4l.4,2.2v.2h1.2Zm0,51.2c0-.6-2.4-.4-2.6-.4l-2.4-.2c-.2,1.2-.4,2.8,0,2.8h4.8Zm-.2-58.4-.2-2c0-.6-2.4,0-2.6,0l-2.4.2c0,1.2,0,2.8.6,2.8l4-.6Zm-.2,65.2-4.2-.8c-.2,0-1-.2-1,.2v2.4l1.2.2,3.4.2C831.06,461.4,831.26,460.2,831.26,459Zm-6.8-57.6V399c0-.8-3.2,0-3.6.2l-1.4.2v.6a4.4,4.4,0,0,0,.2,1.6c.4.4,2.4,0,3,0Zm-.4,52.8c.4-.4.2-2,.2-2.6v-.2l-4.8-.2c-.2,0-.4,1-.4,2.2a2.43,2.43,0,0,1,1,.2l2.8.4C823.06,454,823.86,454.4,824.06,454.2Zm0-59.4c.4-.4-.2-2-.2-2.4v-.2l-4.8.4c-.2,0-.2,1.2-.2,2.2h3.8C823.06,394.8,823.86,395,824.06,394.8Zm-.2-53.8c.2,0,0-1.2-.2-2.4l-4.4.6c-.2,0-1,0-.8.6l.6,2.2v.2l1.2-.2Zm0,117.4c0-.8-3.2-.4-3.6-.4h-1.4v.6c0,.4-.2,1.2,0,1.6.4.4,2.4.2,3,.4l2,.2Zm-.4,53.2c.2-.6-2.2-.8-2.6-.8l-2.4-.4c-.4,1-.8,2.6-.4,2.8l4,.6h.8Zm-1-177.4-.4-2c-.2-.6-2.4.2-2.6.4l-2.4.6c.2,1.2.4,2.8,1,2.6l3.8-1.2Zm-.6,184-4.2-1.4c-.2,0-.8-.4-1,.2l-.4,2.2v.2l1.2.4,3.4.8C821.46,520.6,821.66,519.4,821.86,518.2Zm-5-175.6-.4-2.2c-.2-.8-3.2.6-3.6.6l-1.4.4.2.6a3.77,3.77,0,0,0,.4,1.6c.6.4,2.4-.4,3-.6Zm-.8,167.2h0l-4.6-1.2c-.2,0-.6,1-.8,2a9.42,9.42,0,0,0,1,.4l2.6.8c.2,0,1,.4,1.2.2C816.06,512,816.06,510.4,816.06,509.8Zm-.6-173.6c.2-.4-.4-2-.6-2.4v-.2l-4.6,1c-.2,0,0,1.2.2,2.2h1l2.8-.4C814.46,336.4,815.26,336.4,815.46,336.2Zm-.8,180.4c.2-.8-3.2-1-3.6-1l-1.4-.2-.2.6c0,.2-.4,1.2-.2,1.6.2.6,2.4.6,3,.8l1.8.4Zm-4-87c0-1.6-1.4-2.4-2.8-3.2-.8-.6-1.8-1-2.2-1.8a2.84,2.84,0,0,1-.4-1.2c0-1.6,1.2-2.2,2.6-3s2.8-1.6,2.8-3.4c0-1.6-1.4-2.4-2.8-3.2s-2.6-1.4-2.8-3c0-1.6,1.2-2.2,2.6-3.2,1.4-.8,2.8-1.8,2.6-3.4s-1.6-2.4-3-3.2c-1.4-.6-2.8-1.4-2.8-2.8,0-1.6,1.2-2.4,2.4-3.2s2.6-1.8,2.6-3.4-1.6-2.4-3-3-2.8-1.2-2.8-2.8c-.2-1.6,1-2.4,2.2-3.2,1.2-1,2.6-2,2.4-3.6s-1.8-2.2-3.2-3c-1.4-.6-2.8-1.2-3-2.6s1-2.4,2.2-3.4,2.6-2,2.4-3.6-1.8-2.2-3.2-2.8-2.8-1-3.2-2.6c-.2-1.4.8-2.4,2-3.4s2.4-2,2.2-3.8c-.2-1.6-1.8-2.2-3.4-2.8-1.4-.6-2.8-1-3-2.4s.8-2.4,2-3.4,2.4-2.2,2-3.8-2-2-3.4-2.6c-1.4-.4-3-1-3.2-2.4-.4-1.4.8-2.4,1.8-3.6,1.2-1.2,2.4-2.2,2-3.8s-2-2-3.6-2.4-3-.8-3.4-2.2.6-2.4,1.8-3.6,2.2-2.4,1.8-3.8c-.4-1.6-2-2-3.6-2.4s-3-.8-3.4-2.2.6-2.4,1.6-3.6,2.2-2.4,1.6-4-2.2-1.8-3.6-2.2c-1.6-.4-3-.6-3.4-2s.4-2.6,1.6-3.8c1-1.2,2-2.4,1.6-4s-2.2-1.8-3.8-2.2c-1.6-.2-3-.4-3.6-1.8s.4-2.6,1.4-3.8,2-2.6,1.4-4c-.6-1.6-2.2-1.8-3.8-2s-3-.4-3.6-1.8.4-2.6,1.2-3.8c1-1.2,1.8-2.6,1.2-4s-2.4-1.6-4-1.8-3-.4-3.6-1.6c-.6-1.4.2-2.6,1.2-3.8.8-1.2,1.8-2.6,1.2-4.2s-2.4-1.6-4-1.8-3-.2-3.8-1.6c-.6-1.4.2-2.6,1-3.8.8-1.4,1.8-2.8,1-4.2s-2.4-1.6-4-1.6-3-.2-3.6-1.4c-.6-1.4,0-2.6.8-4s1.6-2.8.8-4.2-2.4-1.4-4-1.4-3,0-3.8-1.2,0-2.6.8-4,1.6-2.8.8-4.2-2.6-1.4-4.2-1.4-3,.2-3.8-1.2c-.8-1.2-.2-2.6.6-4s1.4-2.8.6-4.2-2.6-1.2-4-1.2c-1.6,0-3,.2-3.8-1s-.2-2.6.4-4,1.4-3,.4-4.2c-1-1.4-2.6-1.2-4.2-1s-3,.2-3.8-1-.2-2.6.4-4,1.4-3,.4-4.4c-1-1.2-2.6-1-4.2-.8s-3,.4-4-.8-.4-2.6.2-4,1.2-3,.2-4.2c-1-1.4-2.6-1-4.2-.8s-3,.4-4-.8-.4-2.4,0-4c.6-1.4,1-3,0-4.2s-2.8-1-4.2-.6c-1.6.2-3,.6-4-.6s-.4-2.6,0-4c.4-1.6,1-3.2-.2-4.4s-2.8-.8-4.4-.4-3,.6-4-.4-.6-2.4-.2-4,.8-3.2-.2-4.4c-1.2-1.2-2.8-.8-4.2-.4-1.6.4-2.8.8-4-.2-1-1-.8-2.4-.4-4s.8-3.2-.4-4.2c-1.2-1.2-2.8-.6-4.2-.2-1.6.4-3,.8-4-.2s-.8-2.4-.4-4,.8-3.2-.6-4.2c-1.2-1-2.8-.6-4.4,0-1.4.4-2.8,1-4,0s-.8-2.4-.6-4,.6-3.2-.6-4.2-2.8-.6-4.2,0-2.8,1-4,.2c-1.2-1-1-2.4-.8-3.8.2-1.6.4-3.2-.8-4.2s-2.8-.4-4.2.2-2.8,1.2-4,.2-1-2.4-.8-4,.4-3.2-1-4.2-2.8-.4-4.4.4c-1.4.6-2.8,1.2-4,.4s-1-2.4-1-3.8c.2-1.6.2-3.2-1-4.2-1.4-1-2.8-.2-4.2.4s-2.8,1.4-4,.6-1.2-2.2-1-3.8c0-1.6.2-3.2-1.2-4.2-1.4-.8-2.8-.2-4.2.6s-2.6,1.4-4,.6c-1.2-.8-1.2-2.2-1.2-3.8s0-3.2-1.4-4-2.8,0-4.2.8-2.6,1.6-4,.8c-1.2-.8-1.2-2.2-1.4-3.8,0-1.6,0-3.2-1.4-4s-2.8,0-4.2.8-2.6,1.6-4,1-1.4-2.2-1.4-3.6c0-1.6-.2-3.2-1.6-4s-2.8.2-4.2,1c-1.2.8-2.6,1.6-3.8,1-1.4-.6-1.4-2.2-1.6-3.8s-.2-3.2-1.8-3.8-2.8.2-4.2,1.2c-1.2.8-2.4,1.8-3.8,1.2s-1.6-2-1.8-3.6-.4-3.2-1.8-4c-1.6-.6-2.8.2-4,1.2s-2.4,1.8-3.8,1.4c-1.4-.6-1.6-2-1.8-3.6s-.4-3.2-2-3.8-2.8.4-4,1.4-2.4,1.8-3.8,1.4c-1.4-.6-1.6-2-1.8-3.6-.4-1.6-.6-3.2-2.2-3.6-1.6-.6-2.8.6-4,1.6s-2.2,2-3.8,1.6c-1.4-.4-1.8-2-2-3.4-.4-1.6-.6-3.2-2.2-3.8s-2.8.6-4,1.6-2.2,2.2-3.6,1.6c-1.4-.4-1.8-1.8-2.2-3.4s-.8-3.2-2.4-3.6-2.8.8-4,1.8c-1,1-2.2,2.2-3.6,1.6-1.4-.4-1.8-1.8-2.2-3.4s-1-3-2.4-3.4c-1.6-.4-2.8.8-3.8,2s-2,2.2-3.6,1.8c-1.4-.4-2-1.8-2.4-3.2-.4-1.6-1-3-2.6-3.4s-2.8.8-3.8,2-2,2.4-3.6,2c-1.4-.2-2-1.6-2.4-3.2-.6-1.4-1.2-3-2.8-3.4s-2.6,1-3.6,2.2-2,2.4-3.4,2c-1.4-.2-2-1.6-2.6-3.2-.6-1.4-1.2-3-2.8-3.2s-2.6,1-3.6,2.4c-1,1.2-1.8,2.4-3.4,2.2-1.4-.2-2-1.6-2.6-3s-1.2-3-3-3.2c-1.6-.2-2.6,1.2-3.6,2.4s-1.8,2.4-3.2,2.4c-1.4-.2-2.2-1.4-2.8-2.8s-1.4-2.8-3-3-2.6,1.2-3.4,2.6-1.8,2.4-3.2,2.4c-1.6-.2-2.2-1.4-2.8-2.8-.8-1.4-1.4-3-3.2-3-1.6,0-2.6,1.4-3.4,2.6-.8,1.4-1.6,2.6-3.2,2.6s-2.2-1.4-3-2.6c-.8-1.4-1.6-2.8-3.2-2.8s-2.4,1.4-3.2,2.6c-.8,1.4-1.6,2.6-3,2.6-1.6,0-2.2-1.2-3-2.6s-1.6-2.8-3.4-2.8c-1.6,0-2.4,1.4-3.2,2.8s-1.4,2.6-3,2.6-2.2-1.2-3.2-2.6c-.8-1.4-1.8-2.8-3.4-2.6s-2.4,1.6-3.2,3c-.6,1.4-1.4,2.8-2.8,2.8-1.6.2-2.4-1-3.2-2.4s-1.8-2.6-3.4-2.6-2.4,1.6-3,3-1.2,2.8-2.8,2.8c-1.6.2-2.4-1-3.2-2.2-1-1.2-2-2.6-3.6-2.4s-2.2,1.8-3,3.2c-.6,1.4-1.2,2.8-2.6,3-1.6.2-2.4-1-3.4-2.2s-2-2.6-3.6-2.4-2.2,1.8-2.8,3.4c-.6,1.4-1,2.8-2.6,3.2-1.4.2-2.4-.8-3.4-2s-2-2.4-3.8-2.2c-1.6.2-2.2,1.8-2.8,3.4-.6,1.4-1,2.8-2.4,3s-2.4-.8-3.4-2-2.2-2.4-3.8-2-2.2,2-2.6,3.4-.8,3-2.4,3.2c-1.4.4-2.4-.8-3.6-1.8-1.2-1.2-2.2-2.4-3.8-2s-2,2-2.4,3.6-.8,3-2.2,3.4-2.4-.6-3.6-1.8c-1.2-1-2.4-2.2-3.8-1.8-1.6.4-2,2-2.4,3.6s-.8,3-2.2,3.4-2.6-.6-3.6-1.6c-1.2-1-2.4-2.2-4-1.6s-1.8,2.2-2.2,3.6c-.4,1.6-.6,3-2,3.4s-2.6-.4-3.8-1.6c-1.2-1-2.4-2.2-4-1.6-1.6.4-1.8,2.2-2.2,3.8-.2,1.6-.4,3-1.8,3.6s-2.6-.4-3.8-1.4-2.6-2-4-1.4c-1.6.6-1.8,2.2-2,3.8s-.4,3-1.8,3.6-2.6-.4-3.8-1.2c-1.2-1-2.6-2-4-1.2-1.6.6-1.6,2.4-1.8,4s-.2,3-1.6,3.6-2.6-.2-3.8-1.2c-1.2-.8-2.6-1.8-4.2-1.2s-1.6,2.4-1.8,4-.2,3-1.6,3.8c-1.4.6-2.6-.2-3.8-1-1.4-.8-2.8-1.8-4.2-1s-1.6,2.4-1.6,4-.2,3-1.4,3.6c-1.4.6-2.6,0-3.8-.8-1.4-.8-2.8-1.6-4.2-.8s-1.4,2.4-1.4,4a6.36,6.36,0,0,1-.4,2.8,2,2,0,0,1-.8,1c-1.2.8-2.6,0-4-.8s-2.8-1.6-4.2-.8-1.4,2.6-1.4,4.2.2,3-1.2,3.8c-1.2.8-2.6.2-4-.6s-2.8-1.4-4.2-.6-1.4,2.6-1.2,4.2c0,1.6.2,3-1,3.8s-2.6.2-4-.4-3-1.4-4.2-.4c-1.4,1-1.2,2.6-1,4.2s.2,3-1,3.8-2.6.2-4-.4-3-1.4-4.4-.4-1,2.6-.8,4.2.4,3-.8,4-2.6.4-4-.2-3-1.2-4.2-.2c-1.4,1-1,2.6-.8,4.2s.4,3-.8,4-2.4.4-4,0c-1.4-.6-3-1-4.2,0s-1,2.6-.6,4.2c.2,1.6.6,3-.6,4s-2.6.4-4,0-3.2-1-4.4.2-.8,2.8-.4,4.4.6,3-.4,4c-1.2,1-2.4.6-4,.2s-3.2-.8-4.4.2c-1.2,1.2-.8,2.8-.4,4.2.4,1.6.8,2.8-.2,4-1,1-2.4.8-4,.4s-3.2-.8-4.2.4c-1.2,1.2-.6,2.8-.2,4.4s.8,2.8-.2,4c-1,1-2.4.8-4,.4s-3.2-.8-4.2.6c-1,1.2-.6,2.8,0,4.4.4,1.4,1,2.8,0,4s-2.4.8-4,.6-3.2-.6-4.2.6-.6,2.8,0,4.2c.4,1.4,1,2.8.2,4-1,1.2-2.4,1-3.8.8-1.6-.2-3.2-.4-4.2.8s-.4,2.8.2,4.2,1.2,2.8.2,4-2.4,1-4,.8-3.2-.4-4.2,1-.4,2.8.4,4.4c.6,1.4,1.2,2.8.4,4s-2.4,1-3.8,1c-1.6-.2-3.2-.2-4.2,1-1,1.4-.2,2.8.4,4.2s1.4,2.8.6,4-2.2,1.2-3.8,1.2-3.2-.2-4.2,1.2c-.8,1.4-.2,2.8.6,4.2s1.4,2.6.6,4c-.8,1.2-2.2,1.2-3.8,1.2s-3.2,0-4,1.4,0,2.8.8,4.2,1.6,2.6.8,4c-.8,1.2-2.2,1.4-3.8,1.4s-3.2,0-4,1.4,0,2.8.8,4.2,1.6,2.6,1,4-2.2,1.4-3.6,1.4c-1.6,0-3.2.2-4,1.6s.2,2.8,1,4.2,1.6,2.6,1,3.8c-.6,1.4-2.2,1.4-3.8,1.6s-3.2.2-3.8,1.8.2,2.8,1.2,4.2c.8,1.2,1.8,2.4,1.2,3.8s-2,1.6-3.6,1.6c-1.6.2-3.2.4-3.8,1.8-.8,1.6.2,2.8,1.2,4s1.8,2.4,1.4,3.8c-.6,1.4-2,1.6-3.6,1.8s-3.2.4-3.8,2,.4,2.8,1.4,4,1.8,2.4,1.4,3.8c-.6,1.4-2,1.6-3.6,1.8s-3.2.6-3.6,2.2c-.6,1.6.6,2.8,1.6,4s2,2.2,1.6,3.8c-.4,1.4-2,1.8-3.4,2-1.6.4-3.2.6-3.8,2.2s.6,2.8,1.6,4,2.2,2.2,1.6,3.6c-.4,1.4-1.8,1.8-3.4,2.2s-3.2.8-3.6,2.4.8,2.8,1.8,4c1,1,2.2,2.2,1.6,3.6-.4,1.4-1.8,1.8-3.4,2.2s-3,1-3.4,2.6.8,2.8,2,3.8,2.2,2,1.8,3.6c-.4,1.4-1.8,2-3.2,2.4-1.6.4-3,1-3.4,2.6s.8,2.8,2,3.8,2.4,2,2,3.4c-.2,1.4-1.6,2-3.2,2.4-1.4.6-3,1.2-3.4,2.8s1,2.6,2.2,3.6,2.4,2,2,3.4c-.2,1.4-1.6,2-3.2,2.6-1.4.6-3,1.2-3.2,2.8s1,2.6,2.4,3.6c1.2,1,2.4,1.8,2.2,3.4-.2,1.4-1.6,2-3,2.6s-3,1.2-3.2,3c-.2,1.6,1.2,2.6,2.4,3.6s2.4,1.8,2.4,3.2c-.2,1.4-1.4,2.2-2.8,2.8-1.4.8-2.8,1.4-3,3s1.2,2.6,2.6,3.4c1.2.8,2.4,1.8,2.4,3.2-.2,1.6-1.4,2.2-2.8,2.8-1.4.8-3,1.6-3,3.2s1.4,2.6,2.6,3.4c1.4.8,2.6,1.6,2.6,3.2s-1.4,2.2-2.6,3c-1.4.8-2.8,1.6-2.8,3.2s1.4,2.4,2.6,3.2c1.4.8,2.6,1.6,2.6,3,0,1.6-1.2,2.2-2.6,3s-2.8,1.6-2.8,3.4c0,1.6,1.4,2.4,2.8,3.2s2.6,1.4,2.6,3-1.2,2.2-2.6,3.2c-1.4.8-2.8,1.8-2.6,3.4s1.6,2.4,3,3.2c1.4.6,2.8,1.4,2.8,2.8.2,1.6-1,2.4-2.4,3.2s-2.6,1.8-2.6,3.4c.2,1.6,1.6,2.4,3,3s2.8,1.2,2.8,2.8c.2,1.6-1,2.4-2.2,3.2-1.2,1-2.6,2-2.4,3.6s1.8,2.2,3.2,3c1.4.6,2.8,1.2,3,2.6.2,1.6-1,2.4-2.2,3.4s-2.6,2-2.4,3.6,1.8,2.2,3.4,2.8c1.4.6,2.8,1,3.2,2.6.2,1.4-.8,2.4-2,3.4s-2.4,2-2.2,3.8c.2,1.6,1.8,2.2,3.4,2.8,1.4.6,2.8,1,3,2.4s-.8,2.4-2,3.4-2.4,2.2-2,3.8,2,2.2,3.4,2.6,3,1,3.2,2.4c.4,1.4-.8,2.4-1.8,3.6-1.2,1.2-2.4,2.2-2,3.8s2,2,3.6,2.4,3,.8,3.4,2.2-.6,2.4-1.6,3.6c-1.2,1.2-2.2,2.4-1.8,3.8.4,1.6,2,2,3.6,2.4s3,.6,3.4,2.2c.4,1.4-.6,2.6-1.6,3.6-1,1.2-2.2,2.4-1.6,4s2.2,1.8,3.6,2.2c1.6.4,3,.6,3.4,2s-.4,2.6-1.6,3.8c-1,1.2-2.2,2.4-1.6,4,.4,1.6,2.2,1.8,3.8,2s3,.4,3.6,2c.6,1.4-.4,2.6-1.4,3.8s-2,2.6-1.4,4c.6,1.6,2.2,1.8,3.8,2s3,.4,3.6,1.8-.4,2.6-1.2,3.8c-1,1.2-2,2.6-1.2,4,.6,1.6,2.4,1.6,4,1.8s3,.2,3.6,1.6-.2,2.6-1.2,3.8c-.8,1.4-1.8,2.6-1.2,4.2s2.4,1.6,4,1.8c1.6,0,3,.2,3.8,1.6.6,1.4-.2,2.6-1,3.8-.8,1.4-1.8,2.8-1,4.2s2.4,1.6,4,1.6,3,.2,3.6,1.4c.6,1.4,0,2.6-.8,3.8-.8,1.4-1.6,2.8-.8,4.2s2.4,1.4,4,1.4,3,0,3.8,1.2,0,2.6-.8,4-1.6,2.8-.8,4.2,2.6,1.4,4.2,1.2c1.6,0,3,0,3.8,1.2s.2,2.6-.6,4-1.4,2.8-.6,4.2,2.6,1.4,4.2,1.2c1.6,0,3-.2,3.8,1s.2,2.6-.4,4-1.4,3-.4,4.2c1,1.4,2.6,1.2,4.2,1s3-.2,3.8,1,.2,2.6-.4,4-1.2,3-.4,4.4c1,1.2,2.6,1,4.2.8s3-.4,4,.8.4,2.6-.2,4-1.2,3-.2,4.2,2.6,1,4.2.8,3-.4,4,.8.4,2.4,0,4c-.6,1.4-1,3,0,4.2s2.6,1,4.2.6c1.6-.2,3-.6,4,.6s.4,2.6,0,4c-.4,1.6-1,3.2.2,4.4s2.8.8,4.4.4,3-.8,4,.4c1,1,.6,2.4.2,4s-.8,3.2.2,4.4c1.2,1.2,2.8.8,4.2.4,1.6-.4,2.8-.8,4,.2s.8,2.4.4,4-.8,3.2.4,4.2c1.2,1.2,2.8.6,4.4.2s2.8-.8,4,.2.8,2.4.4,4-.8,3.2.6,4.2c1.2,1,2.8.6,4.4,0,1.4-.4,2.8-1,4,0s.8,2.4.6,4-.6,3.2.6,4.2,2.8.6,4.2,0c1.4-.4,2.8-1,4-.2,1.2,1,1,2.4.8,4s-.4,3.2.8,4.2,2.8.4,4.2-.2,2.8-1.2,4-.2,1,2.4.8,4-.4,3.2,1,4.2,2.8.2,4.4-.4c1.4-.6,2.8-1.2,4-.4s1,2.4,1,4c-.2,1.6-.2,3.2,1,4.2,1.4,1,2.8.2,4.2-.4s2.8-1.4,4-.6,1.2,2.2,1.2,3.8-.2,3.2,1.2,4.2c1.4.8,2.8.2,4.2-.6s2.6-1.4,4-.6c1.2.8,1.2,2.4,1.2,3.8,0,1.6,0,3.2,1.4,4s2.8,0,4.2-.8a8.57,8.57,0,0,1,2.6-1,2.16,2.16,0,0,1,1.4.4c1.2.8,1.4,2.2,1.4,3.8s0,3.2,1.4,4,2.8,0,4.2-.8,2.6-1.6,4-1,1.4,2.2,1.4,3.8.2,3.2,1.6,4,2.8-.2,4.2-1,2.6-1.6,3.8-1c1.4.6,1.4,2.2,1.6,3.8s.2,3.2,1.8,3.8,2.8-.2,4.2-1.2c1.2-1,2.4-1.8,3.8-1.2s1.6,2,1.6,3.6c.2,1.6.4,3.2,1.8,3.8,1.6.8,2.8-.2,4-1.2s2.4-1.8,3.8-1.4c1.4.6,1.6,2,1.8,3.6s.4,3.2,2,3.8,2.8-.4,4-1.4,2.4-2,3.8-1.4,1.6,2,1.8,3.6.6,3.2,2.2,3.6,2.8-.6,4-1.6,2.2-2,3.8-1.6c1.4.4,1.8,2,2,3.4.4,1.6.6,3.2,2.2,3.8s2.8-.6,4-1.6,2.2-2,3.6-1.6,1.8,1.8,2.2,3.4.8,3.2,2.4,3.6,2.8-.8,4-1.8c1-1,2.2-2.2,3.6-1.8s1.8,1.8,2.2,3.4,1,3,2.6,3.4,2.8-.8,3.8-2,2-2.2,3.6-1.8c1.4.4,2,1.8,2.4,3.2.4,1.6,1,3,2.6,3.4s2.8-.8,3.8-2,2-2.4,3.6-2c1.4.2,2,1.6,2.4,3.2.6,1.4,1.2,3,2.8,3.4,1.6.2,2.6-1,3.6-2.2s2-2.4,3.4-2c1.4.2,2,1.6,2.6,3.2.6,1.4,1.2,3,2.8,3.2s2.6-1.2,3.6-2.4,1.8-2.4,3.4-2.2c1.4.2,2,1.6,2.6,3s1.2,3,3,3.2c1.6.2,2.6-1,3.6-2.4,1-1.2,1.8-2.4,3.2-2.4,1.4.2,2.2,1.4,2.8,2.8.8,1.4,1.4,3,3,3,1.6.2,2.6-1.2,3.4-2.6.8-1.2,1.8-2.4,3.2-2.4,1.6.2,2.2,1.4,2.8,2.8.8,1.4,1.6,3,3.2,3s2.6-1.4,3.4-2.6c.8-1.4,1.6-2.6,3.2-2.6s2.2,1.4,3,2.8,1.6,2.8,3.2,2.8,2.4-1.4,3.2-2.8,1.6-2.6,3-2.6c1.6,0,2.2,1.2,3,2.6s1.6,2.8,3.4,2.8c1.6,0,2.4-1.4,3.2-2.8s1.4-2.6,3-2.8c1.6,0,2.2,1.2,3.2,2.6.8,1.4,1.8,2.8,3.4,2.6s2.4-1.6,3.2-3c.6-1.4,1.4-2.8,2.8-2.8,1.6,0,2.4,1.2,3.2,2.4s1.8,2.6,3.4,2.6,2.4-1.6,3-3,1.2-2.8,2.8-2.8c1.6-.2,2.4,1,3.2,2.2,1,1.2,2,2.6,3.6,2.4s2.2-1.8,3-3.2c.6-1.4,1.2-2.8,2.6-3,1.6-.2,2.4,1,3.4,2.2s2,2.6,3.6,2.4,2.2-1.8,2.8-3.2,1-2.8,2.6-3.2c1.4-.2,2.4.8,3.4,2s2,2.4,3.8,2.2c1.6-.2,2.2-1.8,2.8-3.4.6-1.4,1-2.8,2.4-3,1.6-.2,2.4.8,3.6,2,1,1.2,2.2,2.4,3.8,2s2.2-2,2.6-3.4,1-3,2.4-3.2c1.4-.4,2.4.8,3.6,1.8,1.2,1.2,2.2,2.4,3.8,2s2-2,2.4-3.6.8-3,2.2-3.4,2.4.6,3.6,1.8,2.4,2.2,3.8,1.8c1.6-.4,2-2,2.4-3.6s.6-3,2.2-3.4c1.4-.4,2.6.6,3.6,1.6,1.2,1,2.4,2.2,4,1.6s1.8-2.2,2.2-3.6c.4-1.6.6-3,2-3.4s2.6.4,3.8,1.6c1.2,1,2.4,2,4,1.6s1.8-2.2,2.2-3.8c.2-1.6.4-3,1.8-3.6s2.6.4,3.8,1.4,2.6,2,4,1.4c1.6-.6,1.8-2.2,2-3.8s.4-3,1.8-3.6,2.6.4,3.8,1.2c1.2,1,2.6,1.8,4,1.2s1.6-2.4,1.8-4,.4-3,1.6-3.6c1.4-.6,2.6.2,3.8,1.2,1.4.8,2.6,1.8,4.2,1.2s1.6-2.4,1.8-4c0-1.6.2-3,1.6-3.8,1.4-.6,2.6.2,3.8,1,1.4.8,2.8,1.8,4.2,1s1.6-2.4,1.6-4,.2-3,1.4-3.6c1.4-.6,2.6,0,4,.8s2.8,1.6,4.2.8,1.4-2.4,1.4-4,0-3,1.2-3.8,2.6,0,4,.8,2.8,1.6,4.2.8,1.4-2.6,1.2-4.2c0-1.6,0-3,1.2-3.8s2.6-.2,4,.6,2.8,1.4,4.2.6c1.4-1,1.4-2.6,1.2-4,0-1.6-.2-3,1-3.8s2.6-.2,4,.4,3,1.4,4.2.4c1.4-1,1.2-2.6,1-4.2s-.2-3,1-3.8,2.6-.2,4,.4,3,1.4,4.4.4c1.2-1,1-2.6.8-4.2s-.4-3,.8-4,2.6-.4,4,.2,3,1.2,4.2.2,1-2.6.8-4.2-.4-3,.8-4,2.4-.4,4,0c1.4.6,3,1,4.2,0s1-2.8.6-4.2c-.2-1.6-.6-3,.6-4s2.6-.4,4,0c1.6.4,3.2,1,4.4-.2s.8-2.8.4-4.4-.8-3,.4-4c1-1,2.4-.6,4-.2s3.2.8,4.4-.2c1.2-1.2.8-2.8.4-4.2-.4-1.6-.8-2.8.2-4s2.4-.8,4-.4,3.2.8,4.2-.4c1.2-1.2.6-2.8.2-4.2-.4-1.6-.8-3,.2-4s2.4-.8,4-.4,3.2.8,4.2-.6c1-1.2.6-2.8,0-4.4-.4-1.4-1-2.8,0-4s2.4-.8,4-.6,3.2.6,4.2-.6.6-2.8,0-4.2c-.4-1.4-1-2.8-.2-4,1-1.2,2.4-1,4-.8s3.2.4,4.2-.8.4-2.8-.2-4.2-1.2-2.8-.2-4,2.4-1,4-.8,3.2.4,4.2-1,.2-2.8-.4-4.4c-.6-1.4-1.2-2.8-.4-4s2.4-1,4-1c1.6.2,3.2.2,4.2-1,1-1.4.2-2.8-.4-4.2s-1.4-2.8-.6-4,2.2-1.2,3.8-1c1.6,0,3.2.2,4.2-1.2.8-1.4.2-2.8-.6-4.2s-1.4-2.6-.6-4c.8-1.2,2.4-1.2,3.8-1.2,1.6,0,3.2,0,4-1.4s0-2.8-.8-4.2-1.6-2.6-.8-4,2.2-1.4,3.8-1.4,3.2,0,4-1.4,0-2.8-.8-4.2-1.6-2.6-1-4,2.2-1.4,3.8-1.4,3.2-.2,4-1.6-.2-2.8-1-4.2c-.8-1.2-1.6-2.6-1-3.8.6-1.4,2.2-1.4,3.8-1.6s3.2-.2,3.8-1.8-.2-2.8-1.2-4.2c-1-1.2-1.8-2.4-1.2-3.8s2-1.6,3.6-1.6c1.6-.2,3.2-.4,3.8-1.8.8-1.6-.2-2.8-1.2-4s-1.8-2.4-1.4-3.8c.6-1.4,2-1.6,3.6-1.8s3.2-.4,3.8-2-.4-2.8-1.4-4-2-2.4-1.4-3.8,2-1.6,3.6-1.8c1.6-.4,3.2-.6,3.6-2.2s-.6-2.8-1.6-4-2-2.2-1.6-3.8c.4-1.4,2-1.8,3.4-2,1.6-.4,3.2-.6,3.8-2.2s-.6-2.8-1.6-4-2-2.2-1.6-3.6,1.8-1.8,3.4-2.2,3.2-.8,3.6-2.4-.8-2.8-1.8-4c-1-1-2.2-2.2-1.8-3.6s1.8-1.8,3.4-2.2,3-1,3.4-2.6-.8-2.8-2-3.8-2.2-2-1.8-3.6c.4-1.4,1.8-2,3.2-2.4,1.6-.4,3-1,3.4-2.6s-.8-2.8-2-3.8-2.4-2-2-3.6c.2-1.4,1.6-2,3.2-2.4,1.4-.6,3-1.2,3.4-2.8.2-1.6-1-2.6-2.2-3.6s-2.4-2-2-3.4c.2-1.4,1.6-2,3.2-2.6,1.4-.6,3-1.2,3.2-2.8s-1.2-2.6-2.4-3.6-2.4-1.8-2.2-3.4c.2-1.4,1.6-2,3-2.6s3-1.2,3.2-3c.2-1.6-1-2.6-2.4-3.6-1.2-1-2.4-1.8-2.4-3.2.2-1.6,1.4-2.2,2.8-2.8s3-1.4,3-3c.2-1.6-1.2-2.6-2.6-3.4-1.2-.8-2.4-1.8-2.4-3.2.2-1.6,1.4-2.2,2.8-2.8,1.4-.8,3-1.4,3-3.2,0-1.6-1.4-2.6-2.6-3.4-1.4-.8-2.6-1.6-2.6-3.2s1.4-2.2,2.8-3C809.26,432.2,810.66,431.2,810.66,429.6Zm-4-148c.2-.2-.2-1.2-.6-2.4l-4.2,1.2c-.2,0-1,.2-.6.6l1,2h0l1.2-.4Zm-1.4,290.6c.2-.6-2.2-1.2-2.4-1.2l-2.2-.8c-.6,1-1.2,2.4-.8,2.6l3.8,1.2.8.2Zm-1-297.4-.8-1.8c-.2-.6-2.4.6-2.6.8l-2.2.8c.2,1.2.8,2.6,1.2,2.4l3.6-1.8Zm-1.6,303.8-3.8-2c-.2-.2-.8-.6-1,0l-.6,2.2v.2l1.2.4,3.2,1.4A5.65,5.65,0,0,0,802.66,578.6ZM799.86,284l-.8-2.2c-.2-.8-3.2,1-3.4,1.2l-1.4.8.2.6c.2.2.4,1.2.6,1.4.6.4,2.4-.8,2.8-1Zm-1.6,285.4h0l-4.4-1.8a3.49,3.49,0,0,0-1,2,4.37,4.37,0,0,1,1,.6l2.6,1.2c.2.2.8.6,1.2.4C797.86,571.4,798.06,569.8,798.26,569.4Zm-.8-291.6c.2-.4-.8-1.8-1-2.4v-.2l-4.4,1.8c-.2,0,.2,1.2.6,2.2a2.68,2.68,0,0,1,1-.2l2.6-.8C796.66,278.2,797.46,278.2,797.46,277.8Zm-1.6,297.8c.4-.8-3-1.4-3.4-1.4l-1.4-.4-.2.6a3.82,3.82,0,0,0-.6,1.6c.2.6,2.2,1,2.8,1.2l1.8.8Zm-15.2-350.4c.2-.2-.4-1.2-1-2.2l-4,1.8c-.2.2-1,.2-.6.8l1.2,1.8v.2l1.2-.6Zm-1.6,402c.2-.4-2-1.4-2.2-1.6l-2-1.2c-.6,1-1.6,2.2-1.2,2.6l3.6,1.6.8.4ZM777.26,219l-1-1.8c-.2-.4-2.2,1-2.4,1l-2,1.2c.4,1,1.2,2.6,1.6,2.2l3.2-2.2Zm-1.6,414-3.6-2.6c-.2-.2-.6-.6-1-.2l-1,2h0l1.2.6,3,1.8C774.46,635,775.26,634,775.66,633Zm-1.4-404.2-1-2.2c-.4-.6-3,1.6-3.2,1.8l-1.2.8.2.4c.2.2.6,1.2.8,1.4.6.2,2.2-1.2,2.6-1.4Zm-1.6,394.4h0l-4.2-2.4c-.2-.2-.8.8-1.4,1.8a3.45,3.45,0,0,0,.8.6l2.4,1.6c.2.2.8.8,1,.6C771.86,625.4,772.46,623.6,772.66,623.2ZM771.06,223a12,12,0,0,0-1.2-2.2h0l-4,2.4c-.2.2.2,1.2.8,2a9.42,9.42,0,0,1,1-.4l2.6-1.2S771.06,223.4,771.06,223Zm-1.8,406.2c.4-.6-2.8-1.8-3.2-2l-1.4-.6-.2.4a3.22,3.22,0,0,0-.8,1.4c.2.6,2,1.4,2.6,1.6l1.6,1Zm-23-455.6c.2-.2-.4-1.2-1.2-2l-3.6,2.4c-.2.2-.8.4-.4.8l1.4,1.6h0l1-.8Zm-1.2,504c.4-.4-1.6-1.6-2-1.8l-1.8-1.4c-.8.8-1.8,2-1.4,2.4l3.4,2.2.6.4Zm-3-509.8-1.2-1.6c-.4-.4-2,1.4-2.2,1.4l-1.8,1.6c.6,1,1.6,2.4,2,2l2.8-2.8ZM740.86,683l-3.2-3c-.2-.2-.6-.8-1-.2l-1.2,1.8h0l1,.8,2.6,2.2C739.46,684.8,740.26,683.8,740.86,683Zm-.4-505-1.4-2c-.4-.6-2.6,2-3,2.2l-1,1,.4.4c.2.2.8,1.2,1,1.2.6.2,2-1.4,2.4-1.8Zm-1.2,494.8h0l-3.6-3c-.2-.2-1,.6-1.6,1.6.4.4.6.8.8.8l2,2c.2.2.6.8,1,.8C738.26,674.8,738.86,673.2,739.26,672.8Zm-3.8-499.2c.2-.2,1-.4,1-.8,0-.6-1.2-1.6-1.6-2h0l-3.6,3c-.2.2.4,1,1.2,2a4.37,4.37,0,0,0,1-.6Zm-.4,504.8c.4-.6-2.4-2.2-2.8-2.4l-1.2-.8-.4.4c-.2.2-1,1-1,1.2,0,.6,1.8,1.6,2.2,2l1.6,1.2Zm-30.4-550.6c.2-.2-.6-1.2-1.4-1.8l-3.2,2.8c-.2.2-.8.6-.4.8l1.8,1.4h0l1-1Zm-.8,594.8c.4-.4-1.4-2-1.6-2.2l-1.6-1.8c-1,.8-2.2,1.8-1.8,2.2l3,2.6.6.6Zm-4.6-599.4.4-.6-1.6-1.4c-.4-.4-1.8,1.6-2,1.8l-1.6,1.8c.8.8,1.8,2,2.2,1.6Zm.4,9.8-1.6-1.8c-.6-.6-2.4,2.2-2.6,2.6l-.8,1.2.4.4c.2.2.8,1,1.2,1,.6,0,1.8-1.8,2.2-2.2Zm-.6,594.4-2.6-3.4c-.2-.2-.4-.8-.8-.4l-1.6,1.6h0l.8,1,2.4,2.6S698.26,728,699.06,727.4Zm-.2-10.6-3.2-3.4c-.2-.2-1,.6-1.8,1.2.2.4.6.8.6,1l1.8,2.2c.2.2.6,1,.8,1,.4,0,1.4-1.4,1.8-2Zm-4.8-587.4c.2-.2.8-.6.8-1,0-.6-1.6-1.4-1.8-1.6h0l-3.2,3.6c-.2.2.6,1,1.4,1.8a3.45,3.45,0,0,1,.8-.6Zm0,592.4c.6-.4-2.2-2.6-2.4-2.8l-1.2-1-.4.4c-.2.2-1.2.8-1.2,1.2,0,.6,1.6,1.8,2,2.2l1.2,1.4ZM658.86,90.2c.2-.2-.8-1-1.8-1.6l-2.8,3.4c-.2.2-.8.6-.2,1l2,1.2h0l.8-1Zm-3,671.2c.4-.4-1.2-2.2-1.4-2.4l-1.4-2c-1,.6-2.4,1.4-2,1.8l2.6,3,.6.6Zm-2.2-663.6,1.2-1.6-1.8-1.4c-.6-.4-2,2.6-2.2,3l-.8,1.4.4.4a3.22,3.22,0,0,0,1.4.8C652.46,100.2,653.26,98.2,653.66,97.8Zm-.8-11.2.4-.6-1.8-1.2c-.4-.4-1.6,1.8-1.8,2l-1.4,2c1,.8,2.2,1.8,2.4,1.2Zm-1.2,668.6-2.8-4c-.2-.2-1,.4-2,1a3.38,3.38,0,0,1,.4,1l1.4,2.4c.2.2.4,1,.8,1,.6.2,1.8-1,2.2-1.4Zm-1.4,10.2-2.2-3.8c-.2-.2-.4-.8-.8-.6l-1.8,1.4h0l.8,1,2,2.8C648.26,766.6,649.26,766,650.26,765.4Zm-1.6-672c.2-.2.8-.8.8-1a7.18,7.18,0,0,0-2-1.4h-.2l-2.6,4c-.2.2.8.8,1.6,1.4.4-.4.6-.8.8-.8Zm-2.6,665.8c.6-.4-1.8-2.8-2-3.2l-1-1.2-.4.2c-.2.2-1.2.6-1.4,1-.2.6,1.4,2.2,1.6,2.6l1,1.6Zm-39-700c.2-.2-1-.8-2-1.4l-2.2,3.6c-.2.2-.6.8,0,1l2,.8h0l.6-1.2Zm-4,8.2.8-1.8-2-1.2c-.6-.4-1.6,2.8-1.8,3.2l-.4,1.4.4.2c.2.2,1,.8,1.4.6C602.26,69.8,602.66,67.8,603.06,67.4Zm.6,724.6c.6-.2-.8-2.2-1-2.6l-1-2.2c-1,.4-2.6,1-2.2,1.6l2,3.4.4.6Zm-3-735.6.2-.8-1.8-.8c-.6-.2-1.2,2-1.4,2.4l-1,2.2c1,.6,2.4,1.4,2.6.8Zm0,728.8-2.2-4.2c0-.2-1,.2-2,.8.2.4.2,1,.4,1l1,2.6c0,.2.2,1,.6,1.2.4,0,1.6-1,2.2-1.4Zm-3.2-721.4a2.28,2.28,0,0,0,.6-1.2c-.2-.4-1.8-.8-2.4-1h-.2l-2,4.4c-.2.2.8.8,1.8,1.2a3.73,3.73,0,0,1,.6-.8Zm.2,731.2-1.6-4c-.2-.2-.2-1-.8-.6l-2,1h-.2l.6,1.2,1.4,3.2C595.46,796,596.66,795.6,597.66,795Zm-3.2-6.6c.8-.2-1.2-3-1.4-3.4l-.8-1.2-.4.2c-.2.2-1.2.4-1.4.6-.2.6,1,2.4,1.2,2.8l.8,1.8ZM550.06,35.6a3.59,3.59,0,0,0-2.2-1l-1.6,4c0,.2-.4.8,0,1l2.2.6h.2l.4-1.2Zm-1.2,778.6c.6-.2-.4-2.4-.6-2.6l-.8-2.2c-1.2.2-2.6.6-2.4,1.2l1.6,3.6.4.8Zm-1.8-769.8.6-1.8-2.2-1c-.8-.2-1.2,3-1.2,3.4l-.2,1.4.6.2c.2,0,1.2.6,1.6.4C546.66,47,547.06,44.8,547.06,44.4Zm-.2,762.6-1.4-4.6c0-.2-1.2,0-2.2.4a2.43,2.43,0,0,0,.2,1l.6,2.8c0,.2,0,1,.4,1.2s1.8-.6,2.4-.8Zm-3.6-773,.2-.8-2-.6c-.6-.2-1,2.2-1,2.4l-.6,2.2c1,.4,2.6,1,2.8.4Zm-.8,782.4-.8-4.2c0-.2,0-1-.6-.8l-2,.8h-.2l.4,1.2,1,3.4C540.06,817,541.26,816.6,542.46,816.4Zm-1.4-774.8c0-.2.6-1,.4-1.2-.2-.4-2-.6-2.4-.6h-.2l-1.4,4.6c0,.2,1,.6,2,.8a3.38,3.38,0,0,0,.4-1Zm-.8,767.6c.8-.2-.8-3.2-1-3.6l-.6-1.4-.6.2a6.18,6.18,0,0,0-1.6.4c-.4.6.6,2.4.8,2.8l.6,1.8Zm-49.4-788c0-.4-1.2-.6-2.2-.8l-1,4.2c0,.2-.4.8.2,1l2.2.2h.2l.2-1.2Zm-1.4,9,.4-1.8-2.2-.6c-.8-.2-.6,3.2-.6,3.6v1.4h.6c.2,0,1.2.4,1.6.2A16.34,16.34,0,0,1,489.46,30.2Zm-1,798.4c.6,0-.2-2.4-.2-2.6l-.4-2.4c-1.2,0-2.8.2-2.6.8l1,3.8.2.8Zm-.8-7.4-.8-4.8c0-.2-1.2-.2-2.2,0v1.2l.2,2.8c0,.2,0,1,.2,1.2.4.4,2-.2,2.6-.4Zm-3.8-800.6v-.8l-2-.2c-.6,0-.6,2.4-.6,2.6l-.4,2.4c1.2.2,2.8.6,2.8,0Zm-.8,7.8c0-.2.4-1,.2-1.2-.4-.4-2-.2-2.4-.2h-.2l-.6,4.8c0,.2,1,.4,2.2.6a2.68,2.68,0,0,0,.2-1Zm-1.2,801.4-.2-4.4c0-.2,0-1-.4-.8l-2.2.4h0l.2,1.2.4,3.4C479.46,830,480.66,829.8,481.86,829.8Zm-1-7.4c.8,0-.4-3.2-.4-3.6l-.4-1.4h-.6a3.9,3.9,0,0,0-1.6.2c-.4.4.2,2.4.4,3l.2,2ZM430.26,19.2V15.8c0-.4-1.2-.4-2.4-.4l-.4,4.4c0,.2-.2,1,.4.8h2.4Zm-.2,5.8V23l-2.4-.2c-.8,0-.2,3.2-.2,3.6l.2,1.6h.6c.4,0,1.4.2,1.6,0C430.46,27.6,430.06,25.4,430.06,25Zm-3.4,808.8c.6,0,.2-2.4.2-2.6v-2.4c-1.2,0-2.8-.2-2.8.4l.4,4v.8Zm.2-7.6v-4.8c0-.2-1-.2-2.2-.2a2.43,2.43,0,0,1-.2,1l-.2,2.8c0,.2-.2,1,0,1.2.4.6,2,.2,2.6,0ZM423.46,24c0-.2.2-1,0-1.2-.4-.4-2,0-2.6.2h-.2v4.8c0,.2,1,.2,2.2.2a2.43,2.43,0,0,1,.2-1Zm-2.6-3.6c1.2.2,2.8.2,2.8-.4l-.4-4-.2-.8h-2c-.6,0-.2,2.4-.2,2.6v2.6Zm-.6,809.2c0-.2.2-1-.4-.8h-2.4v4.8c0,.2,1.2.4,2.4.4Zm-.4-3.2c.8,0,.2-3.2.2-3.6l-.2-1.4h-.6c-.4,0-1.4-.2-1.6,0-.4.4-.2,2.4-.2,3v2Zm-48.8-795c.4-.4-.2-2.4-.4-3l-.2-2-2.4.2c-.8,0,.2,3.2.4,3.6l.4,1.4h.6A5,5,0,0,0,371.06,31.4Zm-1-7.4-.2-1.2-.4-3.4c0-.4-1.2-.2-2.4,0l.2,4.4c0,.2,0,1,.4.8l2.4-.6Zm-3.4,793.4c0-.2-1-.4-2.2-.6-.2.6-.2,1-.4,1l-.6,2.8c0,.2-.4,1-.2,1.2.4.4,2,.2,2.6.2h0Zm-1.2,9.6.4-2.4c-1.2-.2-2.8-.6-2.8,0l-.2,4v.8l2,.2C365.26,829.6,365.46,827.2,365.46,827Zm-1.2-794.6v-1l-.2-2.8c0-.2.2-1-.2-1.2a5.07,5.07,0,0,0-2.4.4h-.2l.8,4.8A12.54,12.54,0,0,1,364.26,32.4Zm-3.4-7.2c1.2-.2,2.8-.2,2.6-.6l-1-4-.2-.8-2,.4c-.6,0,0,2.4.2,2.6Zm-1,792.6v-1.6h-.6c-.2,0-1.2-.4-1.6-.2-.6.4-.4,2.4-.6,3l-.4,2,2.4.6C360.06,821.6,359.86,818.2,359.86,817.8Zm-.8,6.6c0-.2.4-.8-.2-1l-2.2-.2h-.2l-.8,4.8c0,.2,1.2.6,2.2.8ZM311.06,44c.4-.6-.6-2.4-.8-3l-.6-1.8-2.2.4c-.8.2.8,3.2,1,3.6l.6,1.4.6-.2C309.86,44.4,310.86,44.4,311.06,44Zm-2-7-.4-1.2-1-3.4c-.2-.4-1.4,0-2.4.4l1,4.2c0,.2,0,1,.6.8l2.2-.8Zm-1,767.4c0-.2-1-.6-2-1a3.38,3.38,0,0,0-.4,1l-1,2.6c-.2.2-.6,1-.4,1.2.2.4,2,.6,2.4.6h.2Zm-2.8,9.2.6-2.2c-1-.4-2.6-1-2.8-.4l-.8,3.8-.2.8,2,.6C304.66,816.4,305.06,814,305.26,813.6Zm-.8-767.4a2.43,2.43,0,0,0-.2-1l-.6-2.8c0-.2,0-1-.4-1.2s-2,.6-2.4.8h-.2l1.4,4.6C302.26,46.8,303.46,46.4,304.46,46.2Zm-4.4-6.6c1.2-.2,2.8-.6,2.4-1.2l-1.6-3.6-.4-.6-2,.6c-.6.2.4,2.4.6,2.6Zm1.2,764,.2-1.4-.6-.2c-.2,0-1.2-.6-1.6-.4-.6.2-.8,2.4-1,2.8l-.6,1.8,2.2,1C300.66,807.4,301.06,804,301.26,803.6Zm-1.8,6.6c0-.2.4-.8,0-1l-2.2-.6h-.2l-.4,1.2-1,3.2c-.2.2,1,.8,2.2,1ZM256.66,64.6c.2-.6-1-2.4-1.2-2.8l-.8-1.8-2.2.8c-.8.2,1.2,3,1.4,3.4l.8,1.2.6-.2A4.24,4.24,0,0,0,256.66,64.6Zm-3-6.8-.6-1.2-1.4-3.2c-.2-.2-1.2.2-2.2.6l1.6,4c0,.2.2,1,.8.6l1.8-.8Zm-.2,725.6c.2-.2-.8-.8-1.8-1.2a3.45,3.45,0,0,0-.6.8l-1.4,2.4c-.2.2-.8.8-.6,1.2s1.8.8,2.4,1h.2Zm-4.2,8.6,1-2.2c-1-.6-2.4-1.4-2.6-.8l-1.4,3.8-.2.8,1.8.8C248.26,794.6,249.06,792.4,249.26,792Zm1.2-724.4c-.2-.6-.2-1-.4-1l-1-2.6c0-.2-.2-1-.6-1.2s-1.8,1-2.2,1.2h-.2l2.2,4.2C248.46,68.4,249.46,68,250.46,67.6Zm-5.2-5.8c1-.4,2.6-1,2.4-1.6l-2-3.4-.4-.6-1.8,1c-.4.2.8,2.4,1,2.6Zm1.6,719.8.4-1.4-.4-.2c-.2-.2-1.2-.8-1.4-.6-.6.2-1.2,2.2-1.4,2.6l-.8,1.8,2,1.2C245.66,785.2,246.66,781.8,246.86,781.6Zm-2.8,6c.2-.2.6-.8,0-1l-2-1h-.2l-.6,1.2-1.6,3c-.2.2,1,.8,2,1.4ZM205.46,93c.2-.6-1.4-2.2-1.6-2.6l-1-1.6-2,1.2c-.6.4,1.8,2.8,2,3.2l1,1.2.4-.4C204.46,93.8,205.46,93.4,205.46,93Zm-3,661.4c.2-.2-.8-.8-1.6-1.4-.4.4-.6.8-.8.8l-1.8,2.2c-.2.2-.8.8-.8,1a6,6,0,0,0,2.2,1.4h.2Zm-1-667.6-.8-1-1.8-2.8c-.2-.2-1.2.4-2.2,1l2.2,3.8c.2.2.4,1,.8.6l1.8-1.6ZM199.86,97a3.38,3.38,0,0,1-.4-1l-1.4-2.4c-.2-.2-.4-1-.8-1s-1.6,1.2-2,1.6h0l2.8,4S199.06,97.6,199.86,97Zm-2.8,665.4,1.4-2c-1-.8-2.2-1.8-2.4-1.2l-2,3.4-.4.8,1.6,1.2C195.86,764.8,196.86,762.6,197.06,762.4Zm-.8-10.8.8-1.4-.4-.4c-.2-.2-1-1-1.4-.8-.6,0-1.6,2-1.8,2.4l-1.2,1.6,1.8,1.4C194.66,755,196.06,751.8,196.26,751.6ZM193.86,92c1-.6,2.4-1.4,2-1.8l-2.6-3-.4-.6-1.6,1.2c-.4.4,1.2,2.2,1.4,2.4Zm-1.2,665.2c.2-.2.8-.6.2-1l-1.8-1.2h-.2l-.8,1-2,2.8c-.2.2.8,1,1.8,1.6Zm-33.6-628.4c0-.6-1.6-1.8-2-2.2l-1.2-1.4-1.8,1.4c-.6.4,2.2,2.6,2.4,2.8l1.2,1,.4-.4C158.26,129.6,159.06,129.2,159.06,128.8Zm-2.4,589.8c.2-.2-.6-1-1.4-1.8a3.45,3.45,0,0,1-.8.6l-2,1.8c-.2.2-.8.6-.8,1,0,.6,1.6,1.4,1.8,1.8h.2Zm-2.4-595.4-.8-1-2.2-2.6c-.2-.2-1.2.6-2,1.2l2.6,3.4c.2.2.4.8.8.4l1.6-1.4Zm-.2,10.2a3.45,3.45,0,0,1-.6-.8l-1.8-2.2c-.2-.2-.6-1-.8-1-.6,0-1.4,1.4-1.8,1.8h0l3.2,3.4C152.46,135,153.26,134.2,154.06,133.4Zm-3.2,581.4.8-1.2-.4-.4c-.2-.2-.8-1-1.2-1-.6,0-1.8,1.8-2.2,2.2l-1.4,1.4,1.6,1.8C148.86,718,150.66,715.2,150.86,714.8Zm-.6,10.8,1.6-1.8c-.8-.8-1.8-2-2.2-1.6l-2.4,3.2-.4.6,1.4,1.4C148.66,727.8,150.06,725.8,150.26,725.6Zm-3-596c1-.8,2.2-1.8,1.8-2.2l-3-2.6-.6-.4-1.4,1.4c-.4.4,1.4,2,1.6,2.2Zm-.8,590.4c.2-.2.8-.6.4-.8l-1.6-1.4h-.2l-.8,1-2.4,2.4c-.2.2.6,1.2,1.4,1.8Zm-29.2-547.8c0-.6-1.8-1.6-2.2-2l-1.4-1.2-1.6,1.8c-.6.6,2.4,2.2,2.8,2.4l1.2.8.4-.4A11.47,11.47,0,0,0,117.26,172.2Zm-2.6,501.6c.2-.2-.4-1-1.2-2a4.37,4.37,0,0,0-1,.6l-2.4,1.6c-.2.2-1,.4-1,.8,0,.6,1.2,1.6,1.6,2v.2Zm-1.4-496.2c-.4-.4-.6-.8-.8-.8l-2-2c-.2-.2-.6-.8-1-.8s-1.2,1.6-1.6,2v.2l3.8,3C111.86,179.4,112.46,178.4,113.26,177.6Zm-1.6-10.2h0l-1-1-2.6-2.2c-.2-.2-1,.8-1.8,1.6l3.2,3c.2.2.6.8.8.2Zm-1.2,500.8-.4-.4c-.2-.2-.6-1.2-1-1.2-.6-.2-2,1.4-2.4,1.8l-1.6,1.2,1.4,2c.4.6,2.6-2,3-2.2Zm-3.4,11.6,1.8-1.6c-.6-1-1.6-2.4-2-2l-2.8,2.8-.6.6,1.2,1.6C105.26,681.8,106.86,680,107.06,679.8Zm-1.2-505.2c.8-.8,2-2,1.4-2.4l-3.4-2.2-.6-.4-1.2,1.6c-.4.4,1.8,1.8,2,1.8Zm-1.6,499c.2-.2.8-.4.4-.8l-1.6-1.6h0l-1,.8-2.8,2.2c-.2.2.4,1.2,1.2,2ZM81.86,222.8a3.22,3.22,0,0,0,.8-1.4c-.2-.6-2.2-1.4-2.6-1.6l-1.6-1-1.2,2c-.4.6,2.8,1.8,3.2,2l1.4.6Zm-.8,402.4c.2-.2-.2-1-.8-2a3.38,3.38,0,0,1-1,.4l-2.6,1.2c-.2.2-1,.2-1,.6a6.75,6.75,0,0,0,1.4,2.2v.2Zm-1.6-397.8a3.45,3.45,0,0,0-.8-.6l-2.4-1.6c-.2-.2-.8-.8-1-.6-.4.2-1,1.8-1.2,2.2v.2l4.2,2.4A15.84,15.84,0,0,1,79.46,227.4Zm-1.8,391.8-.2-.6c-.2-.2-.6-1.2-.8-1.4-.6-.2-2.2,1.2-2.6,1.4l-1.6,1,1,2c.4.8,3-1.6,3.2-1.8Zm-1.4-401.6h0l-1-.8-3-1.8c-.2-.2-1,.8-1.4,1.8l3.6,2.6c.2.2.6.6,1,.2Zm-3.6,412.6,2-1.2c-.4-1-1.2-2.6-1.6-2.2l-3.2,2.4-.6.4,1,1.8C70.46,631.8,72.46,630.2,72.66,630.2Zm-1-404.6c.8-1,1.6-2.4,1.2-2.6l-3.6-1.6-.8-.4-1,1.8c-.2.4,2,1.4,2.2,1.6Zm-.8,398a.61.61,0,0,0,.6-.8l-1.2-1.8h0l-1.2.6-3,1.6c-.2.2.4,1.2.8,2.2Zm-15.6-347a3.82,3.82,0,0,0,.6-1.6c-.2-.6-2.2-1-2.8-1.2l-1.8-.8-1,2.2c-.4.8,3,1.4,3.4,1.4l1.4.4Zm-.2,295.6c.2-.2-.2-1.2-.6-2.2a3.5,3.5,0,0,1-1,.2l-2.6.8a2.84,2.84,0,0,0-1.2.4c-.2.4.8,2,1,2.4h0Zm-2.4-6.4-.2-.6a4.24,4.24,0,0,0-.6-1.4c-.6-.2-2.4.8-2.8,1l-1.8.6.8,2.2c.2.8,3.2-1,3.4-1.2Zm.8-284.2a4.37,4.37,0,0,1-1-.6l-2.6-1.2c-.2-.2-.8-.6-1.2-.4s-.8,2-.8,2.4v.2l4.4,1.8C52.66,283.6,53.06,282.6,53.46,281.6Zm-4.4-9.2h0l-1.2-.6-3.2-1.4c-.2-.2-.8,1-1.2,2l3.8,2c.2.2.8.6,1,0Zm-3,303.4,2.2-.8c-.4-1.2-.8-2.6-1.4-2.4l-3.6,1.8-.6.4.8,2C43.66,577,45.86,576,46.06,575.8ZM45.66,281c.6-1,1.2-2.4.8-2.6l-3.8-1.2-.8-.2-.8,1.8c-.2.6,2.2,1.2,2.4,1.2Zm-.6,288c.2,0,1-.2.6-.6l-1-2v-.2l-1.2.4-3.2,1.2c-.2.2.2,1.2.6,2.2Zm-7.8-235c0-.4.4-1.2.4-1.6-.4-.6-2.4-.6-3-.8l-1.8-.4-.6,2.2c-.2.8,3.2.8,3.6,1l1.4.2Zm0,182c.2,0,0-1.2-.2-2.2h-1l-2.8.4c-.2,0-1,0-1.2.2-.2.4.4,2,.6,2.4v.2Zm-1.4-6.8-.2-.6a3.77,3.77,0,0,0-.4-1.6c-.6-.4-2.4.4-3,.6l-1.8.4.4,2.4c.2.8,3.2-.6,3.6-.8Zm-.6-168c.2,0,.6-1,.8-2a9.42,9.42,0,0,0-1-.4l-2.6-.8c-.2,0-1-.4-1.2-.2-.4.4-.4,2-.4,2.4v.2Zm-5-10.4h0l-1.2-.4-3.4-.8c-.4,0-.6,1.2-.8,2.2l4.2,1.4c.2,0,.8.4,1-.2Zm-2.4,187.4,2.4-.6c-.2-1.2-.4-2.8-1-2.6l-3.8,1.2-.8.2.4,2C25.26,519,27.46,518.2,27.86,518.2Zm.4-178.6c.4-1.2.8-2.6.4-2.8l-4-.6h-.8l-.4,2c-.2.6,2.2.8,2.6.8Zm-.4,171.8c.2,0,1,0,.8-.6l-.6-2.2v-.2l-1.2.2-3.4.8c-.4,0,0,1.2.2,2.4Zm.4-120.8c0-.4.2-1.4,0-1.6-.4-.6-2.4-.2-3-.4l-2-.2-.4,2.4c0,.8,3.2.4,3.6.4h1.4Zm-.4,66c.2,0,.2-1.2.2-2.2h-3.8c-.2,0-1-.2-1.2,0a9.74,9.74,0,0,0,.2,2.4v.2Zm-.2-6.8v-.6a3.9,3.9,0,0,0-.2-1.6c-.4-.4-2.4,0-3,0l-2,.2v2.4c0,.8,3.2,0,3.6-.2Zm-.2-51.8c.2,0,.4-1,.4-2.2a3.5,3.5,0,0,0-1-.2l-2.8-.4c-.2,0-1-.4-1.2,0-.4.4-.2,2-.2,2.6h0Zm-6.6-9.6h0l-1.2-.2-3.4-.2c-.4,0-.4,1.2-.4,2.4l4.2.8c.2,0,1,.2,1-.2Zm-.2,68.8c0-1.2,0-2.8-.4-2.8l-4,.6-.8.2.2,2c0,.6,2.4.2,2.6,0Zm-.4-59.6c.2-1.2.4-2.8-.2-2.8h-4.8l-.2,2c0,.6,2.4.4,2.6.4Zm-.8,53.2c.2,0,1,.2.8-.4l-.4-2.2V448h-1.2l-3.4.2c-.4,0-.2,1.2-.2,2.4Z" style="fill:#182755"/></g></g></g></svg>