<svg xmlns="http://www.w3.org/2000/svg" width="969.84" height="969.7" viewBox="0 0 969.84 969.7"><title>8_almost_outer_gears_970 (2)</title><g id="Layer_2" data-name="Layer 2"><g id="Layer_1-2" data-name="Layer 1"><g id="_8_almost_outer_gears_970" data-name="8_almost_outer_gears_970"><path d="M727.42,65c148,83.4,244,250,242.4,419.8,1.6,170-94.6,336.4-242.4,420-146.6,86.6-338.4,86.6-485,0-147.8-83.4-244-250-242.4-420-1.6-170,94.6-336.4,242.4-419.8C389.22-21.65,581-21.65,727.42,65Zm238.2,419.8c0-128.4-50-249.2-140.8-339.8-90.8-90.8-211.6-140.8-340-140.8A477.23,477.23,0,0,0,145,145c-90.6,90.6-140.6,211.4-140.6,339.8s50,249,140.8,339.8a485.2,485.2,0,0,0,99.4,76.6c72.2,42,154.6,64.2,240.4,64.2,128.4,0,249-50,340-140.8a476.55,476.55,0,0,0,140.6-339.8Z" style="fill:#182755"/><path d="M952.42,496.15c1.4,1,2.8,2,2.6,4,0,2-1.6,3-2.8,3.8-1.4,1-2.6,1.8-2.8,3.6,0,1.8,1.2,2.8,2.4,3.8,1.4,1,2.6,2.2,2.4,4.2s-1.6,3-3,3.8-2.8,1.6-3,3.4,1,2.8,2.4,4c1.2,1,2.4,2,2.4,3.8v.4c-.2,2-1.6,2.8-3.2,3.6-1.4.8-2.8,1.6-3,3.4s1,2.8,2.2,4,2.6,2.4,2.2,4.4c-.2,2-1.8,2.8-3.2,3.6s-2.8,1.4-3,3.2,1,2.8,2,4c1.2,1.2,2.4,2.4,2,4.4s-2,2.8-3.4,3.4-3,1.4-3.2,3.2c-.4,1.8.8,3,2,4.2s2.4,2.4,2,4.4-2,2.8-3.6,3.4-3,1.2-3.4,3,.6,3,1.8,4.2,2.2,2.6,1.8,4.4c-.4,2-2,2.6-3.6,3.2s-3,1.2-3.4,3,.6,3,1.6,4.2,2.2,2.6,1.6,4.6-2.2,2.6-3.8,3.2-3,1-3.6,2.8c-.4,1.8.4,3,1.6,4.2,1,1.4,2.2,2.8,1.6,4.6-.6,2-2.2,2.4-3.8,3-1.6.4-3,1-3.6,2.8s.4,3,1.4,4.2c1,1.4,2,2.8,1.4,4.6s-2.2,2.4-4,2.8c-1.6.4-3,.8-3.6,2.6s.4,3,1.2,4.4c1,1.4,2,2.8,1.2,4.6s-2.4,2.4-4,2.8-3.2.8-3.8,2.4.2,3,1,4.4c1,1.4,1.8,2.8,1.2,4.8-.8,1.8-2.4,2.2-4,2.6s-3.2.6-4,2.4c-.8,1.6,0,3,.8,4.4s1.8,3,1,4.8-2.6,2.2-4.2,2.4-3.2.6-3.8,2.2c-.8,1.6,0,3,.8,4.4s1.6,3,.8,4.8c-1,1.8-2.6,2-4.4,2.2-1.6.2-3.2.4-4,2s-.2,3,.6,4.4c.8,1.6,1.6,3,.6,4.8s-2.6,2-4.4,2.2c-1.6.2-3.2.4-4.2,2s-.2,3,.4,4.4c.6,1.6,1.4,3,.4,4.8s-2.8,2-4.4,2c-1.6.2-3.2.2-4,1.8-1,1.6-.2,3,.4,4.4.6,1.6,1.4,3.2.2,4.8-1,1.8-2.8,1.8-4.6,1.8-1.6,0-3.2.2-4.2,1.6-1,1.6-.4,3,.2,4.6s1.2,3.2.2,4.8c-1,1.8-2.8,1.8-4.6,1.8-1.6,0-3.2,0-4.2,1.6s-.6,3,0,4.4c.6,1.6,1.2,3.2,0,4.8s-2.8,1.6-4.6,1.6c-1.6,0-3.2,0-4.2,1.4-1,1.6-.6,3-.2,4.4.4,1.6,1,3.2-.2,4.8s-3,1.6-4.6,1.4c-1.6,0-3.2-.2-4.4,1.2s-.6,3-.2,4.6,1,3.2-.2,4.8-3,1.4-4.8,1.2c-1.6-.2-3.2-.2-4.4,1-1.2,1.4-.8,2.8-.4,4.4s.8,3.4-.4,4.8c-1.4,1.6-3,1.4-4.6,1.2s-3.2-.4-4.4,1-1,2.8-.6,4.4.6,3.4-.8,4.8-3.2,1.2-4.8,1-3.2-.4-4.4.8-1,2.8-.6,4.4.6,3.4-.8,4.8-3.2,1-4.8.8c-1.6-.4-3.2-.6-4.4.6s-1,2.8-.8,4.4.4,3.4-1,4.8-3.2,1-4.8.6-3-.6-4.4.6-1.2,2.8-1,4.4.4,3.4-1.2,4.6c-1.6,1.4-3.2.8-4.8.4s-3.2-.8-4.4.4c-1.4,1.2-1.2,2.8-1,4.4s.4,3.4-1.2,4.8c-1.6,1.2-3.2.8-4.8.2-1.6-.4-3-1-4.6.2-1.4,1.2-1.4,2.6-1.2,4.4,0,1.6.2,3.4-1.4,4.6s-3.2.8-4.8.2c-1.6-.4-3-1-4.6.2-1.4,1-1.4,2.6-1.4,4.2s0,3.4-1.6,4.6-3.2.6-4.8,0-3-1-4.4,0c-1.6,1-1.6,2.6-1.6,4.2,0,1.8,0,3.4-1.8,4.6-1.6,1-3.2.4-4.8-.2s-3-1.2-4.6-.2-1.6,2.6-1.6,4.2c0,1.8-.2,3.4-1.8,4.6-1.6,1-3.2.4-4.8-.2s-3-1.2-4.6-.4c-1.6,1-1.6,2.4-1.8,4s-.2,3.4-2,4.4-3.4.2-4.8-.4c-1.6-.8-2.8-1.4-4.4-.4s-1.8,2.4-2,4.2-.4,3.4-2.2,4.4-3.4.2-4.8-.6-2.8-1.4-4.4-.6-1.8,2.4-2,4-.6,3.4-2.4,4.4-3.2,0-4.8-.8c-1.4-.8-2.8-1.6-4.4-.8s-2,2.2-2.2,4c-.2,1.6-.6,3.4-2.4,4.2s-3.4,0-4.8-1c-1.4-.8-2.8-1.6-4.4-.8s-2,2.2-2.4,4c-.4,1.6-.8,3.4-2.6,4s-3.4-.2-4.8-1.2-2.8-1.8-4.4-1c-1.8.6-2,2.2-2.4,3.8s-.8,3.4-2.8,4c-1.8.8-3.2-.2-4.6-1.2s-2.6-1.8-4.4-1.2-2.2,2-2.6,3.6-1,3.2-2.8,4c-1.8.6-3.4-.4-4.6-1.4-1.4-1-2.6-2-4.2-1.4-1.8.6-2.2,2-2.8,3.6-.4,1.6-1,3.2-3,3.8s-3.2-.6-4.6-1.6c-1.2-1-2.6-2-4.2-1.6-1.8.4-2.2,2-2.8,3.6s-1.2,3.2-3.2,3.8-3.2-.6-4.6-1.6c-1.2-1-2.4-2.2-4.2-1.6-1.8.4-2.4,1.8-3,3.4s-1.2,3.2-3.2,3.6-3.2-.6-4.4-1.8c-1.2-1-2.4-2.2-4.2-1.8s-2.4,1.8-3,3.4-1.4,3.2-3.4,3.6-3.2-.8-4.4-2-2.2-2.2-4-2c-1.8.4-2.4,1.8-3.2,3.2-.8,1.6-1.4,3.2-3.4,3.4-2,.4-3.2-.8-4.4-2s-2.2-2.4-4-2c-1.8.2-2.6,1.6-3.2,3-.8,1.6-1.6,3-3.6,3.2s-3.2-1-4.4-2.2c-1-1.2-2.2-2.4-4-2.2s-2.6,1.6-3.4,3c-.8,1.6-1.6,3-3.6,3.2s-3.2-1.2-4.2-2.4-2-2.4-3.8-2.4-2.6,1.4-3.4,3c-.8,1.4-1.8,3-3.8,3-2,.2-3-1.2-4.2-2.4-1-1.2-2-2.4-3.8-2.4s-2.6,1.4-3.6,2.8-1.8,2.8-3.8,2.8-3-1.4-4-2.6c-1-1.4-2-2.6-3.8-2.6s-2.6,1.4-3.6,2.8-2,2.8-4,2.8-3-1.4-4-2.8-1.8-2.6-3.6-2.8c-1.8,0-2.8,1.2-3.8,2.6s-2,2.6-4,2.6h-.2c-2,0-3-1.6-3.8-2.8-1-1.4-1.8-2.6-3.6-2.8-1.8,0-2.8,1.2-3.8,2.4s-2,2.4-3.8,2.4h-.4c-2-.2-3-1.6-3.8-3s-1.6-2.8-3.4-3-2.8,1-4,2.4c-1,1.2-2.2,2.6-4.2,2.4s-2.8-1.6-3.6-3.2c-.8-1.4-1.6-2.8-3.4-3s-2.8,1-4,2.2-2.4,2.6-4.2,2.2c-2-.2-2.8-1.8-3.6-3.2s-1.4-2.8-3.2-3-2.8,1-4,2c-1.2,1.2-2.4,2.4-4.4,2s-2.8-2-3.4-3.4-1.4-3-3.2-3.2c-1.8-.4-3,.8-4.2,2s-2.4,2.4-4.4,2-2.8-2-3.4-3.6-1.2-3-3-3.4-3,.6-4.2,1.8-2.6,2.2-4.4,1.8c-2-.4-2.6-2-3.2-3.6s-1.2-3-3-3.4-3,.6-4.2,1.6-2.6,2.2-4.6,1.6-2.6-2.2-3.2-3.8-1-3-2.8-3.6c-1.8-.4-3,.4-4.2,1.6-1.4,1-2.6,2.2-4.6,1.6s-2.4-2.2-3-3.8c-.4-1.6-1-3-2.6-3.6-1.8-.6-3,.4-4.4,1.4s-2.8,2-4.6,1.4-2.4-2.2-2.8-4c-.4-1.6-.8-3-2.6-3.6s-3,.4-4.4,1.2c-1.4,1-2.8,2-4.6,1.2s-2.2-2.4-2.8-4c-.4-1.6-.8-3.2-2.4-3.8-1.8-.6-3,.2-4.4,1-1.4,1-2.8,1.8-4.8,1.2-1.8-.8-2.2-2.4-2.6-4s-.6-3.2-2.4-4c-1.6-.8-3,0-4.4.8s-3,1.8-4.8,1-2.2-2.6-2.4-4.2c-.4-1.6-.6-3.2-2.2-4s-3,0-4.4.8-3,1.6-4.8.8c-1.8-1-2-2.6-2.2-4.4-.2-1.6-.4-3.2-2.2-4-1.6-.8-3-.2-4.4.6-1.6.8-3,1.6-4.8.6s-2-2.6-2.2-4.4c-.2-1.6-.4-3.2-2-4.2s-3-.2-4.4.4c-1.6.8-3.2,1.4-4.8.4s-1.8-2.8-2-4.4-.2-3.2-1.8-4c-1.6-1-3-.2-4.6.4s-3.2,1.4-4.8.2c-1.6-1-1.8-2.8-1.8-4.6,0-1.6-.2-3.2-1.6-4.2-1.6-1-3-.4-4.6.2s-3.2,1.2-4.8.2-1.8-2.8-1.8-4.6c0-1.6,0-3.2-1.6-4.2s-3-.6-4.4,0c-1.6.6-3.2,1.2-4.8,0s-1.6-2.8-1.6-4.6c0-1.6,0-3.2-1.4-4.2-1.6-1-3-.6-4.4-.2-1.6.4-3.2,1-4.8-.2s-1.6-3-1.4-4.6c0-1.6.2-3.2-1.2-4.4s-3-.6-4.6-.2-3.2,1-4.8-.2-1.4-3-1.2-4.8c.2-1.6.4-3.2-1-4.4s-2.8-.8-4.4-.4-3.4.8-4.8-.4c-1.6-1.4-1.4-3-1.2-4.6s.4-3.2-1-4.4-2.8-1-4.4-.6-3.4.6-4.8-.8-1.2-3.2-1-4.8.4-3.2-.8-4.4c-1.4-1.2-2.8-1-4.4-.6s-3.4.6-4.8-.8-1-3.2-.8-4.8.6-3.2-.6-4.4-2.8-1-4.4-.8-3.4.4-4.8-1-1-3.2-.6-4.8.6-3-.6-4.4-2.8-1.2-4.4-1-3.4.4-4.6-1.2c-1.4-1.6-.8-3.2-.4-4.8s.8-3.2-.4-4.4c-1.2-1.4-2.8-1.2-4.4-1s-3.4.4-4.8-1.2c-1.2-1.6-.8-3.2-.4-4.8s.8-3-.2-4.6c-1.2-1.4-2.6-1.4-4.4-1.2-1.6,0-3.4.2-4.6-1.4s-.8-3.2-.2-4.8c.4-1.6,1-3-.2-4.6-1-1.4-2.6-1.4-4.2-1.4s-3.4,0-4.6-1.6-.6-3.2,0-4.8,1-3,0-4.4c-1-1.6-2.6-1.6-4.2-1.6s-3.4,0-4.6-1.8c-1-1.6-.4-3.2.2-4.8s1.2-3,.2-4.6-2.6-1.6-4.2-1.6-3.4-.2-4.6-1.8c-1-1.6-.4-3.2.2-4.8s1.2-3,.4-4.6c-1-1.6-2.4-1.6-4.2-1.8-1.6-.2-3.4-.2-4.4-2s-.2-3.4.4-4.8c.6-1.6,1.4-2.8.4-4.4-.8-1.6-2.4-1.8-4.2-2-1.6-.2-3.4-.4-4.4-2.2s-.2-3.4.6-4.8,1.4-2.8.6-4.4-2.4-1.8-4-2-3.4-.6-4.2-2.4c-1-1.8-.2-3.2.6-4.8.8-1.4,1.6-2.8.8-4.4s-2.2-2-3.8-2.2-3.4-.6-4.2-2.4,0-3.4,1-4.8c.8-1.4,1.6-2.8.8-4.4s-2.2-2-4-2.4c-1.6-.4-3.4-.8-4-2.6s.2-3.4,1.2-4.8,1.8-2.8,1-4.4c-.6-1.8-2.2-2-3.8-2.4s-3.4-.8-4-2.8c-.8-1.8.2-3.2,1.2-4.6s1.8-2.6,1.2-4.4-2-2.2-3.6-2.6-3.2-1-4-2.8c-.6-1.8.4-3.2,1.4-4.6s1.8-2.6,1.4-4.2c-.6-1.8-2-2.2-3.6-2.8s-3.2-1-3.8-3,.6-3.2,1.6-4.6c1-1.2,2-2.6,1.6-4.2-.4-1.8-2-2.2-3.6-2.8S32.62,608,32,606s.6-3.2,1.6-4.6c1-1.2,2.2-2.4,1.6-4.2-.4-1.8-1.8-2.4-3.4-3s-3.2-1.2-3.6-3.2.8-3.2,1.8-4.4c1.2-1.2,2.2-2.4,1.8-4.2s-1.8-2.4-3.4-3S25.22,578,25,576c-.4-2,.8-3.2,2-4.4s2.2-2.2,2-4c-.4-1.8-1.8-2.4-3.2-3.2-1.6-.8-3.2-1.4-3.4-3.4-.4-2,.8-3.2,2-4.4s2.4-2.2,2-4c-.2-1.8-1.6-2.4-3-3.2-1.6-.8-3-1.6-3.2-3.6s1-3.2,2.2-4.2c1.2-1.2,2.4-2.2,2.2-4s-1.6-2.6-3-3.4c-1.6-.8-3-1.6-3.2-3.6s1.2-3.2,2.4-4.2,2.4-2,2.4-3.8-1.4-2.6-3-3.4c-1.4-.8-3-1.8-3-3.8-.2-2,1.2-3,2.4-4.2,1.2-1,2.4-2,2.4-3.8s-1.4-2.6-2.6-3.6c-1.4-1-2.8-1.8-3-3.8,0-2,1.4-3,2.6-4,1.4-1,2.6-2,2.6-3.8s-1.4-2.6-2.8-3.6-2.8-2-2.8-4,1.4-3,2.8-4,2.6-1.8,2.8-3.6c0-1.8-1.2-2.8-2.6-3.8s-2.8-2-2.6-4c0-2,1.6-3,3-3.8,1.4-1,2.6-1.8,2.6-3.6s-1-2.8-2.4-3.8-2.6-2.2-2.4-4.2,1.6-3,3-3.8,2.8-1.6,3-3.4-1-2.8-2.4-4c-1.4-1-2.6-2.2-2.4-4.2s1.6-2.8,3.2-3.6c1.4-.8,2.8-1.6,3-3.4s-1-2.8-2.2-4-2.6-2.4-2.2-4.2c.2-2,1.8-2.8,3.2-3.6s2.8-1.4,3-3.2-1-2.8-2-4c-1.2-1.2-2.4-2.4-2-4.4s2-2.8,3.4-3.4c1.6-.6,3-1.4,3.2-3.2.4-1.8-.8-3-2-4.2s-2.4-2.4-2-4.4,2-2.8,3.6-3.4,3-1.2,3.4-3-.6-3-1.8-4.2-2.2-2.6-1.8-4.4c.4-2,2-2.6,3.6-3.2s3-1.2,3.4-3-.6-3-1.6-4.2-2.2-2.6-1.6-4.6,2.2-2.6,3.8-3.2,3-1,3.6-2.8c.4-1.8-.4-3-1.6-4.2-1-1.4-2.2-2.6-1.6-4.6s2.2-2.4,3.8-3c1.6-.4,3-1,3.6-2.6.6-1.8-.4-3-1.4-4.4s-2-2.8-1.4-4.6,2.4-2.4,4-2.8,3-.8,3.6-2.6-.4-3-1.2-4.4c-1-1.4-1.8-2.8-1.2-4.6.8-1.8,2.4-2.2,4-2.8,1.6-.4,3.2-.8,3.8-2.4.6-1.8-.2-3-1-4.4-1-1.4-1.8-2.8-1.2-4.8.8-1.8,2.4-2.2,4-2.6s3.2-.6,4-2.4c.8-1.6,0-3-.8-4.4s-1.8-3-1-4.8,2.6-2.2,4.2-2.4c1.6-.4,3.2-.6,3.8-2.2.8-1.6,0-3-.8-4.4s-1.6-3-.6-4.8c.8-1.8,2.6-2,4.2-2.4,1.6-.2,3.2-.4,4-2.2.8-1.6.2-3-.6-4.4-.8-1.6-1.6-3-.6-4.8s2.6-2,4.4-2.2c1.6-.2,3.2-.4,4.2-2s.2-3-.4-4.4c-.8-1.6-1.4-3.2-.4-4.8s2.8-1.8,4.4-2,3.2-.2,4.2-1.8c.8-1.6.2-3-.4-4.4-.6-1.6-1.4-3.2-.2-4.8,1-1.6,2.8-1.8,4.4-1.8s3.2-.2,4.2-1.8.4-3-.2-4.6-1.2-3.2-.2-4.8,2.8-1.8,4.6-1.8c1.6,0,3.2,0,4.2-1.6,1-1.4.6-3,0-4.4-.6-1.6-1.2-3.2,0-4.8s3-1.6,4.6-1.6,3.2,0,4.2-1.4c1-1.6.6-3,.2-4.4-.4-1.6-1-3.2.2-4.8s3-1.6,4.6-1.4c1.6,0,3.2.2,4.4-1.2s.6-3,.2-4.6-1-3.2.4-4.8c1.2-1.6,3-1.4,4.8-1.2,1.6.2,3.2.4,4.4-1s.8-2.8.4-4.4-.8-3.4.4-4.8c1.4-1.6,3-1.4,4.8-1.2,1.6.2,3.2.4,4.4-1s1-2.8.6-4.4-.6-3.4.8-4.8,3-1.2,4.8-1c1.6.2,3.2.4,4.4-.8,1.2-1.4,1-2.8.6-4.4s-.6-3.4.8-4.8,3.2-1,4.8-.8,3.2.6,4.4-.6,1-2.8.8-4.4-.4-3.4,1-4.8,3.2-1,4.8-.6,3,.6,4.4-.6,1.2-2.8,1-4.4-.4-3.4,1.2-4.6c1.6-1.4,3.2-.8,4.8-.4s3.2.8,4.4-.4c1.4-1.2,1.2-2.8,1-4.4s-.4-3.4,1.2-4.8c1.6-1.2,3.2-.8,4.8-.4s3,1,4.6-.2c1.4-1.2,1.4-2.6,1.2-4.4,0-1.6-.2-3.4,1.4-4.6s3.2-.8,4.8-.2c1.6.4,3,1,4.4-.2,1.6-1,1.4-2.6,1.4-4.2s0-3.4,1.6-4.6,3.2-.6,4.8,0,3,1,4.6,0c1.4-1,1.4-2.6,1.6-4.2,0-1.6,0-3.4,1.8-4.6,1.6-1,3.4-.4,4.8.2,1.6.6,3,1.2,4.6.2s1.6-2.6,1.6-4.2.2-3.4,1.8-4.6c1.6-1,3.2-.4,4.8.2s3,1.2,4.6.4c1.6-1,1.8-2.4,1.8-4.2.2-1.6.2-3.4,2-4.4s3.4-.2,4.8.4c1.6.6,2.8,1.4,4.4.4,1.6-.8,1.8-2.4,2-4.2.2-1.6.4-3.4,2.2-4.4s3.4-.2,4.8.6,2.8,1.4,4.4.6,1.8-2.4,2.2-4c.2-1.6.4-3.4,2.2-4.2,1.8-1,3.4-.2,4.8.6s2.8,1.6,4.4.8,2-2.2,2.2-3.8.6-3.4,2.4-4.2,3.4,0,4.8,1c1.4.8,2.8,1.6,4.4.8s2-2.2,2.4-4c.4-1.6.8-3.4,2.6-4,1.8-.8,3.4.2,4.8,1.2s2.6,1.8,4.4,1c1.6-.6,2-2.2,2.4-3.8s.8-3.4,2.8-4c1.8-.8,3.2.2,4.6,1.2s2.6,1.8,4.4,1.2,2.2-2,2.6-3.6,1-3.2,2.8-4c1.8-.6,3.4.4,4.6,1.4,1.4,1,2.6,1.8,4.2,1.4,1.8-.6,2.2-2,2.8-3.6.4-1.6,1-3.2,3-3.8s3.2.6,4.6,1.6c1.2,1,2.6,2,4.2,1.6,1.8-.4,2.2-2,2.8-3.6s1.2-3.2,3.2-3.8,3.2.6,4.6,1.6c1.2,1,2.4,2.2,4.2,1.6,1.8-.4,2.4-1.8,3-3.4s1.2-3.2,3.2-3.6,3.2.8,4.4,1.8c1.2,1.2,2.4,2.2,4.2,1.8s2.4-1.8,3-3.4,1.4-3.2,3.4-3.4c2-.4,3.2.8,4.4,2s2.2,2.2,4,2c1.8-.4,2.4-1.8,3.2-3.2.8-1.6,1.4-3.2,3.4-3.4,2-.4,3.2.8,4.4,2s2.2,2.4,4,2c1.8-.2,2.6-1.6,3.2-3,.8-1.6,1.6-3,3.6-3.2s3.2,1,4.2,2.2c1.2,1.2,2.2,2.4,4,2.2s2.6-1.6,3.4-3c.8-1.6,1.6-3,3.6-3.2s3.2,1.2,4.2,2.4,2,2.4,3.8,2.4,2.6-1.4,3.4-3c.8-1.4,1.8-3,3.8-3h.4c1.8,0,2.8,1.2,3.8,2.6,1,1.2,2,2.4,3.8,2.4s2.6-1.4,3.6-2.6c1-1.4,1.8-2.8,3.8-2.8h.2c2,0,3,1.4,4,2.6,1,1.4,2,2.6,3.8,2.6s2.6-1.4,3.6-2.8,2-2.8,4-2.8,3,1.4,4,2.8,1.8,2.6,3.6,2.8c1.8,0,2.8-1.2,3.8-2.6s2-2.8,4-2.6c2,0,3,1.4,3.8,2.8,1,1.4,1.8,2.6,3.6,2.6s2.8-1,3.8-2.4,2.2-2.6,4.2-2.4,3,1.6,3.8,3,1.6,2.8,3.4,3,2.8-1,4-2.4c1-1.4,2.2-2.6,4.2-2.4s2.8,1.6,3.6,3.2c.8,1.4,1.6,2.8,3.4,3s2.8-1,4-2.2,2.4-2.6,4.4-2.2c2,.2,2.8,1.8,3.6,3.2s1.4,2.8,3.2,3,2.8-1,4-2c1.2-1.2,2.4-2.4,4.4-2s2.8,2,3.4,3.4c.6,1.6,1.4,3,3.2,3.2,1.8.4,3-.8,4.2-2s2.4-2.4,4.4-2,2.8,2,3.4,3.6,1.2,3,3,3.4,3-.6,4.2-1.8,2.6-2.2,4.4-1.8c2,.4,2.6,2,3.2,3.6s1.2,3,3,3.4,3-.6,4.2-1.6,2.6-2.2,4.6-1.6,2.6,2.2,3.2,3.8,1,3,2.8,3.6c1.8.4,3-.4,4.2-1.6,1.4-1,2.8-2.2,4.6-1.6,2,.6,2.4,2.2,3,3.8.4,1.6,1,3,2.8,3.6s3-.4,4.2-1.4c1.4-1,2.8-2,4.6-1.4s2.4,2.4,2.8,4,.8,3,2.6,3.6,3-.4,4.4-1.2c1.4-1,2.8-1.8,4.6-1.2,1.8.8,2.4,2.4,2.8,4s.8,3.2,2.4,3.8,3-.2,4.4-1c1.4-1,2.8-1.8,4.8-1.2,1.8.8,2.2,2.4,2.6,4s.6,3.2,2.4,4c1.6.8,3,0,4.4-.8s3-1.8,4.8-1,2.2,2.6,2.4,4.2.6,3.2,2.2,3.8c1.6.8,3,0,4.4-.8s3-1.6,4.8-.6c1.8.8,2,2.6,2.2,4.2s.4,3.2,2,4,3,.2,4.4-.6c1.6-.8,3-1.6,4.8-.6s2,2.6,2.2,4.4c.2,1.6.4,3.2,2,4.2s3,.2,4.4-.4c1.6-.8,3-1.4,4.8-.4s2,2.8,2,4.4c.2,1.6.2,3.2,1.8,4.2,1.6.8,3,.2,4.4-.4,1.6-.6,3.2-1.4,4.8-.2,1.8,1,1.8,2.8,1.8,4.4s.2,3.2,1.6,4.2c1.6,1,3,.4,4.6-.2s3.2-1.2,4.8-.2c1.8,1,1.8,2.8,1.8,4.6,0,1.6,0,3.2,1.6,4.2s3,.6,4.4,0c1.6-.6,3.2-1.2,4.8,0s1.6,3,1.6,4.6,0,3.2,1.4,4.2c1.6,1,3,.6,4.4.2,1.6-.4,3.2-1,4.8.2s1.6,3,1.4,4.6c0,1.6-.2,3.2,1.2,4.4s3,.6,4.6.2,3.2-1,4.8.4c1.6,1.2,1.4,3,1.2,4.6s-.2,3.2,1,4.4c1.4,1.2,2.8.8,4.4.4s3.4-.8,4.8.4c1.6,1.4,1.4,3,1.2,4.8-.2,1.6-.4,3.2,1,4.4s2.8,1,4.4.6,3.4-.6,4.8.6c1.4,1.4,1.2,3.2,1,4.8s-.4,3.2.8,4.4c1.4,1.2,2.8,1,4.4.6s3.4-.6,4.8.8,1,3.2.8,4.8c-.4,1.6-.6,3.2.6,4.4s2.8,1,4.4.8,3.4-.4,4.8,1,1,3.2.6,4.8-.6,3,.6,4.4,2.8,1.2,4.4,1,3.4-.4,4.6,1.2c1.4,1.6.8,3.2.4,4.8s-.8,3.2.4,4.4c1.2,1.4,2.8,1.2,4.4,1s3.4-.4,4.8,1.2c1.2,1.6.8,3.2.2,4.8-.4,1.6-1,3,.2,4.6,1.2,1.4,2.6,1.4,4.4,1.2,1.6,0,3.4-.2,4.6,1.4s.8,3.2.2,4.8c-.4,1.6-1,3,.2,4.4s2.6,1.4,4.2,1.4,3.4,0,4.6,1.6.6,3.2,0,4.8-1,3,0,4.4c1,1.6,2.6,1.6,4.2,1.6,1.8,0,3.4,0,4.6,1.8,1,1.6.4,3.4-.2,4.8-.6,1.6-1.2,3-.2,4.6s2.6,1.6,4.2,1.8c1.8,0,3.4.2,4.6,1.8,1,1.6.4,3.2-.2,4.8s-1.2,3-.4,4.6c1,1.6,2.4,1.8,4,1.8,1.6.2,3.4.2,4.4,2s.2,3.4-.4,4.8c-.6,1.6-1.4,2.8-.4,4.4s2.4,1.8,4.2,2,3.4.4,4.4,2.2.2,3.4-.6,4.8-1.4,2.8-.6,4.4,2.4,1.8,4,2,3.4.6,4.4,2.2c1,1.8,0,3.4-.8,4.8s-1.6,2.8-.8,4.4,2.2,2,4,2.2c1.6.2,3.4.6,4.2,2.4s0,3.4-1,4.8c-.8,1.4-1.6,2.8-.8,4.4s2.2,2,4,2.4c1.6.4,3.4.8,4,2.6.8,1.8-.2,3.4-1.2,4.8s-1.8,2.6-1,4.4c.6,1.6,2.2,2,3.8,2.4s3.4.8,4,2.8c.8,1.8-.2,3.2-1.2,4.6s-1.8,2.6-1.2,4.4,2,2.2,3.6,2.6,3.2,1,4,2.8c.6,1.8-.4,3.4-1.4,4.6-1,1.4-2,2.6-1.4,4.2.6,1.8,2,2.2,3.6,2.8,1.6.4,3.2,1,3.8,3s-.6,3.2-1.6,4.6c-1,1.2-2,2.6-1.6,4.2.4,1.8,2,2.2,3.6,2.8s3.2,1.2,3.8,3.2-.6,3.2-1.6,4.6c-1,1.2-2.2,2.4-1.6,4.2.4,1.8,1.8,2.4,3.4,3s3.2,1.2,3.6,3.2-.6,3.2-1.8,4.4c-1,1.2-2.2,2.4-1.8,4.2s1.8,2.4,3.4,3,3.2,1.4,3.6,3.4-.8,3.2-2,4.4-2.2,2.2-2,4c.4,1.8,1.8,2.4,3.2,3.2,1.6.8,3.2,1.4,3.4,3.4.4,2-.8,3.2-2,4.4s-2.4,2.2-2,4c.2,1.8,1.6,2.6,3,3.2,1.6.8,3,1.6,3.2,3.6s-1,3.2-2.2,4.4c-1.2,1-2.4,2.2-2.2,4s1.6,2.6,3,3.4c1.6.8,3,1.6,3.2,3.6v.4c0,1.8-1.2,2.8-2.4,3.8s-2.4,2-2.4,3.8,1.4,2.6,3,3.4c1.4.8,3,1.8,3,3.8.2,2-1.2,3-2.4,4.2-1.2,1-2.4,2-2.4,3.8s1.4,2.6,2.8,3.6S955,467,955,469s-1.4,3-2.6,4c-1.4,1-2.6,2-2.6,3.8s1.4,2.6,2.8,3.6,2.8,2,2.8,4-1.4,3-2.8,4-2.6,1.8-2.8,3.6C949.82,494.15,951,495.15,952.42,496.15Zm1.2,4c0-1.8-1.2-2.8-2.6-3.8s-2.6-2-2.6-4h0c0-2,1.6-3,2.8-4s2.6-1.8,2.8-3.6c0-1.8-1.4-2.8-2.8-3.6-1.4-1-2.8-2-2.8-4s1.4-3,2.6-4c1.4-1,2.6-2,2.6-3.8s-1.4-2.6-2.8-3.6S948,464,948,462s1.2-3,2.6-4c1.2-1,2.4-2,2.4-3.8-.2-1.8-1.4-2.6-3-3.6-1.4-.8-3-1.8-3-3.8h0v-.4c0-1.8,1.2-2.8,2.4-3.8s2.4-2,2.4-4c-.2-1.8-1.6-2.6-3-3.4s-3-1.6-3.2-3.6,1-3.2,2.2-4.2c1.2-1.2,2.4-2.2,2.2-4s-1.6-2.6-3-3.4-3-1.6-3.2-3.6,1-3.2,2.2-4.4,2.2-2.2,2-4c-.4-1.8-1.8-2.4-3.2-3.2-1.6-.8-3-1.4-3.4-3.4s.8-3.2,2-4.4,2.2-2.4,2-4.2c-.4-1.8-1.8-2.4-3.2-3.2-1.6-.6-3.2-1.4-3.6-3.2-.4-2,.8-3.2,1.8-4.4s2.2-2.4,1.8-4.2-1.8-2.4-3.4-3-3.2-1.2-3.6-3.2c-.4-1.8.8-3.2,1.8-4.4s2-2.4,1.6-4.2-2-2.4-3.6-2.8c-1.6-.6-3.2-1.2-3.8-3s.6-3.2,1.6-4.6c1-1.2,2-2.6,1.6-4.2-.6-1.8-2-2.2-3.6-2.8-1.6-.4-3.2-1-4-2.8-.6-1.8.4-3.2,1.4-4.6s1.8-2.6,1.4-4.4-2-2.2-3.6-2.6-3.2-1-4-2.8c-.6-1.8.4-3.4,1.4-4.6,1-1.4,1.8-2.6,1.2-4.4s-2.2-2-3.8-2.4-3.4-.8-4-2.6c-.8-1.8.2-3.2,1.2-4.8.8-1.4,1.8-2.8,1-4.4-.6-1.8-2.2-2-3.8-2.4s-3.4-.6-4.2-2.4,0-3.2,1-4.8c.8-1.4,1.6-2.8.8-4.4s-2.2-2-4-2.2c-1.6-.4-3.4-.6-4.2-2.4s0-3.4.8-4.8,1.6-2.8.6-4.4c-.8-1.6-2.4-1.8-4-2.2-1.6-.2-3.4-.4-4.2-2.2s0-3.2.6-4.8c.8-1.4,1.4-2.8.6-4.4s-2.4-1.8-4-2-3.4-.4-4.4-2c-1-1.8-.2-3.2.4-4.8.8-1.6,1.4-3,.4-4.6s-2.4-1.8-4.2-1.8c-1.6-.2-3.4-.2-4.4-2s-.2-3.2.4-4.8,1.2-3,.2-4.4c-1-1.6-2.6-1.6-4.2-1.8-1.6,0-3.4-.2-4.4-1.8s-.4-3.2.2-4.8,1.2-3,.2-4.6-2.6-1.6-4.2-1.6c-1.8,0-3.4,0-4.6-1.6s-.6-3.2,0-4.8,1-3,0-4.6-2.6-1.6-4.2-1.4c-1.6,0-3.4,0-4.6-1.6s-.6-3.2-.2-4.8,1-3-.2-4.4-2.8-1.4-4.4-1.2c-1.6,0-3.4.2-4.6-1.4s-.8-3.2-.2-4.8c.4-1.6,1-3.2-.2-4.6s-2.8-1.2-4.4-1.2c-1.6.2-3.4.2-4.6-1.2-1.4-1.4-.8-3.2-.4-4.8s.8-3.2-.4-4.6-2.8-1.2-4.4-1-3.4.4-4.6-1.2c-1.4-1.4-1-3.2-.6-4.8s.6-3.2-.6-4.4c-1.2-1.4-2.8-1-4.4-.8s-3.4.4-4.8-1-1-3.2-.8-4.8.6-3.2-.6-4.4c-1.4-1.2-2.8-1-4.6-.8-1.6.4-3.4.6-4.8-.8s-1.2-3-.8-4.8c.2-1.6.4-3.2-.8-4.4-1.4-1.2-2.8-1-4.4-.6s-3.2.6-4.8-.6-1.2-3-1.2-4.6c.2-1.6.4-3.2-1-4.4s-2.8-.8-4.4-.4-3.4.8-4.8-.4c-1.6-1.4-1.4-3-1.2-4.8.2-1.6.2-3.2-1.2-4.4s-3-.8-4.6-.2c-1.6.4-3.2,1-4.8-.2s-1.4-3-1.4-4.6.2-3.2-1.2-4.4-3-.6-4.4-.2c-1.6.6-3.2,1-4.8-.2s-1.6-2.8-1.6-4.6c0-1.6,0-3.2-1.4-4.2s-3-.6-4.6,0-3.2,1.2-4.8,0-1.6-2.8-1.6-4.6c0-1.6,0-3.2-1.6-4.2s-3-.4-4.6.2-3.2,1.2-4.8.2-1.8-2.8-1.8-4.4-.2-3.2-1.8-4.2-3-.4-4.4.2c-1.6.6-3.2,1.4-4.8.4-1.8-1-1.8-2.8-2-4.4s-.2-3.2-1.8-4.2-3-.2-4.4.4c-1.6.8-3,1.4-4.8.4-1.6-1-1.8-2.8-2-4.4s-.4-3.2-2-4-3-.2-4.6.6-3,1.6-4.8.6c-1.8-.8-2-2.6-2.2-4.2s-.4-3.2-2.2-4c-1.6-.8-3-.2-4.4.6s-3,1.6-4.8.8-2.2-2.4-2.4-4.2c-.2-1.6-.6-3.2-2.2-4s-3,0-4.4.8-3,1.8-4.8,1-2.2-2.6-2.4-4.2c-.4-1.6-.8-3.2-2.4-3.8-1.8-.6-3,.2-4.4,1-1.4,1-2.8,1.8-4.6,1.2-1.8-.8-2.2-2.4-2.6-4s-.8-3.2-2.4-3.8c-1.8-.6-3,.2-4.4,1.2s-2.8,2-4.6,1.4-2.4-2.4-2.8-3.8c-.4-1.6-.8-3-2.6-3.6s-3,.4-4.4,1.4-2.8,2-4.6,1.4-2.4-2.4-3-4c-.4-1.6-1-3-2.8-3.6-1.8-.4-3,.4-4.2,1.6-1.2,1-2.6,2.2-4.6,1.6h0c-1.8-.6-2.4-2.2-3-3.8s-1.2-3-2.8-3.6c-1.8-.4-3,.4-4.2,1.6-1.2,1-2.6,2.2-4.6,1.8s-2.6-2-3.2-3.6-1.2-3-3-3.4-3,.6-4.2,1.8-2.6,2.2-4.4,1.8-2.6-2-3.2-3.6-1.2-3-3-3.2c-1.8-.4-3,.8-4.2,2s-2.4,2.4-4.4,2-2.6-2-3.4-3.4c-.8-1.6-1.4-3-3.2-3.2-1.8-.4-3,.8-4,2-1.2,1.2-2.4,2.4-4.4,2.2s-2.8-1.8-3.6-3.2-1.4-2.8-3.2-3-2.8,1-4,2.2-2.2,2.6-4.2,2.2c-2-.2-2.8-1.8-3.6-3.2s-1.6-2.8-3.4-3-2.8,1-4,2.4c-1,1.2-2.2,2.6-4.2,2.4s-2.8-1.6-3.8-3c-.8-1.4-1.6-2.8-3.4-2.8-1.8-.2-2.8,1-3.8,2.4s-2.2,2.6-4,2.6h0c-2,0-2.8-1.6-3.8-2.8-1-1.4-1.8-2.6-3.6-2.8-1.8,0-2.8,1.2-3.8,2.6s-2,2.6-4,2.6h0c-2,0-3-1.6-4-2.8-1-1.4-1.8-2.6-3.6-2.8-1.8,0-2.8,1.4-3.6,2.8-1,1.4-2,2.8-4,2.8h0c-2,0-3-1.4-4-2.6-1-1.4-2-2.6-3.8-2.6s-2.8,1.4-3.6,2.8c-1,1.4-1.8,2.8-3.8,2.8s-3-1.2-4-2.6c-1-1.2-2-2.4-3.8-2.4-1.8.2-2.6,1.4-3.6,3-.8,1.4-1.8,3-3.8,3-2,.2-3-1.2-4.2-2.4-1-1.2-2-2.4-4-2.4-1.8.2-2.6,1.6-3.4,3s-1.6,3-3.6,3.2-3.2-1-4.2-2.2c-1.2-1.2-2.2-2.4-4-2.2s-2.6,1.6-3.4,3-1.6,3-3.6,3.2-3.2-1-4.4-2.2-2.2-2.2-4-2c-1.8.4-2.4,1.8-3.2,3.2-.8,1.6-1.4,3-3.4,3.4s-3.2-.8-4.4-2-2.4-2.2-4.2-2c-1.8.4-2.4,1.8-3.2,3.2-.6,1.6-1.4,3.2-3.2,3.6-2,.4-3.2-.8-4.4-1.8-1.2-1.2-2.4-2.2-4.2-1.8s-2.4,1.8-3,3.4-1.2,3.2-3.2,3.6-3.2-.8-4.6-1.8c-1.2-1-2.4-2-4.2-1.6s-2.4,2-2.8,3.6c-.6,1.6-1.2,3.2-3,3.8s-3.2-.6-4.6-1.6c-1.2-1-2.6-2-4.2-1.6-1.8.6-2.2,2-2.8,3.6-.4,1.6-1,3.2-2.8,4-1.8.6-3.2-.4-4.6-1.4s-2.6-2-4.4-1.4-2.2,2-2.6,3.6-1,3.2-2.8,3.8-3.4-.4-4.6-1.4c-1.4-1-2.6-1.8-4.4-1.2-1.6.6-2,2.2-2.4,3.8s-.8,3.4-2.6,4c-1.8.8-3.4-.2-4.8-1.2s-2.8-1.8-4.4-1c-1.6.6-2,2.2-2.4,3.8s-.6,3.4-2.4,4.2-3.2,0-4.8-1c-1.4-.8-2.8-1.6-4.4-.8s-2,2.4-2.2,4c-.4,1.6-.6,3.4-2.4,4.2s-3.4,0-4.8-.8-2.8-1.6-4.4-.6c-1.6.8-1.8,2.4-2.2,4-.2,1.6-.4,3.4-2.2,4.2-1.8,1-3.2.2-4.8-.6-1.4-.8-2.8-1.4-4.4-.6s-1.8,2.4-2,4-.4,3.4-2,4.4c-1.8,1-3.2.2-4.8-.4-1.4-.6-2.8-1.4-4.4-.4s-1.8,2.4-1.8,4.2c-.2,1.6-.2,3.4-2,4.4s-3.2.2-4.8-.4-3-1.2-4.4-.2c-1.6,1-1.6,2.6-1.8,4.2,0,1.6-.2,3.4-1.8,4.4s-3.2.4-4.8-.2-3-1.2-4.6-.2-1.6,2.6-1.6,4.2,0,3.4-1.6,4.6-3.2.6-4.8,0-3-1-4.6,0-1.6,2.6-1.4,4.2c0,1.6,0,3.4-1.6,4.6s-3.2.6-4.8.2-3-1-4.4.2-1.4,2.6-1.2,4.4c0,1.6.2,3.4-1.4,4.6h0c-1.6,1.2-3.2.8-4.8.2-1.6-.4-3.2-1-4.6.2s-1.2,2.8-1.2,4.4c.2,1.6.2,3.4-1.2,4.6-1.4,1.4-3.2.8-4.8.4s-3.2-.8-4.6.4-1.2,2.8-1,4.4.4,3.4-1.2,4.6c-1.4,1.4-3.2,1-4.8.6s-3.2-.6-4.4.6c-1.4,1.2-1,2.8-.8,4.4s.4,3.4-1,4.8-3.2,1-4.8.8c-1.6-.4-3.2-.6-4.4.6-1.2,1.4-1,2.8-.6,4.6.2,1.6.6,3.4-.8,4.8s-3,1.2-4.8.8c-1.6-.2-3.2-.4-4.4.8-1.2,1.4-1,2.8-.6,4.4s.6,3.2-.6,4.8-3,1.4-4.6,1.2-3.2-.4-4.4,1-.8,2.8-.4,4.4.8,3.4-.4,4.8c-1.4,1.6-3,1.4-4.8,1.2-1.6-.2-3.2-.4-4.4,1.2-1.2,1.4-.8,3-.2,4.6.4,1.6,1,3.4-.2,4.8-1.2,1.6-3,1.4-4.6,1.4s-3.2-.2-4.4,1.2-.6,3-.2,4.4c.6,1.6,1,3.2-.2,4.8s-2.8,1.6-4.6,1.6c-1.6,0-3.2,0-4.2,1.4s-.6,3,0,4.6,1.2,3.2,0,4.8-2.8,1.6-4.6,1.6c-1.6,0-3.2,0-4.2,1.6s-.4,3,.2,4.6,1.2,3.2.2,4.8-2.8,1.8-4.4,1.8-3.2.2-4.2,1.8-.4,3,.2,4.4c.6,1.6,1.4,3.2.4,4.8-1,1.8-2.8,1.8-4.4,2s-3.2.2-4.2,1.8-.2,3,.4,4.4c.8,1.6,1.4,3,.4,4.8s-2.8,1.8-4.4,2-3.2.4-4,2-.2,3,.6,4.6c.8,1.4,1.6,3,.6,4.8-.8,1.8-2.6,2-4.2,2.2s-3.2.4-4,2-.2,3,.6,4.4,1.6,3,.8,4.8-2.4,2.2-4.2,2.4c-1.6.2-3.2.6-4,2.2s0,3,.8,4.4,1.8,3,1,4.8-2.6,2.2-4.2,2.4-3.2.8-3.8,2.4.2,3,1,4.4c1,1.4,1.8,2.8,1.2,4.8-.8,1.8-2.4,2.2-4,2.6s-3.2.8-3.8,2.4c-.6,1.8.2,3,1.2,4.4s2,2.8,1.4,4.6-2.4,2.4-3.8,2.8c-1.6.4-3,.8-3.6,2.6s.4,3,1.4,4.4,2,2.8,1.4,4.6-2.4,2.4-4,2.8-3,1-3.6,2.8c-.4,1.8.4,3,1.6,4.4,1,1.4,2.2,2.6,1.6,4.6-.6,1.8-2.2,2.4-3.8,3s-3,1.2-3.6,2.8c-.4,1.8.4,3,1.6,4.2,1,1.2,2.2,2.6,1.8,4.6s-2,2.6-3.6,3.2-3,1.2-3.4,3,.6,3,1.8,4.2,2.2,2.6,1.8,4.4c-.4,2-2,2.6-3.6,3.2s-3,1.4-3.2,3.2c-.4,1.8.8,3,2,4.2s2.4,2.4,2,4.4-2,2.6-3.4,3.4c-1.6.8-3,1.4-3.2,3.2-.4,1.8.8,3,2,4,1.2,1.2,2.4,2.4,2.2,4.4s-1.8,2.8-3.2,3.6-2.8,1.4-3,3.2,1,2.8,2.2,4,2.6,2.2,2.2,4.2c-.2,2-1.8,2.8-3.2,3.6s-2.8,1.6-3,3.4,1,2.8,2.4,4c1.2,1,2.4,2,2.4,3.8v.4h0c-.2,2-1.6,2.8-3,3.8-1.4.8-2.8,1.6-2.8,3.6-.2,1.8,1,2.8,2.4,3.8s2.6,2.2,2.6,4c0,2-1.6,2.8-2.8,3.8-1.4,1-2.6,1.8-2.8,3.6,0,1.8,1.2,2.8,2.6,3.8s2.8,2,2.6,4c0,2-1.6,3-2.8,4-1.4,1-2.6,1.8-2.8,3.6,0,1.8,1.4,2.8,2.8,3.6,1.4,1,2.8,2,2.8,4h0c0,2-1.4,3-2.6,4-1.4,1-2.6,2-2.6,3.8s1.4,2.6,2.8,3.6,2.8,1.8,2.8,3.8v.2c0,1.8-1.2,3-2.6,4-1.2,1-2.4,2-2.4,3.8.2,1.8,1.4,2.6,3,3.6,1.4.8,3,1.8,3,3.8h0v.4c0,1.8-1.2,2.8-2.4,3.8s-2.4,2-2.4,4c.2,1.8,1.6,2.6,3,3.4s3,1.6,3.2,3.6-1,3.2-2.2,4.2c-1.2,1.2-2.4,2.2-2.2,4s1.6,2.6,3,3.4,3,1.6,3.2,3.6-1,3.2-2.2,4.4-2.2,2.2-2,4c.4,1.8,1.8,2.4,3.2,3.2,1.6.8,3,1.4,3.4,3.4s-.8,3.2-2,4.4-2.2,2.4-2,4.2c.4,1.8,1.8,2.4,3.2,3.2,1.6.6,3.2,1.4,3.6,3.2.4,2-.8,3.2-1.8,4.4-1.2,1.2-2.2,2.4-1.8,4.2s1.8,2.4,3.4,3,3.2,1.2,3.6,3.2-.8,3.2-1.8,4.6c-1,1.2-2,2.4-1.6,4.2s2,2.4,3.6,2.8c1.6.6,3.2,1.2,3.8,3,.6,2-.6,3.2-1.6,4.6-1,1.2-2,2.6-1.6,4.2.6,1.8,2,2.2,3.6,2.8,1.6.4,3.2,1,4,2.8.6,1.8-.4,3.2-1.4,4.6s-2,2.6-1.4,4.4,2,2.2,3.6,2.6,3.2,1,3.8,2.8-.4,3.4-1.4,4.6c-1,1.4-1.8,2.6-1.2,4.4s2.2,2,3.8,2.4,3.4.8,4,2.6c.8,1.8-.2,3.2-1.2,4.8-1,1.4-1.8,2.8-1,4.4.6,1.8,2.2,2,3.8,2.4s3.4.8,4.2,2.4c.8,1.8,0,3.2-1,4.8-.8,1.4-1.6,2.8-.8,4.4s2.4,2,4,2.2,3.4.6,4.2,2.4,0,3.4-.8,4.8-1.6,2.8-.6,4.4c.8,1.6,2.4,1.8,4,2.2,1.6.2,3.4.4,4.2,2.2,1,1.8.2,3.2-.6,4.8-.8,1.4-1.4,2.8-.6,4.4s2.4,1.8,4,2,3.4.4,4.4,2c1,1.8.2,3.2-.4,4.8s-1.4,3-.4,4.6,2.4,1.8,4.2,1.8c1.6.2,3.4.2,4.4,2s.2,3.2-.4,4.8-1.2,3-.2,4.4c1,1.6,2.6,1.6,4.2,1.8,1.6,0,3.4.2,4.4,1.8s.4,3.2-.2,4.8-1.2,3-.2,4.6,2.6,1.6,4.2,1.6,3.4,0,4.6,1.6.6,3.2,0,4.8-1,3,0,4.6,2.6,1.6,4.2,1.4c1.6,0,3.4,0,4.6,1.6s.6,3.2.2,4.8-1,3,.2,4.4,2.6,1.4,4.4,1.2c1.6,0,3.4-.2,4.6,1.4s.8,3.2.2,4.8c-.4,1.6-1,3.2.2,4.6s2.8,1.2,4.4,1.2c1.6-.2,3.4-.2,4.6,1.2,1.4,1.6.8,3.2.4,4.8s-.8,3.2.4,4.6,2.8,1.2,4.4,1,3.4-.4,4.6,1.2c1.4,1.4,1,3.2.6,4.8s-.6,3.2.6,4.4c1.2,1.4,2.8,1.2,4.4.8,1.6-.2,3.4-.4,4.8,1s1,3.2.8,4.8c-.4,1.6-.6,3.2.6,4.4,1.4,1.2,2.8,1,4.6.8,1.6-.4,3.4-.6,4.8.8s1.2,3,.8,4.8c-.2,1.6-.4,3.2.8,4.4,1.4,1.2,2.8,1,4.4.6s3.2-.8,4.8.6c1.6,1.2,1.4,3,1.2,4.6s-.4,3.2,1,4.4,2.8.8,4.4.4,3.4-.8,4.8.4,1.4,3,1.2,4.8c-.2,1.6-.4,3.2,1.2,4.4,1.4,1.2,3,.8,4.6.2,1.6-.4,3.4-1,4.8.2,1.6,1.2,1.4,3,1.4,4.6s-.2,3.2,1.2,4.4,3,.8,4.4.2c1.6-.6,3.2-1,4.8.2s1.6,2.8,1.6,4.6c0,1.6,0,3.2,1.4,4.2s3,.6,4.6,0,3.2-1.2,4.8,0,1.6,2.8,1.6,4.6c0,1.6,0,3.2,1.6,4.2s3,.4,4.6-.2,3.2-1.2,4.8-.2,1.8,2.8,1.8,4.4.2,3.2,1.8,4.2,3,.4,4.4-.2c1.6-.6,3.2-1.4,4.8-.4,1.8,1,1.8,2.8,2,4.4s.2,3.2,1.8,4.2,3,.2,4.4-.4c1.6-.8,3-1.4,4.8-.4s1.8,2.8,2,4.4.4,3.2,2,4,3,.2,4.6-.6c1.4-.8,3-1.6,4.8-.6s2,2.6,2.2,4.2.4,3.2,2,4,3,.2,4.4-.6,3-1.6,4.8-.8,2.2,2.4,2.4,4.2c.2,1.6.6,3.2,2.2,4s3,0,4.4-.8,3-1.8,4.8-1,2.2,2.6,2.4,4.2c.4,1.6.8,3.2,2.4,3.8,1.8.6,3-.2,4.4-1,1.4-1,2.8-1.8,4.8-1.2,1.8.8,2.2,2.4,2.6,4s.8,3.2,2.4,3.8,3-.2,4.4-1.2,2.8-2,4.6-1.4,2.4,2.4,2.8,4,.8,3,2.6,3.6,3-.4,4.4-1.4,2.8-2,4.6-1.4,2.4,2.2,2.8,4c.4,1.6,1,3,2.8,3.6,1.8.4,3-.4,4.2-1.6,1.4-1,2.6-2.2,4.6-1.6h0c1.8.6,2.4,2.2,3,3.8s1.2,3,2.8,3.6c1.8.4,3-.4,4.2-1.6,1.2-1,2.6-2.2,4.6-1.8s2.6,2,3.2,3.6,1.2,3,3,3.4,3-.6,4.2-1.8,2.6-2.2,4.4-1.8c2,.4,2.6,2,3.2,3.6s1.4,3,3.2,3.2c1.8.4,3-.8,4.2-2s2.4-2.4,4.4-2,2.6,2,3.4,3.4c.8,1.6,1.4,3,3.2,3.2s3-.8,4-2c1.2-1.2,2.4-2.4,4.4-2.2s2.8,1.8,3.6,3.2,1.4,2.8,3.2,3,2.8-1,4-2.2,2.2-2.4,4.2-2.2h0c2,.2,2.8,1.8,3.6,3.2s1.6,2.8,3.4,3,2.8-1,4-2.4c1-1.2,2.2-2.6,4.2-2.4s2.8,1.6,3.8,3c.8,1.4,1.6,2.8,3.6,2.8,1.8.2,2.8-1,3.8-2.4s2.2-2.6,4-2.6c2,0,2.8,1.6,3.8,2.8,1,1.4,1.8,2.6,3.6,2.8,1.8,0,2.8-1.2,3.8-2.6s2-2.8,4-2.6c2,0,3,1.6,4,2.8s1.8,2.6,3.6,2.8c1.8,0,2.8-1.4,3.6-2.8,1-1.4,2-2.8,4-2.8h0c2,0,3,1.4,4,2.6s2,2.6,3.8,2.6,2.6-1.4,3.6-2.8,1.8-2.8,3.8-2.8,3,1.2,4,2.6c1,1.2,2,2.4,3.8,2.4,1.8-.2,2.6-1.4,3.6-3,.8-1.4,1.8-3,3.8-3,2-.2,3,1.2,4.2,2.4,1,1.2,2,2.4,4,2.4,1.8-.2,2.6-1.6,3.4-3s1.6-3,3.6-3.2,3.2,1,4.2,2.2c1.2,1.2,2.2,2.4,4,2.2s2.6-1.6,3.4-3,1.6-3,3.6-3.2,3.2,1,4.4,2.2,2.2,2.2,4,2c1.8-.4,2.4-1.8,3.2-3.2.8-1.6,1.4-3,3.4-3.4s3.2.8,4.4,2,2.4,2.2,4.2,2c1.8-.4,2.4-1.8,3-3.2.6-1.6,1.4-3.2,3.2-3.6,2-.4,3.2.8,4.4,1.8s2.4,2.2,4.2,1.8,2.4-1.8,3-3.4,1.2-3.2,3.2-3.6,3.2.8,4.6,1.8c1.2,1,2.4,2,4.2,1.6,1.8-.6,2.4-2,2.8-3.6.6-1.6,1.2-3.2,3-3.8s3.2.6,4.6,1.6c1.2,1,2.6,2,4.2,1.6,1.8-.6,2.2-2,2.8-3.6.4-1.6,1-3.2,2.8-4,1.8-.6,3.2.4,4.6,1.4s2.6,1.8,4.4,1.4c1.8-.6,2.2-2,2.6-3.6s1-3.2,2.8-4c1.8-.6,3.4.4,4.6,1.4,1.4,1,2.6,1.8,4.4,1.2s2-2.2,2.4-3.8.8-3.4,2.6-4c1.8-.8,3.2.2,4.8,1.2,1.4.8,2.8,1.8,4.4,1,1.8-.6,2-2.2,2.4-3.8s.8-3.4,2.4-4.2c1.8-.8,3.2,0,4.8,1,1.4.8,2.8,1.6,4.4.8s2-2.2,2.2-4c.2-1.6.6-3.4,2.4-4.2s3.4,0,4.8.8,2.8,1.6,4.4.6c1.6-.8,1.8-2.4,2.2-4,.2-1.6.4-3.4,2.2-4.2s3.2,0,4.8.6c1.4.8,2.8,1.4,4.4.6s1.8-2.4,2-4,.4-3.4,2-4.4c1.8-1,3.2-.2,4.8.4,1.4.8,2.8,1.4,4.4.4s1.8-2.4,1.8-4.2c.2-1.6.2-3.4,2-4.4h0c1.8-1,3.2-.2,4.8.4s3,1.2,4.4.2c1.6-1,1.6-2.6,1.8-4.2,0-1.6.2-3.4,1.8-4.4s3.2-.4,4.8.2,3,1.2,4.6.2,1.6-2.6,1.6-4.2,0-3.4,1.6-4.6,3.2-.6,4.8,0,3,1,4.6,0,1.6-2.6,1.4-4.2c0-1.6,0-3.4,1.6-4.6s3.2-.6,4.8-.2,3,1,4.4-.2,1.4-2.8,1.2-4.4c0-1.6-.2-3.4,1.4-4.6s3.2-.8,4.8-.2c1.6.4,3.2,1,4.6-.2s1.2-2.8,1.2-4.4c-.2-1.6-.2-3.4,1.2-4.6,1.4-1.4,3.2-.8,4.8-.4s3.2.8,4.6-.4,1.2-2.8,1-4.4-.4-3.4,1.2-4.6c1.4-1.4,3.2-1,4.8-.6s3.2.6,4.4-.6c1.4-1.2,1.2-2.8.8-4.4-.2-1.6-.4-3.4,1-4.8s3.2-1,4.8-.8c1.6.4,3.2.6,4.4-.6,1.2-1.4,1-2.8.8-4.6-.4-1.6-.6-3.4.8-4.8s3-1.2,4.8-.8c1.6.2,3.2.4,4.4-.8,1.2-1.4,1-2.8.6-4.4s-.8-3.2.6-4.8c1.2-1.6,3-1.2,4.6-1.2,1.6.2,3.2.4,4.4-1s.8-2.8.4-4.4-.8-3.2.4-4.8c1.2-1.4,3-1.4,4.8-1.2,1.6.2,3.2.2,4.4-1.2s.8-3,.2-4.6c-.4-1.6-1-3.2.2-4.8s3-1.4,4.6-1.4,3.2.2,4.4-1.2.6-3,.2-4.4c-.6-1.6-1-3.2.2-4.8s2.8-1.6,4.6-1.6c1.6,0,3.2,0,4.2-1.4s.6-3,0-4.6-1.2-3.2,0-4.8,2.8-1.6,4.6-1.6c1.6,0,3.2,0,4.2-1.6s.4-3-.2-4.6-1.2-3.2-.2-4.8,2.8-1.8,4.4-1.8,3.2-.2,4.2-1.8.4-3-.2-4.4c-.6-1.6-1.4-3.2-.4-4.8,1-1.8,2.8-1.8,4.4-2s3.2-.2,4.2-1.8.2-3-.4-4.4c-.8-1.6-1.4-3-.4-4.8,1-1.6,2.8-1.8,4.4-2s3.2-.4,4-2,.2-3-.6-4.6-1.6-3-.6-4.8,2.6-2,4.2-2.2,3.2-.4,4-2.2c.8-1.6.2-3-.6-4.4s-1.6-3-.8-4.8,2.4-2.2,4.2-2.4c1.6-.2,3.2-.6,4-2.2s0-3-.8-4.4-1.8-3-1-4.8,2.6-2.2,4.2-2.4c1.6-.4,3.2-.8,3.8-2.4.6-1.8-.2-3-1-4.4-1-1.4-1.8-2.8-1.2-4.6.8-1.8,2.4-2.2,4-2.6s3.2-.8,3.8-2.4c.6-1.8-.2-3-1.2-4.4s-2-2.8-1.4-4.6,2.4-2.4,4-2.8,3-.8,3.6-2.6-.4-3-1.4-4.4-2-2.8-1.4-4.6,2.2-2.4,4-3c1.6-.4,3-1,3.6-2.8.4-1.8-.4-3-1.6-4.2-1-1.4-2.2-2.6-1.6-4.6.6-1.8,2.2-2.4,3.8-3s3-1.2,3.6-2.8c.4-1.8-.4-3-1.6-4.2-1-1.2-2.2-2.6-1.8-4.6s2-2.6,3.6-3.2,3-1.2,3.4-3-.6-3-1.8-4.2-2.2-2.6-1.8-4.4c.4-2,2-2.6,3.6-3.2s3-1.2,3.2-3.2c.4-1.8-.8-3-2-4.2s-2.4-2.4-2-4.4,2-2.6,3.4-3.4c1.6-.8,3-1.4,3.2-3.2s-.8-3-2-4c-1.2-1.2-2.4-2.4-2.2-4.4s1.8-2.8,3.2-3.6,2.8-1.4,3-3.2-1-2.8-2.2-4-2.6-2.2-2.2-4.2c.2-2,1.8-2.8,3.2-3.6s2.8-1.6,3-3.4-1-2.8-2.4-4c-1.2-1-2.6-2.2-2.4-4.2s1.6-2.8,3-3.8c1.4-.8,2.8-1.6,3-3.6.2-1.8-1-2.8-2.4-3.8-1.2-1-2.6-2-2.6-4h0c0-2,1.6-2.8,2.8-3.8C952.22,502.75,953.42,502,953.62,500.15Z" style="fill:#182755"/><path d="M788.42,116.75l-3.8,4.6a2.76,2.76,0,0,0-.8-.6A447.32,447.32,0,0,0,733.62,85l-13.2-7.8c-4.4-2.6-9-5.2-13.4-7.6-13.6-7.4-27.6-14-41.8-20s-28.8-11-43.6-15.6a443.21,443.21,0,0,0-44.8-11c-5-1-10.2-2-15.2-2.8s-10.2-1.6-15.2-2.2l-15.2-1.8c-5.2-.4-10.2-1-15.4-1.2-5.2-.4-10.2-.6-15.4-.8S490.22,14,485,14c-5,0-10.2,0-15.2.2s-10.2.4-15.2.8L439,16.15c-5,.4-10.2,1-15.2,1.8-5,.6-10.2,1.4-15.2,2.2s-10.2,1.8-15.2,2.8c-10,2-20.2,4.2-30,6.8-14.8,4-29.6,8.6-44,14a441.87,441.87,0,0,0-56,25.6c-4.6,2.4-9,5-13.4,7.6a439,439,0,0,0-63,43.2l-3.8-4.6a479.85,479.85,0,0,1,63.6-44,473.48,473.48,0,0,1,238.6-64C600.22,7.55,705.82,48.55,788.42,116.75Z" style="fill:#182755"/><path d="M507.62,22.35v1.2c-2,0-3,1.4-4,2.6-1,1.4-2,2.6-3.8,2.6s-2.6-1.4-3.6-2.8-1.8-2.8-3.8-2.8-3,1.4-4,2.8-1.8,2.6-3.6,2.6-2.6-1.2-3.6-2.6-2-2.8-4-2.8-3,1.6-3.8,2.8c-1,1.4-1.8,2.6-3.6,2.8-1.8,0-2.8-1.2-3.6-2.6-1-1.4-2-2.6-4-2.6v-1.2c5-.2,10-.4,15-.4h15.4C497.62,22,502.62,22.15,507.62,22.35Z" style="fill:#182755"/><path d="M462.42,22.35v1.2h0c-2,0-2.8,1.6-3.8,3-.8,1.4-1.6,2.8-3.4,2.8-1.8.2-2.8-1-3.8-2.4s-2.2-2.6-4-2.4c-2,.2-2.8,1.6-3.6,3s-1.6,2.8-3.4,2.8c-1.8.2-2.8-1-3.8-2.2-1.2-1.2-2.2-2.6-4.2-2.2-2,.2-2.8,1.8-3.6,3.2s-1.4,2.8-3.2,3-2.8-1-4-2.2-2.4-2.6-4.2-2.2l-.2-1.4c5-.8,10-1.4,15-2s10-1,15-1.4c5,0,10-.4,15.2-.6Z" style="fill:#182755"/><path d="M955.82,484.75a436.18,436.18,0,0,0-2-45.8,447.4,447.4,0,0,0-6.8-46c-2-10-4.4-20.2-7-30-1.4-5-2.8-10-4.2-14.8-1.6-5-3.2-9.8-4.8-14.6s-3.4-9.6-5.2-14.4-3.8-9.6-5.8-14.4-4-9.4-6.2-14-4.4-9.4-6.6-14-4.6-9.2-7-13.6c-2.4-4.6-4.8-9-7.4-13.4s-5.2-8.8-8-13.2c-2.6-4.4-5.4-8.8-8.4-13-2.8-4.2-5.8-8.4-8.8-12.6s-6-8.4-9.2-12.4h0c-3-4-6.2-8.2-9.6-12-3.2-4-6.6-8-10-11.8-6.8-7.8-13.8-15.2-21-22.6a438.64,438.64,0,0,0-33.4-30.6l3.8-4.6c11.8,9.8,23,20,33.8,30.8,86.4,86.4,140,205.6,140,337.2,0,148-67.8,280.4-173.8,368l-3.8-4.6a438.64,438.64,0,0,0,33.4-30.6c7.2-7.2,14.2-14.8,21-22.6,3.4-3.8,6.6-7.8,10-11.8s6.4-8,9.6-12,6.2-8.2,9.2-12.4,5.8-8.4,8.8-12.6c2.8-4.2,5.6-8.6,8.4-13s5.4-8.8,8-13.2,5-9,7.4-13.4c2.4-4.6,4.8-9,7-13.8,2.4-4.6,4.6-9.2,6.6-14,2.2-4.6,4.2-9.4,6.2-14.2s3.8-9.6,5.8-14.4c1.8-4.8,3.6-9.6,5.2-14.4s3.2-9.8,4.8-14.6c1.6-5,3-9.8,4.2-14.8,2.8-10,5-20,7-30a447.4,447.4,0,0,0,6.8-46A436.18,436.18,0,0,0,955.82,484.75Z" style="fill:#182755"/><path d="M948.22,477.15v15.2c0,5-.2,10-.4,15h-1.6c0-2-1.4-3-2.6-4-1.4-1-2.6-2-2.6-3.8s1.4-2.6,2.8-3.6,2.8-1.8,2.8-3.8-1.4-3-2.6-4c-1.4-1-2.6-1.8-2.6-3.6s1.2-2.6,2.6-3.6,2.8-2,2.6-4c0-2-1.6-3-2.8-3.8-1.4-1-2.6-1.8-2.8-3.6,0-1.8,1.2-2.8,2.6-3.6,1.4-1,2.8-2,2.6-4,0-2-1.6-2.8-3-3.8-1.4-.8-2.8-1.6-2.8-3.4-.2-1.8,1-2.8,2.4-3.8,1.2-1,2.6-2.2,2.4-4-.2-2-1.6-2.8-3-3.6s-2.8-1.6-3-3.4,1-2.8,2.2-3.8,2.6-2.2,2.2-4.2c-.2-2-1.8-2.8-3.2-3.6s-2.8-1.4-3-3.2,1-2.8,2.2-4,2.6-2.4,2.2-4.2c-.2-2-1.8-2.8-3.4-3.4-1.6-.8-3-1.4-3.2-3.2-.4-1.8.8-2.8,2-4s2.4-2.4,2-4.4-2-2.6-3.4-3.4c-1.6-.6-3-1.2-3.2-3s.8-2.8,2-4,2.2-2.4,1.8-4.4-2-2.6-3.6-3.2-3-1.2-3.4-3,.6-3,1.8-4.2,2.2-2.6,1.8-4.4c-.4-2-2-2.6-3.6-3.2s-3-1-3.6-2.8c-.4-1.8.6-2.8,1.6-4.2,1-1.2,2.2-2.6,1.6-4.4s-2.2-2.4-3.8-3c-1.6-.4-3-1-3.6-2.8-.4-1.8.4-3,1.6-4.2,1-1.2,2-2.6,1.4-4.6-.6-1.8-2.4-2.4-4-2.8s-3-.8-3.6-2.6.4-3,1.4-4.2,2-2.8,1.4-4.6-2.2-2.4-4-2.8c-1.6-.4-3.2-.8-3.8-2.4s.2-3,1.2-4.2c1-1.4,2-2.8,1.2-4.6s-2.4-2.2-4-2.6-3-.8-3.8-2.4c-.6-1.6.2-3,1-4.4s1.8-2.8,1-4.6-2.4-2.2-4.2-2.4c-1.6-.4-3.2-.6-3.8-2.2-.8-1.6,0-3,1-4.4.8-1.4,1.8-3,1-4.8l1-.4c4.4,9.2,8.4,18.4,12.2,27.8,2,4.6,3.6,9.4,5.4,14.2s3.4,9.6,5,14.4,3,9.6,4.4,14.4,2.8,9.8,4,14.6,2.4,9.8,3.6,14.8c1,5,2,9.8,3,14.8s1.8,10,2.4,15c.8,5,1.4,10,2,15,.6,4.8,1,9.8,1.4,14.8v.4h0c.4,5,.8,10,1,15.2C948,467.15,948,472.15,948.22,477.15Z" style="fill:#182755"/><path d="M947.82,507.55h0c-.2,5.2-.6,10.2-1,15.2s-.8,10-1.4,15-1.2,10-2,15l-2.4,15c-1,5-2,10-3,14.8h0c-1,5-2.2,9.8-3.4,14.8s-2.6,9.8-4,14.6-2.8,9.8-4.4,14.4c-1.6,4.8-3.2,9.6-5,14.4s-3.6,9.4-5.4,14.2-3.8,9.4-5.8,14c-4,9.2-8.4,18.4-13,27.4s-9.6,17.8-14.8,26.4l-1-.6c1-1.8.2-3.2-.4-4.8s-1.4-3-.4-4.4c1-1.6,2.4-1.6,4-1.8s3.4-.4,4.4-2c1-1.8.2-3.2-.4-4.8-.8-1.4-1.4-2.8-.6-4.4s2.4-1.8,4-2,3.4-.4,4.2-2.2c1-1.8,0-3.2-.8-4.8-.8-1.4-1.6-2.8-.8-4.4s2.4-1.8,4-2,3.4-.6,4.2-2.4,0-3.2-1-4.8c-.8-1.4-1.6-2.8-1-4.4.8-1.6,2.2-2,3.8-2.2,1.6-.4,3.4-.6,4.2-2.4s-.2-3.2-1-4.6-1.8-2.6-1-4.4c.6-1.6,2.2-2,3.8-2.4s3.2-.8,4-2.6-.2-3.2-1.2-4.6-1.8-2.6-1.2-4.2,2.2-2,3.8-2.4,3.2-.8,4-2.8c.6-1.8-.4-3.2-1.4-4.6s-1.8-2.6-1.4-4.2c.6-1.8,2-2.2,3.6-2.6s3.2-1,4-2.8c.6-1.8-.4-3.2-1.4-4.6-1-1.2-2-2.6-1.6-4.2.4-1.8,2-2.2,3.6-2.8s3.2-1,3.8-3c.6-1.8-.6-3.2-1.6-4.4s-2-2.4-1.6-4.2,2-2.2,3.6-2.8,3.2-1.2,3.6-3c.4-2-.6-3.2-1.8-4.4-1-1.2-2.2-2.4-1.8-4.2s1.8-2.4,3.4-3,3.2-1.2,3.6-3.2-.8-3.2-1.8-4.4-2.2-2.2-2-4c.4-1.8,1.8-2.4,3.2-3,1.6-.6,3-1.4,3.4-3.4s-.8-3.2-2-4.4-2.2-2.2-2-4c.4-1.8,1.8-2.4,3.2-3.2,1.6-.8,3-1.4,3.4-3.4.2-2-1-3.2-2.2-4.2-1.2-1.2-2.4-2.2-2.2-4s1.6-2.4,3-3.2,3-1.6,3.2-3.6-1-3-2.2-4.2c-1.2-1-2.4-2-2.2-3.8s1.4-2.6,3-3.4c1.4-.8,3-1.6,3-3.6.2-2-1.2-3-2.4-4.2-1.2-1-2.4-2-2.4-3.8.2-1.8,1.4-2.6,2.8-3.4s3-1.8,3-3.8Z" style="fill:#182755"/><path d="M903.62,286.75l-1,.4c-.8-1.8-2.4-2-4.2-2.4-1.6-.2-3.2-.4-4-2s0-3,.8-4.4,1.6-3,.6-4.8c-.8-1.8-2.6-2-4.2-2.2s-3.2-.4-4-2,0-3,.6-4.4c.8-1.4,1.4-3,.4-4.8s-2.8-1.8-4.4-2-3.2-.2-4-1.8-.2-3,.4-4.4c.8-1.6,1.4-3.2.4-4.8l1-.6c5.2,8.6,10.2,17.6,14.8,26.4C899.22,277.75,901.42,282.15,903.62,286.75Z" style="fill:#182755"/><path d="M881,722.15l1,.6c-2.6,4.4-5.2,8.6-8,12.8l-8.4,12.6c-5.8,8.4-11.8,16.4-18,24.4-3.2,4-6.2,7.8-9.6,11.8-3.2,3.8-6.6,7.6-10,11.4s-6.8,7.4-10.4,11.2c-3.4,3.6-7,7.2-10.6,10.8s-7.2,7-11,10.4-7.6,6.8-11.4,10c-7.8,6.6-15.6,12.8-23.8,18.8-4,3-8.2,6-12.4,8.8l-12.6,8.4c-4.2,2.8-8.6,5.4-13,8L722,881c1.8-1,1.8-2.8,2-4.4,0-1.6.2-3.2,1.6-4.2,1.6-1,3-.4,4.4.2,1.6.6,3.2,1.4,4.8.2,1.6-1,1.8-2.8,1.8-4.4s0-3.2,1.6-4.2,3-.4,4.4.2c1.6.6,3.2,1.2,4.8,0s1.6-2.8,1.6-4.6c0-1.6,0-3.2,1.4-4.2s3-.6,4.4,0c1.6.6,3.2,1.2,4.8,0s1.6-3,1.4-4.6c0-1.6-.2-3.2,1.2-4.2,1.4-1.2,2.8-.6,4.4-.2s3.2,1,4.8-.2,1.4-3,1.4-4.6c-.2-1.6-.2-3.2,1.2-4.2,1.4-1.2,2.8-.8,4.4-.2,1.6.4,3.2.8,4.8-.4,1.4-1.2,1.2-3,1.2-4.6-.2-1.6-.4-3.2,1-4.4s2.8-.8,4.4-.4,3.4.8,4.8-.4,1.2-3,1-4.8c-.2-1.6-.4-3.2.8-4.4s2.8-1,4.4-.6,3.4.6,4.8-.6c1.4-1.4,1.2-3,.8-4.8-.2-1.6-.6-3.2.8-4.4,1.2-1.2,2.8-1,4.4-.8s3.4.6,4.8-.8,1-3.2.6-4.8-.6-3.2.6-4.4c1.2-1.4,2.8-1,4.4-.8s3.4.4,4.8-1c1.2-1.4.8-3.2.4-4.8s-.8-3.2.4-4.4c1.2-1.4,2.8-1.2,4.4-1s3.4.4,4.6-1.2.8-3.2.4-4.8-.8-3,.2-4.4,2.6-1.2,4.2-1.2c1.6.2,3.4.2,4.6-1.4s.8-3.2.2-4.8c-.4-1.6-1-3,.2-4.4s2.6-1.4,4.4-1.2c1.6,0,3.4.2,4.6-1.4s.6-3.2,0-4.8-1-3,0-4.4,2.6-1.4,4.2-1.4,3.4,0,4.6-1.6.6-3.2,0-4.8-1-3-.2-4.4c1-1.6,2.6-1.6,4.2-1.6s3.4,0,4.4-1.8c1-1.6.4-3.2-.2-4.8s-1.2-3-.2-4.4c1-1.6,2.6-1.6,4.2-1.6C878.42,724,880.22,724,881,722.15Z" style="fill:#182755"/><path d="M882,246.75l-1,.6c-1-1.8-2.8-1.8-4.4-1.8-1.6-.2-3.2-.2-4.2-1.6-1-1.6-.4-3,.2-4.4.6-1.6,1.4-3.2.2-4.8s-2.8-1.8-4.4-1.8-3.2,0-4.2-1.6-.4-3,.2-4.4c.6-1.6,1.2-3.2,0-4.8s-2.8-1.6-4.6-1.6c-1.6,0-3.2,0-4.2-1.4s-.6-3,0-4.4c.6-1.6,1.2-3.2,0-4.8l1-.8c3,4,6,8.2,8.8,12.4l8.4,12.6A136.22,136.22,0,0,1,882,246.75Z" style="fill:#182755"/><path d="M856.82,209h0l-1,.8c-1.2-1.6-3-1.6-4.6-1.4-1.6,0-3.2.2-4.2-1.2-1.2-1.4-.6-2.8-.2-4.4s1-3.2-.2-4.8-3-1.4-4.6-1.4c-1.6.2-3.2.2-4.2-1.2-1.2-1.4-.8-2.8-.2-4.4.4-1.6.8-3.2-.4-4.8-1.2-1.4-3-1.2-4.6-1.2-1.6.2-3.2.4-4.4-1s-.8-2.8-.4-4.4.8-3.4-.4-4.8c-1.4-1.4-3-1.2-4.8-1-1.6.2-3.2.4-4.4-.8-1.2-1.4-1-2.8-.6-4.4s.8-3.4-.6-4.8-3-1.2-4.8-.8c-1.6.2-3.2.6-4.4-.8-1.2-1.2-1-2.8-.8-4.4s.6-3.4-.8-4.6c-1.4-1.4-3.2-1-4.8-.6s-3.2.6-4.4-.6-1-2.8-.8-4.4.4-3.4-1-4.8c-1.4-1.2-3.2-.8-4.8-.4s-3,.8-4.4-.4-1.2-2.8-1-4.4.4-3.4-1.2-4.6c-1.4-1.2-3.2-.8-4.8-.4s-3,.8-4.4-.2c-1.4-1.2-1.2-2.6-1.2-4.2.2-1.6.2-3.4-1.4-4.6s-3.2-.8-4.8-.2c-1.6.4-3,1-4.4-.2s-1.4-2.6-1.2-4.4c0-1.6.2-3.4-1.4-4.6s-3.2-.6-4.8,0-3,1-4.4,0-1.4-2.6-1.4-4.2,0-3.4-1.6-4.6-3.2-.6-4.8,0-3,1.2-4.4.2c-1.6-1-1.6-2.6-1.6-4.2s0-3.4-1.8-4.4c-1.6-1-3.2-.4-4.8.2s-3,1.2-4.4.2c-1.6-1-1.6-2.6-1.6-4.2,0-1.8-.2-3.4-2-4.4l.8-1.2c4.4,2.6,8.6,5.2,13,8,4.2,2.6,8.4,5.6,12.6,8.4s8.2,5.8,12.4,8.8,8,6,12,9.2c8,6.4,15.6,12.8,23,19.6,3.8,3.4,7.4,6.8,11,10.4s7.2,7.2,10.6,10.8c3.6,3.6,7,7.4,10.4,11.2s6.8,7.6,10,11.4,6.4,7.8,9.6,11.8C850.82,200.75,853.82,204.75,856.82,209Z" style="fill:#182755"/><path d="M784.62,848.35l3.8,4.6a476.37,476.37,0,0,1-542,45.2,499.53,499.53,0,0,1-63.6-44l3.8-4.6a439,439,0,0,0,63,43.2c4.4,2.6,9,5.2,13.4,7.6,13.6,7.4,27.4,14,41.6,20s28.8,11,43.6,15.6A443.21,443.21,0,0,0,393,947c5,1,10,2,15.2,2.8,5,.8,10.2,1.6,15.2,2.2l15.2,1.8q7.8.9,15.6,1.2c5,.4,10.2.6,15.2.8s10.2.2,15.2.2c5.2,0,10.2,0,15.4-.2s10.2-.4,15.4-.8l15.4-1.2c5.2-.4,10.2-1,15.2-1.8,5-.6,10.2-1.4,15.2-2.2s10.2-1.8,15.2-2.8c10-2,20.2-4.2,30-7,5-1.2,10-2.6,14.8-4.2a418.66,418.66,0,0,0,43.6-15.6,441.85,441.85,0,0,0,41.6-20c4.4-2.4,9-5,13.4-7.6s9-5.2,13.2-7.8a447.32,447.32,0,0,0,50.2-35.8C784,848.55,784.22,848.35,784.62,848.35Z" style="fill:#182755"/><path d="M722.42,880.75l.8,1.2h0c-2.2,1.2-4.4,2.6-6.6,3.8s-4.4,2.6-6.6,3.8c-4.4,2.4-8.8,4.8-13.4,7.2-4.4,2.4-9,4.6-13.6,6.8s-9.2,4.2-13.8,6.2-9.2,4-14,5.8-9.4,3.6-14.2,5.4l-.6-1.4c1.8-.6,2.4-2.2,2.8-4,.4-1.6.8-3.2,2.4-3.8s3,.2,4.2,1.2c1.4,1,2.8,2,4.6,1.2s2.2-2.4,2.6-4,.8-3.2,2.4-3.8,3,.2,4.4,1,2.8,1.8,4.6,1,2.2-2.6,2.4-4.2.6-3.2,2.2-3.8c1.6-.8,3,0,4.4,1,1.4.8,3,1.8,4.8,1s2-2.4,2.4-4.2c.2-1.6.4-3.2,2-4s3,0,4.4.8,3,1.6,4.8.6c1.8-.8,2-2.6,2.2-4.2s.4-3.2,2-4,3,0,4.4.6c1.4.8,3,1.4,4.8.4,1.6-1,1.8-2.8,2-4.4s.2-3.2,1.8-4,3-.2,4.4.4S720.82,881.75,722.42,880.75Z" style="fill:#182755"/><path d="M723.22,87.55h0l-.8,1.2c-1.8-1-3.2-.2-4.8.4s-3,1.4-4.4.4c-1.6-.8-1.6-2.4-1.8-4s-.4-3.4-2-4.4c-1.8-1-3.2-.2-4.8.4-1.4.6-2.8,1.4-4.4.6s-1.8-2.4-2-4-.4-3.4-2.2-4.2-3.2,0-4.8.8c-1.4.8-2.8,1.6-4.4.6-1.6-.8-1.8-2.4-2-4s-.6-3.4-2.4-4.2-3.2,0-4.8,1c-1.4.8-2.8,1.6-4.4.8s-2-2.2-2.2-3.8c-.4-1.6-.6-3.4-2.4-4.2s-3.2,0-4.6,1c-1.4.8-2.6,1.8-4.4,1-1.6-.6-2-2.2-2.4-3.8s-.8-3.4-2.6-4c-1.8-.8-3.2.2-4.6,1.2s-2.6,1.8-4.2,1.2-2-2.2-2.4-3.8-.8-3.2-2.8-4l.6-1.4c4.8,1.6,9.4,3.4,14.2,5.4s9.4,3.8,14,5.8,9.2,4.2,13.8,6.2c4.6,2.2,9,4.4,13.6,6.8,4.4,2.4,9,4.8,13.4,7.2,2.2,1.2,4.4,2.6,6.6,3.8C718.82,85,721,86.15,723.22,87.55Z" style="fill:#182755"/><path d="M641.22,48.55l-.6,1.4c-1.8-.6-3.2.4-4.6,1.4s-2.6,2-4.2,1.4c-1.8-.6-2.2-2-2.6-3.6s-1-3.2-2.8-3.8-3.2.4-4.6,1.4c-1.2,1-2.6,2-4.2,1.6-1.8-.4-2.2-2-2.8-3.6s-1-3.2-3-3.8c-1.8-.6-3.2.6-4.4,1.6s-2.4,2-4.2,1.6-2.2-2-2.8-3.6-1.2-3.2-3-3.6c-2-.4-3.2.6-4.4,1.8s-2.4,2.2-4.2,1.8-2.4-1.8-3-3.4-1.2-3.2-3.2-3.6-3.2.8-4.4,1.8c-1.2,1.2-2.2,2.2-4,2-1.8-.4-2.4-1.8-3-3.2-.6-1.6-1.4-3-3.4-3.4s-3.2.8-4.4,2-2.2,2.2-4,2c-1.8-.4-2.4-1.8-3.2-3.2-.8-1.6-1.4-3-3.4-3.4l.2-1.4h0l15,2.4c5,.8,10,1.8,14.8,2.8,5,1,9.8,2.2,14.8,3.4s9.8,2.6,14.6,3.8c4.8,1.4,9.8,2.8,14.6,4.4s9.6,3.2,14.4,5Z" style="fill:#182755"/><path d="M640.62,919.55l.6,1.4c-4.8,1.6-9.6,3.4-14.4,4.8-4.8,1.6-9.6,3-14.6,4.4-4.8,1.4-9.8,2.6-14.6,4-5,1.2-9.8,2.4-14.8,3.4s-10,2-14.8,3L553,943h0l-.2-1.2c2-.2,2.8-1.8,3.4-3.4.8-1.6,1.4-3,3.2-3.2,1.8-.4,2.8.8,4,2s2.4,2.4,4.4,2,2.6-2,3.4-3.4c.6-1.6,1.2-3,3-3.2s2.8.8,4,2,2.4,2.2,4.4,1.8,2.6-2,3.2-3.6,1.2-3,3-3.4,2.8.6,4.2,1.8c1.2,1.2,2.6,2.2,4.4,1.8s2.6-2,3.2-3.6,1-3,2.8-3.6c1.8-.4,3,.6,4.2,1.6s2.6,2.2,4.4,1.6,2.4-2.2,3-3.8,1-3,2.8-3.6c1.8-.4,3,.4,4.2,1.6,1.4,1,2.6,2,4.6,1.4,1.8-.6,2.4-2.4,2.8-4s.8-3,2.6-3.6,3,.4,4.2,1.4A4.72,4.72,0,0,0,640.62,919.55Z" style="fill:#182755"/><path d="M553,26.55l-.2,1.4c-2-.2-3.2,1-4.2,2.2-1.2,1.2-2.2,2.4-4,2.2s-2.4-1.6-3.2-3-1.6-3-3.6-3.2-3,1-4.2,2.2c-1,1.2-2,2.4-3.8,2.2s-2.6-1.4-3.4-2.8-1.6-3-3.6-3c-2-.2-3,1.2-4.2,2.4-1,1.2-2,2.4-3.8,2.4-1.8-.2-2.6-1.4-3.4-2.8s-1.8-3-3.8-3v-1.2h0c5,.2,10,.6,15,1s10,.8,15.2,1.4C543,25.35,548,26,553,26.55Z" style="fill:#182755"/><path d="M552.82,941.55l.2,1.2c-5,.8-10,1.4-15,2s-10,1-15,1.4-10,.8-15.2,1h0V946c2,0,2.8-1.6,3.8-3,.8-1.4,1.6-2.8,3.4-2.8,1.8-.2,2.8,1,3.8,2.4,1,1.2,2.2,2.6,4,2.4,2-.2,2.8-1.6,3.6-3s1.6-2.8,3.4-3,2.8,1,3.8,2.2c1.2,1.2,2.2,2.6,4.2,2.2,2-.2,2.8-1.8,3.6-3.2s1.4-2.8,3.2-3,2.8,1,4,2.2C549.62,940.55,550.82,941.75,552.82,941.55Z" style="fill:#182755"/><path d="M507.62,946v1.2c-5,.2-10,.4-15,.4h-15.2c-5,0-10-.2-15-.4V946c1.8,0,3-1.4,4-2.6,1-1.4,2-2.6,3.8-2.6s2.6,1.4,3.6,2.8,1.8,2.8,3.8,2.8,3-1.4,4-2.6c1-1.4,1.8-2.6,3.6-2.6s2.6,1.2,3.6,2.6,2,2.8,4,2.6c2,0,3-1.6,3.8-2.8,1-1.4,1.8-2.6,3.6-2.8,1.8,0,2.8,1.2,3.6,2.6C504.62,944.55,505.62,946,507.62,946Z" style="fill:#182755"/><path d="M462.42,946v1.2h-.2c-5-.2-10-.6-15-1s-10-.8-15.2-1.4c-5-.6-10-1.2-15-2l.2-1.2c2,.2,3.2-1,4.2-2.2,1.2-1.2,2.2-2.4,4-2.2s2.4,1.6,3.2,3,1.6,3,3.6,3.2,3-1,4.2-2.2c1-1.2,2-2.4,3.8-2.2s2.6,1.4,3.4,3c.8,1.4,1.6,3,3.6,3,2,.2,3-1.2,4.2-2.4,1-1.2,2-2.4,3.8-2.4,1.8.2,2.6,1.4,3.4,2.8s1.8,3,3.8,3Z" style="fill:#182755"/><path d="M417.22,26.55l.2,1.4c-2,.2-2.8,1.8-3.4,3.4-.8,1.6-1.4,3-3.2,3.2-1.8.4-2.8-.8-4-2s-2.4-2.4-4.4-2-2.6,2-3.4,3.4c-.6,1.6-1.2,2.8-3,3.2s-2.8-.8-4-2-2.4-2.4-4.4-1.8c-2,.4-2.6,2-3.2,3.6s-1.2,3-3,3.4-2.8-.6-4.2-1.8c-1.2-1.2-2.6-2.2-4.4-1.8-2,.4-2.6,2-3.2,3.6s-1.2,3-2.8,3.6c-1.8.4-2.8-.6-4.2-1.6-1.2-1-2.6-2.2-4.6-1.6-1.8.6-2.4,2.2-3,3.8s-1,3-2.8,3.6-3-.4-4.2-1.6c-1.2-1-2.6-2-4.6-1.4-1.8.6-2.4,2.2-2.8,3.8s-.8,3-2.6,3.6-3-.4-4.2-1.4c-1.4-1-2.8-2-4.6-1.4l-.6-1.4c4.8-1.6,9.6-3.4,14.4-4.8,4.8-1.6,9.6-3,14.6-4.4,4.8-1.4,9.8-2.6,14.6-3.8,5-1.2,9.8-2.4,14.8-3.4s10-2,14.8-2.8c5.2-1,10.2-1.8,15.4-2.6Z" style="fill:#182755"/><path d="M417.22,941.55l-.2,1.2-15-2.4c-5-.8-10-1.8-14.8-3-5-1-9.8-2.2-14.8-3.4-4.8-1.2-9.8-2.6-14.6-3.8-4.8-1.4-9.8-2.8-14.6-4.4l-14.4-4.8c-4.8-1.6-9.6-3.4-14.2-5.4-4.8-1.8-9.4-3.8-14-5.8s-9.2-4.2-13.8-6.2c-4.6-2.2-9.2-4.4-13.6-6.8s-9-4.8-13.4-7.2c-2.2-1.2-4.4-2.6-6.6-3.8s-4.4-2.4-6.6-3.8h0l.8-1.2c1.8,1,3.2.2,4.8-.4,1.4-.8,2.8-1.4,4.4-.4s1.6,2.4,1.8,4,.2,3.4,2,4.4c1.6,1,3.2.2,4.8-.4,1.4-.8,2.8-1.4,4.4-.6s1.8,2.4,2,4,.4,3.4,2.2,4.2c1.8,1,3.2,0,4.8-.8,1.4-.8,2.8-1.6,4.4-.8s1.8,2.4,2,4,.6,3.4,2.4,4.2,3.4,0,4.8-1c1.4-.8,2.8-1.6,4.4-1,1.6.8,2,2.2,2.2,3.8.4,1.6.6,3.4,2.4,4.2s3.2-.2,4.6-1,2.8-1.8,4.4-1c1.6.6,2,2.2,2.4,3.8s.8,3.2,2.6,4,3.2-.2,4.6-1.2,2.6-1.8,4.2-1.2,2,2.2,2.4,3.8.8,3.2,2.8,4c1.8.6,3.2-.4,4.6-1.4s2.6-1.8,4.2-1.4c1.8.6,2.2,2,2.6,3.6s1,3.2,2.8,4c1.8.6,3.2-.4,4.6-1.4,1.2-1,2.4-2,4.2-1.6s2.2,2,2.8,3.6,1,3.2,3,3.8c1.8.6,3.2-.6,4.4-1.6s2.4-2,4.2-1.6,2.2,2,2.8,3.6,1.2,3.2,3,3.6c2,.4,3.2-.6,4.4-1.8,1.2-1,2.4-2.2,4.2-1.8s2.4,1.8,3,3.4,1.2,3.2,3.2,3.6,3.2-.8,4.4-1.8,2.2-2.2,4-2c1.8.4,2.4,1.8,3,3.2.6,1.6,1.4,3,3.4,3.4s3.2-.8,4.4-2,2.2-2.2,4-2c1.8.4,2.4,1.8,3.2,3.2C414.62,939.75,415.42,941.35,417.22,941.55Z" style="fill:#182755"/><path d="M328.82,48.55l.6,1.4c-1.8.6-2.4,2.2-2.8,3.8s-.8,3.2-2.4,3.8-3-.2-4.2-1.2c-1.4-1-2.8-1.8-4.6-1.2-1.8.8-2.2,2.4-2.6,4s-.8,3-2.4,3.8-3-.2-4.4-1-2.8-1.8-4.6-1-2.2,2.6-2.4,4.2c-.4,1.6-.6,3.2-2.2,3.8-1.6.8-3,0-4.4-.8s-3-1.8-4.8-1-2,2.4-2.4,4.2c-.2,1.6-.4,3.2-2,4s-3,0-4.4-.8-3-1.6-4.8-.6c-1.8.8-2,2.6-2.2,4.2s-.4,3.2-2,4-3,0-4.4-.6c-1.4-.8-3-1.4-4.8-.4s-1.8,2.8-2,4.4-.2,3.2-1.8,4-3,.2-4.4-.4-3-1.4-4.8-.4l-.8-1.2h0c2.2-1.2,4.4-2.6,6.6-3.8s4.4-2.6,6.6-3.8c4.4-2.4,8.8-5,13.4-7.2,4.4-2.4,9-4.6,13.6-6.8s9.2-4.2,13.8-6.2,9.4-4,14-5.8C319.42,52,324.22,50.15,328.82,48.55Z" style="fill:#182755"/><path d="M246.82,87.55l.8,1.2c-1.8,1-1.8,2.6-1.8,4.4,0,1.6-.2,3.2-1.6,4.2-1.6,1-3,.4-4.4-.2-1.6-.6-3.2-1.4-4.8-.2-1.6,1-1.8,2.8-1.8,4.4s0,3.2-1.6,4.2-3,.4-4.4-.2c-1.6-.6-3.2-1.2-4.8,0s-1.6,2.8-1.6,4.6c0,1.6,0,3.2-1.4,4.2s-3,.6-4.4,0c-1.6-.6-3.2-1.2-4.8,0s-1.6,3-1.4,4.6c0,1.6.2,3.2-1.2,4.4s-2.8.6-4.4.2-3.2-1-4.8.2-1.4,3-1.4,4.6c.2,1.6.2,3.2-1.2,4.2s-2.8.8-4.4.2c-1.6-.4-3.2-.8-4.8.4-1.4,1.2-1.2,3-1.2,4.6.2,1.6.4,3.2-1,4.4s-2.8.8-4.4.4-3.4-.8-4.8.4c-1.4,1.4-1.2,3-1,4.8.2,1.6.4,3.2-.8,4.4-1.4,1.2-2.8,1-4.4.6s-3.4-.6-4.8.6c-1.4,1.4-1.2,3-.8,4.8.2,1.6.6,3.2-.8,4.4-1.2,1.2-2.8,1-4.4.8s-3.4-.6-4.6.8c-1.4,1.4-1,3.2-.6,4.8s.6,3.2-.6,4.4-2.8,1-4.4.8-3.4-.4-4.8,1-.8,3.2-.4,4.8.8,3-.4,4.4-2.8,1.2-4.4,1-3.4-.4-4.6,1.2-.8,3.2-.4,4.8.8,3-.2,4.4c-1.2,1.4-2.6,1.2-4.2,1.2-1.6-.2-3.4-.2-4.6,1.2-1.2,1.6-.8,3.2-.2,4.8.4,1.6,1,3-.2,4.4s-2.6,1.4-4.4,1.2c-1.6,0-3.4-.2-4.6,1.4s-.6,3.2,0,4.8,1,3,0,4.4-2.6,1.4-4.2,1.4-3.4,0-4.6,1.6-.6,3.2,0,4.8,1.2,3,.2,4.4c-1,1.6-2.6,1.6-4.2,1.6s-3.4.2-4.4,1.8-.4,3.2.2,4.8,1.2,3,.2,4.4c-1,1.6-2.6,1.6-4.2,1.6-1.8,0-3.4.2-4.4,1.8l-1-.6c2.6-4.4,5.2-8.6,8-12.8l8.4-12.6c2.8-4.2,5.8-8.2,8.8-12.4s6-8,9.2-12,6.4-7.8,9.6-11.8c3.2-3.8,6.6-7.6,10-11.4s6.8-7.4,10.4-11.2c3.4-3.6,7-7.2,10.6-10.8s7.4-7,11-10.4c3.8-3.4,7.6-6.8,11.4-10s7.8-6.4,11.6-9.6h0c4-3.2,8-6.2,12-9.2s8.2-6,12.4-8.8l12.6-8.4C238.22,92.75,242.62,90.15,246.82,87.55Z" style="fill:#182755"/><path d="M247.62,880.75l-.8,1.2c-4.4-2.6-8.6-5.2-13-7.8l-12.6-8.4c-4.2-2.8-8.2-5.8-12.4-8.8-4-3-8-6-12-9.2-8-6.4-15.6-12.8-23-19.6-3.8-3.4-7.4-6.8-11-10.4s-7.2-7.2-10.6-10.8c-3.6-3.6-7-7.4-10.4-11-3.4-3.8-6.8-7.6-10-11.4s-6.4-7.8-9.6-11.8-6.2-8-9.2-12l1-.8c1.2,1.6,3,1.6,4.6,1.4,1.6,0,3.2-.2,4.4,1.2s.6,2.8.2,4.4-1,3.2.2,4.8,3,1.4,4.6,1.4c1.6-.2,3.2-.2,4.2,1.2s.8,2.8.2,4.4c-.4,1.6-.8,3.2.4,4.8,1.2,1.4,3,1.2,4.6,1.2,1.6-.2,3.2-.4,4.4,1s.8,2.8.4,4.4-.8,3.4.4,4.8c1.4,1.4,3,1.2,4.8,1,1.6-.2,3.2-.4,4.4.8s1,2.8.6,4.4-.6,3.4.6,4.8c1.4,1.4,3,1.2,4.8.8,1.6-.2,3.2-.6,4.4.8,1.2,1.2,1,2.8.8,4.4s-.6,3.4.8,4.8,3.2,1,4.8.6,3.2-.6,4.4.6,1,2.8.8,4.4-.4,3.4,1,4.8c1.4,1.2,3.2.8,4.8.4s3-.8,4.4.4,1.2,2.8,1,4.4-.4,3.4,1.2,4.6c1.4,1.2,3.2.8,4.8.4s3-.8,4.4.2,1.2,2.6,1.2,4.2c-.2,1.6-.2,3.4,1.2,4.6,1.6,1.2,3.2.8,4.8.2,1.6-.4,3-1,4.4.2s1.4,2.6,1.2,4.4c0,1.6-.2,3.4,1.4,4.6s3.2.6,4.8,0,3-1,4.4,0,1.4,2.6,1.4,4.2,0,3.4,1.6,4.6,3.2.6,4.8,0,3-1,4.4-.2c1.6,1,1.6,2.6,1.6,4.2s.2,3.4,1.8,4.4,3.2.4,4.8-.2,3-1.2,4.4-.2c1.6,1,1.6,2.6,1.6,4.2C245.82,878.15,245.82,880,247.62,880.75Z" style="fill:#182755"/><path d="M68.42,292c.8,1.4,1.6,2.8.8,4.4s-2.2,2-3.8,2.2c-1.6.4-3.4.6-4.2,2.4s0,3.2,1,4.6c.8,1.4,1.8,2.8,1,4.4s-2.2,2-3.8,2.4-3.4.8-4,2.6c-.8,1.8.2,3.2,1.2,4.6s1.8,2.6,1.2,4.2-2.2,2-3.8,2.4-3.2.8-4,2.8c-.6,1.8.4,3.2,1.4,4.6s2,2.6,1.4,4.2c-.6,1.8-2,2.2-3.6,2.6s-3.2,1-3.8,2.8.4,3.2,1.4,4.6c1,1.2,2,2.4,1.6,4.2s-2,2.2-3.6,2.8-3.2,1-3.8,3c-.6,1.8.6,3.2,1.6,4.4s2,2.4,1.6,4.2-2,2.2-3.6,2.8-3.2,1.2-3.6,3c-.4,2,.8,3.2,1.8,4.4,1.2,1.2,2.2,2.4,1.8,4.2s-1.8,2.4-3.4,3S34,385,33.62,387s.8,3.2,1.8,4.4c1.2,1.2,2.2,2.2,2,4-.4,1.8-1.8,2.4-3.2,3-1.6.6-3,1.4-3.4,3.4s.8,3.2,2,4.4,2.2,2.2,2,4c-.4,1.8-1.8,2.4-3.2,3.2-1.6.8-3,1.4-3.4,3.4-.2,2,1,3.2,2.2,4.2,1.2,1.2,2.4,2.2,2.2,4s-1.6,2.4-3,3.2-3,1.6-3.2,3.6,1,3,2.2,4.2c1.2,1,2.4,2,2.2,3.8s-1.4,2.6-2.8,3.4-3,1.6-3,3.6c-.2,2,1.2,3,2.4,4.2,1.2,1,2.4,2,2.4,3.8-.2,1.8-1.4,2.6-2.8,3.4s-3,1.8-3,3.8,1.4,3,2.6,4c1.4,1,2.6,2,2.6,3.8s-1.4,2.6-2.8,3.6-2.8,1.8-2.8,3.8,1.4,3,2.8,4,2.6,1.8,2.6,3.6-1.2,2.6-2.6,3.6-2.8,2-2.8,4H22v-15.2c0-5,.2-10,.4-15.2.2-5,.6-10,1-15.2h0v-.4c.4-5,.8-9.8,1.4-14.8s1.2-10,2-15l2.4-15c.8-5,1.8-10,3-14.8,1-5,2.2-9.8,3.6-14.8,1.2-4.8,2.6-9.8,4-14.6s3-9.8,4.4-14.4c1.6-4.8,3.2-9.6,5-14.4,1.6-4.8,3.6-9.4,5.4-14.2,3.8-9.4,7.8-18.6,12.2-27.8l1,.4C66.82,289.15,67.62,290.55,68.42,292Z" style="fill:#182755"/><path d="M69.42,673.15c.8,1.6,0,3-.8,4.4s-1.8,3-1,4.8l-1,.4c-4.4-9.2-8.4-18.4-12.2-27.8-1.8-4.6-3.6-9.4-5.4-14.2s-3.4-9.6-5-14.4-3-9.6-4.4-14.6c-1.4-4.8-2.8-9.8-4-14.6s-2.4-9.8-3.6-14.8-2-9.8-3-14.8-1.8-10-2.4-15c-.8-5-1.4-10-2-15-.6-4.8-1-9.8-1.4-14.8v-.4h0c-.4-5-.6-10-1-15-.2-5-.4-10.2-.4-15.2V492h1.6c0,2,1.6,3,2.8,3.8,1.4,1,2.6,1.8,2.8,3.6,0,1.8-1.2,2.8-2.6,3.6-1.4,1-2.8,2-2.6,4,0,2,1.6,2.8,3,3.8,1.4.8,2.8,1.6,2.8,3.4.2,1.8-1,2.8-2.4,3.8s-2.6,2.2-2.4,4c.2,2,1.6,2.8,3,3.6s2.8,1.6,2.8,3.4c.2,1.8-1,2.8-2.2,3.8-1.2,1.2-2.6,2.2-2.2,4.2.2,2,1.8,2.8,3.2,3.6s2.8,1.4,3,3.2-1,2.8-2.2,4-2.6,2.4-2.2,4.2c.2,2,1.8,2.8,3.4,3.4,1.6.8,3,1.4,3.2,3.2.4,1.8-.8,2.8-2,4s-2.4,2.4-2,4.4,2,2.6,3.4,3.4c1.4.6,2.8,1.2,3.2,3s-.8,2.8-2,4-2.4,2.4-1.8,4.4,2,2.6,3.6,3.2,3,1.2,3.4,3-.6,2.8-1.8,4.2c-1.2,1.2-2.2,2.6-1.8,4.4.4,2,2,2.6,3.6,3.2s3,1,3.6,2.8c.4,1.8-.6,3-1.6,4.2s-2.2,2.6-1.6,4.6c.6,1.8,2.2,2.4,3.8,3,1.6.4,3,1,3.6,2.8.4,1.8-.4,3-1.6,4.2-1,1.4-2,2.6-1.4,4.6.6,1.8,2.2,2.4,3.8,2.8s3,.8,3.6,2.6-.4,3-1.4,4.2c-1,1.4-2,2.8-1.4,4.6s2.2,2.4,3.8,2.8,3.2.8,3.8,2.4-.2,3-1.2,4.2c-1,1.4-1.8,2.8-1.2,4.6.8,1.8,2.4,2.2,4,2.6s3,.8,3.8,2.4c.6,1.6-.2,3-1,4.4s-1.8,2.8-1,4.6,2.6,2.2,4.2,2.4C67,671.15,68.62,671.55,69.42,673.15Z" style="fill:#182755"/><path d="M89.42,252.15c.6,1.4,1.4,2.8.4,4.4-.8,1.6-2.4,1.6-4,1.8s-3.4.4-4.4,2-.2,3.2.4,4.8c.6,1.4,1.4,2.8.6,4.4s-2.4,1.8-4,2-3.4.4-4.2,2.2,0,3.2.8,4.8c.8,1.4,1.6,2.8.6,4.4-.8,1.6-2.4,1.8-4,2s-3.4.6-4.2,2.4l-1-.4c2.2-4.6,4.4-9,6.8-13.6,4.6-9,9.6-17.8,14.8-26.4l1,.6C88,249,88.62,250.55,89.42,252.15Z" style="fill:#182755"/><path d="M114.22,750.55c1,1.4.6,3,0,4.4-.6,1.6-1.2,3.2,0,4.8l-1,.8c-3-4-6-8.2-8.8-12.2L96,735.75c-2.8-4.2-5.4-8.6-8-12.8l1-.6c1,1.8,2.6,1.8,4.4,2,1.6,0,3.2.2,4.2,1.6,1,1.6.4,3-.2,4.4-.6,1.6-1.4,3.2-.2,4.8,1,1.6,2.8,1.8,4.4,1.8s3.2,0,4.2,1.6.4,3-.2,4.4c-.6,1.6-1.2,3.2,0,4.8s2.8,1.6,4.6,1.6A4,4,0,0,1,114.22,750.55Z" style="fill:#182755"/><path d="M182.82,115.75l3.8,4.6c-.2.2-.4.2-.4.4q-17.7,14.7-34.2,31.2c-7.2,7.2-14.2,14.8-21,22.6-3.4,3.8-6.6,7.8-10,11.8l-9.6,12c-3.2,4-6.2,8.2-9.2,12.4s-5.8,8.4-8.8,12.6c-2.8,4.2-5.6,8.6-8.4,13s-5.4,8.8-8,13.2-5,9-7.4,13.4c-2.4,4.6-4.8,9-7,13.6-2.4,4.6-4.4,9.2-6.6,14-2.2,4.6-4.2,9.4-6.2,14.2s-3.8,9.6-5.6,14.4-3.6,9.6-5.2,14.4-3.2,9.8-4.8,14.6c-1.6,5-3,9.8-4.2,14.8-2.8,10-5,20-7.2,30A444.57,444.57,0,0,0,14,485a444.57,444.57,0,0,0,8.8,92q3,15,7.2,30c1.4,5,2.8,10,4.2,14.8,1.6,5,3,9.8,4.8,14.6,1.6,4.8,3.4,9.6,5.2,14.4s3.8,9.6,5.8,14.4,4,9.4,6.2,14,4.4,9.4,6.6,14,4.6,9.2,7,13.8,4.8,9,7.4,13.4,5.2,8.8,8,13.2c2.6,4.4,5.4,8.6,8.4,13,2.8,4.2,5.8,8.4,8.8,12.6s6,8.4,9.2,12.4,6.2,8,9.6,12c3.2,4,6.6,8,10,11.8,6.8,7.8,13.8,15.2,21,22.6a421.7,421.7,0,0,0,34.2,31.2c.2.2.4.2.4.4l-3.8,4.6c-107-88-175.2-220.8-175.2-369.4S76,203.35,182.82,115.75Z" style="fill:#182755"/><path d="M89.82,713c.8,1.6.2,3-.4,4.4s-1.4,3-.4,4.8l-1,.6c-5.2-8.6-10.2-17.6-14.8-26.4-2.4-4.4-4.6-9-6.8-13.6l1-.4c.8,1.8,2.4,2,4.2,2.4,1.6.2,3.2.4,4,2s0,3-.8,4.4-1.6,3-.6,4.8c.8,1.8,2.6,2,4.2,2.2s3.2.4,4,2,0,3-.6,4.4c-.8,1.4-1.4,3-.4,4.8,1,1.6,2.8,1.8,4.4,2C87.42,711.15,89,711.35,89.82,713Z" style="fill:#182755"/></g></g></g></svg>