<svg xmlns="http://www.w3.org/2000/svg" width="920" height="920" viewBox="0 0 920 920"><title>7_Middle_grinding_outer_920 (2)</title><g id="Layer_2" data-name="Layer 2"><g id="Layer_1-2" data-name="Layer 1"><g id="_7_Middle_grinding_outer_920" data-name="7_Middle_grinding_outer_920"><path d="M251,822c13,7.8,5.8,21.6,20.2,29,15,6.6,21.2-7.6,35.6-2.2,14.4,5.8,9.2,20.6,24.6,25.8,15.8,4.4,19.8-10.8,35-7.4,15,3.6,12.2,19,28.2,21.8,16.2,2,18-13.6,33.4-12.6,15.4,1.4,15,16.8,31.2,17.4,16.2-.6,15.8-16,31.2-17.4,15.6-1,17.2,14.6,33.4,12.6,16-3,13.2-18.2,28.2-21.8,15.2-3.4,19.2,11.8,35,7.4,15.4-5.2,10.4-20,24.8-25.8,14.4-5.6,20.8,8.8,35.6,2.2,14.4-7.6,7.2-21.4,20.6-29.2h0c13.4-7.2,21.6,5.6,35.2-3,13.2-9.4,3.8-22.2,16-32,4.8-3.8,9.2-4.2,13.8-4,6.8.4,13.6,2.2,21-4.4,11.8-11.2.4-22.6,11.2-34,10.4-11.6,22.8-1,33-13.6,10.2-12.8-3-22.6,6-35.2,8.4-13,22.4-4.2,30.6-18.4,8.2-14-6.4-21.8.8-35.6,6.4-14.2,21.6-7.6,27.4-22.8,6.2-15.2-9.6-20.6-4.6-35.4,4.2-15,20.2-10.8,23.8-26.6,3.8-15.8-12.6-19-9.8-34.2,1.8-15.4,18.4-13.6,19.4-29.8,1.4-16.2-15.4-16.8-14.8-32.4h0c-.4-15.2,16.2-16,14.8-32-1.2-16.2-17.6-14.4-19.4-30-2.8-15.2,13.6-18.4,10-34.2-3.6-16-19.6-11.6-23.8-26.6-5-14.6,10.8-20.2,4.6-35.4-5.8-15.2-21.2-8.6-27.4-22.8-2.8-5.2-2.2-9.6-1.2-13.8,1.8-6.8,5.4-13,.4-21.8-8-14.2-22.2-5.4-30.6-18.4-3.6-4.8-3.6-9.4-3.2-13.8.8-6.8,3.4-13.6-2.8-21.4-10.2-12.8-22.6-2-33-13.6-4.2-4.4-5-8.8-5-13.2-.2-7,1.2-14-6-20.8-12.2-10.8-22.6,1.2-34.6-8.6-4.6-3.6-6-7.8-7-11.8-1.4-7-.8-14.2-9-20-13.8-8.8-22,4.4-35.6-3.2h0c-13-7.8-5.8-21.6-20.2-29-15-6.6-21.2,7.6-35.6,2-14.4-5.8-9.2-20.6-24.8-25.8-15.8-4.4-19.8,10.8-35,7.4-15-3.6-12.2-18.8-28.2-21.8-16.2-2-18,13.6-33.4,12.6C475.6,43,476,27.6,459.8,27c-16.2.6-15.8,16-31.2,17.4-15.6,1-17.2-14.6-33.4-12.6C379.2,34.6,382,50,367,53.6c-15.2,3.4-19.2-11.8-35-7.4-15.4,5.4-10.2,20-24.8,25.8-14.4,5.6-20.8-8.8-35.6-2.2C257.2,77.4,264.4,91.2,251,99h0c-13.4,7.2-21.6-5.6-35.2,3-13.2,9.4-3.8,22.2-16,32-4.8,3.8-9.2,4.2-13.8,4-6.8-.4-13.6-2.2-21,4.4-11.8,11.2-.4,22.6-11.2,34-10.4,11.6-22.8,1-33,13.6-10.2,12.8,3,22.6-6,35.2-8.4,13-22.4,4.2-30.6,18.4-8.2,14,6.4,21.8-.8,35.6C77,293.4,61.8,286.8,56,302c-6,15.2,9.6,20.6,4.6,35.4C56.4,352.4,40.4,348,37,364c-3.8,15.8,12.6,19,9.8,34.2C45,413.6,28.4,411.8,27.4,428c-1.4,16.2,15.4,16.8,14.8,32.4h0c.4,15.2-16.2,16-14.8,32,1.2,16.2,17.6,14.4,19.4,30,1.2,6.6-1.2,11-4,15.2-3.6,5.2-8,10.2-5.8,19.2,3.6,16,19.6,11.6,23.8,26.6,5,14.6-10.8,20.2-4.6,35.4,5.8,15.2,21.2,8.6,27.4,22.8,7.2,13.8-7.6,21.6.8,35.6,8,14.2,22.2,5.4,30.6,18.4,3.4,5,3.6,9.4,3.2,13.8-.8,6.8-3.4,13.6,2.8,21.4,10.2,12.8,22.6,2,33,13.6,4.2,4.4,5,8.8,5.2,13.2.2,7-1.2,13.8,6,20.8,12.2,10.8,22.6-1.2,34.6,8.6,4.6,3.6,6,7.6,6.8,11.8,1.4,7,.8,14.2,9,20,13.4,8.8,21.8-4.6,35.4,3.2ZM917.4,464.2c1.4,1,2.6,1.8,2.6,3.6s-1.4,2.6-2.8,3.6-2.8,1.8-2.8,3.8,1.4,3,2.6,4,2.6,2,2.6,3.8-1.4,2.6-2.8,3.4-3,1.8-3,3.6c-.2,2,1.2,3,2.4,4,1.4,1,2.4,2,2.4,3.8-.2,1.8-1.4,2.6-2.8,3.4s-3,1.6-3,3.6c-.2,2,1.2,3,2.4,4.2s2.4,2.2,2.2,3.8c-.2,1.8-1.6,2.6-3,3.2-1.6.8-3,1.6-3.2,3.4-.2,2,1,3,2.2,4.2s2.4,2.2,2.2,4-1.6,2.4-3,3.2c-1.6.8-3,1.4-3.4,3.4-.4,1.8,1,3,2,4.2,1.2,1.2,2.2,2.2,2,4-.4,1.8-1.8,2.4-3.2,3.2-1.6.6-3,1.4-3.4,3.2-.4,2,1,3.2,2,4.4s2.2,2.4,1.8,4c-.4,1.8-1.8,2.4-3.4,3s-3.2,1.2-3.6,3.2c-.4,1.8.8,3.2,1.8,4.4s2.2,2.4,1.8,4.2-1.8,2.4-3.4,2.8c-1.6.6-3.2,1.2-3.8,3s.6,3.2,1.6,4.4,2,2.4,1.6,4.2-2,2.2-3.6,2.8-3.2,1-3.8,3,.6,3.2,1.6,4.6c1,1.2,2,2.6,1.4,4.2s-2,2.2-3.6,2.6-3.2,1-4,2.8c-.6,1.8.4,3.2,1.4,4.6s2,2.6,1.4,4.2c-.6,1.8-2,2.2-3.6,2.6s-3.4.8-4,2.6c-.8,1.8.2,3.2,1.2,4.6s1.8,2.6,1,4.4c-.6,1.8-2.2,2-3.8,2.4s-3.4.8-4,2.6c-.8,1.8.2,3.2,1.2,4.6.8,1.4,1.6,2.6,1,4.4-.8,1.6-2.2,2-4,2.2-1.6.2-3.4.6-4.2,2.4s0,3.2,1,4.6c.8,1.4,1.6,2.8.8,4.4s-2.2,2-3.8,2.2-3.4.4-4.2,2.2,0,3.2.8,4.6,1.6,2.8.6,4.4c-.8,1.6-2.4,1.8-4,2s-3.4.4-4.2,2.2,0,3.2.6,4.8c.8,1.4,1.4,2.8.4,4.4-.8,1.6-2.4,1.8-4,1.8-1.6.2-3.4.2-4.4,2-1,1.6-.2,3.2.4,4.8.6,1.4,1.4,3,.4,4.4-1,1.6-2.4,1.6-4.2,1.8s-3.4.2-4.4,1.8-.4,3.2.2,4.8,1.2,3,.2,4.4-2.6,1.6-4.2,1.6-3.4,0-4.4,1.8c-1,1.6-.4,3.2.2,4.8s1,3,0,4.4-2.6,1.4-4.2,1.4-3.4,0-4.6,1.6-.6,3.2,0,4.8,1,3,0,4.4-2.6,1.4-4.2,1.4-3.4-.2-4.6,1.4-.6,3.2-.2,4.8,1,3-.2,4.4-2.6,1.4-4.2,1.2-3.4-.2-4.6,1.2c-1.2,1.6-.8,3.2-.4,4.8s.8,3-.4,4.4-2.8,1.2-4.4,1-3.4-.4-4.6,1.2c-1.2,1.4-.8,3.2-.4,4.8s.8,3.2-.4,4.4-2.8,1-4.4.8-3.4-.4-4.8.8c-1.4,1.4-1,3-.6,4.8.4,1.6.6,3.2-.6,4.4-1.2,1.4-2.8,1-4.4.8s-3.4-.6-4.6.8c-1.4,1.4-1,3-.8,4.6s.6,3.2-.8,4.4c-1.2,1.2-2.8,1-4.4.6s-3.2-.8-4.8.6c-1.4,1.4-1.2,3-1,4.8.2,1.6.4,3.2-.8,4.4-1.4,1.2-2.8.8-4.4.4s-3.4-.8-4.8.4-1.2,3-1,4.6.4,3.2-1,4.4-2.8.8-4.4.4-3.2-.8-4.8.4-1.4,2.8-1.2,4.6c.2,1.6.2,3.2-1.2,4.2s-3,.6-4.4.2c-1.6-.4-3.2-1-4.8.2s-1.4,3-1.4,4.6.2,3.2-1.4,4.2c-1.4,1-3,.6-4.4,0-1.6-.6-3.2-1.2-4.8,0s-1.6,2.8-1.6,4.6c0,1.6,0,3.2-1.4,4.2s-3,.6-4.4,0c-1.6-.6-3.2-1.2-4.8-.2s-1.6,2.8-1.8,4.4c0,1.6,0,3.2-1.6,4.2s-3,.4-4.4-.2c-1.6-.6-3.2-1.4-4.8-.2-1.6,1-1.8,2.8-1.8,4.4s-.2,3.2-1.8,4.2c-1.6.8-3,.2-4.4-.4-1.6-.8-3-1.4-4.8-.4-1.6,1-1.8,2.6-2,4.4-.2,1.6-.2,3.2-1.8,4-1.6,1-3,.2-4.4-.4-1.4-.8-3-1.6-4.8-.6-1.8.8-2,2.6-2.2,4.2s-.4,3.2-2,4-3,0-4.4-.6c-1.4-.8-3-1.6-4.8-.8s-2,2.6-2.2,4.2-.4,3.2-2.2,3.8c-1.6.8-3,0-4.4-.8s-3-1.8-4.6-1c-1.8.8-2,2.4-2.4,4.2-.2,1.6-.6,3.2-2.2,4s-3,0-4.4-1c-1.4-.8-2.8-1.8-4.6-1.2-1.8.8-2.2,2.4-2.6,4s-.8,3-2.4,3.8-3-.2-4.4-1c-1.4-1-2.8-2-4.6-1.2-1.8.6-2.2,2.4-2.6,4s-.8,3-2.6,3.6-3-.4-4.2-1.4c-1.4-1-2.8-2-4.6-1.4s-2.4,2.2-2.8,3.8-1,3-2.6,3.6c-1.8.6-3-.4-4.2-1.4s-2.6-2.2-4.6-1.6c-1.8.6-2.4,2.2-3,3.8s-1,3-2.8,3.6c-1.8.4-3-.4-4.2-1.6-1.2-1-2.6-2.2-4.4-1.6s-2.4,2.2-3,3.8-1.2,3-2.8,3.4c-1.8.4-3-.6-4.2-1.8s-2.6-2.2-4.4-1.8-2.6,2-3.2,3.6-1.2,3-3,3.4-2.8-.6-4-1.8-2.4-2.4-4.4-2c-1.8.4-2.6,2-3.2,3.4s-1.2,3-3,3.2c-1.8.4-2.8-.8-4-2s-2.4-2.4-4.2-2c-2,.4-2.6,2-3.4,3.4-.8,1.6-1.4,2.8-3.2,3s-2.8-1-4-2.2-2.2-2.6-4.2-2.2c-2,.2-2.8,1.8-3.4,3.2-.8,1.4-1.6,2.8-3.2,3-1.8.2-2.8-1-3.8-2.2s-2.2-2.6-4.2-2.4-2.8,1.6-3.6,3-1.6,2.8-3.4,2.8c-1.8.2-2.8-1-3.8-2.4-1-1.2-2.2-2.6-4-2.4-2,.2-2.8,1.6-3.6,3s-1.6,2.8-3.4,2.8-2.8-1.2-3.8-2.6-2-2.8-4-2.6c-2,0-2.8,1.4-3.8,2.8s-1.8,2.6-3.6,2.8c-1.8,0-2.8-1.2-3.6-2.6-1-1.4-2-2.8-3.8-2.6-2,0-3,1.4-3.8,2.6-1,1.4-1.8,2.6-3.6,2.6s-2.6-1.4-3.6-2.8-1.8-2.8-3.8-2.8-3,1.4-4,2.6c-1,1.4-2,2.6-3.8,2.6s-2.6-1.4-3.4-2.8-1.8-3-3.6-3c-2-.2-3,1.2-4,2.4-1,1.4-2,2.4-3.8,2.4-1.8-.2-2.6-1.4-3.4-2.8s-1.6-3-3.6-3c-2-.2-3,1.2-4.2,2.4s-2.2,2.4-4,2.2-2.6-1.6-3.2-3c-.8-1.6-1.6-3-3.4-3.2-2-.2-3,1-4.2,2.2s-2.2,2.4-4,2.2-2.4-1.6-3.2-3c-.8-1.6-1.4-3-3.4-3.4-1.8-.4-3,1-4.2,2-1.2,1.2-2.2,2.2-4,2-1.8-.4-2.4-1.8-3-3.2-.6-1.6-1.4-3-3.2-3.4-2-.4-3.2,1-4.4,2s-2.4,2.2-4,1.8c-1.8-.4-2.4-1.8-3-3.4s-1.2-3.2-3.2-3.6c-1.8-.4-3.2.8-4.4,1.8s-2.4,2.2-4.2,1.8-2.4-1.8-2.8-3.4c-.6-1.6-1.2-3.2-3-3.8s-3.2.6-4.4,1.6-2.4,2-4.2,1.6-2.2-2-2.8-3.6-1-3.2-3-3.8c-1.8-.6-3.2.6-4.6,1.6-1.2,1-2.6,2-4.2,1.4-1.8-.6-2.2-2-2.6-3.6s-1-3.2-2.8-4c-1.8-.6-3.2.4-4.6,1.4s-2.6,2-4.4,1.4-2.2-2-2.6-3.6-.8-3.4-2.6-4c-1.8-.8-3.2.2-4.6,1.2s-2.6,1.8-4.4,1c-1.6-.6-2-2.2-2.4-3.8s-.8-3.2-2.6-4-3.2.2-4.6,1.2c-1.4.8-2.6,1.6-4.4,1-1.6-.8-2-2.2-2.2-4-.2-1.6-.6-3.4-2.4-4.2s-3.2,0-4.6,1c-1.4.8-2.8,1.6-4.4.8s-2-2.2-2.2-3.8-.4-3.4-2.2-4.2-3.2,0-4.8.8c-1.4.8-2.8,1.6-4.4.6-1.6-.8-1.8-2.4-2-4s-.4-3.4-2.2-4.2-3.2,0-4.8.6c-1.4.8-2.8,1.4-4.4.4-1.6-.8-1.6-2.4-1.8-4s-.2-3.4-2-4.4c-1.6-1-3.2-.2-4.8.4-1.4.6-2.8,1.4-4.4.4s-1.6-2.4-1.8-4.2c0-1.6-.2-3.4-1.8-4.4s-3.2-.4-4.8.2-3,1.2-4.4.2-1.6-2.6-1.6-4.2,0-3.4-1.8-4.4c-1.6-1-3.2-.4-4.8.2s-3,1-4.4,0-1.4-2.6-1.4-4.2,0-3.4-1.6-4.6-3.2-.6-4.8,0-3,1-4.4,0-1.4-2.6-1.4-4.2c0-1.8.2-3.4-1.4-4.6s-3.2-.6-4.8-.2-3,1-4.4-.2-1.4-2.6-1.2-4.2.2-3.4-1.2-4.6c-1.6-1.2-3.2-.8-4.8-.4s-3,.8-4.4-.4-1.2-2.8-1-4.4.4-3.4-1.2-4.6-3.2-.8-4.8-.4-3.2.8-4.4-.4c-1.4-1.2-1.2-2.8-.8-4.4.2-1.6.4-3.4-1-4.8s-3-1-4.8-.6c-1.6.4-3.2.6-4.4-.6-1.4-1.2-1-2.8-.8-4.4s.6-3.2-.8-4.6-3-1-4.6-.8-3.2.6-4.4-.8c-1.2-1.2-1-2.8-.6-4.4s.8-3.2-.6-4.8c-1.4-1.4-3-1.2-4.8-1-1.6.2-3.2.4-4.4-.8-1.2-1.4-.8-2.8-.4-4.4s.8-3.4-.4-4.8-3-1.2-4.6-1-3.2.4-4.4-1-.8-2.8-.4-4.4.8-3.2-.4-4.8-3-1.4-4.6-1.2-3.2.2-4.4-1.2-.6-3-.2-4.4c.4-1.6,1-3.2-.2-4.8s-3-1.4-4.6-1.4-3.2.2-4.2-1.4c-1-1.4-.6-3,0-4.4.6-1.6,1.2-3.2,0-4.8s-2.8-1.6-4.6-1.6c-1.6,0-3.2,0-4.2-1.4s-.6-3,0-4.4c.6-1.6,1.2-3.2.2-4.8s-2.8-1.6-4.4-1.8c-1.6,0-3.2,0-4.2-1.6s-.4-3,.2-4.4c.6-1.6,1.4-3.2.2-4.8-1-1.6-2.8-1.8-4.4-1.8s-3.2-.2-4-1.8c-1-1.6-.2-3,.4-4.4.6-1.6,1.4-3,.4-4.8-1-1.6-2.6-1.8-4.4-2-1.6-.2-3.2-.2-4-1.8s-.2-3,.4-4.4c.8-1.4,1.6-3,.6-4.8-.8-1.8-2.6-2-4.2-2.2s-3.2-.4-4-2,0-3,.6-4.4c.8-1.4,1.6-3,.8-4.8s-2.6-2-4.2-2.2-3.2-.4-3.8-2.2c-.8-1.6,0-3,.8-4.4s1.8-3,1-4.6c-.8-1.8-2.4-2-4.2-2.4-1.6-.2-3.2-.6-4-2.2s0-3,1-4.4c.8-1.4,1.8-2.8,1.2-4.6s-2.4-2.2-4-2.6-3.2-.8-3.8-2.4.2-3,1.2-4.4,1.8-2.8,1.2-4.6c-.8-1.8-2.4-2.2-4-2.6s-3-.8-3.6-2.6.4-3,1.4-4.2c1-1.4,2-2.8,1.4-4.6s-2.2-2.4-3.8-2.8-3-1-3.6-2.6c-.6-1.8.4-3,1.4-4.2,1-1.4,2.2-2.6,1.6-4.6-.6-1.8-2.2-2.4-3.8-3s-3-1-3.6-2.8c-.4-1.8.4-3,1.6-4.2,1-1.2,2.2-2.6,1.6-4.4s-2.2-2.4-3.8-3-3-1.2-3.4-2.8c-.4-1.8.6-3,1.8-4.2s2.2-2.6,1.8-4.4-2-2.6-3.6-3.2-3-1.2-3.4-3,.6-2.8,1.8-4,2.4-2.4,2-4.4c-.4-1.8-2-2.6-3.4-3.2s-2.8-1.2-3.2-3,.8-2.8,2-4,2.4-2.4,2-4.2c-.4-2-2-2.6-3.4-3.4-1.6-.8-2.8-1.4-3.2-3.2-.2-1.8,1-2.8,2.2-4s2.6-2.2,2.2-4.2c-.2-2-1.8-2.8-3.2-3.4-1.4-.8-2.8-1.4-3-3.2s1-2.8,2.2-3.8,2.6-2.2,2.4-4.2-1.6-2.8-3-3.6-2.8-1.6-2.8-3.4c-.2-1.8,1-2.8,2.4-3.8s2.6-2.2,2.4-4c-.2-2-1.6-2.8-3-3.6S.4,484.6.4,482.8,1.6,480,3,479s2.8-2,2.6-4c0-2-1.4-2.8-2.8-3.8S.2,469.4,0,467.6c0-1.8,1.2-2.8,2.6-3.6,1.4-1,2.8-2,2.6-3.8,0-2-1.4-3-2.6-3.8-1.4-1-2.6-1.8-2.6-3.6s1.4-2.6,2.8-3.6,2.8-1.8,2.8-3.8-1.4-3-2.6-4c-1.4-1-2.6-2-2.6-3.8s1.4-2.6,2.8-3.4,3-1.8,3-3.6c.2-2-1.2-3-2.4-4s-2.4-2-2.4-3.8c.2-1.8,1.4-2.6,2.8-3.4s3-1.6,3-3.6c.2-2-1.2-3-2.4-4.2-1.2-1-2.4-2.2-2.2-4s1.6-2.6,3-3.2c1.6-.8,3-1.6,3.2-3.4.2-2-1-3-2.2-4.2s-2.4-2.2-2.2-4,1.6-2.4,3.2-3.2,3-1.4,3.4-3.4c.4-1.8-.8-3-2-4.2s-2.2-2.2-2-4c.4-1.8,1.8-2.4,3.2-3.2,1.6-.6,3.2-1.4,3.4-3.2.4-2-1-3.2-2-4.4-1.2-1.2-2.2-2.4-1.8-4,.4-1.8,1.8-2.4,3.4-3s3.2-1.2,3.6-3.2c.4-1.8-.8-3.2-1.8-4.4-1.2-1.2-2.2-2.4-1.8-4.2s1.8-2.4,3.4-2.8c1.6-.6,3.2-1.2,3.8-3s-.6-3.2-1.6-4.4-2-2.4-1.6-4.2,2-2.2,3.6-2.8,3.2-1,3.8-3c.6-1.8-.6-3.2-1.6-4.6-1-1.2-2-2.6-1.4-4.2.6-1.8,2-2.2,3.6-2.6s3.2-1,4-2.8c.6-1.8-.4-3.2-1.4-4.6s-1.8-2.6-1.4-4.4c.6-1.8,2-2.2,3.6-2.6s3.4-.8,4-2.6c.8-1.8-.2-3.2-1.2-4.6-.8-1.4-1.8-2.6-1.2-4.4.6-1.6,2.2-2,3.8-2.4s3.4-.8,4-2.6c.8-1.8-.2-3.2-1.2-4.6-.8-1.4-1.6-2.6-1-4.4.8-1.6,2.2-2,4-2.2,1.6-.2,3.4-.6,4.2-2.4s-.2-3.2-1-4.6-1.6-2.8-.8-4.4,2.2-2,3.8-2.2,3.4-.4,4.2-2.2,0-3.2-.8-4.6-1.6-2.8-.6-4.4c.8-1.6,2.4-1.8,4-2s3.4-.4,4.2-2.2,0-3.2-.6-4.8-1.4-2.8-.4-4.4c.8-1.6,2.4-1.6,4-1.8s3.4-.2,4.4-2c1-1.6.2-3.2-.4-4.8-.8-1.4-1.4-2.8-.4-4.4.8-1.6,2.4-1.6,4-1.8,1.6,0,3.4-.2,4.4-1.8s.4-3.2-.2-4.8-1.2-3-.2-4.4c1-1.6,2.6-1.6,4.2-1.6s3.4,0,4.4-1.8c1-1.6.4-3.2-.2-4.8s-1.2-3,0-4.4c1-1.4,2.6-1.4,4.2-1.4s3.4,0,4.6-1.6.6-3.2,0-4.8-1-3,0-4.4c1-1.6,2.6-1.4,4.2-1.4,1.8,0,3.4.2,4.6-1.4s.6-3.2.2-4.8-1-3,.2-4.4,2.6-1.4,4.2-1.2,3.4.2,4.6-1.2c1.2-1.6.8-3.2.4-4.8s-.8-3,.4-4.4,2.8-1.2,4.4-1,3.4.4,4.6-1.2c1.2-1.4.8-3.2.4-4.8s-.8-3.2.4-4.4c1.2-1.4,2.8-1.2,4.4-.8,1.6.2,3.4.4,4.8-1s1-3,.6-4.8c-.4-1.6-.6-3.2.6-4.4,1.2-1.4,2.8-1,4.4-.8s3.4.6,4.6-.8c1.4-1.4,1.2-3,.8-4.6-.2-1.6-.6-3.2.8-4.4,1.2-1.2,2.8-1,4.4-.6s3.4.8,4.8-.6,1.2-3,.8-4.8c-.2-1.6-.4-3.2.8-4.4,1.4-1.2,2.8-.8,4.4-.4s3.4.8,4.8-.4,1.2-3,1-4.6-.4-3.2,1-4.4,2.8-.8,4.4-.4,3.2.8,4.8-.4,1.4-2.8,1.2-4.6c-.2-1.6-.2-3.2,1.2-4.4s2.8-.6,4.4-.2,3.2,1,4.8-.2,1.4-3,1.4-4.6-.2-3.2,1.4-4.2c1.4-1,3-.6,4.4,0,1.6.6,3.2,1.2,4.8,0s1.6-2.8,1.6-4.6c0-1.6,0-3.2,1.4-4.2s3-.6,4.4,0c1.6.6,3.2,1.2,4.8.2s1.6-2.8,1.8-4.4c0-1.6,0-3.2,1.6-4.2s3-.4,4.4.2c1.6.6,3.2,1.4,4.8.2,1.6-1,1.8-2.8,1.8-4.4s.2-3.2,1.8-4c1.6-1,3-.2,4.4.4,1.6.6,3,1.4,4.8.4,1.6-1,1.8-2.6,2-4.4.2-1.6.2-3.2,1.8-4s3-.2,4.4.4,3,1.6,4.8.6,2-2.6,2.2-4.2.4-3.2,2-4,3,0,4.4.6c1.4.8,3,1.6,4.8.8s2-2.6,2.2-4.2.4-3.2,2.2-3.8c1.6-.8,3,0,4.4.8s3,1.8,4.6,1c1.8-.8,2-2.4,2.4-4.2.2-1.6.6-3.2,2.2-4s3,0,4.4,1c1.4.8,2.8,1.8,4.6,1.2s2.2-2.4,2.6-4,.8-3.2,2.4-3.8,3,.2,4.4,1.2,2.8,1.8,4.6,1.2,2.2-2.4,2.6-4,.8-3,2.6-3.6,3,.4,4.4,1.4,2.8,2,4.6,1.4,2.4-2.2,2.8-3.8.8-3,2.6-3.6,3,.4,4.2,1.4,2.6,2.2,4.6,1.6c1.8-.6,2.4-2.2,3-3.8s1-3,2.8-3.6c1.8-.4,3,.4,4.2,1.6,1.2,1,2.6,2.2,4.4,1.6s2.4-2.2,3-3.8,1.2-3,2.8-3.4c1.8-.4,3,.6,4.2,1.8s2.6,2.2,4.4,1.8,2.6-2,3.2-3.6,1.2-3,3-3.4,2.8.6,4,1.8,2.4,2.4,4.4,2c1.8-.4,2.6-2,3.2-3.4s1.2-2.8,3-3.2,2.8.8,4,2,2.4,2.4,4.2,2c2-.4,2.6-2,3.4-3.4.8-1.6,1.4-2.8,3.2-3.2,1.8-.2,2.8,1,4,2.2s2.2,2.6,4.2,2.2c2-.2,2.8-1.8,3.4-3.2.8-1.4,1.6-2.8,3.2-3,1.8-.2,2.8,1,3.8,2.2s2.2,2.6,4.2,2.4,2.8-1.6,3.6-3,1.6-2.8,3.4-2.8c1.8-.2,2.8,1,3.8,2.4s2.2,2.6,4,2.4c2-.2,2.8-1.6,3.6-3S435.2.4,437,.4s2.8,1.2,3.8,2.6,2,2.8,4,2.6c2,0,2.8-1.4,3.8-2.8S450.4.2,452.2,0c1.8,0,2.8,1.2,3.6,2.6,1,1.4,2,2.8,3.8,2.6,2,0,3-1.4,3.8-2.6,1-1.4,1.8-2.6,3.6-2.6s2.6,1.4,3.6,2.8,1.8,2.8,3.8,2.8,3-1.4,4-2.6c1-1.4,2-2.6,3.8-2.6s2.6,1.4,3.4,2.8,1.8,3,3.6,3c2,.2,3-1.2,4-2.4s2-2.4,3.8-2.4,2.6,1.4,3.4,2.8,1.6,3,3.6,3c2,.2,3-1.2,4.2-2.4,1-1.2,2.2-2.4,3.8-2.2,1.8.2,2.6,1.6,3.2,3,.8,1.4,1.6,3,3.4,3.2,2,.2,3-1,4.2-2.2s2.2-2.4,4-2.2S529.2,6,530,7.6s1.4,3,3.4,3.4c1.8.4,3-.8,4.2-2s2.2-2.2,4-2c1.8.4,2.4,1.8,3.2,3.2.6,1.6,1.4,3,3.2,3.4,2,.4,3.2-1,4.4-2,1.2-1.2,2.4-2.2,4-1.8,1.8.4,2.4,1.8,3,3.4s1.2,3.2,3.2,3.6c1.8.4,3.2-.8,4.4-1.8,1.2-1.2,2.4-2.2,4.2-1.8s2.4,1.8,2.8,3.4c.6,1.6,1.2,3.2,3,3.8s3.2-.6,4.4-1.6,2.4-2,4.2-1.6,2.2,2,2.8,3.6,1,3.2,3,3.8c1.8.6,3.2-.6,4.6-1.6,1.2-1,2.6-2,4.2-1.4,1.8.6,2.2,2,2.6,3.6s1,3.2,2.8,4c1.8.6,3.2-.4,4.6-1.4s2.6-1.8,4.2-1.4c1.8.6,2.2,2,2.6,3.6s.8,3.4,2.6,4c1.8.8,3.2-.2,4.6-1.2,1.4-.8,2.6-1.8,4.4-1.2s2,2.2,2.4,3.8.8,3.4,2.6,4c1.8.8,3.2-.2,4.6-1.2,1.4-.8,2.6-1.6,4.4-1,1.6.8,2,2.2,2.2,4,.2,1.6.6,3.4,2.4,4.2s3.2-.2,4.6-1,2.8-1.6,4.4-.8,2,2.2,2.2,3.8.4,3.4,2.2,4.2,3.2,0,4.6-.8,2.8-1.6,4.4-.6c1.6.8,1.8,2.4,2,4s.4,3.4,2.2,4.2,3.2,0,4.8-.6c1.4-.8,2.8-1.4,4.4-.4,1.6.8,1.8,2.4,1.8,4,.2,1.6.2,3.4,2,4.4,1.6,1,3.2.2,4.8-.4,1.4-.8,3-1.4,4.4-.4,1.6.8,1.6,2.4,1.8,4,0,1.6.2,3.4,1.8,4.4s3.2.4,4.8-.2,3-1.2,4.4-.2c1.6,1,1.6,2.6,1.6,4.2s0,3.4,1.8,4.4c1.6,1,3.2.4,4.8-.2s3-1.2,4.4,0c1.4,1,1.4,2.6,1.4,4.2s0,3.4,1.6,4.6,3.2.6,4.8,0,3-1,4.4,0,1.4,2.6,1.4,4.2c0,1.8-.2,3.4,1.4,4.6s3.2.6,4.8.2,3-1,4.4.2,1.4,2.6,1.2,4.2-.2,3.4,1.2,4.6c1.6,1.2,3.2.8,4.8.4s3-.8,4.4.4,1.2,2.8,1,4.4-.4,3.4,1.2,4.6c1.4,1.2,3.2.8,4.8.4s3.2-.8,4.4.4c1.4,1.2,1.2,2.8.8,4.4-.2,1.6-.4,3.4.8,4.8,1.4,1.4,3,1,4.8.6,1.6-.4,3.2-.6,4.4.6s1,2.8.8,4.4-.6,3.4.8,4.6c1.4,1.4,3,1.2,4.6.8,1.6-.2,3.2-.6,4.4.8,1.2,1.2,1,2.8.6,4.4s-.8,3.4.6,4.8,3,1.2,4.6.8c1.6-.2,3.2-.4,4.4.8,1.2,1.4.8,2.8.4,4.4s-.8,3.4.4,4.8,3,1.2,4.6,1,3.2-.4,4.4,1,.8,2.8.4,4.4-.8,3.2.4,4.8,3,1.4,4.6,1.2,3.2-.2,4.2,1.2c1.2,1.4.6,2.8.2,4.4s-1,3.2.2,4.8,3,1.4,4.6,1.4,3.2-.2,4.2,1.4c1,1.4.6,3,0,4.4-.6,1.6-1.2,3.2,0,4.8s2.8,1.6,4.6,1.6c1.6,0,3.2,0,4.2,1.4s.6,3,0,4.4c-.6,1.6-1.2,3.2-.2,4.8s2.8,1.6,4.4,1.8c1.6,0,3.2,0,4.2,1.6s.4,3-.2,4.4c-.6,1.6-1.4,3.2-.2,4.8,1,1.6,2.8,1.8,4.4,1.8s3.2.2,4.2,1.8c.8,1.6.2,3-.4,4.4-.8,1.6-1.4,3-.4,4.8,1,1.6,2.6,1.8,4.4,2,1.6.2,3.2.2,4,1.8,1,1.6.2,3-.4,4.4-.8,1.4-1.6,3-.6,4.8.8,1.8,2.6,2,4.2,2.2s3.2.4,4,2,0,3-.6,4.4c-.8,1.4-1.6,3-.8,4.8s2.6,2,4.2,2.2,3.2.4,3.8,2.2c.8,1.6,0,3-.8,4.4s-1.8,3-1,4.6c.8,1.8,2.4,2,4.2,2.4,1.6.2,3.2.6,4,2.2s0,3-1,4.4c-.8,1.4-1.8,2.8-1.2,4.6.8,1.8,2.4,2.2,4,2.6s3,.8,3.8,2.4-.2,3-1,4.4c-1,1.4-2,2.8-1.2,4.6s2.4,2.2,4,2.6,3,.8,3.6,2.6-.4,3-1.4,4.4-2,2.8-1.4,4.6,2.2,2.4,3.8,2.8,3,1,3.6,2.6c.6,1.8-.4,3-1.4,4.2-1,1.4-2.2,2.6-1.6,4.6.6,1.8,2.2,2.4,3.8,3s3,1,3.6,2.8c.4,1.8-.4,3-1.6,4.2-1,1.2-2.2,2.6-1.6,4.4s2.2,2.4,3.8,3,3,1.2,3.4,2.8c.4,1.8-.6,3-1.8,4.2s-2.2,2.6-1.8,4.4,2,2.6,3.6,3.2,3,1.2,3.4,3-.6,2.8-1.8,4-2.4,2.4-2,4.4c.4,1.8,2,2.6,3.4,3.2s3,1.2,3.2,3c.4,1.8-.8,2.8-2,4s-2.4,2.4-2,4.2c.4,2,2,2.6,3.4,3.4,1.6.8,2.8,1.4,3,3.2s-1,2.8-2.2,4-2.6,2.2-2.2,4.2c.2,2,1.8,2.8,3.2,3.4,1.4.8,2.8,1.6,3,3.2.2,1.8-1,2.8-2.2,3.8s-2.6,2.2-2.4,4.2,1.6,2.8,3,3.6,2.8,1.6,2.8,3.4c.2,1.8-1,2.8-2.4,3.8-1.2,1-2.6,2.2-2.4,4,.2,2,1.6,2.8,3,3.6s2.8,1.6,2.8,3.4-1.2,2.8-2.6,3.8-2.8,2-2.6,4c0,2,1.4,2.8,2.8,3.8s2.6,1.8,2.8,3.6c0,1.8-1.2,2.8-2.6,3.6-1.4,1-2.8,2-2.6,3.8A6.85,6.85,0,0,0,917.4,464.2Zm-12-7c0-.4.2-1.4-.2-1.8-.4-.6-2.4,0-3,0h-2V458c0,.8,3.2.2,3.6.2l1.4-.2Zm-.4,8.4c.2,0,.4-1.2.4-2.4a2.43,2.43,0,0,1-1-.2l-2.8-.2c-.2,0-1-.2-1.2,0-.4.4,0,2.2,0,2.8v.2Zm-4,57.2c0-.4.4-1.4.2-1.8-.4-.6-2.4-.4-3-.4l-2-.2-.4,2.6c-.2.8,3.2.6,3.6.6h1.4Zm0-122.4c.2,0,.2-1.2,0-2.4h-1l-2.8.2c-.2,0-1-.2-1.2.2s.4,2.2.4,2.8v.2Zm-.6-7.6v-.6a5.84,5.84,0,0,0-.4-1.8c-.6-.4-2.4.2-3,.4l-2,.2.2,2.6c0,.8,3.2-.4,3.6-.4ZM899.6,531c.2,0,.6-1.2.8-2.4-.4-.2-1-.2-1-.4l-2.8-.6c-.2,0-1-.4-1.2-.2-.4.4-.4,2.2-.4,2.8v.2Zm-2.4-72.6c.2,0,1,.2.8-.4l-.2-2.4v-.2h-4.6c-.2,0-.2,1.4-.2,2.4Zm.6,7c.2-1.2.4-3-.2-3l-4,.4-.8.2v2.2c0,.6,2.4.4,2.6.4Zm-6.2-63.6,2.4-.4c0-1.2-.2-3-.6-3l-4,1-.8.2.2,2.2C889,402.4,891.2,401.8,891.6,401.8ZM893.8,520h0l-1.2-.2-3.4-.4c-.4,0-.4,1.2-.6,2.4l4.2,1c.2,0,1,.4,1-.2Zm-1.6-125.6c.2,0,1,0,.8-.4l-.6-2.4v-.2l-1.2.2-3.4.6c-.4,0,0,1.4.2,2.4Zm.2,135.4c.4-1.2.8-3,.2-3l-4-.2h-.8l-.4,2.2c0,.6,2.4.6,2.6.8ZM887,587c0-.4.6-1.4.4-1.8-.2-.6-2.4-.8-2.8-1l-1.8-.6L882,586c-.2.8,3.2,1,3.6,1.2l1.4.2Zm-.4-253.8c.2,0,0-1.2-.4-2.4a2.43,2.43,0,0,0-1,.2l-2.8.6c-.2,0-1,0-1.2.4s.6,2.2.8,2.6v.2Zm-1.2,259.6a3.38,3.38,0,0,0-1-.4l-2.6-1c-.2,0-.8-.6-1.2-.4-.4.4-.6,2.2-.8,2.6v.2l4.6,1.4A4.49,4.49,0,0,0,885.4,592.8Zm-.8-267.2-.2-.6a13.78,13.78,0,0,0-.6-1.6c-.6-.4-2.4.6-2.8.8l-1.8.6.6,2.4c.2.8,3.2-.8,3.6-1Zm-4.2,257.6h0l-1.2-.4-3.4-1c-.2,0-.6,1.2-1,2.2l4,1.6c.2.2.8.4,1,0Zm-3-247.2,2.2-.6c-.2-1.2-.6-3-1.2-2.8l-3.8,1.6-.8.4.6,2C875,337,877.2,336,877.4,336Zm.2,256.8c.6-1.2,1.2-2.8.6-3l-4-.8-.8-.2-.6,2c-.2.6,2.2,1,2.4,1Zm-.8-264.2c.2,0,1,0,.8-.6l-1-2.2v-.2l-1.2.4-3.2,1a4.07,4.07,0,0,0,.4,2.4ZM863,650.2c.2-.4.8-1.2.6-1.6-.2-.6-2.2-1.2-2.8-1.4l-1.8-.8-1.2,2.2c-.4.8,3,1.6,3.2,1.6l1.4.4Zm0-379c.2,0-.2-1.2-.8-2.4a2.68,2.68,0,0,1-1,.2l-2.6,1c-.2,0-1,.2-1.2.6-.2.6,1,2,1.2,2.4v.2Zm-3.2-7-.2-.6a11.88,11.88,0,0,0-.8-1.6c-.6-.2-2.2,1-2.8,1.2l-1.8.8,1,2.4c.4.8,3-1.2,3.4-1.6Zm.8,391.4a3.73,3.73,0,0,1-.8-.6l-2.4-1.4c-.2-.2-.8-.8-1.2-.6s-1,2-1.2,2.4v.2l4.4,2.2S860,656.6,860.6,655.6Zm-3.8-10.2h0l-1.2-.6-3.2-1.4c-.2-.2-.8,1-1.4,2.2l3.8,2.2c.2.2.8.6,1,0Zm-2.4-370.2,2.2-1c-.4-1.2-1-2.8-1.6-2.6l-3.4,2-.6.4.8,2C852,276.8,854,275.4,854.4,275.2Zm-1.8,379.2c.6-1,1.6-2.6,1-2.8l-3.8-1.4-.8-.2-1,2c-.2.6,2,1.4,2.2,1.4Zm0-386.2c.2,0,1-.2.6-.8l-1.2-2.2V265l-1.2.6-3,1.6c-.2.2.2,1.4.8,2.4ZM829.6,709a4.35,4.35,0,0,0,1-1.6c0-.6-2-1.4-2.4-1.8l-1.6-1-1.6,2c-.6.6,2.6,2,3,2.2l1.4.6Zm.8-495.6c.2-.2-.4-1.2-1-2.2a3.38,3.38,0,0,1-1,.4L826,213c-.2.2-1,.4-1,.8,0,.6,1.2,1.8,1.6,2.2l.2.2Zm-4.2-6.4-.4-.6c-.2-.2-.8-1.4-1-1.4-.6-.2-2,1.4-2.6,1.6l-1.6,1.2L822,210c.4.8,2.8-1.8,3-2Zm.2,506.8-.8-.8-2.2-1.8c-.2-.2-.6-.8-1-.8-.4.2-1.2,1.8-1.6,2.2v.2l4,2.8C824.8,715.8,825.6,714.8,826.4,713.8Zm-4-495,2-1.4c-.6-1.2-1.4-2.6-1.8-2.2l-3,2.6-.6.6,1.2,1.8C820.4,220.6,822.2,219,822.4,218.8Zm2,484.6h0l-1-.8-2.8-2c-.2-.2-1,1-1.6,2l3.4,2.8c.2.2.6.8,1,.2ZM819.8,212c.2-.2,1-.4.6-.8l-1.6-1.8v-.2l-1,.8-2.8,2c-.2.2.4,1.2,1.2,2.2Zm-1,499.6c.8-1,2-2.4,1.4-2.6l-3.6-2-.8-.4-1.2,1.8c-.4.4,1.8,1.6,2,1.8Zm-29-550.4c.2-.2-.6-1-1.4-2-.4.2-.8.6-1,.6l-2.2,1.8c-.2.2-1,.4-1,.8,0,.6,1.6,1.6,2,2h0ZM789,760.6c0-.6-1.8-1.8-2.2-2.2l-1.4-1.2-1.8,1.8c-.6.6,2.2,2.4,2.6,2.6l1.2.8.4-.4C788,761.8,789,761,789,760.6Zm-4.4-605.2-.4-.4c-.2-.2-1-1.2-1.2-1.2-.6-.2-1.8,1.6-2.2,2l-1.4,1.4,1.6,2c.6.6,2.4-2.2,2.8-2.4Zm-2,12.2,1.8-1.6c-.8-1-2-2.4-2.2-2l-2.6,3-.6.6,1.6,1.6C780.8,169.6,782.4,167.8,782.6,167.6Zm.8,588h0l-.8-1-2.6-2.4c-.2-.2-1.2.8-2,1.6l2.8,3.2c.2.2.6.8,1,.4Zm.4,10.8a3.45,3.45,0,0,1-.6-.8l-1.8-2.2c-.2-.2-.6-1-1-.8-.6,0-1.6,1.6-1.8,2v.2L782,768S782.8,767.2,783.8,766.4Zm-5-605c.2-.2.8-.4.4-.8l-1.8-1.6h0l-1,.8-2.4,2.4c-.2.2.6,1.2,1.4,2Zm-2.2,601.4c1-.8,2.2-2,1.8-2.4l-3.2-2.4-.6-.4-1.6,1.6c-.4.4,1.6,1.8,1.8,2ZM740.8,115c.2-.2-.8-1-1.8-1.8-.4.4-.8.6-.8.8l-2,2c-.2.2-.8.6-.8,1,.2.6,1.8,1.4,2.2,1.6h0Zm-1,692c.2-.6-1.6-2-1.8-2.4l-1.2-1.6-2,1.4c-.6.4,2,2.6,2.2,3l1,1,.4-.4A8.47,8.47,0,0,0,739.8,807Zm-5-684.6,1.6-1.8c-.8-.8-2.2-2-2.6-1.6l-2.2,3.4-.4.6,1.8,1.4C733.4,124.6,734.6,122.6,734.8,122.4Zm.4,678.6-.8-1-2.2-2.6c-.2-.2-1.2.6-2.2,1.2l2.4,3.6c.2.2.4.8.8.4l2-1.6Zm-1-689.8.8-1.2-.4-.4c-.2-.2-1-1-1.4-1-.6,0-1.6,2-1.8,2.4l-1.6,1.4,2,1.6C732.4,114.6,734,111.6,734.2,111.2Zm-.4,700.6a4.37,4.37,0,0,0-.6-1l-1.4-2.4c-.2-.2-.4-1-.8-1-.6,0-1.8,1.4-2.2,1.8v.2l3,3.8A20.53,20.53,0,0,0,733.8,811.8Zm-3.6-695c.2-.2.8-.6.2-1l-2-1.4h-.2l-.8,1-2.2,2.8c-.2.2.8,1,1.8,1.8Zm-3,690.6c1-.6,2.6-1.6,2.2-2l-2.8-2.8-.6-.6-1.8,1.4c-.4.4,1.2,2.2,1.4,2.4ZM687,843.6c.2-.6-1.2-2.2-1.4-2.6l-1-1.6-2.2,1.2c-.8.4,1.6,3,1.8,3.2l1,1.2.6-.4C685.8,844.4,686.8,844,687,843.6Zm0-766.4c.2-.2-1-.8-2-1.4-.4.4-.6.8-.8.8l-1.6,2.2c-.2.2-.8.8-.6,1a9.46,9.46,0,0,0,2.4,1.4h.2Zm-5,8.4,1.2-2c-1-.8-2.4-1.6-2.8-1.2L678.8,86l-.4.8,1.8,1C681,88,681.8,85.8,682,85.6Zm1.2,751.6-.6-1.2-1.8-3c-.2-.2-1.4.4-2.4,1l1.8,4c.2.2.2,1,.8.6l2.2-1.4ZM679.8,74.6l.6-1.4-.6-.4a4,4,0,0,0-1.6-.8c-.6.2-1.4,2.2-1.6,2.6l-.8,1.8,2.2,1.4C678.6,78.2,679.6,75,679.8,74.6Zm.6,773a3.38,3.38,0,0,1-.4-1l-1.2-2.6c0-.2-.2-1-.6-1-.6,0-2,1.2-2.4,1.4h0l2.4,4.2C678.2,848.8,679.2,848.2,680.4,847.6Zm-6-5.2c1.2-.6,2.8-1.2,2.4-1.8l-2.2-3.2-.4-.6-1.8,1c-.6.2.8,2.2,1,2.4Zm2.2-761.8c.2-.2.6-.8.2-1l-2.2-1h-.2l-.6,1.2-1.6,3c-.2.2,1,1,2,1.6Zm-47.2-32c.2-.2-1-.8-2.2-1.2a4.37,4.37,0,0,1-.6,1l-1.4,2.4c-.2.2-.6.8-.4,1.2s2.2.8,2.6,1h.2ZM628,873c.4-.6-.8-2.4-1-2.8l-.8-1.8-2.4.8c-.8.2,1,3.2,1.2,3.4l.8,1.4.6-.2C626.8,873.6,627.8,873.4,628,873ZM625.6,57.4l1-2.2c-1.2-.6-2.8-1.4-2.8-.8l-1.2,3.8-.2.8,2,.8C625,60,625.6,57.6,625.6,57.4ZM625.2,866l-.4-1.2-1.4-3.2c-.2-.2-1.4.2-2.4.6l1.2,4.2c0,.2.2,1,.6.6l2.4-1ZM621.8,46.8l.4-1.4-.6-.2c-.4-.2-1.4-.8-1.6-.6-.6.2-1,2.4-1.2,2.8l-.6,1.8,2.4,1C621.2,50.6,621.8,47.2,621.8,46.8Zm-1,829.2a3.5,3.5,0,0,1-.2-1l-.8-2.6c0-.2,0-1-.4-1.2s-2,.8-2.6,1h-.2l1.8,4.4C618.6,876.8,619.8,876.4,620.8,876ZM619.6,53.2c.2-.2.6-.8,0-1l-2.2-.8h-.2l-.4,1.2-1.2,3.2c-.2.4,1,.8,2.2,1.2Zm-3.8,816.6c1.2-.4,3-.8,2.6-1.4l-1.8-3.6-.4-.6-2,.8c-.6.2.6,2.4.6,2.6ZM565,27.6c0-.2-1.2-.6-2.4-.8a3.38,3.38,0,0,0-.4,1l-1,2.6c0,.2-.6,1-.2,1.2.4.4,2.2.4,2.6.6h.2Zm-1.2,866c.4-.6-.4-2.4-.6-3l-.4-1.8-2.6.4c-.8.2.6,3.2.8,3.6l.6,1.4.6-.2C562.6,894,563.6,894,563.8,893.6ZM562.8,37l.6-2.4c-1.2-.4-2.8-1-3-.4l-.6,4V39l2,.4C562.6,39.6,562.8,37.2,562.8,37Zm-.6,849.4-.2-1.2-.8-3.4c0-.2-1.4,0-2.4.2l.6,4.4c0,.2,0,1,.6.8l2.2-.8ZM557.4,27.2l.2-1.4-.6-.2c-.4,0-1.4-.4-1.8-.4-.6.2-.6,2.4-.8,3L554,30l2.4.8C557.4,31,557.4,27.6,557.4,27.2Zm-1,868.2v-1.2l-.4-2.8c0-.2,0-1-.2-1.2-.4-.2-2.2.6-2.6.6H553l1,4.6C554,896,555.2,895.8,556.4,895.4Zm-.2-861.6c0-.2.4-.8-.2-1l-2.4-.4h-.2l-.2,1.2-.8,3.4c0,.4,1.2.6,2.4.8Zm-3.8,854.8c1.2-.2,3-.4,2.8-1l-1.2-3.8-.2-.8-2,.4c-.6.2.2,2.4.2,2.6Zm-54,15.6c.4-.4-.2-2.4-.2-3l-.2-2h-2.6c-.8,0,.2,3.2.2,3.6l.4,1.4h.6A2.76,2.76,0,0,0,498.4,904.2ZM498,21.6l.4-4.8c0-.2-1.2-.4-2.4-.4a3.5,3.5,0,0,0-.2,1l-.4,2.8c0,.2-.4,1-.2,1.2.4.4,2.2.2,2.8.2Zm-.2,875.2-.2-1.2-.4-3.4c0-.4-1.4-.2-2.4-.2v4.4c0,.2-.2,1,.4.8l2.6-.4Zm-.2-870.4.2-2.4c-1.2-.2-3-.4-3,0v4.8l2.2.2C497.8,29,497.6,26.6,497.6,26.4ZM491,901c0-.2.2-1,0-1.2-.4-.2-2.2.2-2.8.2H488l.2,4.8c0,.2,1.2.2,2.4,0a2.43,2.43,0,0,1,.2-1Zm-.6-879.8c.8.2.4-3.2.4-3.6V16h-.6a5.44,5.44,0,0,0-1.8,0c-.6.4-.2,2.4-.2,3l-.2,2Zm-2.6,876.4c1.2,0,3,0,3-.6l-.6-4-.2-.8-2.2.2c-.6,0-.2,2.4-.2,2.8Zm2.8-873.4c0-.2.2-1-.4-1h-2.4v1.2l-.2,3.4c0,.4,1.2.4,2.4.6ZM432.8,896.4l.2-3.4c0-.2-1.2-.4-2.4-.4l-.8,4.2c0,.2-.2,1,.4,1h2.6Zm-.4,5.6.2-2-2.6-.4c-.8,0-.4,3.2-.4,3.6l.2,1.6h.6a5.44,5.44,0,0,0,1.8,0C432.8,904.6,432.4,902.6,432.4,902Zm-1-873.6c.6,0,.2-2.4.2-2.6l-.2-2.4c-1.2,0-3,0-3,.6l.6,4,.2.8Zm0-7.6L431,16c0-.2-1.2-.2-2.4-.2a2.43,2.43,0,0,1-.2,1v2.8c0,.2-.2,1,0,1.2.4.6,2.2,0,3,0Zm-5.8,876V892l-2.2-.2c-.6,0-.6,2.4-.6,2.6l-.2,2.4C424,897,425.6,897.4,425.6,896.8Zm-.4,4c0-.2.4-1,0-1.2-.4-.4-2.2-.2-2.8-.2h-.2l-.4,4.8c0,.2,1.2.4,2.4.4a2.68,2.68,0,0,0,.2-1Zm-.8-876.2c0-.2.2-1-.4-.8l-2.4.4h-.2l.2,1.2.2,3.4c0,.4,1.4.2,2.6.2Zm-.6-3c.8,0,0-3.2-.2-3.6l-.4-1.4h-.6a5.54,5.54,0,0,0-1.8.2c-.4.4.2,2.4.2,3l.2,2ZM369.2,884.2c0-.2-1.2-.6-2.4-.8l-1.4,4.2c0,.2-.4.8.2,1l2.4.4h.2l.2-1.2Zm-2,9,.4-2-2.4-.8c-.8-.2-.8,3.2-.8,3.6l-.2,1.6.6.2c.4,0,1.4.4,1.8.4C367,895.8,367,893.6,367.2,893.2Zm-.8-855.6c.6-.2-.2-2.4-.2-2.6l-.4-2.4c-1.2.2-3,.4-2.8,1l1.2,3.8.2.8ZM365.2,30l-1-4.6c0-.2-1.2,0-2.4.2v1l.4,2.8c0,.2,0,1,.2,1.2.4.4,2.2-.4,2.8-.6Zm-3.4,853v-.8l-2.2-.4c-.6-.2-.8,2.2-1,2.6l-.6,2.4c1.2.4,2.8,1,3,.4Zm-1.6,7.8c0-.2.4-1,.2-1.2-.4-.4-2.2-.4-2.6-.6h-.2l-1.2,4.6c0,.2,1.2.6,2.4.8a3.38,3.38,0,0,0,.4-1Zm-.8-851.6-.6-4.4c0-.2,0-1-.6-.8l-2.4.6h-.2l.2,1.2.8,3.4C357,39.8,358.4,39.4,359.4,39.2ZM357.8,32c.8-.2-.6-3.2-.8-3.6l-.6-1.4-.6.2a5.84,5.84,0,0,0-1.8.4c-.4.6.4,2.4.6,3l.4,1.8ZM305.2,55.8c.6-.2-.6-2.4-.6-2.6l-.8-2.2c-1.2.4-2.8.8-2.6,1.4L303,56l.4.6Zm-.4,809.4c.2-.2-1-.8-2.2-1.2l-2,4c-.2.2-.6.8,0,1l2.4.8h.2l.4-1.2Zm-2-816.4L301,44.4c0-.2-1.2.2-2.4.6a3.5,3.5,0,0,1,.2,1l.8,2.8A2.84,2.84,0,0,0,300,50a16.86,16.86,0,0,0,2.8-1.2Zm-1.2,824.8.6-1.8-2.4-1c-.8-.4-1.4,3-1.4,3.4l-.4,1.4.6.2a8.23,8.23,0,0,0,1.6.6C301,876.2,301.4,874.2,301.6,873.6Zm-3-815-1.2-4.2c0-.2-.2-1-.6-.8l-2.2,1h-.2l.4,1.2L296,59C296.2,59.4,297.4,59,298.6,58.6Zm-.8,804.2.2-.8-2-.8c-.6-.2-1.2,2.2-1.2,2.4l-.8,2.2c1.2.6,2.8,1.4,2.8.8Zm-2-811.2c.8-.2-1-3.2-1.2-3.4l-.8-1.2-.6.2c-.4.2-1.4.4-1.6.8-.4.6.8,2.4,1,2.8l.8,1.8ZM295,870.4c.2-.2.6-.8.4-1.2s-2.2-.8-2.6-1h-.2l-1.8,4.4a4.72,4.72,0,0,0,2.2,1.2c.2-.4.6-.8.6-1Zm-47.6-32.2c.2-.2-1-1-2-1.6l-2.4,3.6c-.2.2-.6.8-.2,1l2.2,1h.2l.6-1.2Zm0-755.2c.6-.4-1-2.2-1-2.4l-1.2-2c-1.2.6-2.8,1.4-2.4,1.8l2.2,3.2.4.6ZM244,76.4l-2.4-4.2c-.2-.2-1.2.4-2.4,1a9.42,9.42,0,0,1,.4,1l1.2,2.6c.2.2.2,1,.6,1.2.6,0,2-1.2,2.6-1.6Zm-1,769.8,1-1.6-2.2-1.4c-.8-.4-1.8,2.8-2,3.2l-.6,1.4.6.4c.4.2,1.2.8,1.6.8C242,848.6,242.6,846.6,243,846.2ZM241.2,86.6l-1.8-4c-.2-.2-.2-1-.8-.6l-2,1.4h0l.6,1.2,1.8,3C239,87.8,240.2,87.2,241.2,86.6Zm-.4,748.2.4-.8-1.8-1c-.6-.2-1.4,2-1.6,2.2l-1.2,2c1,.8,2.4,1.8,2.8,1.2Zm-3.8,7c.2-.2.8-.8.6-1-.2-.4-2-1-2.4-1.4H235l-2.4,4c-.2.2,1,.8,2,1.6a3.45,3.45,0,0,0,.6-.8Zm.4-761.6c.8-.4-1.6-3-1.8-3.2l-1-1.2-.6.4c-.4.2-1.4.6-1.6,1-.2.6,1.2,2.2,1.4,2.6l1,1.6Zm-42.8,38c.4-.4-1.2-2.2-1.4-2.4l-1.4-1.8c-1,.6-2.6,1.6-2.2,2l2.8,3,.6.6Zm-.4,684.4c.2-.2-.8-1-1.8-1.8l-3,3.2c-.2.2-.8.6-.2,1l2,1.4h.2l.8-1Zm-4-690.6-3-3.8c-.2-.2-1.2.6-2.2,1.4a4.37,4.37,0,0,0,.6,1l1.6,2.4c.2.2.4,1,.8,1a10.48,10.48,0,0,0,2.2-2Zm-1.6,698,1.2-1.6-2-1.6c-.6-.6-2.2,2.4-2.4,2.8l-.8,1.4.4.4c.2.2,1,1,1.4,1C187.4,812.4,188.2,810.4,188.6,810Zm.4-687.4-2.4-3.6c-.2-.2-.4-.8-.8-.4l-1.8,1.6-.2.2.8,1,2.2,2.6C187,124.2,188,123.4,189,122.6Zm-1,676,.4-.6-1.6-1.4c-.4-.4-1.8,1.6-2,2l-1.6,1.8c1,.8,2.2,2,2.6,1.6Zm-3.6-681.8c.8-.4-2-2.6-2.2-3l-1.2-1-.4.4c-.2.2-1.2.8-1.4,1.2-.2.6,1.6,2,1.8,2.4l1.2,1.6Zm-1,688c.2-.2.8-.6.8-1-.2-.6-1.8-1.4-2.2-1.6h-.2l-3,3.6c-.2.2.8,1,1.8,1.8.4-.4.8-.6.8-.8Zm-36.6-45c.2-.2-.6-1.2-1.4-2l-3.4,2.6c-.2.2-.8.4-.4.8l1.8,1.6h.2l1-.8ZM145,163.2c.4-.4-1.6-1.8-1.8-2l-1.8-1.6c-1,.8-2.2,2-1.8,2.4l3.2,2.4.6.4Zm-3.2,591-1.6-1.6c-.4-.4-2,1.4-2.2,1.6l-1.8,1.6c.8,1,2,2.4,2.2,2l2.6-3Zm-.4,10.6-1.6-2c-.6-.6-2.4,2.2-2.8,2.4l-1,1.2.4.4c.2.2.8,1.2,1.2,1.2.6,0,1.8-1.6,2.2-2ZM140,168.4l-3-3.2c-.2-.2-.6-.8-1-.4l-1.6,1.8v.2l1,.8L138,170C138.4,170.2,139.2,169.2,140,168.4Zm-.4-10.6h0l-3.4-3.4c-.2-.2-1,.8-2,1.6a3.45,3.45,0,0,1,.6.8l1.8,2.2c.2.2.6,1,1,.8C138.4,159.8,139.4,158.2,139.6,157.8Zm-4,602.6c.2-.2,1-.4,1-.8,0-.6-1.6-1.6-2-2h-.2l-3.6,3.2c-.2.2.6,1.2,1.6,2a3.73,3.73,0,0,0,.8-.6Zm-1-597c.6-.6-2.4-2.4-2.6-2.6l-1.2-.8-.4.4a8.7,8.7,0,0,0-1.2,1.4c0,.6,1.8,1.8,2.2,2l1.4,1.2ZM105,709.2c.2-.2-.4-1.2-1.2-2.2l-3.8,2.2c-.2.2-.8.4-.6.8l1.6,2h0l1-.8Zm-.6-496c.4-.4-1.8-1.6-2-1.8l-2-1.4c-.8,1-2,2.4-1.4,2.6l3.6,2,.6.4Zm-3.6,489.6L99.6,701c-.4-.6-2.2,1-2.4,1.2l-2,1.4c.6,1.2,1.4,2.6,1.8,2.2l3-2.6ZM100.2,219l-3.4-2.8c-.2-.2-.6-.8-1-.2l-1.2,2.2v.2l1,.8,2.8,2C99,221.2,99.6,220,100.2,219ZM99,713.2,97.6,711c-.4-.8-2.8,1.8-3,2l-1,1,.4.6c.2.2.8,1.2,1,1.4.6.2,2.2-1.4,2.6-1.6Zm-.8-504.6h0l-3.8-2.8c-.2-.2-1,.8-1.6,1.8l.8.8,2.2,1.8c.2.2.6.8,1,.8A6.92,6.92,0,0,0,98.2,208.6Zm-4,6.2c.4-.6-2.6-2-3-2.2l-1.4-.6-.4.6c-.2.4-1,1.2-.8,1.6,0,.6,2,1.4,2.4,1.8l1.6,1ZM94,708c.2-.2,1-.4,1-.8a7.65,7.65,0,0,0-1.6-2.2h-.2l-4,2.6c-.2.2.4,1.2,1,2.2a9.42,9.42,0,0,1,1-.4ZM71.4,268.6c.2-.6-2-1.4-2.2-1.4l-2.2-1c-.6,1-1.6,2.6-1,2.8l3.8,1.4.8.2Zm0,384c.2-.2-.2-1.4-.8-2.4l-4,1.6c-.2,0-1,.2-.6.8l1.2,2.2h0l1.2-.6ZM68.4,275l-3.8-2.2c-.2-.2-.8-.6-1,0l-.8,2.2v.2l1.2.6,3.2,1.4A4.72,4.72,0,0,0,68.4,275Zm0,370.8-.8-2c-.2-.6-2.4.8-2.6.8l-2.2,1c.4,1.2,1,2.8,1.6,2.6l3.4-2Zm-3.4,10-1-2.4c-.4-.8-3,1.2-3.4,1.6l-1.2.8.2.6a11.88,11.88,0,0,0,.8,1.6c.6.4,2.2-1,2.8-1.2ZM64.8,265h0l-4.2-2.2c-.2-.2-.8,1-1.4,2a3.45,3.45,0,0,0,.8.6l2.4,1.4c.2.2.8.8,1.2.6C64.2,267.4,64.6,265.6,64.8,265Zm-3,384.4c.2-.6-1-2-1.2-2.4v-.2l-4.4,2c-.2.2.2,1.2.8,2.4a2.68,2.68,0,0,1,1-.2l2.6-1C60.8,649.8,61.6,649.6,61.8,649.4Zm-.2-377.6c.4-.8-2.8-1.6-3.2-1.8l-1.4-.4-.2.6c-.2.4-.8,1.2-.6,1.6.2.6,2.2,1.2,2.8,1.4l1.8.8ZM47.4,328.4c.2-.6-2.2-1-2.4-1.2l-2.2-.8c-.6,1.2-1.2,2.8-.6,3l4,.8.8.2Zm-.6,263.4c.4,0,0-1.4-.4-2.4l-4.2.8c-.2,0-1,0-.8.6l1,2.2v.2l1.2-.4ZM45.2,335.2l-4-1.6c-.2-.2-.8-.4-1,0l-.6,2.4v.2l1.2.4,3.4,1C44.6,337.6,45,336.4,45.2,335.2Zm-.4,249.2-.6-2c-.2-.6-2.4.4-2.6.4l-2.2.6c.2,1.2.6,3,1,2.8l3.8-1.6ZM40.2,325.8h0l-4.6-1.6c-.2,0-.6,1-1,2.2a3.38,3.38,0,0,0,1,.4l2.6,1.2c.2,0,.8.6,1.2.4S40,326.4,40.2,325.8ZM39.8,594l-.6-2.4c-.2-.8-3.2.8-3.6,1l-1.4.6.2.6a13.78,13.78,0,0,0,.6,1.6c.6.4,2.4-.6,2.8-.8ZM38.2,333c.2-.8-3.2-1-3.4-1.2l-1.4-.2-.2.6c0,.4-.6,1.4-.4,1.8.2.6,2.4.8,2.8,1l1.8.6Zm-.4,254c.2-.4-.6-2.2-.8-2.6v-.2l-4.6,1.4c-.2,0,0,1.2.4,2.4a2.43,2.43,0,0,0,1-.2l2.8-.6A.94.94,0,0,0,37.8,587ZM32.2,392c.2-.6-2.4-.6-2.6-.8l-2.4-.4c-.4,1.2-.8,3-.2,3l4,.2h.8Zm-.6,135.8c.4,0,0-1.4,0-2.4l-4.4.2c-.2,0-1,0-.8.4l.4,2.4v.2l1.2-.2Zm-.4-128.6-4.2-1c-.2,0-.8-.4-1,.2l-.2,2.4v.2l1.2.2,3.4.4C30.8,401.6,31,400.2,31.2,399.2ZM31,520.4l-.2-2.2c0-.6-2.4,0-2.6,0l-2.4.4c0,1.2.2,3,.6,2.8l3.8-1Zm-4.4-55c.4,0,.4-1.4.2-2.4l-4.4-.4c-.2,0-1-.2-.8.4l.2,2.4v.2h1.4Zm.2-7.6v-2.2c0-.6-2.4-.4-2.6-.4H21.8c-.2,1.2-.4,3,.2,3l4-.4Zm-2-67.2h0l-4.8-.8c-.2,0-.4,1.2-.8,2.4a9.42,9.42,0,0,0,1,.4l2.8.8c.2,0,1,.4,1.2.2C24.8,393,24.6,391.2,24.8,390.6Zm-.2,138.2-.2-2.6c0-.8-3.2.4-3.6.4l-1.4.4v.6a3,3,0,0,0,.4,1.8c.4.4,2.4-.2,3-.4ZM23.8,398c.2-.8-3.2-.6-3.6-.6H18.6v.6c0,.4-.4,1.4-.2,1.8.4.6,2.4.4,3,.4l1.8.2Zm-.2,123.8c.2-.4-.4-2.2-.4-2.8v-.2l-4.8.6c-.2,0-.2,1.2,0,2.4h1l2.8-.2C22.6,521.8,23.4,522,23.6,521.8Zm-4.2-63.6c.4-.4,0-2.2,0-2.8v-.2H14.6c-.2,0-.4,1.2-.4,2.4a2.43,2.43,0,0,1,1,.2l2.8.2A1.64,1.64,0,0,0,19.4,458.2Zm0,7.2v-2.6c0-.8-3.4-.2-3.6,0l-1.4.2v.6c0,.4-.2,1.4.2,1.8.4.6,2.4,0,3,0Z" style="fill:#182755"/></g></g></g></svg>