<svg xmlns="http://www.w3.org/2000/svg" width="1080" height="1080" viewBox="0 0 1080 1080"><title>11_outer_gears_1080 (2)</title><g id="Layer_2" data-name="Layer 2"><g id="Layer_1-2" data-name="Layer 1"><g id="_11_outer_gears_1080" data-name="11_outer_gears_1080"><path d="M1052.4,688.8c-4.4-1.2-7-4.6-6.2-7.6,0-.2,0-.2.2-.4,1.2-2.6,5-3.8,9.2-2.8h0c-3.8-1.4-6-4.4-5.4-7,.6-2.8,4-4.2,8-3.6h0c-4.4-1-7.4-4.2-6.6-7.2.6-3,4.6-4.6,9-3.6-4.4-1-7.2-4.2-6.6-7.2.8-3,4.6-4.6,9-3.8h0c-3.8-1.2-6.4-4-6-6.8s3.8-4.4,7.8-4.2h0c-4.4-.8-7.6-3.8-7-6.8s4.4-4.8,9-4.2h0c-4-1-6.4-3.6-6.2-6.4.4-2.8,3.6-4.6,7.6-4.4h0c-4.4-.6-7.8-3.4-7.4-6.6.4-3,4.2-5,8.8-4.6h0c-4-.8-6.6-3.4-6.2-6.2s3.4-4.8,7.4-4.8h0c-4.6-.4-7.8-3.2-7.6-6.2s4-5.2,8.4-5h0c-4-.6-6.8-3.2-6.6-6s3.4-5,7.4-5h0c-4.4-.2-8-2.8-8-6,0-3,3.6-5.4,8.2-5.2h0c-4-.4-7-2.8-6.8-5.6,0-2.8,3.2-5,7.2-5.4h0c-4.6,0-8-2.4-8-5.6h0c0-3,3.4-5.4,8-5.4-4-.4-7.2-2.6-7.2-5.4s2.8-5.2,6.8-5.6h0c-4.6.2-8.2-2.2-8.2-5.2s3.4-5.6,8-5.8h0c-4-.2-7.2-2.2-7.4-5s2.6-5.2,6.6-6h0c-4.6.4-8.2-1.8-8.4-5-.2-3,3.2-5.8,7.6-6.2h0c-4,0-7.2-2-7.4-4.8-.4-2.8,2.4-5.4,6.2-6.2h0c-4.4.4-8.4-1.6-8.8-4.6s2.8-6,7.4-6.6h0c-4,.2-7.4-1.6-7.6-4.4-.4-2.8,2.2-5.6,6.2-6.4h0c-4.4.8-8.4-1.2-9-4.2s2.6-6,7-6.8h0c-4,.4-7.4-1.4-7.8-4.2s2-5.6,6-6.8h0c-4.4.8-8.4-.8-9-3.8-.8-3,2.2-6.2,6.6-7.2h0c-4,.6-7.4-1-8.2-3.8-.6-2.8,1.8-5.6,5.6-7h0c-4.4,1-8.4-.4-9-3.4-.8-3,2-6.2,6.4-7.4h0c-4,.6-7.6-.8-8.2-3.4-.8-2.8,1.6-5.8,5.2-7.2h0c-4.4,1.2-8.4,0-9.2-3s1.8-6.4,6.2-7.8h0c-4,.8-7.6-.4-8.4-3-1-2.6,1.2-5.8,4.8-7.4h0c-4.4,1.4-8.4.2-9.4-2.6-1-3,1.6-6.4,5.8-8h0c-3.8,1-7.4-.2-8.4-2.8s1-5.8,4.6-7.6h0c-4.2,1.6-8.4.6-9.6-2.2s1.2-6.4,5.4-8.2h0c-3.8,1.2-7.4.2-8.6-2.4-1-2.6.6-5.8,4.2-7.8h0c-4.2,1.8-8.4,1-9.6-1.8s1-6.4,5-8.4h0c-3.8,1.4-7.4.6-8.6-2s.6-6,4-8h0c-4,2-8.4,1.4-9.8-1.4s.6-6.6,4.6-8.6h0c-3.8,1.6-7.4.8-8.8-1.6-1.4-2.6.4-6,3.6-8.2h0c-4,2.2-8.2,1.6-9.8-1s.4-6.4,4.4-8.8h0c-3.6,1.6-7.4,1.2-8.8-1.2s0-6,3.4-8.2h0c-4,2.4-8.2,2-9.6-.6-1.6-2.6,0-6.4,4-8.8h0c-3.6,1.8-7.4,1.6-9-.8s-.2-6,3-8.4h0c-3.8,2.4-8,2.4-9.8-.2-1.6-2.6-.2-6.6,3.6-9.2h0c-3.6,2-7.4,1.8-9-.4s-.4-5.8,2.6-8.6h0c-3.2,2.4-7,2.6-9,1-.2-.2-.6-.4-.8-.8-1.8-2.6-.4-6.6,3.2-9.4h0c-3.4,2-7.2,2-9-.2s-.8-5.8,2.2-8.6h0c-3.6,2.8-7.8,3-9.8.6-1.8-2.4-.6-6.6,3-9.4h0c-3.4,2.2-7,2.4-8.8.2s-1-5.8,1.8-8.6h0c-3.4,3-7.8,3.4-9.8,1s-1-6.4,2.4-9.6h0c-3.2,2.4-7,2.6-8.8.6-1.8-2.2-1.2-5.8,1.4-8.8h0c-3.4,3-7.6,3.8-9.8,1.6s-1.2-6.4,2-9.6h0c-3.2,2.6-6.8,3-8.8.8-2-2-1.4-5.8,1.2-8.8h0c-3.2,3.2-7.4,4-9.8,2-2.2-2.2-1.6-6.4,1.6-9.6h0c-3,2.6-6.8,3.2-8.8,1.4-2-2-1.6-5.8.8-9h0c-3.2,3.4-7.2,4.2-9.6,2.2s-1.8-6.2,1.2-9.6h0c-3,2.8-6.6,3.6-8.8,1.6-2.2-1.8-2-5.6.4-9h0c-3,3.4-7,4.6-9.4,2.6s-2-6.2.8-9.8h0c-2.8,3-6.4,3.8-8.6,2s-2.2-5.6,0-9h0c-2.8,3.6-6.8,5-9.2,3s-2.2-6.2.4-9.8h0c-2.8,3-6.4,4-8.6,2.4-2.4-1.6-2.4-5.4-.4-8.8h0c-2.6,3.6-6.6,5.2-9.2,3.4s-2.4-6.2,0-9.8c-2.2,3.2-5.4,4.8-8,4.2-.4-.2-.8-.2-1.2-.4-2.6-1.6-2.8-6-.2-9.8h0c-2.4,3.2-6,4.4-8.4,3-2.4-1.6-2.8-5.4-.8-9h0c-2.4,3.8-6.2,5.6-8.8,3.8-2.6-1.6-3-5.8-.6-9.6-2.4,3.8-6.2,5.8-9,4.2-2.6-1.6-3-5.8-.8-9.8h0c-2.2,3.4-5.8,4.8-8.2,3.4s-3-5.2-1.4-8.8h0c-2.2,4-6,6-8.8,4.6s-3.2-5.6-1.2-9.8h0c-2.2,3.4-5.6,5-8,3.8-2.6-1.2-3.2-5-1.8-8.8h0c-2,4-5.8,6.2-8.6,5s-3.6-5.6-1.6-9.6h0c-2,3.6-5.4,5.2-7.8,4.2-2.6-1.2-3.4-4.8-2.2-8.6h0c-1.8,4.2-5.4,6.4-8.2,5.2s-3.8-5.4-2-9.6h0c-1.8,3.6-5,5.6-7.8,4.4-2.6-1-3.6-4.6-2.6-8.6h0c-1.6,4.2-5.2,6.6-8,5.6-2.8-1.2-4-5.2-2.4-9.6h0c-1.8,3.6-4.8,5.8-7.6,4.8-2.6-1-3.8-4.4-3-8.4h0c-1.4,4.4-4.8,6.8-7.8,6-2.2-.8-3.4-3-3.4-6a11.09,11.09,0,0,1,.6-3.4c-1.6,3.6-4.6,6-7.4,5.2s-4-4.2-3.2-8.2h0c-1.2,4.4-4.6,7.2-7.6,6.2-3-.8-4.4-5-3.2-9.4h0c-1.4,3.8-4.4,6-7,5.4-2.8-.6-4.2-4-3.6-8h0c-1.2,4.4-4.2,7.4-7.2,6.6s-4.6-4.8-3.6-9.2h0c-1.2,3.8-4,6.2-6.8,5.6s-4.4-4-4-8h0c-1,4.4-4,7.6-7,7s-4.8-4.4-4-9h0c-1,3.8-3.8,6.4-6.6,6s-4.6-3.8-4.2-8h0c-.8,4.4-3.6,7.6-6.8,7.2-3-.4-5-4.2-4.4-8.8h0c-1,4-3.6,6.6-6.4,6.2s-4.8-3.6-4.6-7.6h0c-.6,4.6-3.4,7.8-6.4,7.4s-5.2-4-4.8-8.6h0c-.8,4-3.2,6.8-6,6.6s-4.8-3.4-5-7.4h0c-.4,4.6-3,8-6,7.6-3-.2-5.2-4-5-8.4h0c-.6,4-3,7-5.8,6.8-2.8,0-5-3.2-5.2-7.2h0c-.2,4.6-2.6,8-5.8,8-3,0-5.4-3.6-5.4-8.2h0c-.4,4-2.8,7-5.6,7s-5.2-3-5.6-7h0c0,4.6-2.4,8.2-5.4,8.2s-5.6-3.4-5.8-8h0c-.2,4-2.4,7-5.2,7.2-2.8,0-5.2-2.8-5.8-6.8h0c.2,4.6-2,8.2-5,8.4s-5.8-3.2-6-7.6h0c0,4-2.2,7.2-5,7.4s-5.4-2.6-6-6.6h0c.4,4.6-1.6,8.2-4.8,8.6-3,.4-5.8-2.8-6.4-7.4h0c0,4-1.8,7.4-4.6,7.6-2.8.4-5.4-2.4-6.4-6.2h0c.6,4.4-1.4,8.4-4.4,8.8s-6-2.8-6.8-7.2h0c.2,4-1.6,7.4-4.2,7.8-2.8.4-5.6-2-6.6-6h0c.8,4.4-1,8.4-4,9s-6.2-2.6-7-7h0c.4,4-1.2,7.4-4,8s-5.6-1.8-6.8-5.6h0c1,4.4-.6,8.4-3.6,9.2s-6.2-2.2-7.2-6.6h0c.6,4-.8,7.4-3.6,8s-5.6-1.6-7-5.4h0c1.2,4.4-.2,8.4-3.2,9.4-3,.8-6.2-2-7.6-6.2h0c.8,4-.6,7.4-3.4,8.2s-5.8-1.4-7.4-5.2h0c1.4,4.4.2,8.4-2.8,9.4a2.54,2.54,0,0,1-1.2.2c-2.6,0-5.2-2.4-6.4-6.2h0c1,4-.2,7.6-3,8.4-2.6,1-5.8-1.2-7.6-4.8h0c1.6,4.2.4,8.4-2.4,9.6s-6.4-1.4-8-5.6h0c1.2,3.8,0,7.6-2.6,8.6s-5.8-1-7.8-4.4h0c1.8,4.2.8,8.4-2,9.6s-6.4-1-8.2-5.2h0c1.2,3.8.4,7.6-2.2,8.6-2.6,1.2-6-.6-8-4.2h0c1.8,4.2,1.2,8.4-1.6,9.6s-6.6-1-8.6-5h0c1.4,3.8.8,7.6-1.8,8.8-2.6,1.4-6-.4-8-3.8h0c2,4,1.6,8.4-1.2,9.8s-6.6-.6-8.8-4.6h0c1.6,3.6,1,7.4-1.4,8.8s-5.8,0-8.2-3.4h0c2.2,4,1.8,8.2-.8,9.8s-6.6-.4-8.8-4.2h0c1.8,3.6,1.4,7.4-1.2,8.8-2.4,1.6-5.8.2-8.2-3h0c2.4,3.8,2.2,8.2-.4,9.8s-6.6,0-9-3.8h0c1.8,3.6,1.6,7.2-.8,8.8s-6,.4-8.4-2.8h0c2.6,3.8,2.6,8.2,0,9.8s-6.6.2-9.2-3.4h0c2,3.4,2,7.2-.4,8.8s-6,.6-8.6-2.4h0c2.6,3.6,2.8,7.8.4,9.8s-6.4.6-9.4-3c2.8,3.6,3,8,.6,9.8s-6.6.6-9.4-2.8h0c2.2,3.4,2.4,7,.2,8.8s-5.8,1-8.6-1.8h0c3,3.4,3.4,7.8,1,9.8s-6.4,1-9.6-2.4c3,3.4,3.6,7.6,1.2,9.6s-6.4,1.2-9.6-2.2h0c2.4,3.2,2.8,7,.8,9s-5.8,1.4-8.8-1.4h0c3.2,3.2,3.8,7.6,1.6,9.6-2.2,2.2-6.4,1.2-9.8-2h0c2.6,3.2,3.2,6.8,1.2,9-2,2-5.6,1.6-8.8-.8h0c3.2,3.2,4.2,7.4,2,9.6s-6.4,1.6-9.8-1.6h0c2.8,3,3.4,6.6,1.4,8.8-1.8,2.2-5.6,1.8-8.8-.6h0c3.4,3,4.4,7.2,2.4,9.6a2.76,2.76,0,0,1-.8.6c-2.2,1.6-6,.8-9-1.8h0c2.8,2.8,3.6,6.6,1.8,8.6-1.8,2.2-5.6,2.2-8.8-.2h0c3.6,2.8,4.8,7,2.8,9.4s-6.2,2.2-9.8-.6h0c3,2.8,4,6.4,2.2,8.6s-5.6,2.2-9,.2h0c3.6,2.8,5,6.8,3.4,9.4a4.77,4.77,0,0,1-4,1.8,10.15,10.15,0,0,1-5.8-2c3,2.6,4.2,6.2,2.6,8.6s-5.4,2.4-9,.4h0c3.8,2.6,5.2,6.6,3.6,9.2s-6,2.8-9.8.2h0c3.2,2.4,4.4,6,3,8.4-1.6,2.4-5.4,2.6-9,.8h0c3.8,2.4,5.6,6.2,3.8,8.8a3.51,3.51,0,0,1-.8,1c-2,1.8-5.6,1.6-9-.4h0c3.2,2.4,4.8,5.8,3.4,8.2s-5.2,3-8.8,1.2h0c4,2.2,5.8,6,4.4,8.8-1.6,2.6-5.8,3.2-9.8,1h0c3.4,2.2,5,5.6,3.8,8.2-1.4,2.6-5,3.2-8.8,1.6h0c4,2,6,5.8,4.6,8.6s-5.6,3.4-9.8,1.4h0c3.4,2,5.2,5.4,4,8s-4.8,3.4-8.6,2h0c4.2,2,6.4,5.6,5,8.4-1.2,2.8-5.6,3.6-9.6,1.8h0c3.6,2,5.4,5.2,4.2,7.8-1,2.6-4.6,3.6-8.4,2.4h0c4.2,1.8,6.6,5.4,5.4,8.2s-5.4,3.8-9.6,2.2h0c3.6,1.8,5.6,5,4.6,7.6-1.2,2.6-4.6,3.8-8.4,2.8h0c4.2,1.6,6.8,5,5.8,8-1,2.8-5.2,4-9.4,2.6h0c3.6,1.6,5.8,4.8,5,7.4-1,2.8-4.6,4-8.4,3h0c4.2,1.4,7,4.8,6.2,7.6-.8,3-5,4.2-9.2,3h0c3.8,1.4,6,4.4,5.2,7.2s-4.4,4.2-8.2,3.4h0c4.4,1.2,7.2,4.4,6.4,7.4-.6,3-4.6,4.4-9,3.4h0c3.8,1.4,6.2,4.2,5.6,7S28,425,24,424.4h0c4.4,1,7.4,4.2,6.6,7.2s-4.6,4.6-9,3.8h0c3.8,1.2,6.4,4,6,6.8s-3.8,4.4-7.8,4.2h0c4.4.8,7.6,3.8,7,6.8s-4.4,4.8-9,4.2h0c3.8,1,6.4,3.6,6.2,6.4-.4,2.8-3.6,4.6-7.6,4.4h0c4.4.6,7.6,3.6,7.4,6.6-.4,3-4.2,5-8.8,4.6h0c4,.8,6.6,3.4,6.2,6.2s-3.4,4.8-7.4,4.8h0c4.6.4,7.8,3.2,7.6,6.2s-4,5.2-8.4,5h0c4,.6,6.8,3.2,6.6,6s-3.4,5-7.4,5h0c4.4.2,8,2.8,8,6,0,3-3.6,5.4-8.2,5.2h0c4,.4,7,2.8,6.8,5.6,0,2.8-3.2,5-7.2,5.4h0c4.6,0,8,2.6,8,5.6h0c0,3-3.4,5.4-8,5.4h0c4,.4,7,2.6,7.2,5.4,0,2.8-2.8,5.2-6.8,5.6h0c4.6-.2,8.2,2.2,8.2,5.2s-3.4,5.6-8,5.8h0c4,.2,7.2,2.2,7.4,5s-2.6,5.2-6.6,6h0c4.6-.4,8.2,1.8,8.4,5,.2,3-3.2,5.8-7.6,6.2h0c4,0,7.2,2,7.4,4.8.4,2.8-2.4,5.4-6.2,6.2h0c4.4-.6,8.4,1.4,8.8,4.6.4,3-2.8,6-7.4,6.6h0c4-.2,7.4,1.6,7.6,4.4s-2.2,5.6-6.2,6.4h0c4.4-.6,8.4,1.2,9,4.2s-2.6,6-7,6.8h0c4-.4,7.4,1.4,7.8,4.2s-2,5.6-6,6.8h0c4.4-.8,8.4.8,9,3.8S28.4,655,24,656h0c4-.6,7.4,1,8,3.8s-1.8,5.6-5.6,7h0c4.4-1,8.4.4,9.2,3.4s-2,6.2-6.4,7.4h0c4-.6,7.6.8,8.2,3.4.8,2.8-1.6,5.8-5.2,7.2h0c4.4-1.2,8.4,0,9.2,3s-1.8,6.4-6.2,7.6h0c4-.8,7.6.4,8.4,3,1,2.8-1.2,5.8-4.8,7.4h0c4.4-1.4,8.4-.2,9.4,2.6,1,3-1.6,6.4-5.8,8,4-1.4,7.6-.6,9.2,1.8.2.2.2.4.4.8,1.2,2.8-1.4,6.4-5.6,8h0c3.8-1,7.6,0,8.6,2.6s-1,5.8-4.4,7.8h0c4.2-1.8,8.4-.8,9.6,2s-1,6.4-5.2,8.2c4.2-1.8,8.4-1,9.6,1.8s-1,6.4-5,8.4h0c3.8-1.4,7.4-.6,8.6,2s-.6,6-4,8h0c4.2-2,8.4-1.4,9.8,1.4s-.6,6.4-4.6,8.6h0c3.8-1.6,7.4-.8,8.8,1.6,1.2,2.6-.4,6-3.6,8.2h0c4-2.2,8.2-1.6,9.8,1s-.4,6.4-4.4,8.8h0c3.6-1.6,7.4-1.2,8.8,1.2s0,6-3.4,8.2h0c4-2.4,8.2-2,9.8.6s0,6.4-4,8.8h0c3.6-1.8,7.4-1.6,9,.8s.2,6-3,8.4h0c3.8-2.4,8.2-2.4,9.8.2s0,6.6-3.6,9.2h0c3.6-2,7.4-1.8,9,.4s.4,6-2.6,8.6h0c3.4-2.4,7.4-2.8,9.4-.6l.4.4a4,4,0,0,1,.8,2.6c0,2.2-1.4,4.8-4,6.8,3.4-2,7.2-2,9,.2s.8,5.8-2.2,8.6h0c3.6-2.8,8-3,9.8-.6s.6,6.6-2.8,9.4h0c3.4-2.2,7-2.4,8.8-.2s1,5.8-1.8,8.6h0c3.4-3,7.8-3.4,9.8-1s1,6.4-2.4,9.6h0c3.2-2.4,7-2.6,8.8-.6,1.8,2.2,1.2,5.8-1.4,8.8h0c3.4-3,7.6-3.8,9.8-1.6s1.2,6.4-2,9.6h0c3.2-2.6,6.8-3,8.8-1s1.4,5.8-1.2,9h0c3.2-3.2,7.4-4,9.6-2s1.6,6.4-1.6,9.6h0c3-2.6,6.8-3.2,8.8-1.2s1.6,5.8-.8,9h0c3.2-3.4,7.2-4.2,9.6-2.2s1.8,6.2-1.2,9.6h0c3-2.8,6.6-3.6,8.8-1.8s2,5.6-.4,9h0c3-3.4,7-4.6,9.4-2.6s2,6.2-.8,9.8h0c2.8-2.8,6.4-3.8,8.8-2,2.2,1.8,2.2,5.6,0,9h0c2.8-3.6,6.8-4.8,9.2-3,2.4,2,2.2,6.2-.4,9.8h0c2.6-3,6.4-4,8.6-2.4,2.4,1.6,2.4,5.4.4,8.8h0c2.6-3.8,6.6-5.2,9.2-3.4s2.4,6.2,0,9.8h0c2.6-3.2,6-4.2,8.4-2.8,2.4,1.6,2.6,5.2.8,8.8h0c2.4-3.8,6.4-5.4,9-3.8s2.8,6,.4,9.8h0c2.4-3.2,6-4.6,8.4-3,2.4,1.4,2.8,5.2,1.2,8.8h0c2.4-3.8,6.2-5.8,9-4.2s3,5.8.8,9.8h0c2.2-3.4,5.8-4.8,8.2-3.4s3,5.2,1.4,8.8h0c2.2-4,6-6,8.8-4.6s3.2,5.6,1.2,9.8h0c2.2-3.4,5.6-5,8-3.8,2.6,1.2,3.2,5,1.8,8.8h0c2-4,5.6-6.2,8.6-5,2.8,1.2,3.6,5.6,1.6,9.6h0c2-3.6,5.4-5.2,7.8-4.2,2.6,1.2,3.4,4.8,2.2,8.6h0c1.8-4.2,5.4-6.4,8.2-5.2s3.8,5.4,2,9.6h0c1.8-3.6,5.2-5.6,7.8-4.4,2.6,1,3.6,4.6,2.6,8.6h0c1.6-4.2,5.2-6.6,8-5.6,2.8,1.2,4,5.2,2.4,9.6h0c1.8-3.6,4.8-5.8,7.6-4.8,2.6,1,3.8,4.4,3,8.4h0c1.2-3.6,4-6.2,6.6-6.2a2.54,2.54,0,0,1,1.2.2c3,1,4.2,5.2,2.8,9.6h0c1.6-3.6,4.6-6,7.4-5.2s4,4.4,3.2,8.2h0c1.2-4.4,4.6-7.2,7.6-6.2,3,.8,4.4,5,3.2,9.4h0c1.4-3.8,4.4-6,7-5.4,2.8.6,4.2,4,3.6,8h0c1-4.4,4.2-7.4,7.2-6.6,3,.6,4.6,4.6,3.6,9.2h0c1.2-3.8,4-6.2,6.8-5.6s4.4,4,4,8h0c.8-4.4,4-7.6,7-7s4.8,4.4,4,9h0c1-3.8,3.8-6.4,6.6-6s4.6,3.8,4.2,8h0c.8-4.4,3.6-7.6,6.8-7.2,3,.4,5,4.2,4.4,8.8h0c1-4,3.6-6.6,6.4-6.2s4.8,3.6,4.6,7.6h0c.6-4.6,3.4-7.8,6.4-7.4s5.2,4,4.8,8.6h0c.8-4,3.2-6.8,6-6.6s4.8,3.4,5,7.4h0c.4-4.6,3-8,6-7.6,3,.2,5.2,4,5,8.4h0c.6-4,3-7,5.8-6.8,2.8,0,5,3.2,5.2,7.2h0c.2-4.6,2.6-8,5.8-8,3,0,5.4,3.6,5.4,8.2h0c.4-4,2.8-7,5.6-7s5.2,3,5.6,7h0c0-4.6,2.4-8.2,5.4-8.2s5.6,3.4,5.8,8c-.2-4.6,2.2-8.2,5.2-8.2h0c3,0,5.6,3.4,5.8,8h0c.2-4,2.2-7.2,5-7.4s5.2,2.6,6,6.6h0c-.4-4.6,1.8-8.2,5-8.4,3-.2,5.8,3.2,6.2,7.6-.4-4.6,1.6-8.2,4.8-8.6,3-.4,5.8,2.8,6.4,7.4h0c0-4,1.8-7.2,4.6-7.6s5.4,2.4,6.4,6.2h0c-.6-4.4,1.4-8.4,4.4-8.8s6,2.8,6.6,7.2h0c-.2-4,1.6-7.4,4.2-7.8,2.8-.4,5.6,2,6.6,6h0c-.8-4.4,1-8.4,4-9s6,2.6,7,7h0c-.4-4,1.2-7.4,4-8s5.6,1.8,6.8,5.6h0c-1-4.4.6-8.4,3.6-9.2.2,0,.6-.2.8-.2,2.8,0,5.4,2.8,6.4,6.8h0c-.6-4,.8-7.4,3.6-8s5.8,1.6,7,5.4h0c-1.2-4.4.2-8.4,3.2-9.4,3-.8,6.2,2,7.6,6.2h0c-.8-4,.6-7.4,3.2-8.2,2.8-.8,5.8,1.4,7.4,5.2h.2c-1.4-4.4-.2-8.4,2.8-9.4a2.54,2.54,0,0,1,1.2-.2c2.6,0,5.2,2.4,6.6,6-1-4,.2-7.6,3-8.4s5.8,1.2,7.6,4.8h0c-1.6-4.2-.4-8.4,2.4-9.6s6.4,1.4,8,5.6h0c-1-3.8,0-7.6,2.6-8.6s5.8,1,7.8,4.4h0c-1.8-4.2-.8-8.4,2-9.6s6.4,1,8.2,5.2h0c-1.2-3.8-.4-7.6,2.2-8.6,2.6-1.2,6,.6,8,4.2h0c-1.8-4.2-1.2-8.4,1.6-9.6s6.6,1,8.6,5h0c-1.4-3.8-.8-7.6,1.8-8.8,2.6-1.4,6,.4,8,3.8h0c-2-4-1.6-8.4,1.2-9.8a5.84,5.84,0,0,1,1.8-.4c2.4,0,5.2,1.8,7,5h0c-1.6-3.6-1-7.4,1.4-8.8s5.8,0,8.2,3.4h0c-2.2-4-1.8-8.2.8-9.8s6.6.4,9,4.2h0c-1.8-3.6-1.2-7.4,1.2-8.8,2.4-1.6,5.8-.2,8.2,3h0c-2.4-3.8-2.2-8.2.4-9.8s6.6,0,9,3.8h0c-1.8-3.6-1.6-7.4.8-8.8,2.4-1.6,6-.4,8.4,2.8h0c-2.6-3.8-2.6-8,0-9.8,2.4-1.8,6.6-.2,9.2,3.4h0c-2-3.4-2-7.2.4-8.8s6-.6,8.6,2.4h0c-2.6-3.6-2.8-7.8-.4-9.8s6.4-.6,9.2,3h0c-2.2-3.4-2.2-7.2,0-9s6-.8,8.8,2h0c-2.8-3.6-3.2-7.8-.8-9.8s6.4-.8,9.4,2.6h0c-2.4-3.2-2.6-7-.4-9,2.2-1.8,5.8-1,8.8,1.8h0c-3-3.4-3.6-7.6-1.2-9.6s6.4-1.2,9.6,2.2h0c-2.4-3.2-2.8-7-.8-9s5.8-1.4,8.8,1.2h0c-3.2-3.2-3.8-7.6-1.6-9.6,2.2-2.2,6.4-1.2,9.8,2h0c-2.6-3.2-3.2-6.8-1.2-9,2-2,5.8-1.6,8.8,1h0c-3.2-3.2-4.2-7.4-2-9.6s6.4-1.6,9.8,1.6h0c-2.8-3-3.2-6.6-1.4-8.8s5.6-1.8,8.8.6h0c-3.4-3-4.4-7.2-2.4-9.6s6.2-1.8,9.8,1h0c-2.8-2.8-3.6-6.6-1.8-8.6,1.8-2.2,5.6-2,8.8.2h0c-3.6-2.8-4.8-7-3-9.4,2-2.4,6.2-2.2,9.8.6h0c-3-2.8-4-6.4-2.2-8.6s5.6-2.2,9-.2h0c-3.4-2.6-4.8-6.2-3.6-8.8.2-.2.2-.4.4-.6,1.8-2.4,6-2.4,9.8.2h0c-3-2.6-4.2-6.2-2.6-8.6s5.4-2.4,9-.4h0c-3.8-2.6-5.2-6.6-3.6-9.2s6-2.6,9.8-.2h0c-3.2-2.4-4.4-6-3-8.4,1.6-2.4,5.4-2.8,9-.8h0c-3.8-2.4-5.6-6.2-4-8.8s5.8-3,9.6-.6h0c-3.2-2.4-4.8-5.8-3.2-8.2,1.4-2.4,5.2-3,8.8-1.2h0c-4-2.2-5.8-6-4.4-8.8,1.6-2.6,5.8-3.2,9.8-1h0c-3.4-2.2-5-5.6-3.6-8.2,1.2-2.6,5-3.2,8.8-1.6h0c-4-2-6-5.8-4.6-8.6s5.6-3.4,9.8-1.4h0c-3.4-2-5.2-5.4-4-8s4.8-3.4,8.6-2h0c-4.2-2-6.4-5.6-5-8.4,1.2-2.8,5.6-3.6,9.6-1.8h0c-3.6-2-5.4-5.2-4.2-7.8,1-2.6,4.6-3.6,8.4-2.4h0c-4.2-1.8-6.6-5.4-5.4-8.2s5.4-3.8,9.6-2.2h0c-3.6-1.8-5.6-5-4.6-7.6s4.6-3.8,8.4-2.8h0c-4.2-1.6-6.8-5-5.8-8s5.2-4,9.4-2.6h0c-3.8-1.6-5.8-4.8-5-7.4,1-2.8,4.6-4,8.4-3h0c-4.4-1.4-7-4.8-6.2-7.8C1044,689,1048,687.6,1052.4,688.8ZM540,0c297.8,0,540,242.2,540,540s-242.2,540-540,540S0,837.8,0,540,242.2,0,540,0Zm533.6,540-.2-3.4c-3.6,0-6,1.8-5.8,3.4,0,1.6,2.4,3.4,5.8,3.4Zm-.2-7.8-.2-6.6c-3,.4-4.8,2-4.8,3.4S1070.4,532,1073.4,532.2Zm-.2,22.4.2-6.6c-3,.2-5,1.8-5,3.2S1070.2,554.2,1073.2,554.6ZM1073,521l-.2-6.8c-3.6.2-6,2-6,3.6C1067,519.6,1069.6,521.2,1073,521Zm0,44.8.2-6.8c-3.6-.2-6,1.6-6,3.2C1067,563.8,1069.4,565.6,1073,565.8Zm-.4-56-.4-6.6c-3,.6-4.8,2.2-4.6,3.6C1067.6,508.2,1069.6,509.8,1072.6,509.8Zm-.4,67,.4-6.6c-3,.2-5,1.6-5.2,3C1067.4,574.6,1069.2,576.4,1072.2,576.8Zm-.4-78-.6-6.8c-3.6.4-5.8,2.4-5.8,3.8C1065.8,497.6,1068.4,499,1071.8,498.8Zm-.4,89.2.6-6.8c-3.6-.2-6.2,1.4-6.2,2.8S1067.8,587.8,1071.4,588Zm-.4-100.4c-.2-2.2-.4-4.4-.8-6.6-2.8.6-4.6,2.4-4.4,3.8S1068,487.6,1071,487.6Zm-.8,111.4c.2-2.2.6-4.4.8-6.6-3,0-5,1.4-5.2,2.8C1065.6,596.8,1067.4,598.4,1070.2,599Zm-.6-122.4-.8-6.8c-3.6.4-5.8,2.6-5.6,4C1063.6,475.6,1066.2,477,1069.6,476.6Zm-.8,133.6.8-6.8c-3.6-.4-6.2,1-6.4,2.6C1063,607.8,1065.4,609.8,1068.8,610.2Zm-.6-144.8-.8-6.6c-2.8.8-4.6,2.6-4.4,4S1065.4,465.6,1068.2,465.4Zm-.8,155.8.8-6.6c-3,0-5,1.2-5.2,2.6S1064.6,620.4,1067.4,621.2Zm-.8-166.8-1.2-6.8c-3.4.6-5.6,2.8-5.2,4.4C1060.4,453.6,1063.2,455,1066.6,454.4Zm-1.2,178,1.2-6.6c-3.4-.6-6.2.8-6.4,2.4C1059.8,629.6,1062,631.8,1065.4,632.4Zm-.8-189-1.2-6.6c-2.8.8-4.4,2.8-4.2,4.2C1059.6,442.4,1061.8,443.6,1064.6,443.4Zm-1.2,199.8,1.2-6.6c-3-.2-5.2,1-5.4,2.4S1060.6,642.4,1063.4,643.2Zm-.8-210.8-1.6-6.6c-3.4.8-5.4,3-5.2,4.6C1056.4,431.8,1059.2,433.2,1062.6,432.4Zm-1.4,221.8,1.6-6.6c-3.4-.6-6.2.6-6.6,2C1055.6,651.2,1057.8,653.6,1061.2,654.2Zm-1-232.8-1.6-6.4c-2.8,1-4.4,3-4,4.4S1057.2,421.8,1060.2,421.4Zm-1.6,243.8,1.6-6.6c-3.4-.8-6.2.4-6.6,2S1055.2,664.4,1058.6,665.2Zm-1,4.4c-3-.4-5.2.6-5.6,2s1,3.4,3.8,4.4A44.53,44.53,0,0,0,1057.6,669.6Zm0-259c-.4-2.2-1-4.4-1.6-6.6-3.4.8-5.2,3.2-5,4.8C1051.4,410.4,1054.2,411.6,1057.6,410.6Zm-2.8-10.8-1.8-6.4c-2.8,1.2-4.2,3.2-3.8,4.6C1049.6,399.2,1051.8,400.2,1054.8,399.8Zm-1.8,287,1.8-6.6c-3.4-.8-6.2.2-6.8,1.6C1047.6,683.4,1049.6,685.8,1053,686.8ZM1051.8,389l-1.8-6.6c-3.4,1-5.2,3.4-4.8,5S1048.4,390,1051.8,389Zm-2,308.6,1.8-6.6c-3.4-1-6.2,0-6.6,1.6C1044.6,694,1046.6,696.4,1049.8,697.6Zm-1.2-319.2-2.2-6.4c-2.8,1.2-4,3.4-3.6,4.6C1043.2,378,1045.6,378.8,1048.6,378.4ZM1046.4,708l2.2-6.2c-3-.6-5.2.2-5.8,1.6C1042.4,704.8,1043.6,706.8,1046.4,708ZM1045,367.8l-2.2-6.4c-3.4,1.2-5,3.6-4.6,5.2C1038.8,368,1041.6,369,1045,367.8Zm-2.2,351,2.2-6.4c-3.4-1.2-6.2-.2-6.8,1.2S1039.4,717.6,1042.8,718.8Zm-1.4-361.6L1039,351c-2.6,1.4-3.8,3.4-3.4,4.8C1036,357,1038.6,357.8,1041.4,357.2Zm-2.4,372,2.4-6.2c-2.8-.6-5.2,0-5.8,1.4C1035,725.6,1036.4,727.8,1039,729.2Zm-1.6-382.4-2.4-6.4c-3.2,1.4-5,3.8-4.4,5.4C1031,347.4,1034,348,1037.4,346.8Zm-2.6,392.8,2.4-6.4c-3.4-1.2-6.2-.6-6.8,1C1030,735.8,1031.6,738.2,1034.8,739.6Zm-7.4-404.4c.6,1.4,3,2,5.8,1.2-.8-2-1.6-4.2-2.6-6.2C1028,331.6,1027,333.8,1027.4,335.2Zm5.8,408.6c-2.8-.8-5.2-.2-5.8,1.2-.4,1.4.6,3.6,3.2,5C1031.6,748,1032.4,745.8,1033.2,743.8Zm-4.4-417.6L1026,320c-3.2,1.4-4.8,4-4,5.6C1022.6,327,1025.6,327.6,1028.8,326.2Zm-2.8,434,2.8-6.2c-3.2-1.4-6.2-.8-6.8.6C1021.2,756,1022.8,758.6,1026,760.2Zm-1.8-444.4-2.8-6c-2.4,1.6-3.6,3.8-3,5.2S1021.4,316.8,1024.2,315.8Zm-2.8,454.4,2.8-6c-2.8-1-5.2-.4-5.8,1C1017.8,766.4,1019,768.8,1021.4,770.2Zm-2-464.4-3-6c-3.2,1.6-4.6,4.2-3.8,5.8C1013.2,306.8,1016.4,307.4,1019.4,305.8Zm-3,474.4,3-6c-3.2-1.6-6.2-1-7,.4C1011.8,776,1013.2,778.8,1016.4,780.2Zm-2-484.4-3-6c-2.4,1.6-3.4,4-2.8,5.2C1009.2,296.4,1011.6,296.8,1014.4,295.8Zm-3.2,494.4,3-6c-2.8-1-5.2-.6-5.8.6C1007.8,786.2,1008.8,788.6,1011.2,790.2Zm-2-504.2-3.2-6c-3,1.8-4.4,4.4-3.6,5.8S1006.2,287.6,1009.2,286Zm-3.4,514,3.4-5.8c-3-1.6-6.2-1.4-7,0C1001.6,795.6,1002.8,798.4,1005.8,800Zm-2.2-523.8-3.4-5.8c-2.4,1.8-3.4,4.2-2.6,5.4S1001,277.4,1003.6,276.2Zm-3.2,533.4,3.4-5.8c-2.8-1.2-5.2-.8-6,.4C997,805.6,998,808,1000.4,809.6Zm-5.8,9.8,3.6-5.8c-3-1.8-6-1.6-6.8-.2C990.4,814.8,991.6,817.4,994.6,819.4Zm3.6-552.8a56.45,56.45,0,0,0-3.6-5.8c-3,1.8-4.2,4.6-3.4,6C992.2,268,995.2,268.4,998.2,266.6Zm-6-9.6-3.6-5.6c-2.4,1.8-3.2,4.2-2.4,5.4S989.6,258.2,992.2,257Zm-3.6,571.8,3.6-5.6c-2.6-1.2-5.2-1-6,.2C985.4,824.4,986.4,826.8,988.6,828.8Zm-2.4-581.2-3.6-5.8c-3,2-4,4.8-3.2,6.2S983.4,249.6,986.2,247.6Zm-3.6,590.6,3.6-5.8c-3-2-6-1.8-6.8-.4S979.6,836.2,982.6,838.2Zm-2.6-600-3.8-5.4c-2.2,2-3,4.4-2,5.6C974.8,239.6,977.4,239.6,980,238.2Zm-4,609,3.8-5.4c-2.6-1.4-5.2-1.2-6,0C973.2,842.8,974,845.2,976,847.2Zm-2.4-618-4-5.6c-2.8,2-3.8,5-2.8,6.2C967.6,231.2,970.6,231.2,973.6,229.2Zm-4,627.2,4-5.6c-2.8-2-5.8-2-6.8-.8C965.8,851.4,966.8,854.2,969.6,856.4ZM967,220.2l-4.2-5.2c-2.2,2-2.8,4.4-1.8,5.6C962,221.6,964.4,221.6,967,220.2Zm-4.2,645,4-5.2c-2.6-1.6-5-1.4-6-.4C960.2,860.8,960.8,863.2,962.8,865.2Zm-2.6-653.8L956,206c-2.8,2.2-3.6,5.2-2.6,6.4S957.4,213.6,960.2,211.4ZM956,874l4.2-5.4c-2.8-2.2-5.8-2.2-6.8-1C952.4,869,953.2,871.8,956,874Zm-2.8-671.4c-1.4-1.8-2.8-3.4-4.2-5-2,2.2-2.6,4.6-1.6,5.6C948.2,204.2,950.8,204.2,953.2,202.6Zm-4.2,680a53,53,0,0,0,4.2-5.2c-2.4-1.6-5-1.6-5.8-.6C946.4,878,946.8,880.6,949,882.6ZM946,194l-4.4-5.2c-2.6,2.4-3.4,5.2-2.4,6.4C940.4,196.6,943.4,196.4,946,194Zm-4.4,697.2L946,886c-2.6-2.2-5.8-2.6-6.8-1.4S938.8,888.8,941.6,891.2Zm-3-705.6-4.4-5c-2,2.2-2.4,4.6-1.4,5.8C933.8,187.4,936.2,187.2,938.6,185.6Zm-4.4,714,4.4-5c-2.4-1.8-5-1.8-5.8-.8S932.2,897.2,934.2,899.6Zm-3-722.2-4.6-5c-2.6,2.4-3.2,5.4-2,6.6C925.6,180.2,928.6,179.8,931.2,177.4Zm-4.8,730.2,4.6-5c-2.6-2.4-5.6-2.8-6.6-1.6S924,905.2,926.4,907.6Zm-3-738.4-4.6-4.8c-1.8,2.4-2.2,4.8-1.2,5.8S921.2,171,923.4,169.2Zm-4.6,746.4,4.6-4.8c-2.4-1.8-4.8-2-5.8-1S917,913.4,918.8,915.6Zm-3-754.4-4.8-4.6c-2.4,2.6-2.8,5.6-1.8,6.6S913.2,163.8,915.8,161.2Zm-5,762.4,5-4.6c-2.4-2.4-5.6-3-6.6-2C907.8,918,908.2,921,910.8,923.6Zm-3.2-770.2-4.8-4.6c-1.8,2.4-2,4.8-1,5.8C902.8,155.8,905.4,155.4,907.6,153.4Zm-4.8,777.8,4.8-4.6c-2.2-2-4.8-2.2-5.8-1.2C900.8,926.2,901,928.8,902.8,931.2Zm-3.2-785.4-5-4.4c-2.4,2.6-2.6,5.6-1.4,6.6C894.2,149,897.2,148.4,899.6,145.8Zm-5.2,793,5-4.4c-2.4-2.6-5.4-3.2-6.6-2.2C891.8,933,892,936,894.4,938.8ZM891,138.4l-5-4.4c-1.6,2.4-1.8,5-.6,6C886.4,140.8,889,140.4,891,138.4ZM886,946l5-4.4c-2.2-2-4.6-2.4-5.8-1.6C884.2,941,884.4,943.6,886,946Zm-3.2-814.8c-1.8-1.4-3.4-3-5.2-4.4-2.2,2.8-2.4,5.6-1.2,6.8C877.6,134.6,880.4,133.8,882.8,131.2Zm-5.4,822a54.92,54.92,0,0,0,5.2-4.4c-2.2-2.8-5.2-3.4-6.4-2.4C875,947.6,875.2,950.6,877.4,953.2ZM874,124l-5.2-4c-1.6,2.4-1.6,5-.4,5.8C869.4,126.6,872,126.2,874,124Zm-5.4,836.2,5.2-4c-2-2.2-4.6-2.6-5.6-1.8C867.2,955,867.2,957.6,868.6,960.2Zm-3.4-843-5.4-4.2c-2,2.8-2.2,5.8-1,6.8C860.2,120.8,863,120,865.2,117.2ZM859.8,967l5.4-4.2c-2.2-2.8-5-3.6-6.2-2.6C857.6,961.2,857.8,964.2,859.8,967Zm-3.4-856.6-5.4-3.8c-1.4,2.6-1.4,5-.2,5.8C851.8,113.2,854.4,112.6,856.4,110.4Zm-5.6,863.2,5.4-3.8c-2-2.2-4.4-2.8-5.6-2C849.6,968.4,849.4,971,850.8,973.6ZM847.2,104l-5.6-4c-2,3-2,6-.6,6.8C842.4,107.8,845.2,106.8,847.2,104Zm-5.6,876,5.6-4c-2-2.8-5-3.8-6.2-3C839.8,974,839.6,977.2,841.6,980ZM838.2,97.4l-5.8-3.6c-2,3-1.8,6-.4,6.8S836.2,100.4,838.2,97.4Zm-5.8,888.8,5.6-3.6c-2-2.2-4.4-3-5.6-2.4C831.2,981,831,983.6,832.4,986.2ZM828.8,91.4l-5.6-3.6c-1.2,2.6-1,5.2.2,6C824.4,94.6,826.8,93.6,828.8,91.4ZM823,992.2l5.8-3.6c-2-3-4.8-4-6-3.2C821.2,986.2,821,989.2,823,992.2ZM819.4,85.4l-5.8-3.6c-1.8,3-1.6,6-.2,6.8C814.8,89.6,817.4,88.4,819.4,85.4Zm-5.8,912.8,5.6-3.4c-1.8-2.4-4.2-3.2-5.4-2.4C812.6,993,812.2,995.4,813.6,998.2ZM809.8,79.6,804,76.2c-1.8,3-1.4,6,0,6.8C805.2,84,808,82.8,809.8,79.6Zm-6,924.2,5.8-3.4c-1.8-3-4.6-4.2-6-3.4C802.4,997.6,802,1000.6,803.8,1003.8ZM800,74.2l-5.8-3.4c-1.2,2.8-.8,5.2.6,6C796,77.4,798.2,76.4,800,74.2Zm-5.8,935,5.8-3.4c-1.8-2.4-4-3.4-5.2-2.6C793.4,1004,793,1006.6,794.2,1009.2Zm-4-940.4-6-3c-1.6,3.2-1.2,6.2.2,6.8S788.6,71.8,790.2,68.8Zm-6,945.6,6-3c-1.6-3-4.4-4.4-5.8-3.8S782.6,1011.2,784.2,1014.4Zm-4-950.8-6-3c-1,2.8-.4,5.2.8,6C776.4,67.2,778.6,66,780.2,63.6Zm-6,955.8,6-3c-1.6-2.4-3.8-3.6-5.2-2.8C773.8,1014.2,773.2,1016.6,774.2,1019.4ZM770.4,58.6l-6.2-2.8c-1.4,3.2-1,6.2.6,6.8C766.2,63.4,768.8,61.8,770.4,58.6ZM764,1024.2l6.2-2.8c-1.6-3.2-4.2-4.6-5.6-4S762.6,1021,764,1024.2ZM760,54l-6-2.8c-.8,2.8-.2,5.2,1,5.8C756.4,57.6,758.6,56.6,760,54Zm-6,974.8,6-2.8c-1.6-2.6-3.8-3.8-5-3.2C753.6,1023.6,753,1026,754,1028.8ZM744.6,53.6c1.4.6,4-1,5.4-4.2-2-1-4.2-1.8-6.2-2.6C742.4,50,743,53,744.6,53.6Zm5.2,977c-1.4-3.2-4-4.8-5.4-4.2s-2.2,3.6-.8,6.8A57.59,57.59,0,0,0,749.8,1030.6ZM739.6,45.2l-6.2-2.4c-.8,2.8,0,5.2,1.2,5.8C736,49,738.2,47.8,739.6,45.2Zm-6.4,992.2,6.2-2.4c-1.4-2.6-3.6-3.8-5-3.4S732.4,1034.4,733.2,1037.4ZM729.2,41l-6.4-2.4c-1.2,3.2-.4,6.2,1,6.8C725.4,46,728,44.4,729.2,41Zm-6.4,1000.4,6.4-2.4c-1.2-3.2-3.8-5-5.2-4.4C722.4,1035.2,721.6,1038,722.8,1041.4ZM718.6,37.2,712.4,35c-.6,2.8.2,5.2,1.6,5.6C715.2,41.2,717.4,39.8,718.6,37.2ZM712.2,1045l6.4-2.2c-1.2-2.6-3.4-4-4.8-3.6S711.6,1042,712.2,1045ZM708,33.6l-3.2-1-3.2-1c-1,3.4-.2,6.2,1.4,6.8C704.6,38.8,707,37,708,33.6Zm-3.2,1013.8,3.2-1c-1.2-3.4-3.6-5-5-4.6-1.6.4-2.4,3.4-1.4,6.8ZM697.4,30,691,28.2c-.6,3,.4,5.2,1.8,5.6S696.2,32.8,697.4,30ZM691,1051.8l6.4-1.8c-1.2-2.8-3.2-4.2-4.6-3.8S690.4,1048.8,691,1051.8ZM686.8,27l-6.6-1.8c-.8,3.4.2,6.2,1.6,6.8C683.4,32.4,685.8,30.4,686.8,27Zm-6.6,1027.8,6.6-1.8c-1-3.4-3.4-5.2-4.8-4.8C680.2,1048.6,679.2,1051.4,680.2,1054.8Zm-8.6-1027c1.4.4,3.4-1.2,4.4-3.8-2.2-.6-4.2-1.2-6.4-1.6C669.2,25.2,670.2,27.6,671.6,27.8ZM675.8,1056c-1-2.8-3-4.2-4.4-3.8-1.4.2-2.4,2.6-2,5.6C671.6,1057.2,673.8,1056.6,675.8,1056ZM665.2,21.4l-6.6-1.6c-.8,3.4.4,6.2,2,6.6C662,26.8,664.4,24.8,665.2,21.4Zm-6.8,1038.8,6.6-1.6c-.8-3.4-3.2-5.4-4.6-5C658.8,1054,657.6,1056.8,658.4,1060.2ZM654.2,18.8l-6.4-1.6c-.2,3,.8,5.2,2.2,5.6S653.2,21.6,654.2,18.8Zm-6.6,1043.8,6.4-1.6c-1-2.8-2.8-4.4-4.2-4S647.4,1059.8,647.6,1062.6Zm-4.2-1046-6.6-1.2c-.6,3.4.6,6.2,2.2,6.4S642.6,20,643.4,16.6Zm-6.8,1048,6.8-1.2c-.8-3.4-3-5.6-4.4-5.2C637.2,1058.4,636,1061.2,636.6,1064.6Zm-4.4-1050-6.6-1.2c-.2,3,1,5.2,2.4,5.4C629.6,19,631.4,17.4,632.2,14.6Zm-6.6,1052,6.6-1.2c-.8-2.8-2.6-4.6-4-4.2C626.8,1061.4,625.4,1063.6,625.6,1066.6Zm-4.2-1054-6.8-.8c-.4,3.4,1,6.2,2.4,6.4C618.6,18.4,620.8,16,621.4,12.6Zm-6.8,1055.6,6.8-.8c-.6-3.4-2.6-5.8-4.2-5.6C615.4,1062,614,1064.8,614.6,1068.2Zm-4.4-1057-6.6-.8c0,3,1.2,5.2,2.8,5.4C607.6,15.8,609.4,14,610.2,11.2Zm-6.6,1058.4,6.6-.8c-.6-2.8-2.4-4.6-4-4.4C604.8,1064.6,603.4,1066.6,603.6,1069.6ZM595.2,15.4c1.6.2,3.6-2,4-5.6-2.2-.2-4.4-.6-6.8-.8C592,12.6,593.6,15,595.2,15.4ZM599,1070.2c-.4-3.6-2.4-5.8-4-5.6s-3,2.8-2.8,6.2C594.6,1070.8,596.8,1070.4,599,1070.2ZM588,8.6l-6.6-.4c.2,3,1.4,5,3,5.2C585.6,13.4,587.4,11.6,588,8.6Zm-6.8,1063.2,6.8-.6c-.4-3.6-2.4-5.8-3.8-5.8C582.4,1065.8,581,1068.4,581.2,1071.8ZM577,7.8l-6.8-.6c-.2,3.6,1.4,6.2,3,6.2C574.8,13.6,576.6,11.4,577,7.8Zm-6.8,1064.8,6.6-.4c-.6-3-2.2-4.8-3.6-4.6C571.8,1067.6,570.2,1069.6,570.2,1072.6ZM565.8,7l-6.6-.2c.2,3,1.8,5,3.2,5S565.2,10,565.8,7ZM559,1073l6.8-.2c-.2-3.6-2-6-3.6-6C560.4,1067,558.8,1069.6,559,1073ZM554.6,6.8l-6.8-.2c0,3.6,1.6,6,3.2,6C552.6,12.8,554.4,10.4,554.6,6.8Zm-6.8,1066.6,6.8-.2c0-3.6-2-6-3.6-6C549.4,1067.4,547.6,1069.8,547.8,1073.4ZM543.4,6.6h-6.6c.4,3,2,4.8,3.4,4.8C541.4,11.4,543,9.4,543.4,6.6Zm-6.8,1066.8a36.38,36.38,0,0,0,6.6,0c-.4-3-2-4.8-3.4-4.8C538.6,1068.6,537,1070.6,536.6,1073.4ZM529,12.8c1.6,0,3.4-2.6,3.2-6l-6.8.2C525.6,10.4,527.4,12.8,529,12.8Zm3.2,1060.6c0-3.6-1.6-6-3.2-6s-3.4,2.4-3.6,6ZM521,7l-6.6.2c.4,3,2,4.8,3.6,4.8C519.4,11.8,520.8,9.8,521,7Zm-6.8,1066,6.6.2c-.2-3-1.8-5-3.2-5C516.4,1068,514.8,1070,514.2,1073ZM507,13.6c1.6-.2,3.2-2.8,3-6.2l-6.8.6C503.4,11.4,505.4,13.6,507,13.6Zm2.8,1059c.2-3.6-1.4-6.2-3-6.2-1.6-.2-3.6,2.2-3.8,5.8ZM498.8,8.2l-6.6.6c.6,3,2.4,4.8,3.8,4.6C497.2,13.2,498.6,11.2,498.8,8.2ZM492,1071.4l6.6.4c0-3-1.4-5-3-5.2S492.6,1068.4,492,1071.4Zm-7-1056c1.6-.2,3-2.8,2.8-6.2-2.2.2-4.4.4-6.8.8C481.4,13.2,483.4,15.6,485,15.4ZM487.6,1071c.4-3.6-1.2-6-2.8-6.2s-3.6,2-4,5.6C483,1070.4,485.4,1070.8,487.6,1071ZM473.8,15.6c1.4-.2,2.8-2.4,2.6-5.2l-6.6.8C470.6,14,472.4,15.8,473.8,15.6Zm2.6,1054c0-3-1.2-5.2-2.8-5.4-1.4-.2-3.2,1.6-3.8,4.4ZM463,18c1.6-.2,3-2.8,2.4-6.4l-6.8.8C459.2,16,461.4,18.4,463,18Zm2.4,1050.2c.4-3.6-1-6.2-2.4-6.4-1.6-.2-3.8,2-4.2,5.4ZM451.8,18.8c1.4-.2,2.6-2.4,2.4-5.4l-6.6,1.2C448.6,17.4,450.4,19,451.8,18.8Zm2.4,1047.8c.2-3-1-5.2-2.4-5.4s-3.2,1.4-4.2,4.2ZM441.2,21.8c1.6-.2,2.8-3,2.2-6.4l-6.8,1.2C437.4,20,439.6,22,441.2,21.8Zm2.2,1042.8c.6-3.4-.6-6.2-2.2-6.4s-3.8,1.8-4.4,5.2ZM430.2,22.8c1.4-.4,2.4-2.6,2.2-5.6L426,18.8C426.8,21.6,428.8,23.2,430.2,22.8Zm2,1039.8c.2-3-.8-5.2-2.2-5.6-1.4-.2-3.4,1.2-4.2,4ZM419.6,26.4c1.6-.4,2.8-3.2,2-6.6L415,21.4C415.8,24.8,418,26.8,419.6,26.4Zm1.8,1033.8c.8-3.4-.4-6.2-2-6.6s-3.8,1.6-4.6,5ZM408.6,27.8c1.4-.4,2.4-2.6,2-5.6a59.84,59.84,0,0,0-6.4,1.6C405.2,26.8,407.2,28.2,408.6,27.8Zm1.8,1029.8c.4-3-.6-5.2-2-5.6s-3.4,1.2-4.4,3.8A44.53,44.53,0,0,0,410.4,1057.6ZM398.2,31.8c1.6-.4,2.6-3.2,1.6-6.6L393.2,27C394.2,30.4,396.6,32.4,398.2,31.8Zm1.6,1023c.8-3.4-.2-6.2-1.6-6.8-1.6-.4-3.8,1.4-4.8,4.8ZM387.2,33.8c1.4-.4,2.4-2.6,1.8-5.6L382.6,30C383.8,32.8,385.8,34.2,387.2,33.8Zm1.8,1018c.6-3-.4-5.2-1.8-5.6s-3.4,1-4.6,3.8ZM377,38.2c1.6-.4,2.4-3.4,1.4-6.8L372,33.6C373,37,375.6,38.8,377,38.2Zm1.2,1010.4c1-3.4.2-6.2-1.4-6.8-1.6-.4-4,1.2-5,4.6ZM366.2,40.8c1.4-.4,2.2-2.8,1.6-5.6l-6.2,2.2C362.8,39.8,364.8,41.2,366.2,40.8ZM367.6,1045c.6-2.8-.2-5.2-1.6-5.8-1.4-.4-3.4,1-4.8,3.6ZM356.2,45.4c1.4-.6,2.2-3.6,1-6.8L350.8,41C352.2,44.4,354.6,46,356.2,45.4Zm1,996c1.2-3.2.4-6.2-1-6.8s-4,1-5.2,4.4Zm-11.8-993c1.4-.6,2-3,1.2-5.8L340.4,45C342,47.8,344.2,49,345.4,48.4Zm1.2,988.8c.8-2.8,0-5.2-1.2-5.8-1.4-.6-3.6.8-4.8,3.4Zm-11-983.6c1.4-.6,2.2-3.6.8-6.8a57.59,57.59,0,0,0-6.2,2.6C331.6,52.6,334,54,335.6,53.6Zm.8,979.6c1.4-3.2.6-6.2-.8-6.8s-4,1-5.4,4.2A44.44,44.44,0,0,0,336.4,1033.2ZM325,57c1.2-.6,1.8-3,1-5.8L320,54C321.6,56.4,323.8,57.6,325,57Zm1,971.8c.8-2.8.2-5.2-1-5.8s-3.6.6-5,3.2ZM315.4,62.6c1.4-.6,2-3.6.6-6.8l-6.2,2.8C311.2,61.8,314,63.2,315.4,62.6Zm.4,961.6c1.4-3.2,1-6.2-.6-6.8-1.4-.6-4.2.8-5.6,4ZM305,66.4c1.2-.6,1.8-3.2.8-6l-6,3C301.4,66,303.8,67.2,305,66.4Zm.6,953c1-2.8.4-5.2-.8-6-1.2-.6-3.6.4-5.2,2.8Zm-10-947c1.4-.8,1.8-3.8.2-6.8l-6,3C291.6,71.8,294.2,73.2,295.6,72.4Zm.2,942c1.6-3.2,1.2-6.2-.2-6.8-1.4-.8-4.2.6-5.8,3.8ZM285.4,76.6c1.2-.6,1.6-3.2.6-6L280.2,74C281.8,76.4,284.2,77.4,285.4,76.6Zm.4,932.6c1.2-2.8.8-5.2-.6-6-1.2-.8-3.6.2-5.2,2.6Zm-9.6-926c1.4-.8,1.8-3.8,0-6.8l-5.8,3.4C272.2,82.6,275,84,276.2,83.2Zm0,920.4c1.8-3,1.4-6,0-6.8s-4.2.4-6,3.6Zm-10-915.8c1.2-.8,1.6-3.2.4-5.8L261,85.4C262.6,87.6,265,88.4,266.2,87.8Zm.2,910.2c1.2-2.6.8-5.2-.4-5.8-1.2-.8-3.6,0-5.4,2.4Zm-9-903.4c1.4-.8,1.6-3.8-.4-6.8l-5.8,3.6C253.2,94.4,256,95.4,257.4,94.6ZM257,992.2c1.8-3,1.8-6,.4-6.8s-4.2.2-6,3.2ZM247.6,99.6c1.2-.8,1.4-3.2,0-5.8L242,97.4C243.8,99.6,246.2,100.4,247.6,99.6Zm0,886.6c1.4-2.6,1.2-5.2,0-5.8-1.2-.8-3.6,0-5.6,2.2ZM239,106.8c1.2-1,1.4-4-.6-6.8l-5.6,4C234.8,106.8,237.8,107.8,239,106.8ZM238.2,980c2-3,2-6,.6-6.8-1.4-1-4.2,0-6.2,3Zm-8.8-867.6c1.2-.8,1.2-3.4-.2-5.8l-5.4,3.8C225.8,112.4,228.2,113.2,229.4,112.4Zm-.2,861c1.4-2.6,1.4-5,.2-6-1.2-.8-3.6-.2-5.6,2Zm-8-853.6c1.2-1,1.2-4-1-6.8l-5.4,4.2C217,120,219.8,120.8,221.2,119.8ZM220,967c2.2-2.8,2.2-6,1-6.8-1.2-1-4.2-.2-6.4,2.6Zm-7.6-840.4c1.2-1,1.2-4-1-6.8L206,124C208.2,126.8,211.2,127.6,212.4,126.6ZM211.2,960c1.6-2.6,1.6-5,.4-6-1.2-.8-3.6-.2-5.6,1.8Zm-8.8-6.8c2.2-2.8,2.4-5.8,1.2-6.8s-4.2-.4-6.4,2.4C199,950.4,200.8,951.8,202.4,953.2Zm.6-820.6c1-1,1-3.4-.6-5.8-1.8,1.4-3.4,2.8-5,4.2C199.6,133,202,133.6,203,132.6Zm-7.6,8.2c1.2-1,1-4-1.4-6.8l-5.2,4.4C191.2,141,194.2,141.8,195.4,140.8ZM194,946c1.6-2.4,1.8-5,.6-6-1-1-3.6-.4-5.8,1.6Zm-7-798c1.2-1,.8-4-1.4-6.6l-5,4.4C182.8,148.4,185.8,149,187,148Zm-1.4,790.6c2.4-2.6,2.6-5.6,1.4-6.6s-4.2-.4-6.6,2.2Zm-7.4-784c1-1,.8-3.6-1-5.8l-4.8,4.6C174.8,155.4,177.2,155.6,178.2,154.6Zm-1,776.4c1.8-2.4,2-4.8,1-5.8s-3.6-.6-5.8,1.2ZM171,163.2c1.2-1,.8-4-1.8-6.6l-5,4.6C166.8,163.6,169.8,164.2,171,163.2Zm-1.8,760.2c2.4-2.6,2.8-5.6,1.8-6.6-1.2-1-4.2-.6-6.6,2Zm-6.8-753.2c1-1,.6-3.6-1.2-5.8l-4.6,4.8C159,171,161.4,171.2,162.4,170.2Zm-1.2,745.4c1.8-2.4,2.2-4.8,1.2-5.8s-3.4-.8-5.8,1ZM155.6,179c1-1.2.6-4.2-2-6.6l-4.6,5C151.4,179.6,154.4,180,155.6,179Zm-2.2,728.6c2.6-2.4,3.2-5.4,2-6.6-1-1.2-4-.8-6.6,1.6Zm-6.2-721.4c1-1,.4-3.6-1.4-5.8l-4.4,5C143.8,187.2,146.2,187.4,147.2,186.2Zm-1.6,713.2c2-2.2,2.4-4.8,1.4-5.8s-3.4-1-5.8.8Zm-4.8-704c1-1.2.4-4.2-2.4-6.4l-4.4,5C136.6,196.2,139.8,196.6,140.8,195.4ZM138.4,891c2.6-2.4,3.4-5.2,2.4-6.4s-4-1-6.8,1.4Zm-5.6-688c1-1,.4-3.6-1.6-5.6a53,53,0,0,0-4.2,5.2C129.4,204,131.8,204,132.8,203ZM131,882.6c2-2.2,2.6-4.6,1.6-5.6s-3.4-1-5.8.6C128.2,879.2,129.6,881,131,882.6Zm-4.4-670.2c1-1.2.2-4.2-2.6-6.4l-4.2,5.4C122.6,213.4,125.6,213.6,126.6,212.4ZM124,874c2.8-2.2,3.6-5.2,2.6-6.4s-4-1.2-6.8,1Zm-5-653.6c.8-1.2.2-3.6-1.8-5.6L113,220C115.6,221.6,118.2,221.6,119,220.4Zm-2,644.8c2.2-2,2.8-4.4,1.8-5.6s-3.4-1.2-6,.4ZM113.2,230c1-1.2,0-4.2-2.8-6.2l-2,2.8-2,2.8C109.4,231.2,112.4,231.2,113.2,230Zm-2.8,626.4c2.8-2.2,3.8-5,2.8-6.4-1-1.2-4-1.2-6.8.8l2,2.8ZM106,238.2c.8-1.2.2-3.6-2.2-5.6L100,238C102.6,239.6,105.2,239.4,106,238.2Zm-2.2,609c2.2-2,3-4.4,2.2-5.6s-3.4-1.2-6,0ZM97.4,838c3-2,4-4.8,3.2-6.2s-3.8-1.4-6.8.4Zm3.2-590c.8-1.4-.2-4.2-3.2-6.2l-3.6,5.8C96.8,249.4,99.8,249.4,100.6,248ZM91.4,828.6c2.4-1.8,3.2-4.2,2.4-5.4s-3.2-1.4-6-.2Zm2.4-571.8c.8-1.2,0-3.6-2.4-5.4L87.8,257C90.4,258.2,93,258,93.8,256.8Zm-5.2,9.8c.8-1.4-.2-4.2-3.4-6l-3.6,5.8C85,268.2,88,268,88.6,266.6ZM85.4,819.2c3-1.8,4.2-4.6,3.4-6s-3.8-1.6-6.8.2A55.1,55.1,0,0,0,85.4,819.2ZM82.2,275.6c.8-1.2-.2-3.6-2.6-5.4L76.2,276C79,277.2,81.6,276.8,82.2,275.6Zm-2.6,534c2.4-1.8,3.4-4.2,2.6-5.4s-3.2-1.6-6-.4Zm-2-523.8c.8-1.4-.4-4.2-3.6-5.8l-3.4,5.8C73.8,287.6,76.8,287.2,77.6,285.8ZM74,800c3-1.8,4.4-4.4,3.6-5.8s-3.8-1.8-7,0ZM71.6,295c.6-1.2-.4-3.6-2.8-5.2l-3,6C68.4,296.8,71,296.4,71.6,295Zm-3,495c2.4-1.6,3.4-4,2.8-5.2s-3.2-1.8-5.8-.6ZM67.4,305.4c.8-1.4-.6-4-3.8-5.6l-3.2,6C63.8,307.2,66.8,306.8,67.4,305.4ZM63.6,780.2c3.2-1.6,4.6-4.2,3.8-5.6s-3.8-1.8-7-.4Zm-2-465.4c.6-1.2-.6-3.6-3-5.2l-2.8,6C58.6,316.8,61,316.2,61.6,314.8Zm-3,455.4c2.4-1.6,3.6-3.8,3-5.2-.6-1.2-3-1.8-5.8-1ZM58,325.4c.6-1.4-.8-4-4-5.6L51.2,326C54.4,327.4,57.4,326.8,58,325.4ZM54,760c3.2-1.4,4.8-4,4-5.6-.6-1.4-3.6-2-6.8-.6Zm-4.6-10.2c3.2-1.4,4.8-4,4.2-5.4s-3.6-2.2-6.8-.8A57.59,57.59,0,0,0,49.4,749.8ZM52.6,335c.4-1.4-.6-3.6-3.2-5a57.59,57.59,0,0,0-2.6,6.2C49.6,337,52,336.4,52.6,335Zm-3,10.8c.6-1.4-1-4-4.4-5.4l-2.4,6.4C46,348,49,347.2,49.6,345.8ZM45.2,739.4c2.6-1.4,3.8-3.6,3.4-5-.6-1.4-3-2-5.8-1.2ZM41,729.2c3.4-1.2,5-3.8,4.4-5.2s-3.6-2.2-6.8-1Zm3.4-373.6c.6-1.4-.8-3.4-3.4-4.8L38.6,357C41.6,357.8,44,357,44.4,355.6Zm-2.6,10.8c.4-1.6-1.2-4-4.6-5.2L35,367.6C38.4,368.8,41.2,368,41.8,366.4ZM37.2,718.6c3.4-1.2,5-3.6,4.6-5.2s-3.4-2.4-6.8-1.2Zm0-342c.4-1.4-1-3.4-3.6-4.6l-2.2,6.4C34.4,378.8,36.8,378,37.2,376.6ZM33.6,708c2.6-1.2,4-3.4,3.6-4.6-.4-1.4-2.8-2.2-5.8-1.6ZM35,387.4c.4-1.6-1.4-4-4.8-5L28.4,389C31.6,390,34.4,389,35,387.4Zm-5,310c3.4-1,5.2-3.4,4.8-5s-3.2-2.6-6.6-1.6Zm.8-299.6c.4-1.4-1-3.4-3.8-4.6l-1.8,6.4C28.2,400.2,30.4,399.2,30.8,397.8ZM27,686.6c2.8-1.2,4.2-3.2,3.8-4.6s-2.8-2.4-5.6-1.8Zm2-277.8c.4-1.6-1.4-3.8-5-4.8-.6,2.2-1.2,4.4-1.6,6.6C25.8,411.4,28.6,410.2,29,408.8ZM24,676c3.4-1,5.2-3.2,5-4.8s-3.2-2.6-6.6-1.8C22.8,671.6,23.4,673.8,24,676Zm1.4-256.8c.4-1.4-1.2-3.4-4-4.4l-1.6,6.4C22.8,421.8,25,420.6,25.4,419.2ZM21.4,665c2.8-1,4.4-3,4-4.4s-2.6-2.4-5.6-2.2ZM24,430.2c.4-1.6-1.6-3.8-5.2-4.6l-1.6,6.6C20.8,433,23.6,431.8,24,430.2Zm-5.2,224c3.4-.8,5.4-3,5-4.6s-3.2-2.8-6.6-2Zm2-213.2c.2-1.4-1.4-3.4-4.2-4.2l-1.2,6.6C18.4,443.4,20.6,442.2,20.8,441ZM16.6,643.2c2.8-.8,4.4-2.8,4.2-4.2s-2.4-2.6-5.4-2.4ZM19.8,452c.2-1.6-1.8-3.8-5.2-4.4l-1.2,6.6C16.8,455,19.6,453.6,19.8,452ZM14.6,632.2c3.4-.6,5.6-2.8,5.4-4.4s-3-2.8-6.4-2.4ZM17,462.8c.2-1.4-1.6-3.2-4.4-4l-.8,6.6C14.6,465.4,16.8,464.2,17,462.8ZM12.6,621.2c2.8-.8,4.6-2.6,4.4-4s-2.4-2.6-5.2-2.6Zm4-147.4c.2-1.6-2-3.6-5.6-4.2l-.8,6.8C13.8,476.8,16.4,475.4,16.6,473.8ZM11.2,610.2c3.6-.4,5.8-2.6,5.6-4-.2-1.6-2.8-3-6.4-2.6Zm3.2-114.4c.2-1.6-2.2-3.6-5.8-3.8L8,498.8C11.6,499,14.4,497.4,14.4,495.8ZM8.6,588c3.6-.4,5.8-2.4,5.8-3.8-.2-1.6-2.8-3.2-6.2-2.8Zm5.6-103.2c.2-1.4-1.6-3.2-4.4-3.8-.2,2.2-.6,4.4-.8,6.6C12,487.4,14,486.2,14.2,484.8ZM9.8,599c2.8-.6,4.6-2.4,4.4-3.8S12,592.4,9,592.4C9.2,594.6,9.6,596.8,9.8,599ZM7,565.6c3.6-.2,6-2,6-3.6s-2.6-3.2-6-3.2Zm6-47.8c0-1.6-2.4-3.4-6-3.6L6.8,521C10.4,521.2,13,519.4,13,517.8Zm-5.2,59c3-.6,4.8-2.2,4.6-3.6s-2.2-2.8-5.2-3Zm4.6-70c0-1.4-1.8-3.2-4.6-3.6l-.6,6.6C10.4,509.6,12.4,508.2,12.4,506.8ZM6.6,543.4c3.6,0,6-1.8,6-3.4s-2.4-3.4-6-3.4A38.59,38.59,0,0,0,6.6,543.4Zm.2,11c3-.4,4.8-2,4.8-3.4s-2-3-5-3.2Zm4.8-25.6c0-1.4-2-3-4.8-3.4L6.6,532C9.6,531.8,11.6,530.2,11.6,528.8Z" style="fill:#182755"/></g></g></g></svg>