<svg xmlns="http://www.w3.org/2000/svg" width="1004.6" height="1002.8" viewBox="0 0 1004.6 1002.8"><title>9_almost_outer_gears_1005 (2)</title><g id="Layer_2" data-name="Layer 2"><g id="Layer_1-2" data-name="Layer 1"><g id="_9_almost_outer_gears_1005" data-name="9_almost_outer_gears_1005"><path d="M36.8,333.8c-4.2-1.6-7-5-5.8-7.6,0-.2.2-.4.4-.6,1.4-2.2,5.2-2.8,9.2-1.4h0c-3.6-1.8-5.6-4.8-4.6-7.4s4.6-3.4,8.4-2.2h0c-4.2-1.8-6.6-5.2-5.6-8,1.2-2.8,5.4-3.4,9.6-1.6-4.2-1.8-6.4-5.4-5.2-8s5.4-3.4,9.6-1.4h0c-3.6-2-5.4-5.2-4.2-7.6s4.8-3.2,8.4-1.6h0c-4.2-2-6.2-5.6-5-8.2,1.4-2.6,5.6-3,9.6-1h0c-3.4-2.2-5-5.4-3.8-7.8s4.8-3,8.6-1.4h0c-4-2.2-6.2-6-4.6-8.4,1.4-2.6,5.8-2.8,9.6-.6h0c-3.4-2.2-4.8-5.6-3.6-8,1.4-2.4,5-2.6,8.6-1h0c-4-2.2-5.8-6.2-4.4-8.6,1.6-2.4,5.8-2.6,9.8-.2h0c-3.2-2.4-4.6-5.8-3.2-8.2,1.4-2.2,5.2-2.4,8.6-.6h0c-3.8-2.4-5.6-6.4-4-8.8,1.6-2.6,5.8-2.4,9.6.2h0c-3.2-2.6-4.4-6-2.8-8.2s5.2-2.2,8.8-.2h0c-3.6-2.6-5.2-6.6-3.6-9,1.8-2.4,6-2.2,9.6.6h0c-3-2.6-4.2-6.2-2.4-8.4,1.6-2.2,5.4-2,8.8.2h0c-3.6-2.8-5-6.8-3.2-9.2s6-2,9.6,1h0c-2.8-2.8-4-6.4-2.2-8.4s5.6-1.8,8.8.6h0c-3.4-3-4.6-7-2.8-9.2,2-2.2,6.2-1.6,9.6,1.4h0c-2.8-3-3.6-6.6-1.8-8.6s5.6-1.6,8.6,1h0c-3.4-3-4.4-7.2-2.4-9.4s6.2-1.4,9.4,1.8h0c-2.6-3-3.4-6.6-1.4-8.6,1.8-2,5.4-1.4,8.6,1.2h0c-3.2-3.2-4-7.4-1.8-9.4s6.2-1,9.4,2.2h0c-2.6-3.2-3-6.8-1-8.6s5.6-1.2,8.6,1.6h0c-3-3.4-3.8-7.6-1.6-9.6s6.4-.8,9.4,2.6h0c-2.4-3.2-2.8-6.8-.8-8.6s5.6-1,8.4,2h0c-3-3.4-3.4-7.6-1.2-9.6s6.4-.4,9.2,3h0c-2.2-3.4-2.4-7-.4-8.6,2.2-1.6,5.6-.6,8.4,2.4h0c-2.8-3.6-3.2-7.8-.8-9.6s6.2-.4,9,3.2h0c-2.2-3.4-2.2-7,0-8.6s5.8-.4,8.4,2.6h0c-2.6-3.8-2.8-8-.4-9.6,2.4-1.8,6.2-.2,8.8,3.6h0c-2-3.6-2-7.2.4-8.6,2.2-1.4,5.8-.2,8.2,3h0c-2.4-3.8-2.4-8,0-9.6s6.4.2,8.8,4h0c-1.8-3.6-1.6-7.4.6-8.8,2.4-1.4,5.8.2,8,3.4h0c-2.4-3.8-2.2-8.2.4-9.6s6.4.4,8.6,4.4h0c-1.6-3.6-1.2-7.4,1-8.8,2.4-1.4,5.8.2,7.8,3.6h0c-2.2-4-1.8-8.2.8-9.6s6.4.8,8.4,4.8h0c-1.6-3.8-1-7.4,1.4-8.6s5.6.4,7.8,4h0c-2-4.2-1.4-8.4,1.2-9.6,2.8-1.2,6.2,1,8.2,5.2h0c-1.4-3.8-.6-7.4,1.8-8.6,2.4-1,5.6.8,7.6,4.4h0c-1.8-4.2-1.2-8.4,1.6-9.6,2.8-1,6.2,1.4,8,5.6h0c-1.2-3.8-.4-7.4,2.2-8.4s5.6,1,7.4,4.6h0c-1.6-4.2-.8-8.4,2-9.6s6.2,1.6,7.8,5.8h0c-1-3.8,0-7.4,2.6-8.2s5.6,1.2,7.2,5h0c-1.4-4.4-.4-8.4,2.4-9.4s6,1.6,7.4,6h0c-.8-4,.2-7.4,3-8.2,2.6-.8,5.6,1.6,7,5.4h0c-1.2-4.4,0-8.4,2.8-9.2s6,2,7.2,6.4h0c-.8-4,.6-7.6,3.2-8.2s5.4,1.8,6.8,5.6h0c-1.2-4.4.4-8.4,3.2-9s6,2.2,6.8,6.8h0c-.6-4,1-7.4,3.6-8s5.4,1.8,6.4,5.8h0c-1-4.4.6-8.4,3.6-8.8,3-.6,5.8,2.6,6.6,7h0c-.4-4,1.2-7.4,4-7.8,2.6-.4,5.2,2,6.2,6h0c-.8-4.4,1-8.4,4-8.8s5.8,2.8,6.4,7.4h0c-.2-4,1.6-7.2,4.2-7.6s5.2,2.4,6,6.4h0c-.6-4.4,1.4-8.4,4.4-8.8s5.6,3.2,6,7.6h0c0-4,1.8-7.2,4.6-7.4s5,2.6,5.6,6.6h0c-.4-4.6,1.8-8.2,4.6-8.4,3-.2,5.4,3.2,5.6,7.6h0c.2-4,2.2-7,4.8-7.2,2.8,0,5,2.8,5.4,6.8h0c-.2-4.6,2-8.2,5-8.2s5.4,3.4,5.4,8h0c.2-4,2.4-7,5.2-7.2C503.6.8,505.6,4,506,8h0c0-4.6,2.4-8,5.4-8s5.2,3.8,5,8.2c.2-4.6,2.6-8,5.6-8s5.2,3.6,4.8,8.2h0c.6-4,2.8-6.8,5.6-6.6C535,2,537,5.2,537,9.2h0c.4-4.6,2.8-8,5.8-7.6,3,.2,5,4,4.4,8.4.4-4.4,3-8,6-7.6s4.8,4.2,4.2,8.8h0c.8-4,3.2-6.6,6-6.4,2.8.4,4.4,3.6,4.2,7.6h0C568.2,8,571,4.6,574,5s4.6,4.2,4,8.8h0c1-4,3.6-6.4,6.2-6s4.2,3.8,3.8,7.8h0c.8-4.4,3.8-7.6,6.6-7,3,.6,4.4,4.4,3.6,8.8h0c1.2-3.8,3.8-6.4,6.4-5.8s4,4,3.6,8h0c1-4.2,3.8-7,6.4-6.8h.4c2.8.6,4.2,4.6,3.2,9h0c1.2-3.8,4.2-6.2,6.8-5.6s4,4.2,3.2,8.2h0c1.2-4.4,4.4-7.2,7.2-6.4s4,4.8,2.8,9.2h0c1.4-3.8,4.4-6,7-5.4,2.6.8,3.8,4.2,3,8.2h0c1.4-4.4,4.6-7,7.4-6s3.8,5,2.4,9.4h0c1.6-3.8,4.6-5.8,7.2-5s3.6,4.4,2.6,8.2h0c1.6-4.2,5-7,7.6-5.8,2.8,1.2,3.6,5.2,2,9.6h0c1.8-3.6,4.8-5.6,7.4-4.6s3.4,4.6,2.2,8.4h0c1.8-4.2,5.2-6.6,8-5.6,2.8,1.2,3.4,5.4,1.6,9.6h0c1.8-3.6,5-5.4,7.6-4.2,2.4,1.2,3.2,4.8,1.8,8.6h0c2-4.2,5.4-6.4,8.2-5.2s3.2,5.4,1.2,9.6h0c2-3.4,5.2-5.2,7.8-4,2.4,1.2,3,5,1.4,8.6h0c2-4,5.8-6.2,8.4-4.8s3,5.6.8,9.6h0c2.2-3.4,5.6-5,7.8-3.6,2.4,1.4,2.8,5,1,8.8h0c2.2-4,6-6,8.6-4.4,2.6,1.4,2.8,5.6.4,9.6h0c2.4-3.2,5.8-4.8,8.2-3.4,2.2,1.4,2.6,5.2.6,8.8h0c2.4-3.8,6.2-5.6,8.8-4s2.4,5.8,0,9.6h0c2.4-3.2,6-4.6,8.2-3,2.4,1.4,2.4,5.2.4,8.6h0c2.6-3.8,6.4-5.4,8.8-3.6s2.2,6-.4,9.6h0c2.6-3.2,6-4.2,8.4-2.6,2.2,1.6,2.2,5.2,0,8.6h0c2.8-3.6,6.8-5.2,9-3.4,2.4,1.8,2,6-.8,9.6h0c2.8-3,6.2-4,8.4-2.4s2,5.4-.4,8.6h0c2.8-3.6,7-4.8,9.2-3,2.2,2,1.6,6.2-1.2,9.6h0c2.8-2.8,6.4-3.8,8.4-2s1.8,5.4-.8,8.6h0c3-3.4,7.2-4.6,9.4-2.6,2.2,1.8,1.4,6.2-1.6,9.6h0c3-2.8,6.6-3.4,8.6-1.6s1.4,5.6-1,8.6h0c3.2-3.2,7.2-4.2,9.4-2.2s1.4,6.2-1.8,9.4h0c3-2.6,6.6-3.2,8.6-1.2,1.8,2,1.2,5.6-1.4,8.6h0c3.2-3.2,7.4-4,9.4-1.8s1,6.2-2.4,9.4h0c3.2-2.4,7-3,8.8-.8,1.8,2,1,5.6-1.8,8.6h0c3.4-3,7.6-3.6,9.6-1.4s.8,6.4-2.8,9.2h0c3.2-2.4,7-2.6,8.8-.6s.8,5.8-2.2,8.4h0c3.6-2.8,7.8-3.2,9.6-1,1.8,2.4.4,6.4-3.2,9.2h0c3.4-2.2,7-2.4,8.8-.2s.6,5.6-2.4,8.4h0c3.6-2.8,7.8-3,9.6-.6s.2,6.4-3.6,9h0c3.4-2,7.2-2,8.8.2s.4,5.6-2.8,8.2h0c3.8-2.6,8-2.8,9.6-.2,1.6,2.4-.2,6.4-4,8.8h0c3.6-2,7.2-1.8,8.8.6s0,5.8-3.2,8.2h0c3.8-2.4,8.2-2.4,9.8.2a.7.7,0,0,0,.2.4c1,2.6-.8,6.2-4.6,8.2h0c3.6-1.8,7.2-1.4,8.6,1s-.2,5.8-3.6,8h0c4-2.2,8.2-2,9.6.6,1.6,2.6-.6,6.2-4.6,8.4h0c3.8-1.6,7.4-1.2,8.6,1.2s-.4,5.8-3.8,7.8h0c4-2,8.2-1.6,9.6,1s-.8,6.2-5,8.2h0c3.8-1.4,7.4-.8,8.6,1.6s-.8,5.8-4.2,7.6h0c4.2-1.8,8.4-1.2,9.6,1.4s-1,6.2-5.2,8h0c3.8-1.2,7.6-.6,8.6,2s-1,5.6-4.6,7.6h0c4.2-1.8,8.4-1,9.4,1.8s-1.4,6.2-5.6,7.8h0c3.8-1.2,7.4-.2,8.4,2.4s-1.2,5.6-4.8,7.2h0c4.2-1.6,8.4-.6,9.4,2.2s-1.6,6.2-6,7.6h0c4-1,7.4.2,8.4,2.6.8,2.6-1.4,5.6-5,7h0c4.4-1.4,8.4-.2,9.2,2.6s-2,6-6.4,7.4c4.4-1.2,8.4,0,9.2,2.8v.4c.4,2.6-2.4,5.6-6.4,6.6h0c4-.8,7.6.6,8.2,3.2s-1.8,5.4-5.6,6.8h0c4.4-1.2,8.4.4,9,3.2s-2.2,6-6.8,6.8c4.4-1,8.4.4,9,3.4.8,2.8-2.4,5.8-6.8,6.8h0c4-.4,7.4,1,7.8,3.8.4,2.6-2.2,5.4-6,6.4h0c4.4-.8,8.4.8,8.8,3.8.6,3-2.6,5.8-7,6.4h0c4-.4,7.4,1.4,7.6,4,.4,2.6-2.4,5.2-6.2,6.2h0c4.4-.6,8.4,1.2,8.6,4.2.4,3-2.8,5.6-7.4,6.2h0c4-.2,7.4,1.6,7.6,4.4.4,2.6-2.6,5.2-6.6,5.8h0c4.6-.4,8.2,1.6,8.4,4.6s-3.2,5.6-7.6,5.8h0c4,0,7.2,2,7.4,4.8.2,2.6-2.6,5-6.6,5.6h0c4.6-.2,8.2,2,8.2,4.8,0,3-3.4,5.4-8,5.6h0c4,.2,7,2.2,7.2,5,0,2.8-2.8,5-7,5.2v.2c4.6,0,8.2,2.2,8.2,5.2s-3.8,5.2-8.2,5.2h0c4,.4,7,2.6,7,5.2,0,2.8-3.2,4.8-7.2,5h0c4.6.2,8,2.6,8,5.6s-3.6,5.2-8.2,4.8h0c4,.6,6.8,2.8,6.6,5.6-.2,2.6-3.4,4.6-7.4,4.6h0c4.6.4,8,2.8,7.6,5.8-.2,3-4,5-8.4,4.4h0c4,.6,6.8,3.2,6.6,5.8-.4,2.8-3.6,4.4-7.6,4.4h0c4.6.6,7.8,3.2,7.4,6.2s-4.2,4.8-8.6,4.2h0c4,.8,6.6,3.4,6.4,6.2s-3.6,4.4-7.6,4h0c4.4.8,7.6,3.6,7,6.4s-4.4,4.6-8.8,3.8h0c3.8,1,6.4,3.6,6,6.4-.4,2.6-3.8,4.2-7.8,3.8h0c4.4,1,7.6,3.8,6.8,6.8-.6,2.8-4.6,4.4-9,3.4h0c3.8,1.2,6.2,4,5.6,6.6s-4,4-8,3.4h0c4.4,1,7.4,4.2,6.6,7s-4.8,4.2-9.2,3h0c3.8,1.4,6,4.2,5.4,6.8-.8,2.6-4.2,3.8-8.2,3h0c4.4,1.2,7.2,4.4,6.4,7.4-.8,2.8-4.8,4-9.2,2.6h0c3.8,1.6,6,4.4,5,7-.8,2.6-4.4,3.6-8.4,2.8h0c4.4,1.4,7,4.8,6,7.6s-5,3.8-9.4,2.2h0c3.6,1.6,5.8,4.8,4.8,7.2-1,2.6-4.6,3.4-8.4,2.4h0c4.2,1.6,6.8,5,5.6,7.8-1,2.8-5.2,3.6-9.4,1.8h0c3.6,1.8,5.6,5,4.6,7.6-1,2.4-4.8,3.2-8.6,2h0c4.2,1.8,6.4,5.4,5.2,8-1.2,2.8-5.4,3.4-9.6,1.4h0c3.6,2,5.4,5.2,4.2,7.6s-4.8,3.2-8.6,1.6h0c4,2,6.2,5.6,4.8,8.2s-5.6,3-9.6,1h0c3.4,2.2,5.2,5.4,3.8,7.8-1.2,2.4-4.8,3-8.6,1.2h0c4,2.2,6.2,6,4.6,8.4-1.4,2.6-5.8,2.8-9.6.6h0c3.4,2.2,4.8,5.6,3.6,8-1.4,2.4-5,2.8-8.6,1h0c3.6,2.2,5.6,5.6,4.6,8.2,0,.2-.2.2-.2.4-1.6,2.4-5.8,2.6-9.8.2h0c3.2,2.4,4.6,5.8,3.2,8s-5.2,2.4-8.6.6h0c3.8,2.4,5.6,6.4,4,8.8-1.6,2.6-5.8,2.4-9.6-.2h0c3.2,2.6,4.4,6,2.8,8.2s-5.2,2.2-8.8.2h0c3.8,2.6,5.2,6.6,3.6,9-1.8,2.4-6,2.2-9.6-.6h0c3,2.6,4.2,6.2,2.4,8.4-1.6,2.2-5.4,2-8.8-.2h0c3.6,2.8,5,6.8,3.2,9.2s-6,2-9.6-1h0c3,2.8,4,6.4,2.2,8.4s-5.6,1.8-8.8-.6h0c3.4,3,4.6,7,2.8,9.2-2,2.2-6.2,1.6-9.6-1.4h0c2.8,2.8,3.6,6.6,1.8,8.6s-5.6,1.6-8.6-1h0c3.4,3,4.4,7.2,2.4,9.2-2,2.2-6.2,1.4-9.4-1.8h0c2.6,3,3.4,6.6,1.4,8.6-1.8,2-5.6,1.4-8.6-1.2h0c3.2,3.2,4,7.4,2,9.4-2.2,2-6.2,1-9.4-2.2h0c2.6,3.2,3,6.8,1,8.6s-5.6,1.2-8.6-1.6h0c3,3.2,3.8,7.6,1.6,9.6s-6.4.8-9.4-2.6h0c2.4,3.2,2.8,6.8.8,8.6s-5.6,1-8.4-2h0c3,3.4,3.4,7.6,1.2,9.6s-6.4.6-9.2-3h0c2.2,3.4,2.4,7,.4,8.6s-5.6.6-8.4-2.4h0c2.8,3.6,3.2,7.8.8,9.6-2.2,1.8-6.2.4-9-3.2h0c2.2,3.4,2.2,7,0,8.6s-5.8.4-8.4-2.8h0c2.6,3.8,2.8,8,.4,9.6-2.4,1.8-6.2.2-8.8-3.6,2.6,3.8,2.8,8,.2,9.6a3.86,3.86,0,0,1-2,.6c-2.2,0-5-1.8-6.8-4.6h0c2,3.6,1.8,7.2-.6,8.8-2.2,1.4-5.6,0-8-3.2h0c2.4,3.8,2.4,8.2-.2,9.8-2.6,1.4-6.4-.4-8.8-4.4,2.4,4,2.2,8.2-.4,9.6s-6.4-.4-8.6-4.4h0c1.6,3.6,1.2,7.4-1,8.8-2.4,1.4-5.6-.2-7.8-3.6h0c2.2,4,1.8,8.2-.8,9.6s-6.4-.8-8.4-4.8h0c1.6,3.8,1,7.4-1.4,8.6s-5.6-.4-7.8-4h0c2,4.2,1.4,8.4-1.2,9.6s-6.2-1-8.2-5.2h0c1.4,3.8.6,7.4-1.8,8.6s-5.6-.8-7.6-4.2h0c1.8,4.2,1.2,8.4-1.6,9.6-2.8,1-6.2-1.4-8-5.6h0c1.2,3.8.4,7.4-2.2,8.4s-5.6-1-7.4-4.6h0c1.6,4.2.8,8.4-2,9.6s-6.2-1.6-7.6-5.8h0c1,3.8,0,7.4-2.6,8.2s-5.6-1.2-7.2-5h0c1.4,4.2.4,8.4-2.4,9.4a2.54,2.54,0,0,1-1.2.2c-2.4,0-5-2.4-6.2-6.2.8,4-.2,7.4-3,8.2-2.6.8-5.6-1.6-7-5.4h0c1.2,4.4,0,8.4-2.8,9.2s-6-2-7.2-6.4h0c.8,4-.6,7.6-3.2,8.2s-5.4-1.8-6.8-5.6h0c1.2,4.4-.4,8.4-3.2,9s-6-2.2-6.8-6.8h0c.6,4-1,7.4-3.6,8s-5.4-2-6.4-5.8h0c.8,4.4-.6,8.4-3.6,8.8-3,.6-5.8-2.6-6.6-7h0c.4,4-1.2,7.4-4,7.8-2.6.4-5.2-2-6.2-6h0c.8,4.4-1,8.4-4,8.8s-5.8-2.8-6.4-7.4h0c.2,4-1.6,7.2-4.2,7.6s-5.2-2.4-6-6.4h0c.6,4.4-1.4,8.4-4.2,8.8-3,.4-5.6-3.2-6-7.6h0c0,4-1.8,7.2-4.6,7.4-2.6.2-5-2.6-5.6-6.6h0c.4,4.6-1.8,8.2-4.6,8.4-3,.2-5.4-3.2-5.6-7.6h0c0,4-2.2,7-4.8,7.2-2.8,0-5-2.8-5.4-6.8h0c.2,4.6-2,8.2-5,8.2s-5.4-3.4-5.4-8h0c-.2,4-2.4,7.2-5.2,7.2s-4.8-3.2-5.2-7.2h0c0,4.6-2.4,8-5.4,8s-5.2-3.8-5-8.2h0c-.4,4-2.8,7-5.4,6.8-2.8,0-4.8-3-4.8-7.2h0c-.2,4.6-2.8,8-5.6,7.6-3-.2-5-4-4.6-8.4h0c-.6,4-3,6.8-5.8,6.6s-4.6-3.4-4.6-7.4h0c-.4,4.4-3,8-6,7.6s-4.8-4.2-4.2-8.8h0c-.8,4-3.2,6.6-6,6.4-2.8-.4-4.4-3.6-4.2-7.6h0c-.6,4.4-3.4,7.8-6.4,7.4s-4.6-4.2-4-8.8h0c-1,4-3.6,6.4-6.2,6s-4.2-3.8-3.8-7.8h0c-.8,4.4-3.6,7.6-6.6,7s-4.4-4.4-3.6-8.8h0c-1,3.8-3.8,6.4-6.4,5.8s-4.2-4-3.6-8h0c-1,4.2-3.8,7-6.4,6.8H387c-2.8-.6-4.2-4.6-3.2-9h0c-1.2,3.8-4,6.2-6.8,5.6-2.6-.6-4-4.2-3.2-8.2h0c-1.2,4.4-4.2,7.2-7.2,6.4-2.8-.8-4-4.8-2.8-9.2h0c-1.4,3.8-4.4,6-7,5.4-2.6-.8-3.8-4.2-3-8.2h0c-1.4,4.4-4.6,7-7.4,6s-3.8-5-2.4-9.4h0c-1.6,3.6-4.6,5.8-7.2,5s-3.6-4.4-2.6-8.2h0c-1.6,4.2-5,7-7.6,5.8-2.8-1-3.6-5.2-2-9.6h0c-1.8,3.6-4.8,5.6-7.4,4.6s-3.4-4.6-2.2-8.4h0c-1.8,4.2-5.2,6.6-8,5.6a4.18,4.18,0,0,1-1.2-.8c-1.8-1.8-2-5.2-.4-8.8h0c-1.8,3.6-5,5.4-7.6,4.2-2.4-1.2-3.2-4.8-1.8-8.6h0c-1.8,4.2-5.4,6.4-8.2,5.2s-3.2-5.4-1.2-9.6h0c-2,3.4-5.2,5.2-7.6,4s-3-5-1.4-8.6h0c-2,4-5.8,6.2-8.4,4.8s-3-5.6-.8-9.6h0c-2.2,3.4-5.6,5-7.8,3.6-2.4-1.4-2.8-5-1-8.6h0c-2.2,4-6,6-8.6,4.4-2.6-1.4-2.8-5.6-.4-9.6h0c-2.4,3.2-5.8,4.8-8.2,3.4-2.2-1.4-2.6-5.2-.6-8.8h0c-2.4,3.8-6.2,5.6-8.8,4-2.4-1.6-2.4-5.8,0-9.6h0c-2.4,3.2-6,4.6-8.2,3-2.4-1.4-2.4-5.2-.4-8.8h0c-2.6,3.8-6.4,5.4-8.8,3.6s-2.2-6,.4-9.6h0c-2.6,3-6.2,4.2-8.4,2.6s-2.2-5.2,0-8.6h0c-2.8,3.6-6.8,5.2-9,3.2-2.4-1.8-2-6,.8-9.6-2.6,3.4-6.2,4.8-8.6,3.6-.2,0-.4-.2-.6-.4-2.4-1.8-2-6,1-9.6h0c-2.8,3-6.4,4-8.4,2.2s-1.8-5.6.6-8.8h0c-3,3.4-7,4.6-9.2,2.8-2.2-2-1.6-6.2,1.4-9.6-3,3.4-7.2,4.6-9.4,2.6-2.2-1.8-1.4-6.2,1.6-9.6h0c-3,2.8-6.6,3.4-8.6,1.6s-1.4-5.6,1-8.6h0c-3.2,3.2-7.2,4.2-9.4,2.2s-1.4-6.2,1.8-9.4h0c-3,2.6-6.6,3.2-8.6,1.2-1.8-2-1.2-5.6,1.4-8.6h0c-3.2,3.2-7.4,4-9.4,1.8s-1-6.2,2.4-9.2h0c-3.2,2.4-7,3-8.6.8-1.8-2-1-5.6,1.8-8.6h0c-3.4,3-7.6,3.6-9.6,1.4s-.8-6.2,2.8-9.2h0c-3.2,2.4-7,2.6-8.8.6s-.6-5.8,2.2-8.4h0c-3.6,2.8-7.8,3.2-9.6,1-1.8-2.4-.4-6.4,3.2-9.2h0c-3.4,2.2-7,2.4-8.8.2s-.6-5.6,2.4-8.4h0c-3.6,2.8-7.8,3-9.6.6a4,4,0,0,1-.6-2.2c0-2.2,1.6-4.8,4.2-6.8-3.4,2-7.2,2-8.8-.2s-.4-5.6,2.8-8.2h0c-3.8,2.6-8,2.8-9.6.2-1.6-2.4.2-6.4,4-8.8h0c-3.6,2-7.2,1.8-8.6-.6-1.4-2.2,0-5.6,3.2-8h0c-3.8,2.4-8.2,2.4-9.8-.2-1.4-2.6.4-6.4,4.4-8.8h0c-3.6,1.8-7.2,1.4-8.6-1s.2-5.8,3.6-8h0c-4,2.2-8.2,2-9.6-.6-1.6-2.6.6-6.2,4.6-8.4h0c-3.6,1.6-7.4,1-8.6-1.2-1.2-2.4.4-5.8,3.8-7.8h0c-4,2-8.2,1.6-9.6-1s.8-6.2,4.8-8.2h0c-3.8,1.4-7.4.8-8.6-1.6s.8-5.6,4.2-7.6h0c-4.2,1.8-8.4,1.2-9.6-1.4-1.2-2.8,1.2-6.2,5.2-8h0c-3.8,1.2-7.6.6-8.6-2s1-5.6,4.6-7.6h0c-4.2,1.8-8.4,1-9.4-1.8s1.4-6.2,5.6-7.8h0c-3.8,1.2-7.4.2-8.4-2.4s1.2-5.6,4.8-7.2h0c-4.2,1.6-8.4.6-9.2-2.2-1-2.8,1.6-6.2,6-7.6h0c-4,1-7.4-.2-8.4-2.8-.8-2.6,1.4-5.6,5-7h0c-4.4,1.4-8.4.2-9.2-2.6s2-6,6.4-7.4h0c-4,.8-7.4-.4-8.2-3s1.6-5.4,5.4-6.8h0c-4.4,1.2-8.4-.2-9.2-3-.6-3,2.2-6,6.6-7h0c-4,.6-7.4-.8-8-3.4s1.8-5.4,5.6-6.6h0c-4.4,1-8.4-.4-9-3.4-.6-2.8,2.4-5.8,6.8-6.8h0c-4,.4-7.4-1-7.8-3.8-.4-2.6,2-5.4,6-6.4h0c-4.4.8-8.4-.8-9-3.8s2.6-5.8,7-6.4h0c-4,.4-7.4-1.4-7.8-4s2.4-5.2,6.4-6.2h0c-4.4.6-8.4-1.2-8.8-4.2s2.8-5.6,7.4-6.2h0c-4,.2-7.4-1.6-7.6-4.4-.4-2.6,2.6-5.2,6.6-5.8h0c-4.6.4-8.2-1.6-8.4-4.6S5,536,9.4,535.8h0c-4,0-7.2-2-7.4-4.8-.2-2.6,2.6-5,6.6-5.6h0c-4.6.2-8.2-2-8.2-4.8,0-3,3.4-5.4,8-5.6h0c-4-.2-7-2.2-7.2-5,0-2.8,2.8-5,7-5.2h0c-4.6,0-8.2-2.2-8.2-5.2s3.6-5.2,8.2-5.2h0c-4-.4-7-2.6-7-5.2,0-2.8,3.2-4.8,7.2-5h0c-4.6-.2-8-2.6-8-5.6s3.6-5.2,8.2-4.8h0c-4-.6-6.8-2.8-6.6-5.6.2-2.6,3.4-4.6,7.4-4.6h0c-4.6-.4-8-2.8-7.6-5.8.2-3,4-5,8.4-4.4h0c-4-.6-6.8-3.2-6.6-5.8.4-2.8,3.6-4.4,7.6-4.4h0c-4.6-.6-7.8-3.2-7.4-6.2s4.2-4.8,8.6-4.2h0c-4-.8-6.6-3.4-6.2-6.2.2-2.8,3.6-4.4,7.6-4h0c-4.4-.8-7.6-3.6-7-6.4.6-3,4.4-4.6,9-3.8h0c-3.8-1-6.4-3.6-6-6.4.4-2.6,3.8-4.2,7.8-3.8h0c-4.4-.8-7.6-3.8-6.8-6.8.6-2.8,4.6-4.4,9-3.4h0c-3.8-1.2-6.2-4-5.6-6.6s4-4,8-3.4h0c-4.4-1-7.4-4.2-6.6-7s4.8-4.2,9.2-3h0c-3.8-1.4-6-4.2-5.4-6.8.8-2.6,4.2-3.8,8.2-3h0c-4.4-1.2-7.2-4.4-6.4-7.4.8-2.8,4.8-4,9.2-2.6h0c-3.8-1.6-6-4.4-5-7,.8-2.6,4.4-3.6,8.4-2.8h0c-4.2-1.4-7-4.8-6-7.6C28.6,333.2,32.6,332.2,36.8,333.8Zm967.4,188.8c0-1.6-2.4-3.2-6-3.4l-.2,6.2C1001.6,525.6,1004,524,1004.2,522.6Zm-6-38.6c3.6-.2,6-1.8,6-3.4s-2.6-3-6-3Zm5,28c0-1.4-2-2.8-4.8-3.2l-.2,6.2C1001.2,514.8,1003.2,513.4,1003.2,512Zm-4.8-17.8c3-.4,4.8-1.8,4.8-3.2s-2-2.8-5-3Zm4.4,49.4c.2-1.6-2.2-3.4-5.8-3.6l-.4,6.2C1000,546.6,1002.6,545,1002.8,543.6ZM997,463.2c3.6-.2,5.8-2.2,5.8-3.6-.2-1.6-2.6-3-6.2-2.6Zm5.6,69.8c0-1.4-1.8-3-4.6-3.4l-.4,6.2C1000.2,535.6,1002.4,534.4,1002.6,533Zm-4.8-59.4c3-.4,4.8-2,4.6-3.4,0-1.4-2.2-2.6-5.2-2.8Zm3,80.2c.2-1.4-1.8-3-4.6-3.6-.2,2-.4,4-.6,6.2C998.6,556.4,1000.6,555.2,1000.8,553.8Zm-4.6-101c2.8-.6,4.8-2.2,4.6-3.6s-2.4-2.6-5.2-2.6C995.8,448.8,996.2,450.8,996.2,452.8Zm4.4,111.6c.2-1.6-2-3.4-5.6-3.8l-.8,6.2C997.8,567.2,1000.4,566,1000.6,564.4ZM995,442.6c3.6-.4,5.8-2.4,5.6-3.8s-2.8-2.8-6.4-2.4Zm9.6,59c0-1.6-2.6-3.2-6-3.2v6.4C1002.2,504.8,1004.6,503.2,1004.6,501.6Zm-10.8-69.4c2.8-.8,4.6-2.4,4.4-3.8s-2.4-2.4-5.2-2.4Zm4.4,142.4c.2-1.4-1.6-3-4.4-3.8L993,577C995.8,577.2,998,576,998.2,574.6Zm-.6,10.6c.2-1.6-1.8-3.6-5.4-4l-1,6.2C994.6,588,997.4,586.6,997.6,585.2ZM992.2,422c3.4-.6,5.6-2.6,5.4-4-.2-1.6-3-2.8-6.4-2.2Zm-91,368.8c60.8-83.2,94.4-186,94-289.2a492.65,492.65,0,0,0-94-289.2c-60.2-83.6-148-147-246-178.8-97.8-32-206.2-32-304,0-98,31.8-185.6,95.2-246,178.8-60.8,83.2-94.4,186-94,289.2a492.65,492.65,0,0,0,94,289.2c60.4,83.8,148,147,246,178.8,97.8,32,206.2,32,304.2,0C753.2,937.8,841,874.4,901.2,790.8Zm93.4-195.4c.2-1.4-1.4-3.2-4.2-4l-1,6C992.2,597.8,994.4,596.6,994.6,595.4Zm-4.2-183.6c2.8-.8,4.6-2.6,4.2-4s-2.4-2.4-5.4-2.2Zm3.4,194c.4-1.4-1.6-3.6-5.2-4.4l-1.4,6.2C990.6,608.4,993.4,607.4,993.8,605.8Zm-5.2-204.2c3.4-.8,5.4-2.8,5.2-4.4-.4-1.4-3.2-2.6-6.6-1.8Zm-2.4-10.2c3.4-.8,5.4-3,5.2-4.4s-3-2.6-6.6-1.8Zm4.2,224.4c.4-1.2-1.2-3.2-4-4.2l-1.4,6C987.8,618.2,990,617.2,990.4,615.8ZM989,626.4c.4-1.4-1.6-3.8-5-4.6-.4,2-1,4-1.6,6.2C985.8,628.8,988.6,627.8,989,626.4Zm-5.2-245c2.8-1,4.4-3,4-4.2-.4-1.4-2.6-2.2-5.6-1.8A29.42,29.42,0,0,1,983.8,381.4Zm-2.6-10c3.4-1,5.4-3.2,4.8-4.6-.4-1.4-3.2-2.4-6.6-1.4Zm4,264.8c.4-1.4-1.2-3.2-3.8-4.2l-1.6,6C982.4,638.4,984.8,637.4,985.2,636.2Zm-2,10.4c.4-1.4-1.4-3.8-4.8-4.8l-1.8,6C980,648.8,982.8,648,983.2,646.6Zm-4.8-285.2c3.4-1,5.2-3.4,4.8-4.8s-3.2-2.4-6.6-1.2Zm.8,294.8c.4-1.2-1-3.2-3.6-4.4l-2,5.8C976.4,658.2,978.6,657.4,979.2,656.2Zm-3.8-304.8c2.8-1.2,4.2-3.2,3.8-4.4s-2.8-2-5.6-1.4Zm1.4,315c.4-1.4-1.2-3.8-4.6-5l-2,6C973.4,668.6,976.2,667.8,976.8,666.4Zm-4.6-324.8c3.4-1.2,5.2-3.6,4.6-5-.4-1.4-3.4-2.2-6.6-1Zm0,334.4c.4-1.2-.8-3.4-3.6-4.6l-2.2,5.8C969.4,678,971.8,677.2,972.2,676Zm-3.4-344.2c2.6-1.2,4-3.4,3.6-4.6s-2.8-2-5.8-1.2Zm.6,354.4c.6-1.4-1.2-3.8-4.4-5.2l-2.4,5.8C966,688.2,968.8,687.6,969.4,686.2Zm-4.4-364c3.2-1.2,5-3.8,4.4-5.2s-3.4-2-6.8-.8Zm-.4,373.4c.4-1.2-.8-3.4-3.4-4.8-.8,2-1.4,3.8-2.4,5.8C961.6,697.4,964.2,696.8,964.6,695.6Zm-3.4-383.2c2.6-1.4,4-3.6,3.4-4.8-.4-1.2-3-1.8-5.8-1C959.6,308.6,960.4,310.4,961.2,312.4Zm0,393.2c.6-1.4-1-4-4.2-5.4l-2.6,5.8C957.8,707.4,960.6,706.8,961.2,705.6Zm-4-402.6c3.2-1.4,4.8-4,4.2-5.4s-3.6-1.8-6.8-.4ZM956,714.6c.6-1.2-.6-3.4-3.2-5l-2.6,5.6C953,716.4,955.4,715.8,956,714.6Zm-3.2-421.2c2.6-1.6,3.8-3.6,3.2-4.8s-3-1.8-5.8-.8Zm-.4,431.2c.6-1.4-.8-4-4-5.4l-2.8,5.6C948.8,726.2,951.6,725.8,952.4,724.6Zm-4-440.6c3.2-1.6,4.6-4.2,4-5.4-.6-1.4-3.6-1.8-6.8-.2Zm-1.8,449.4c.6-1.2-.4-3.4-3-5l-2.8,5.6C943.6,735,946,734.6,946.6,733.4Zm-3-458.6c2.4-1.6,3.6-3.8,3-5s-3-1.6-5.8-.4Zm-1,468.4c.8-1.4-.6-4-3.6-5.6l-3.2,5.4C939,744.6,942,744.4,942.6,743.2ZM939,265.6c3.2-1.6,4.4-4.4,3.6-5.6-.8-1.4-3.8-1.6-6.8.2Zm-2.4,486c.6-1.2-.4-3.4-2.8-5.2l-3,5.4C933.4,753.2,935.8,752.8,936.6,751.6Zm-2.8-495c2.4-1.6,3.4-4,2.8-5.2s-3.2-1.4-5.8-.2Zm-1.6,504.8c.8-1.4-.6-4-3.6-5.8-1,1.8-2,3.6-3.2,5.4C928.4,762.8,931.4,762.6,932.2,761.4Zm-3.6-513.8c3-1.8,4.2-4.6,3.6-5.8-.8-1.2-3.8-1.4-6.8.4Zm-3,522c.8-1.2-.2-3.4-2.4-5.2l-3.4,5.2C922.4,771,925,770.8,925.6,769.6Zm-2.4-530.8c2.4-1.8,3.2-4.2,2.4-5.2-.8-1.2-3.2-1.4-5.8,0ZM920.8,779c.8-1.2-.4-4-3.2-6l-3.4,5.2C917.2,780.4,920,780.4,920.8,779Zm-3.2-549c3-2,4.2-4.6,3.2-6-.8-1.2-3.8-1.4-6.6.6ZM914,787c.8-1,0-3.4-2.2-5.4l-3.6,5C910.8,788.2,913.2,788.2,914,787Zm-2.2-565.6c2.2-1.8,3-4.2,2.2-5.4s-3.2-1.2-5.8.2Zm-3,574.8c.8-1.2-.2-4-3-6l-3.6,5.2C905,797.4,908,797.4,908.8,796.2Zm-3-583.2c2.8-2,3.8-4.8,3-6.2s-3.8-1.2-6.6,1Zm-4,591c.8-1,.2-3.4-2-5.4l-3.8,4.8C898.4,805,901,805.2,901.8,804Zm-2.2-599.6c2.2-2,2.8-4.4,2-5.4s-3.2-1-5.8.6ZM896.2,813c1-1.2,0-4-2.8-6.2l-3.8,5C892.2,814,895.2,814.2,896.2,813Zm-2.8-616.6c2.8-2.2,3.6-5,2.8-6.2-1-1.2-3.8-1-6.6,1.2Zm-4.6,624.2c.8-1,.2-3.4-1.8-5.6-1.2,1.6-2.6,3.2-4,4.8C885.4,821.4,888,821.6,888.8,820.6Zm-2-632.4c2-2,2.8-4.6,1.8-5.6-.8-1-3.4-.8-5.8.8C884.2,185,885.6,186.6,886.8,188.2Zm-4,641c1-1.2.2-4-2.4-6.4l-4.2,4.8C878.8,830,881.8,830.2,882.8,829.2Zm-2.6-648.8c2.6-2.2,3.4-5.2,2.4-6.4s-4-.8-6.6,1.6Zm-5.2,656c.8-1,.4-3.4-1.6-5.6l-4,4.6C871.8,837.2,874.2,837.4,875,836.4Zm-1.6-664c2-2.2,2.6-4.6,1.6-5.6-.8-1-3.4-.8-5.8,1Zm-4.8,672.4c1-1.2.4-4-2.2-6.4L862,843C864.8,845.4,867.6,845.8,868.6,844.8Zm-2.2-680c2.6-2.4,3.2-5.2,2.2-6.4-1-1-4-.6-6.6,1.8Zm-5.8,686.8c1-1,.6-3.4-1.4-5.6l-4.2,4.4C857.4,852.2,859.8,852.6,860.6,851.6Zm-1.4-694.4c2-2.2,2.4-4.6,1.4-5.6s-3.4-.6-5.6,1.2ZM854,859.8c1.2-1,.6-4-1.8-6.4l-4.6,4.4C850,860.2,853,860.8,854,859.8Zm-2-710c2.4-2.4,3-5.4,1.8-6.4-1-1-4-.4-6.4,2.2Zm-6.4,716.4c1-1,.6-3.4-1.2-5.8l-4.4,4.2C842.2,866.8,844.8,867.2,845.6,866.2Zm-1.2-723.6c1.8-2.4,2-4.8,1.2-5.8-1-1-3.4-.4-5.6,1.4Zm-5.6,731.6c1.2-1,.8-4-1.6-6.6l-4.8,4.2C834.6,874.4,837.6,875.2,838.8,874.2ZM837,135.4c2.4-2.6,2.8-5.6,1.6-6.6s-4-.2-6.4,2.4Zm-6.8,744.8c1-.8.8-3.4-.8-5.8l-4.6,4C826.6,880.6,829,881.2,830.2,880.2Zm-1-751.6c1.8-2.4,2-4.8.8-5.8s-3.4-.4-5.6,1.6ZM822.8,888c1.2-1,.8-4-1.4-6.6-1.6,1.4-3.2,2.8-4.8,4C818.8,888,821.8,889,822.8,888Zm-1.4-766.2c2.2-2.8,2.6-5.6,1.4-6.6s-4-.2-6.2,2.6C818.2,119.2,819.8,120.4,821.4,121.8ZM814,893.6c1-.8,1-3.2-.6-5.8l-4.8,3.8C810.6,893.8,813,894.4,814,893.6Zm-.8-778.4c1.6-2.4,1.6-5,.6-5.8s-3.4-.2-5.4,2ZM806.4,901c1.2-1,1-4-1.2-6.8l-5,3.8C802.4,901,805.2,901.8,806.4,901Zm-1.2-792c2.2-2.8,2.4-5.8,1.2-6.8s-4,0-6,2.8Zm-8,797.4c1-.8,1.2-3.2-.4-5.8l-5,3.6C793.8,906.4,796.2,907.2,797.2,906.4Zm-.4-803.8c1.6-2.6,1.4-5,.4-5.8-1.2-.8-3.4,0-5.4,2.2Zm-7.4,810.6c1.2-.8,1.2-3.8-.8-6.8l-5.2,3.6C785.4,913.2,788.2,914.2,789.4,913.2Zm-1-816.6c2-2.8,2-5.8.8-6.8-1.2-.8-4,.2-6,3Zm-7.6,822.6c1.2-.8,1.4-3.8-.6-6.6l-5.4,3.4C776.6,918.8,779.4,920,780.8,919.2ZM780,90.6c1.4-2.6,1.2-5,.2-5.8-1.2-.8-3.4.2-5.4,2.4ZM771.2,85c2-3,1.8-6,.6-6.8s-4,.4-5.8,3.4Zm0,839c1.2-.8,1.4-3.2,0-5.8l-5.2,3.4C767.8,923.8,770.2,924.8,771.2,924Zm-8.2,6.6c1.2-.8,1.4-3.8-.4-6.8l-5.4,3.2C759,930,761.6,931.4,763,930.6Zm-.6-851.2c1.2-2.6,1.2-5.2,0-5.8s-3.4.4-5.2,2.6ZM754,935.8c1.4-.8,1.6-3.6-.2-6.8l-5.4,3.2C750,935.2,752.6,936.6,754,935.8ZM753.6,74c1.8-3,1.6-6,.2-6.8s-4,.6-5.8,3.6Zm-9.4,866c1.2-.6,1.4-3.2.4-5.8l-5.4,3C741,939.8,743.2,940.8,744.2,940Zm.4-871c1.2-2.6.8-5.2-.2-5.8-1.2-.6-3.4.4-5,2.8Zm-9,877c1.4-.6,1.6-3.6,0-6.8L730,942C731.6,945.2,734.2,946.6,735.6,946Zm-.2-882c1.6-3,1.4-6,0-6.8-1.4-.6-4,.8-5.6,3.8Zm-9.8,885.8c1.2-.6,1.6-3,.6-5.8l-5.4,2.8C722.4,949.2,724.4,950.4,725.6,949.8Zm.6-890.6c1-2.8.6-5.2-.6-5.8s-3.4.4-5,3Zm-9.4,896.2c1.4-.6,1.8-3.6.4-6.8l-5.8,2.6C712.8,954.4,715.4,956,716.8,955.4ZM717,54.6c1.6-3.2,1-6.2-.4-6.8s-4,1-5.4,4.2Zm-10.2,904c1.2-.6,1.8-3,.8-5.8l-5.6,2.6C703.4,958,705.6,959.2,706.8,958.6Zm.6-908.4c1-2.8.4-5.2-.8-5.8s-3.4.6-4.8,3.2ZM697.6,964c1.4-.6,2-3.6.6-6.8-2,1-3.8,1.6-5.8,2.4C693.6,962.8,696.2,964.6,697.6,964ZM698,46c1.4-3.2.8-6.2-.6-6.8s-4,1.2-5.2,4.4A50.31,50.31,0,0,1,698,46ZM687.4,966.8c1.2-.4,2-2.8,1-5.6l-5.8,2.2C684,966,686.2,967.2,687.4,966.8Zm1-924.8c.8-2.8.2-5.2-1-5.8-1.2-.4-3.4.8-4.6,3.4ZM678,971.6c1.4-.6,2.2-3.4.8-6.8L673,967C674.2,970.6,676.6,972.2,678,971.6Zm.8-933.4c1.2-3.2.6-6.2-.8-6.8s-3.8,1.2-5,4.4Zm-11,936c1.2-.4,2-2.8,1.4-5.6l-5.8,2C664.4,973.2,666.6,974.6,667.8,974.2ZM669,34.6c.8-2.8,0-5.2-1.2-5.6s-3.4,1-4.6,3.6Zm-9.8-3.2c1.2-3.4.4-6.2-1.2-6.6-1.4-.4-3.8,1.4-4.8,4.6l3,1Zm-1,947.2c1.4-.4,2.2-3.4,1.2-6.8l-3,1-3,1C654.4,977.2,656.8,979,658.2,978.6Zm-10.4,2c1.2-.4,2.2-2.6,1.6-5.6l-6,1.6C644.6,979.6,646.6,981,647.8,980.6ZM649.4,28c.6-3-.2-5.2-1.6-5.6-1.2-.4-3.2,1.2-4.4,3.8ZM638.2,984.6c1.4-.4,2.4-3.2,1.4-6.6l-6,1.8C634.4,983,636.6,985,638.2,984.6Zm1.2-959.4c1-3.4,0-6.2-1.4-6.6s-3.8,1.6-4.6,5ZM627.8,986.4c1.4-.4,2.2-2.6,1.8-5.6-2,.6-4,1-6,1.6C624.4,985,626.4,986.6,627.8,986.4Zm1.6-964c.4-3-.4-5.2-1.8-5.6-1.4-.2-3.2,1.2-4.2,4C625.4,21.4,627.4,21.8,629.4,22.4ZM617.8,989.8c1.4-.4,2.6-3,1.8-6.6l-6.2,1.4C614.2,988,616.2,990,617.8,989.8ZM619.4,20c.8-3.4-.2-6.2-1.8-6.6-1.4-.4-3.6,1.6-4.4,5.2ZM607.2,991c1.4-.2,2.4-2.6,2-5.6l-6,1.4C604.2,989.8,606,991.4,607.2,991Zm2-973.4c.4-3-.8-5.2-2-5.6-1.4-.2-3.2,1.4-4,4.2Zm-12,976.6c1.4-.2,2.6-3,2-6.4L593,989C593.6,992.2,595.8,994.4,597.2,994.2Zm2-978.6c.6-3.4-.4-6.2-2-6.4s-3.6,1.8-4.2,5.4ZM586.8,995c1.4-.2,2.4-2.4,2.2-5.4l-6,1C583.6,993.4,585.4,995.2,586.8,995Zm2-981.4c.2-3-1-5.2-2.2-5.4s-3,1.4-3.8,4.4Zm-12.2,984c1.6-.2,2.8-2.8,2.2-6.4l-6.2.8C573,995.6,575,997.8,576.6,997.6Zm2.2-985.8c.6-3.6-.8-6.2-2.2-6.4s-3.6,2-4,5.6ZM566,998c1.4-.2,2.6-2.4,2.4-5.2l-6.2.8C563,996.2,564.6,998,566,998Zm2.4-987.4c0-3-1.2-5.2-2.4-5.2-1.4-.2-3,1.6-3.6,4.4Zm-12.8,989.6c1.6-.2,3-2.8,2.6-6.4-2,.2-4.2.6-6.2.8C552.2,998.2,554.2,1000.6,555.6,1000.2Zm2.6-991c.4-3.6-1-6.2-2.4-6.4-1.6-.2-3.4,2.2-3.8,5.6C554,8.6,556,9,558.2,9.2Zm-10.4-1c.4-3.6-1.2-6-2.6-6.2-1.6-.2-3.4,2.2-3.6,5.8Zm0,986.8-6.2.4c.6,3,2.2,4.8,3.4,4.6C546.4,1000,547.8,998,547.8,995Zm-13,7c1.6-.2,3-2.6,2.8-6.2l-6.2.4C531.4,999.8,533.2,1002,534.8,1002ZM531.2,7l6.2.4c0-3-1.4-5-2.8-5.2C533.2,2.2,531.6,4,531.2,7ZM527,6.8c.2-3.6-1.4-6-3-6s-3.2,2.4-3.4,6Zm.2,989.6-6.2.2c.4,3,2,4.8,3.2,4.8C525.6,1001.4,527,999.4,527.2,996.4Zm-13.4,6.4c1.6,0,3.2-2.6,3-6l-6.2.2C510.6,1000.4,512.2,1002.8,513.8,1002.8Zm3-996.4c0-3.6-1.6-6-3-6-1.6,0-3.2,2.4-3.2,6ZM506.4,997h-6.2c.2,3,1.8,5,3,5C504.6,1002,506,1000,506.4,997ZM500,6.2c2,0,4.2-.2,6.2,0-.2-3-1.8-5-3-5C501.8,1.2,500.4,3.2,500,6.2Zm-4,990.6-6.2-.2c-.2,3.6,1.6,6,3,6C494.2,1002.8,496,1000.4,496,996.8ZM489.6,6.6l6.4-.2c0-3.6-1.8-6-3.2-6C491.2.4,489.6,3,489.6,6.6Zm-4,990-6.2-.2c.2,3,1.6,5,2.8,5C483.6,1001.4,485.2,999.6,485.6,996.6ZM479.2,6.8l6.2-.2c-.4-3-2-4.8-3.4-4.8C480.8,1.8,479.4,3.8,479.2,6.8Zm-4,989.4-6.2-.4c-.2,3.6,1.2,6,2.8,6.2C473.2,1002,475,999.8,475.2,996.2ZM468.8,7.4,475,7c-.2-3.6-2-5.8-3.6-5.8S468.6,4,468.8,7.4Zm-4,988-6.2-.4c0,3,1.4,5,2.6,5.2C462.8,1000.2,464.4,998.4,464.8,995.4ZM458.6,8.2l6.2-.4c-.6-3-2.2-4.8-3.4-4.6C460,3.2,458.6,5.2,458.6,8.2Zm-7.8,992.2c1.6.2,3.4-2.2,3.8-5.6-2-.2-4.2-.4-6.2-.8C448,997.4,449.2,1000.2,450.8,1000.4ZM454.4,8.6c-.4-3.6-2.2-6-3.8-5.6-1.6.2-3,2.8-2.6,6.4A37.3,37.3,0,0,1,454.4,8.6ZM444.2,993.4l-6.2-.8c0,3,1.2,5,2.4,5.2C441.8,998,443.6,996.4,444.2,993.4ZM438,10.6l6.2-.8c-.6-2.8-2.4-4.6-3.6-4.4C439.2,5.4,437.8,7.6,438,10.6Zm-4,981.6-6.2-.8c-.6,3.6.8,6.2,2.2,6.4C431.4,997.8,433.4,995.6,434,992.2ZM427.6,11.8l6.2-.8c-.4-3.6-2.4-5.8-4-5.6C428.4,5.8,427,8.4,427.6,11.8Zm-4,978.8-6-1c-.2,3,1,5.2,2.2,5.4C421.2,995.2,422.8,993.4,423.6,990.6Zm-6.2-977,6-1c-.8-2.8-2.6-4.6-3.8-4.4C418.4,8.6,417.2,10.8,417.4,13.6Zm-4,975.2-6.2-1.2c-.6,3.4.4,6.2,2,6.4C410.8,994.4,412.8,992.2,413.4,988.8ZM407.2,15.6l6.2-1c-.6-3.4-2.8-5.6-4.2-5.4C407.6,9.4,406.6,12,407.2,15.6Zm-4,971.4-6-1.4c-.4,3,.6,5.2,2,5.6C400.4,991.4,402.4,989.8,403.2,987ZM397,17.6l6-1.4c-.8-2.8-2.8-4.4-4-4.2C397.8,12.4,396.8,14.6,397,17.6Zm-3.8,967-6.2-1.4c-.8,3.4.2,6.2,1.8,6.6C390.2,990,392.4,988,393.2,984.6ZM387,20l6.2-1.4c-.8-3.4-3-5.4-4.4-5.2C387.2,13.8,386,16.6,387,20Zm-8.2,966.4c1.4.4,3.2-1.2,4.2-4a33.32,33.32,0,0,1-6-1.6C376.6,983.6,377.4,986,378.8,986.4ZM383,21c-1-2.8-3-4.4-4.2-4-1.4.2-2.2,2.6-1.8,5.6A29.42,29.42,0,0,1,383,21ZM373,979.6l-6-1.8c-1,3.4,0,6.2,1.4,6.6C369.8,985,372,983,373,979.6ZM366.8,25.2l6-1.8c-1-3.4-3.2-5.4-4.6-5C366.8,19,366,22,366.8,25.2ZM363,976.8l-6-1.6c-.6,3,.2,5.2,1.6,5.6C360,981,361.8,979.6,363,976.8ZM357,28l6-1.6c-1.2-2.8-3.2-4.2-4.4-3.8C357.2,23,356.4,25.2,357,28Zm-3.8,945.8-6-2c-1.2,3.4-.2,6.2,1.2,6.6C349.6,979,352,977.2,353.2,973.8ZM347,31.4l6-2c-1-3.4-3.4-5.2-4.8-4.6C346.8,25.2,346,28,347,31.4Zm-3.8,939.2-5.8-2c-.8,2.8,0,5.2,1.4,5.6C340,974.6,342,973.2,343.2,970.6Zm-6-935.8,5.8-2c-1.2-2.6-3.2-4-4.6-3.6C337.4,29.6,336.6,31.8,337.2,34.8Zm-3.8,932.4-5.8-2.2c-1.2,3.4-.6,6.2.8,6.8C329.8,972.2,332.2,970.6,333.4,967.2Zm-6-928.8,5.8-2.4c-1.2-3.4-3.6-5-5-4.4C327,32,326.2,35,327.4,38.4Zm-3.6,925-5.8-2.2c-.8,2.8-.2,5.2,1,5.6C320.4,967.4,322.4,966,323.8,963.4ZM318,42l5.8-2.2c-1.4-2.6-3.4-4-4.6-3.4C317.8,36.8,317,39.2,318,42Zm-9,922c1.4.6,3.8-1.2,5.2-4.4-2-.8-4-1.6-5.8-2.4C307,960.4,307.4,963.4,309,964Zm5-920.4c-1.4-3.2-3.8-5-5.2-4.4s-2,3.6-.6,6.8C310.2,45.2,312,44.4,314,43.6Zm-9.4,912L299,953c-1,2.8-.4,5.2.8,5.8C301,959.2,303,958,304.6,955.6ZM298.8,50.2l5.6-2.6c-1.4-2.6-3.6-3.8-4.8-3.2S298,47.4,298.8,50.2Zm-3.6,901-5.8-2.6c-1.6,3.2-1,6,.4,6.8S293.6,954.4,295.2,951.2ZM289.4,54.6l5.8-2.6c-1.4-3.2-4-4.8-5.4-4.2C288.2,48.4,287.8,51.4,289.4,54.6Zm-3.6,892.2-5.6-2.8c-1,2.8-.6,5.2.6,5.8S284.2,949.4,285.8,946.8ZM280.2,59.2l5.6-2.8c-1.6-2.6-3.8-3.6-5-3C279.4,54,279,56.4,280.2,59.2Zm-3.6,883-5.6-2.8c-1.6,3-1.4,6,0,6.8C272.4,946.6,275,945.2,276.6,942.2ZM270.8,64l5.6-2.8c-1.6-3.2-4.2-4.6-5.6-3.8C269.6,58,269.2,60.8,270.8,64Zm-3.6,873.4-5.4-3c-1.2,2.8-.8,5.2.4,5.8S265.6,939.8,267.2,937.4ZM261.8,69l5.4-3c-1.6-2.4-3.8-3.4-5-2.8S260.6,66.2,261.8,69Zm-3.4,863.2L253,929c-1.8,3-1.6,6-.2,6.8C253.8,936.6,256.6,935.2,258.4,932.2Zm-5.6-858,5.4-3.2c-1.8-3-4.4-4.4-5.8-3.6C251.2,68.2,251,71.2,252.8,74.2ZM249.2,927l-5.2-3.2c-1.4,2.6-1.2,5.2,0,5.8C245.2,930.4,247.4,929.4,249.2,927ZM243.8,79.4l5.2-3.2c-1.8-2.4-4-3.4-5.2-2.6C242.8,74.2,242.6,76.8,243.8,79.4Zm-3.4,842.2-5.4-3.4c-1.8,3-1.8,6-.6,6.8C235.8,925.8,238.6,924.6,240.4,921.6ZM235,85l5.4-3.4c-1.8-3-4.6-4.2-5.8-3.4C233.2,79.2,233.2,82,235,85Zm-3.4,831-5.2-3.4c-1.4,2.6-1.2,5-.2,5.8C227.4,919.2,229.8,918.2,231.6,916ZM226.4,90.6l5.2-3.4c-1.8-2.2-4.2-3.2-5.4-2.4C225.2,85.6,225,88,226.4,90.6ZM223,910.2l-5.2-3.6c-2,2.8-2,5.8-.8,6.8C218.4,914.2,221,913.2,223,910.2ZM218,96.6l5.2-3.6c-2-3-4.8-4-6-3C215.8,90.8,215.8,93.8,218,96.6Zm-3.4,807.6-5-3.6c-1.6,2.6-1.4,5-.4,5.8S212.6,906.4,214.6,904.2Zm-5.2-801.6,5-3.6c-2-2.2-4.4-3-5.4-2.2S208,100,209.4,102.6Zm-3.2,795.6-5-3.8c-2.2,2.8-2.4,5.8-1.2,6.8C201.4,902,204,901,206.2,898.2Zm-5-789.2,5-3.8c-2.2-2.8-5-3.8-6.2-2.8C198.8,103.2,199,106.2,201.2,109ZM198,891.8l-5-3.8c-2.2,2.8-2.4,5.8-1.2,6.6S195.8,894.6,198,891.8Zm-5-776.4,4.8-3.8c-2-2.2-4.4-2.8-5.6-2C191.4,110.4,191.4,112.8,193,115.4Zm-3.2,770c-1.6-1.2-3.2-2.6-4.8-4-1.6,2.4-1.8,5-.8,5.8C185.4,888,187.8,887.4,189.8,885.4ZM185,122c1.6-1.4,3.2-2.8,4.8-4-2.2-2.8-5.2-3.6-6.2-2.6C182.4,116.2,182.8,119.2,185,122Zm-3,756.6-4.8-4.2c-2.4,2.6-2.6,5.6-1.6,6.6C176.8,882.2,179.6,881.4,182,878.6Zm-4.8-750,4.6-4c-2.2-2-4.6-2.6-5.6-1.6C175.4,123.8,175.4,126.2,177.2,128.6Zm-3,743.2-4.8-4.2c-2.4,2.6-2.8,5.6-1.6,6.6C168.8,875.2,171.8,874.6,174.2,871.8Zm-4.8-736.2,4.8-4.2c-2.4-2.6-5.2-3.4-6.4-2.4C166.4,130,167,133,169.4,135.6Zm-3,729.2-4.4-4.2c-1.8,2.4-2.2,4.8-1.2,5.8C161.8,867.2,164.2,866.8,166.4,864.8Zm-4.6-722.2,4.4-4.2c-2.2-2-4.6-2.4-5.6-1.4C159.8,138,160,140.4,161.8,142.6ZM159,857.8l-4.6-4.4c-2.4,2.4-3,5.4-2,6.4C153.6,860.8,156.4,860.2,159,857.8Zm-4.6-708,4.6-4.4c-2.4-2.6-5.4-3.2-6.4-2.2C151.4,144.4,151.8,147.4,154.4,149.8Zm-3,700.6-4.2-4.4c-2,2.2-2.4,4.8-1.4,5.6C146.8,852.6,149.2,852.4,151.4,850.4Zm-4.2-693.2,4.2-4.4c-2.2-1.8-4.8-2.2-5.6-1.2C144.8,152.6,145.2,155,147.2,157.2ZM144.4,843l-4.4-4.6c-2.6,2.4-3.2,5.2-2.2,6.4C138.8,845.8,141.8,845.4,144.4,843Zm-4.6-678.2,4.4-4.6c-2.6-2.4-5.6-3-6.6-1.8S137.4,162.4,139.8,164.8Zm-2.6,670.6-4-4.6c-2,2.2-2.6,4.6-1.6,5.6C132.2,837.4,134.8,837.2,137.2,835.4Zm-4.2-663,4-4.6c-2.4-1.8-4.8-2-5.8-1C130.4,167.8,131,170.4,133,172.4Zm-2.6,655.2-4.2-4.8c-2.6,2.2-3.4,5.2-2.4,6.2C124.8,830.4,127.6,830,130.4,827.6Zm-4.2-647.2,4.2-4.8c-2.6-2.4-5.6-2.6-6.6-1.6C122.6,175.2,123.4,178,126.2,180.4Zm-2.8,639.4a46.25,46.25,0,0,1-4-4.8c-2,2-2.8,4.6-1.8,5.6S121,821.4,123.4,819.8Zm-4-631.6c1.2-1.6,2.6-3.2,4-4.8-2.4-1.6-5-1.8-5.8-.8C116.8,183.8,117.4,186.2,119.4,188.2ZM117,811.8l-3.8-5c-2.8,2.2-3.6,5-2.8,6.2S114.2,814,117,811.8Zm-4-615.4,3.8-5c-2.8-2.2-5.8-2.4-6.6-1.2S110.2,194.2,113,196.4Zm-2.4,607.2-3.8-4.8c-2.2,2-2.8,4.4-2,5.4S108,805.2,110.6,803.6Zm-4-599,3.8-4.8c-2.4-1.6-5-1.6-5.8-.6S104.4,202.6,106.6,204.6Zm-4.2,5.8,1.8-2.6c-2.8-2.2-5.8-2.2-6.6-1s.2,4,3,6.2Zm1.8,585-1.8-2.6-1.8-2.6c-2.8,2-3.8,4.8-3,6C98.4,797.6,101.4,797.4,104.2,795.4Zm-6-8.6-3.6-5c-2.2,2-3,4.2-2.2,5.4C93.2,788.2,95.6,788.4,98.2,786.8ZM94.6,221.4l3.6-5c-2.6-1.4-5-1.4-5.8-.2C91.6,217.2,92.4,219.6,94.6,221.4Zm-2.4,557L88.8,773c-3,2-4.2,4.8-3.2,6C86.4,780.4,89.4,780.4,92.2,778.4ZM88.8,230.2l3.4-5.4c-3-2-5.8-2-6.6-.6C84.8,225.4,85.8,228.2,88.8,230.2ZM86.6,769.6l-3.4-5.2c-2.4,1.8-3.2,4.2-2.4,5.2C81.6,770.8,84,771,86.6,769.6ZM83.2,238.8l3.4-5.2c-2.6-1.4-5-1.2-5.8,0S80.8,237,83.2,238.8ZM81,761l-3.2-5.4c-3,1.8-4.4,4.6-3.6,5.8S78,762.8,81,761ZM77.8,247.8c1-1.8,2-3.6,3.2-5.4-3-1.8-6-1.8-6.8-.4C73.4,243.2,74.8,245.8,77.8,247.8ZM75.8,752l-3-5.4c-2.4,1.8-3.4,4-2.8,5.2S73,753.2,75.8,752ZM72.6,256.6l3-5.4c-2.6-1.2-5.2-1-5.8.2S70.2,255,72.6,256.6ZM70.6,743l-3.2-5.4c-3.2,1.8-4.4,4.4-3.6,5.6C64.6,744.6,67.6,744.8,70.6,743ZM67.4,265.8l3.2-5.4c-3-1.8-6-1.4-6.8-.2S64.2,264,67.4,265.8Zm-1.8,468-2.8-5.6c-2.4,1.6-3.6,3.8-3,5C60.4,734.6,62.8,735,65.6,733.8Zm-2.8-459,2.8-5.6c-2.8-1.2-5.2-.8-5.8.4C59.2,271,60.2,273.2,62.8,274.8Zm-2,450L58,719.2c-3.2,1.6-4.6,4.2-4,5.4C54.8,726,57.6,726.4,60.8,724.8ZM58,284.2l2.8-5.6c-3.2-1.6-6.2-1.2-6.8.2C53.4,280,54.8,282.6,58,284.2ZM56.2,715.4l-2.6-5.6c-2.6,1.6-3.8,3.6-3.2,5C51,716,53.4,716.4,56.2,715.4Zm-2.6-422,2.6-5.6c-2.8-1-5.2-.6-5.6.8C49.8,289.8,51,292,53.6,293.4ZM51.8,706l-2.6-5.8c-3.2,1.4-4.8,4-4.2,5.4C45.8,707,48.6,707.4,51.8,706ZM49.2,303l2.6-5.8c-3.2-1.4-6.2-1-6.8.4S46,301.6,49.2,303ZM47.6,696.6c-.8-1.8-1.6-3.8-2.4-5.8-2.6,1.4-3.8,3.6-3.4,4.8C42.4,696.8,44.8,697.4,47.6,696.6Zm-2.4-384c.8-2,1.6-4,2.4-5.8-3.2-1.4-6.2-.8-6.8.6S42,311.2,45.2,312.6ZM43.8,687l-2.4-5.8c-3.2,1.2-5,3.8-4.4,5.2C37.6,687.6,40.4,688.2,43.8,687ZM41.4,322.2l2.2-5.8c-2.8-.8-5.2-.2-5.8,1C37.4,318.8,38.8,320.8,41.4,322.2Zm-3.8,9.6,2.2-5.8c-3.2-1.2-6.2-.6-6.8.8S34.2,330.6,37.6,331.8Zm2.2,345.4-2.2-5.8c-2.6,1.2-4,3.4-3.6,4.6C34.6,677.4,37,678,39.8,677.2Zm-3.4-9.6-2-6c-3.4,1.2-5.2,3.6-4.6,5C30.2,668,33,668.8,36.4,667.6Zm-2.2-326,2-6c-3.4-1.2-6.2-.4-6.6,1C29.2,338.2,31,340.6,34.2,341.6ZM33,657.6l-2-5.8c-2.8,1.2-4.2,3.2-3.8,4.4C27.8,657.6,30,658.4,33,657.6ZM31,351.4l2-5.8c-2.8-.6-5.2.2-5.6,1.4C26.8,348.2,28.2,350.2,31,351.4ZM29.8,647.8l-1.8-6c-3.4,1-5.2,3.2-4.8,4.8C23.6,648,26.4,649,29.8,647.8ZM28,361.4l1.8-6c-3.4-1-6.2-.2-6.6,1.2C22.6,358.2,24.6,360.4,28,361.4ZM26.8,637.8l-1.6-6c-2.8,1-4.2,3-3.8,4.2C21.6,637.6,24,638.4,26.8,637.8ZM25.2,371.4l1.6-6c-3-.6-5.2.4-5.6,1.6C20.8,368.4,22.4,370.4,25.2,371.4ZM24,628c-.6-2-1-4-1.6-6.2-3.4.8-5.4,3-5,4.6C17.8,627.8,20.6,628.8,24,628ZM22.4,381.4c.4-2,1-4,1.6-6.2-3.4-.8-6.2,0-6.6,1.6S19,380.6,22.4,381.4Zm-.8,236.4-1.4-6c-2.8,1-4.4,2.8-4,4.2C16.4,617.2,18.6,618.2,21.6,617.8ZM20.2,391.4l1.4-6c-3-.4-5.2.6-5.4,1.8C15.8,388.6,17.4,390.6,20.2,391.4Zm-1,216.4-1.4-6.2c-3.4.6-5.6,2.8-5.2,4.2C13,607.4,15.8,608.6,19.2,607.8ZM17.8,401.6l1.4-6c-3.4-.8-6.2.4-6.6,1.8C12.4,398.8,14.4,401,17.8,401.6ZM16,411.8l1-6c-3-.2-5.2.8-5.4,2.2C11.4,409.2,13.2,411,16,411.8Zm1.2,185.8-1-6c-2.8.8-4.6,2.6-4.2,4S14.2,597.8,17.2,597.6Zm-2-10.2L14,581.2c-3.4.6-5.6,2.6-5.4,4C9.2,586.8,11.8,588,15.2,587.4ZM14.2,422l1.2-6.2c-3.4-.6-6.2.6-6.4,2.2C8.6,419.6,10.6,421.6,14.2,422Zm-.8,155.2-.8-6.2c-2.8.8-4.6,2.4-4.4,3.8C8.4,576,10.6,577.2,13.4,577.2Zm-.8-144.8.8-6.2c-3-.2-5,1-5.2,2.4C8,429.8,9.8,431.6,12.6,432.4Zm-.4,134.4-.8-6.2c-3.6.4-5.8,2.4-5.6,3.8C6,566,8.6,567.4,12.2,566.8Zm-.8-124.2.8-6.2c-3.6-.4-6.2.8-6.4,2.4C5.6,440.2,7.8,442.2,11.4,442.6ZM5.6,554c.2,1.4,2.4,2.6,5.2,2.6a59.25,59.25,0,0,1-.6-6.2C7.2,551,5.4,552.6,5.6,554Zm5.2-107.2c-3,0-5.2,1.2-5.2,2.6-.2,1.4,1.8,3,4.6,3.6A59.25,59.25,0,0,1,10.8,446.8ZM9.4,463.4l.4-6.2c-3.6-.4-6,1.2-6.2,2.6C3.6,461.2,5.8,463,9.4,463.4Zm.4,82.8L9.4,540c-3.6.2-5.8,2.2-5.8,3.6C3.8,545.2,6.4,546.6,9.8,546.2ZM9,535.8l-.4-6.2c-3,.4-4.8,2-4.6,3.4C4,534.4,6.2,535.8,9,535.8Zm-.4-62.2.4-6.2c-3,0-5,1.4-5.2,2.8C3.8,471.6,5.6,473.2,8.6,473.6ZM8.2,484l.2-6.4c-3.6-.2-6,1.4-6,3C2.2,482.2,4.6,484,8.2,484Zm.2,41.6-.2-6.4c-3.6.2-6,1.8-6,3.4C2.4,524.2,4.8,525.8,8.4,525.6ZM8,494.4l.2-6.2c-3,.2-5,1.6-5,3C3,492.6,5,494,8,494.4Zm0,20.8L7.8,509c-3,.4-4.8,1.8-4.8,3.2C3.2,513.4,5.2,514.8,8,515.2Zm-.2-10.4c0-2.2-.2-4.2,0-6.2-3.6,0-6,1.6-6,3.2C1.8,503.2,4.2,504.8,7.8,504.8Z" style="fill:#182755"/></g></g></g></svg>