<svg xmlns="http://www.w3.org/2000/svg" width="654.4" height="652.63" viewBox="0 0 654.4 652.63"><title>3_curved_rim_654 (2)</title><g id="Layer_2" data-name="Layer 2"><g id="Layer_1-2" data-name="Layer 1"><g id="_3_curved_rim_654" data-name="3_curved_rim_654"><path d="M654.4,326.31h0c-.6,12-5.6,12-6.6,23.8h-1.2c1-11.6-4.8-12.2-4.8-22.8v-1h0c-.4-11.8,5.6-12,4.6-24h1.2C648.8,314.11,654,313.91,654.4,326.31Z" style="fill:#182755"/><path d="M647.8,350.11c-.8,12,4.4,12.6,3,24.8-2.2,12-7.4,11.2-10,22.8l-1.2-.2c2.8-11.8-3.2-12.8-1.2-24.4,1.4-11.6,7.4-11,8.2-23Z" style="fill:#182755"/><path d="M650.8,277.51c1.4,12.2-3.8,12.8-3,24.8h-1.2c-.8-12-6.8-11.4-8.2-23-2.2-11.6,3.8-12.6,1-24.4l1.2-.2C643.4,266.31,648.6,265.31,650.8,277.51Z" style="fill:#182755"/><path d="M639.6,397.31l1.2.2c-2.6,11.8,2.6,13-.8,25-4,11.6-9,10-13.4,21l-1.2-.4c4.4-11.2-1.2-13.2,2.6-24.2C631.2,407.51,637,409.11,639.6,397.31Z" style="fill:#182755"/><path d="M640.8,254.71l-1.2.2c-2.6-11.8-8.4-10.2-11.6-21.6-3.8-11,1.8-13.2-2.6-24.2l1.2-.4c4.4,11.2,9.4,9.4,13.4,21C643.2,241.51,638.2,242.91,640.8,254.71Z" style="fill:#182755"/><path d="M625.6,443.11l1.2.4c-4.4,11.2.6,13.4-4.4,24.6-5.6,11-10.4,8.4-16.4,18.8l-1-.6c6-10.4.8-13.2,6.2-23.6C615.6,452.11,621.2,454.31,625.6,443.11Z" style="fill:#182755"/><path d="M626.6,208.71l-1.2.4c-4.2-10.8-9.6-9-14.2-18.6-.2-.4-.2-.6-.4-1-5.4-10.4-.2-13.2-6.2-23.6l1-.6c6,10.4,10.8,7.8,16.4,18.8C627,195.31,622.2,197.51,626.6,208.71Z" style="fill:#182755"/><path d="M604.8,486.31l1,.6c-6,10.4-1.4,13.2-8.2,23.6-7.2,10-11.6,6.8-19,16.2l-1-.8c7.6-9.4,2.8-12.8,9.6-22.4C593.6,493.51,598.8,496.71,604.8,486.31Z" style="fill:#182755"/><path d="M605.6,165.31l-1,.6c-6-10.4-11-7.2-17.4-17.2-6.8-9.6-2.2-13-9.6-22.4l1-.8c7.4,9.4,11.8,6.2,19,16.2C604.2,152.11,599.6,154.91,605.6,165.31Z" style="fill:#182755"/><path d="M577.8,525.91l1,.8c-7.6,9.4-3.4,13-11.6,22-8.2,8.6-12.2,5.2-20.4,12.4l-1.6-.2c7.4-7,5.6-11,9.8-17.2a23.84,23.84,0,0,1,3-3.6C565.8,531.51,570.2,535.31,577.8,525.91Z" style="fill:#182755"/><path d="M578.6,125.71l-1,.8c-7.6-9.4-12-5.6-19.8-14.4-.4-.6-1-1-1.4-1.6-6.2-7.6-3.2-11.4-11.4-19.2l1.6-.2c8.2,7.2,12.2,3.8,20.4,12.4C575.2,112.71,571,116.31,578.6,125.71Z" style="fill:#182755"/><path d="M546.8,561.31c-.2.2-.6.4-.8.8-9,8-5.2,12.4-14.8,20.2-9.6,7.6-13,3-22.8,10a2.76,2.76,0,0,0-.8.6l-.6-1c.2-.2.6-.4.8-.6,9.8-7,6.6-11.4,15.8-18.8s12.8-3.2,21.6-11.2Z" style="fill:#182755"/><path d="M546.6,91.11l-1.6.2c-9-8-12.6-3.8-21.8-11.2s-6-11.6-15.8-18.6l.6-1h0c9.8,7,13.2,2.2,22.8,10,9.6,7.6,5.8,12.2,14.8,20.2A1.53,1.53,0,0,1,546.6,91.11Z" style="fill:#182755"/><path d="M508.2,60.51l-.6,1a24.27,24.27,0,0,0-11.4-4.2,27,27,0,0,1-11.4-3.6h0c-10.2-6-7.6-10.6-18.4-16.2l.6-1.2h0c9.6,5,12.8,1.2,21.2,5,.8.4,1.8.8,2.8,1.4h0C501.2,48.91,498.2,54.11,508.2,60.51Z" style="fill:#182755"/><path d="M506.8,591.51l.6,1c-9,6.2-6.4,11.2-16.6,17h0c-1,.6-2,1-2.8,1.4-7.4,3.4-10.8.6-18.4,3.6l-.6-1.4a22.47,22.47,0,0,0,6.6-6.4,27.21,27.21,0,0,1,8.8-8.2h0C494.6,593.31,497.4,597.31,506.8,591.51Z" style="fill:#182755"/><path d="M469.2,613.31l.6,1.4c-.8.4-1.8.8-2.8,1.2-11,4.8-8.6,10.4-20,14.8-11,4.4-13.2-.8-23.6,2.4l-.4-1.2c10.2-3.8,8.8-8.6,19.4-12.8.6-.2,1-.4,1.6-.6,9.6-3.2,12,1,22.4-3.8A7.39,7.39,0,0,0,469.2,613.31Z" style="fill:#182755"/><path d="M466.8,36.51l-.6,1.2c-10.4-4.6-12.8-.4-22.6-3.6a13.78,13.78,0,0,0-1.6-.6c-11-4.4-9.2-9.4-20.6-13.2l.4-1.2h0c11.4,3.8,13.4-1.8,24.8,2.8C458.2,26.11,455.8,31.51,466.8,36.51Z" style="fill:#182755"/><path d="M423,632.11l.4,1.2c-.4.2-.8.2-1.2.4-11.6,3.2-10,9-22,11.6-12,2.8-13-3.2-24.8-1l-.2-1.2c11.8-2.2,10.8-7.4,22.2-10s12.8,2.6,24.4-.6C422.2,632.31,422.6,632.31,423,632.11Z" style="fill:#182755"/><path d="M422,18.91l-.4,1.2c-11.6-3.2-13,2-24.4-.6s-10.4-7.8-22.2-10l.2-1.2h0c11.8,2.2,13-3.8,24.8-1C411.8,9.91,410.4,15.71,422,18.91Z" style="fill:#182755"/><path d="M375.2,643.11l.2,1.2c-12,1.4-11.2,7.4-23.6,8.2-12.2,1-12.4-5-24.4-4.6v-1.2c12-.4,11.8-5.6,23.6-6.6C362.6,639.31,363.2,644.51,375.2,643.11Z" style="fill:#182755"/><path d="M375,8.31l-.2,1.2c-12-1.4-12.6,3.8-24.2,3-11.8-1-11.6-6.2-23.6-6.6V4.71h0c12,.4,12.2-5.6,24.4-4.6C363.8.91,363.2,6.71,375,8.31Z" style="fill:#182755"/><path d="M327.4,646.71v1.2h0c-12-.4-12.2,5.6-24.4,4.6-12.2-.8-11.6-6.8-23.4-8.2l.2-1.2c12,1.4,12.6-3.8,24.2-3a2.54,2.54,0,0,1,1.2.2C315.6,641.51,315.8,646.31,327.4,646.71Z" style="fill:#182755"/><path d="M327,4.71v1.2c-12,.4-11.8,5.6-23.6,6.6-11.8.8-12.4-4.4-24.2-3l-.2-1.2c12-1.4,11.2-7.4,23.6-8.2H304C314.8-.49,315.6,5.11,327,4.71Z" style="fill:#182755"/><path d="M279.6,643.11l-.2,1.2h0c-11.8-2.2-13,3.8-24.8,1-12-2.6-10.4-8.4-22-11.6l.4-1.2c11.6,3.2,13-2,24.4.6C268.8,635.91,267.8,641.11,279.6,643.11Z" style="fill:#182755"/><path d="M279,8.31l.2,1.2c-11.8,2.2-10.8,7.2-22.2,10a25.78,25.78,0,0,1-5,.6c-7.2.4-9.8-2.8-19.4,0-.4.2-.8.2-1.2.4l-.4-1.2c.4-.2.8-.2,1.2-.4,11.6-3.2,10-9,22-11.6C266.2,4.51,267.2,10.51,279,8.31Z" style="fill:#182755"/><path d="M232.8,632.51l-.4,1.2h0c-11.4-4-13.4,1.8-24.8-2.8-1.4-.6-2.6-1.2-3.8-1.8-7.4-4-6.8-8.8-16.2-13l.6-1.2c11,4.8,13.2,0,24,4.2C223.2,623.71,221.4,628.71,232.8,632.51Z" style="fill:#182755"/><path d="M231,19.31l.4,1.2c-10.2,3.8-8.8,8.6-19.4,12.8-11,4.2-13-.6-24,4.2l-.6-1c9.6-4.2,9-9,16.4-13.2a30.09,30.09,0,0,1,3.6-1.8C218.4,17.31,220.6,22.51,231,19.31Z" style="fill:#182755"/><path d="M188.2,615.11l-.6,1.2h0c-10.6-5.6-13.4-.2-24-6.4h0c-10.4-6-7.4-11.2-17.4-17.6l.6-1a24.27,24.27,0,0,0,11.4,4.2,27,27,0,0,1,11.4,3.6h0C180,604.91,177.6,609.51,188.2,615.11Z" style="fill:#182755"/><path d="M187.4,36.51l.6,1c-10.6,5.6-8.2,10.2-18,16l-6.2-10.8C174,36.91,176.8,42.11,187.4,36.51Z" style="fill:#182755"/><path d="M163.6,42.91l6.2,10.8h0c-9.8,5.6-12.8,1.6-22.2,7.2l-.6-1c8.8-6.2,6.2-11,16.6-17Z" style="fill:#182755"/><path d="M146.8,59.91l.6,1c-.2.2-.6.4-.8.6-9.8,7-6.6,11.4-15.8,18.8S118,83.51,109,91.51l-1.6-.2c.2-.2.6-.4.8-.8,9-8,5.2-12.4,14.8-20.2,9.6-7.6,13-3,22.8-10A1.53,1.53,0,0,0,146.8,59.91Z" style="fill:#182755"/><path d="M147,591.11l-.6,1h0c-9.8-7-13.2-2.2-22.8-10-9.6-7.6-5.8-12.2-14.8-20.2-.2-.2-.6-.4-.8-.8l1.6-.2c8.6,7.8,12.4,4.2,20.8,10.6.2.2.6.4.8.6C140.4,579.91,137.2,584.11,147,591.11Z" style="fill:#182755"/><path d="M109.4,561.31l-1.6.2c-8.2-7.2-12.2-3.8-20.4-12.4-8.2-9.2-4-12.8-11.6-22l1-.8c7.6,9.4,12,5.6,19.8,14.4C104.8,549.11,100.8,553.11,109.4,561.31Z" style="fill:#182755"/><path d="M107.6,91.31l1.6.2c-8.8,8.2-4.8,12.2-12.8,20.8-7.8,8.8-12.2,5-19.8,14.4l-1-.8c7.6-9.4,3.4-13,11.6-22.2C95.4,95.11,99.4,98.71,107.6,91.31Z" style="fill:#182755"/><path d="M76.8,526.11l-1,.8c-7.2-9-11.6-6.4-18.4-15.2a4.37,4.37,0,0,1-.6-1c-6.6-10.4-2.2-13.2-8.2-23.6l1-.6c6,10.4,11,7.2,17.4,17.2C74,513.31,69.4,516.71,76.8,526.11Z" style="fill:#182755"/><path d="M75.8,125.91l1,.8c-7.6,9.4-2.8,12.8-9.6,22.4-.8,1.2-1.6,2.2-2.4,3.2-5.4,6.2-9.8,4.8-15,14l-1-.6c6-10.4,1.4-13.2,8-23.6C63.8,132.11,68.2,135.31,75.8,125.91Z" style="fill:#182755"/><path d="M49.8,486.71l-1,.6c-6-10.4-10.8-7.8-16.4-18.8-5-11.2-.2-13.4-4.4-24.6l1.2-.4c4.4,11.2,9.8,8.8,14.6,19.6C49,473.51,43.8,476.31,49.8,486.71Z" style="fill:#182755"/><path d="M48.6,165.71l1,.6c-6,10.4-.8,13.2-6.2,23.6-4.8,10.8-10.2,8.4-14.6,19.6l-1.2-.4c4.4-11.2-.6-13.4,4.4-24.6C37.8,173.51,42.6,176.11,48.6,165.71Z" style="fill:#182755"/><path d="M29,443.51l-1.2.4c-4.4-11.2-9.4-9.4-13.4-21-3.2-11.8,1.8-13.2-.8-25l1.2-.2c2.6,11.8,8.4,10.2,11.6,21.6C30.2,430.31,24.4,432.31,29,443.51Z" style="fill:#182755"/><path d="M27.8,208.91l1.2.4c-4.4,11.2,1.2,13.2-2.6,24.2-3.2,11.4-8.8,9.8-11.6,21.6l-1.2-.2c2.6-11.8-2.6-13,.8-25C18.4,218.31,23.2,220.11,27.8,208.91Z" style="fill:#182755"/><path d="M16,373.31c2.2,11.6-3.8,12.6-1,24.4l-1.2.2c-2.8-11.6-8-10.8-10.2-22.8-1.4-12.2,3.8-12.8,3-24.8H7.8C8.6,362.31,14.6,361.71,16,373.31Z" style="fill:#182755"/><path d="M14.8,255.31c-2.8,11.8,3.2,12.8,1.2,24.4-1.4,11.6-7.4,11-8.2,23H6.6c.8-12-4.4-12.6-3-24.8,2.2-12,7.4-11.2,10.2-22.8Z" style="fill:#182755"/><path d="M12.4,325.31v1h0c.4,11.8-5.6,12-4.6,24H6.6c-1-12-6.2-11.8-6.6-24H0c.6-12,5.6-12,6.6-23.8H7.8C6.8,314.11,12.4,314.71,12.4,325.31Z" style="fill:#182755"/></g></g></g></svg>