<svg xmlns="http://www.w3.org/2000/svg" width="771.4" height="771.4" viewBox="0 0 771.4 771.4"><title>5_middle_gears_771 (2)</title><g id="Layer_2" data-name="Layer 2"><g id="Layer_1-2" data-name="Layer 1"><g id="_5_middle_gears_771" data-name="5_middle_gears_771"><path d="M768.8,387.8c1.4.8,2.6,1.6,2.6,3,0,1.6-1.4,2.2-2.8,3s-2.8,1.6-2.8,3.2,1.4,2.4,2.8,3.4c1.4.8,2.6,1.6,2.6,3.2s-1.2,2.2-2.8,3c-1.4.8-3,1.4-3,3-.2,1.6,1.2,2.6,2.6,3.4,1.2.8,2.4,1.8,2.4,3.2,0,1.6-1.4,2.2-2.8,2.8s-3,1.4-3,3c-.2,1.6,1.2,2.6,2.6,3.6,1.2.8,2.4,1.8,2.2,3.2-.2,1.6-1.6,2.2-3,2.8s-3,1.2-3.2,2.8,1,2.6,2.4,3.6c1.2,1,2.4,1.8,2.2,3.4s-1.6,2-3,2.6-3,1.2-3.2,2.8,1,2.6,2.2,3.6,2.2,2,2,3.4c-.2,1.6-1.6,2-3,2.6-1.6.6-3,1-3.4,2.6-.2,1.6,1,2.6,2.2,3.8,1.2,1,2.2,2,2,3.6-.4,1.4-1.8,2-3.2,2.4-1.6.4-3.2,1-3.4,2.6l-1.2-.2c1.8-8,3.4-16.2,4.8-24.4q1.8-12.3,3-24.6c.2-2,.4-4.2.4-6.2.2-2,.4-4.2.4-6.2.2-4.2.4-8.2.4-12.4.2-3.8.2-7.4.2-11.2V385a334.46,334.46,0,0,0-1.8-37.4c-.4-4.2-.8-8.4-1.4-12.4h1c.2,1.6,1.8,2.2,3.2,2.8s2.8,1.2,3,2.8-1,2.4-2.2,3.2c-1.2,1-2.6,2-2.4,3.6s1.6,2.2,3,3c1.4.6,2.8,1.2,2.8,2.8s-1,2.4-2.4,3.2c-1.2,1-2.6,1.8-2.6,3.4.2,1.6,1.6,2.4,3,3s2.8,1.4,2.8,2.8c0,1.6-1.2,2.4-2.6,3.2s-2.8,1.8-2.8,3.4,1.4,2.4,2.8,3.2,2.6,1.4,2.6,3-1.2,2.2-2.6,3-2.8,1.6-2.8,3.2a2.14,2.14,0,0,0,.4,1.2C766.8,386.6,767.8,387.2,768.8,387.8Z" style="fill:#182755"/><path d="M767,327.8c.2,1.6-1,2.4-2.2,3.4s-2.6,2-2.4,3.6h-1c-1.2-8.2-2.4-16.2-4.2-24.4a365,365,0,0,0-9.2-36c-2.4-7.8-5.2-15.8-8.2-23.4-1.4-3.8-3-7.8-4.6-11.6s-3.2-7.6-5-11.4-3.6-7.4-5.4-11.2c-1.8-3.6-3.8-7.4-5.8-11L713,195l1.2-.8c.8,1.4,2.4,1.4,4,1.4s3,0,3.8,1.4,0,2.6-.8,4-1.6,2.6-.8,4.2c.8,1.4,2.4,1.6,4,1.6s3,.2,3.8,1.4c.6,1.4,0,2.6-1,4-.8,1.4-1.8,2.6-1,4.2.8,1.4,2.4,1.6,4,1.6,1.6.2,3,.2,3.6,1.6s-.2,2.6-1.2,3.8c-1,1.4-1.8,2.6-1.2,4.2.6,1.4,2.2,1.6,3.8,1.8s3,.4,3.6,1.8-.2,2.6-1.2,3.8-1.8,2.6-1.2,4c.6,1.6,2.2,1.8,3.8,2s3,.4,3.6,1.8-.4,2.6-1.4,3.8-2,2.6-1.4,4c.6,1.6,2.2,1.8,3.8,2s3,.6,3.6,2c.4,1.4-.4,2.6-1.6,3.8-1,1.2-2.2,2.4-1.6,4s2.2,1.8,3.6,2.2c1.6.4,3,.6,3.4,2s-.4,2.6-1.6,3.6c-1,1.2-2.2,2.4-1.8,4s2,2,3.6,2.2c1.6.4,3,.8,3.4,2.2s-.6,2.6-1.8,3.6c-1.2,1.2-2.2,2.2-1.8,3.8s2,2,3.6,2.4,3,.8,3.2,2.2c.4,1.4-.8,2.4-1.8,3.6-1.2,1-2.4,2.2-2,3.8s2,2,3.4,2.6c1.4.4,2.8.8,3.2,2.4.4,1.4-.8,2.4-1.8,3.6-1.2,1-2.4,2.2-2,3.8.2,1.6,1.8,2.2,3.2,2.6s2.8,1,3.2,2.4c.2,1.6-.8,2.4-2,3.4s-2.4,2-2.2,3.6,1.8,2.2,3.4,2.8C765.4,325.8,766.8,326.2,767,327.8Z" style="fill:#182755"/><path d="M758.2,474.8c1.2,1,2.2,2.2,1.8,3.6s-1.8,1.8-3.2,2.4c-1.4.4-3,.8-3.6,2.4-.4,1.6.8,2.8,1.8,3.8s2.2,2.2,1.6,3.6c-.4,1.4-1.8,1.8-3.4,2.2s-3.2.8-3.6,2.4.8,2.8,1.8,4,2,2.2,1.6,3.6-2,1.8-3.4,2c-1.6.4-3.2.6-3.6,2.2l-1.2-.4c2.6-7.8,5-15.8,7.2-23.8l3-12,1.2.2C756,472.6,757.2,473.8,758.2,474.8Z" style="fill:#182755"/><path d="M747.8,510.8c1,1.2,2,2.2,1.6,3.8-.4,1.4-2,1.8-3.4,2-1.6.2-3.2.6-3.8,2-.6,1.6.4,2.8,1.4,4s1.8,2.4,1.4,3.8c-.6,1.4-2,1.6-3.6,1.8s-3.2.4-3.8,2,.4,2.8,1.4,4,1.8,2.4,1.2,3.8-2,1.6-3.6,1.6c-1.6.2-3.2.4-3.8,1.8l-1.2-.6c1.8-3.8,3.4-7.6,5-11.4s3.2-7.6,4.6-11.6c1.4-3.8,2.8-7.8,4.2-11.6l1.2.4C745.6,508.4,746.8,509.6,747.8,510.8Z" style="fill:#182755"/><path d="M733.8,545.8c.8,1.2,1.8,2.4,1.2,3.8s-2,1.6-3.6,1.6c-1.6.2-3.2.2-4,1.6s.2,2.8,1,4.2c.8,1.2,1.6,2.6,1,3.8-.6,1.4-2.2,1.4-3.8,1.6-1.6,0-3.2.2-4,1.6s.2,2.8,1,4.2,1.6,2.6.8,4c-.8,1.2-2.2,1.4-3.8,1.4s-3.2,0-4,1.4l-1.2-.8,6-10.8c2-3.6,3.8-7.4,5.6-11,1.8-3.8,3.6-7.4,5.2-11.2l1.2.6C731.8,543.2,732.8,544.4,733.8,545.8Z" style="fill:#182755"/><path d="M716.4,579.2c.8,1.4,1.6,2.6.8,4s-2.2,1.2-3.8,1.2-3.2,0-4.2,1.2c-.8,1.4-.2,2.8.6,4.2s1.4,2.6.6,4-2.2,1.2-3.8,1.2c-1.6-.2-3.2-.2-4,1.2s-.2,2.8.6,4.2c.6,1.4,1.2,2.8.4,4s-2.4,1.2-4,1-3.2-.2-4.2,1l-1.2-.8c2.4-3.4,4.8-6.8,7-10.2s4.6-6.8,6.6-10.4c2.2-3.6,4.2-7,6.4-10.6h0l1.2.8C714.8,576.4,715.6,577.8,716.4,579.2Z" style="fill:#182755"/><path d="M715.8,186.2c.8,1.4,0,2.6-.8,4s-1.6,2.8-.8,4.2l-1.2.8c-2-3.6-4.2-7.2-6.4-10.6-2.2-3.6-4.4-7-6.8-10.4-2.2-3.4-4.6-6.8-7-10.2s-4.8-6.6-7.4-10c-2.6-3.2-5-6.6-7.8-9.8-2.6-3.2-5.4-6.4-8-9.4-5.4-6.2-11.2-12.2-17-18.2a244,244,0,0,0-18.2-17l.8-1c1.2,1,2.8.6,4.2,0s3-1,4,0c1.2,1,.8,2.4.4,4s-.8,3.2.4,4.2c1.2,1.2,2.8.6,4.2.2,1.6-.4,3-.8,4,.2s.8,2.4.4,4-.8,3.2.4,4.2c1.2,1.2,2.8.8,4.2.4s3-.8,4,.4c1,1,.6,2.6.2,4-.4,1.6-.8,3.2.2,4.2,1.2,1.2,2.8.8,4.2.4,1.6-.4,3-.6,4,.4s.6,2.6,0,4c-.4,1.6-1,3,0,4.4,1,1.2,2.6.8,4.2.6s3-.6,4,.6.6,2.6,0,4-1,3,0,4.2,2.6,1,4.2.8,3-.4,4,.8.4,2.6-.2,4-1.2,3-.2,4.2,2.6,1,4.2.8,3-.4,4,.8c.8,1.2.2,2.6-.4,4s-1.4,3-.4,4.2c1,1.4,2.6,1.2,4.2,1s3-.2,4,1c.8,1.2.2,2.6-.4,4s-1.4,2.8-.4,4.2c.8,1.4,2.4,1.2,4,1.2s3-.2,3.8,1.2c.8,1.2.2,2.6-.6,4s-1.4,2.8-.6,4.2,2.6,1.2,4.2,1.2C713.6,185,715.2,185,715.8,186.2Z" style="fill:#182755"/><path d="M695.8,610.6c.6,1.4,1.2,2.8.4,4s-2.2,1-3.8.8-3.2-.4-4.2.8-.4,2.8.2,4.2,1.2,2.8.2,4-2.4,1-4,.8-3.2-.4-4.2.8-.4,2.8.2,4.2,1,2.8,0,4-2.4.8-4,.6-3.2-.6-4.2.6-.6,2.8,0,4.2c.4,1.6,1,3,0,4-1,1.2-2.4.8-4,.4s-3.2-.8-4.2.4c-1.2,1.2-.6,2.8-.2,4.2.4,1.6.8,3-.2,4s-2.4.8-4,.4-3-.8-4.2.4c-1,1.2-.8,2.8-.4,4.2.4,1.6.8,3-.4,4-1,1-2.6.6-4,.2-1.6-.4-3.2-.8-4.2.2-1.2,1-.8,2.8-.4,4.2.4,1.6.6,3-.4,4s-2.6.6-4,0c-1.6-.6-3.2-1-4.4,0s-1,2.6-.6,4.2c.2,1.6.6,3-.6,4s-2.6.4-4,0c-1.4-.6-3-1-4.2,0s-1,2.6-.8,4.2.4,3-.8,4-2.6.4-4-.2-3-1.2-4.2-.2-1,2.6-.8,4.2.4,3-.8,4c-1.2.8-2.6.2-4-.4s-3-1.4-4.2-.4l-.6-1c6.8-4.8,13.2-10,19.6-15.2a365.17,365.17,0,0,0,27.4-25.2c5.8-5.8,11.4-12,16.8-18.2,2.8-3.2,5.4-6.2,8-9.6,2.6-3.2,5.2-6.4,7.6-9.8,2.4-3.2,5-6.6,7.4-10h0l1.2.8A5.29,5.29,0,0,0,695.8,610.6Z" style="fill:#182755"/><path d="M635.2,99l-.8,1c-3.2-2.8-6.2-5.4-9.6-8q-9.6-7.8-19.8-15l.8-1c1.4,1,2.8.2,4.2-.4s2.8-1.2,4-.4,1,2.2.8,3.8-.4,3.2.8,4.2,2.8.4,4.2-.2,2.8-1.2,4-.2,1,2.4.8,4-.4,3.2.8,4.2,2.8.4,4.2-.2,2.8-1,4,0,.8,2.4.6,4C634.4,96.2,634,97.8,635.2,99Z" style="fill:#182755"/><path d="M607.4,693.4l.6,1c-1.4,1-1.2,2.6-1,4.2s.2,3-1,3.8-2.6.2-4-.4-2.8-1.4-4.2-.4c-1.4.8-1.2,2.4-1.2,4s.2,3-1.2,3.8c-1.2.8-2.6.2-4-.6s-2.8-1.4-4.2-.6-1.2,2.6-1.2,4.2,0,3-1.2,3.8-2.6,0-4-.8-2.8-1.6-4.2-.8-1.4,2.4-1.4,4,0,3-1.4,3.8-2.6,0-4-.8-2.8-1.6-4.2-.8-1.6,2.4-1.6,4-.2,3-1.4,3.8c-1.4.6-2.6,0-3.8-1-1.4-.8-2.8-1.8-4.2-1s-1.6,2.4-1.6,4c-.2,1.6-.2,3-1.6,3.6s-2.6-.2-3.8-1.2-2.6-1.8-4.2-1.2c-1.4.6-1.6,2.2-1.8,3.8s-.4,3-1.8,3.6-2.6-.2-3.8-1.2-2.6-1.8-4-1.2c-1.6.6-1.8,2.2-2,3.8s-.4,3-1.8,3.6-2.6-.4-3.8-1.4-2.6-2-4-1.4c-1.6.6-1.8,2.2-2,3.8s-.6,3-2,3.6c-1.4.4-2.6-.4-3.8-1.6-1.2-1-2.4-2.2-4-1.6l-.4-1.2c7.8-2.6,15.6-5.6,23.2-8.8,10.2-4.4,20.4-9,30.2-14.4,1.2-.6,2.2-1.2,3.4-1.8,11-5.8,21.6-12.2,32-19C600.6,698.2,604,695.8,607.4,693.4Z" style="fill:#182755"/><path d="M606,75.8l-.8,1c-3.4-2.4-6.8-4.8-10.2-7-2.4-1.6-4.8-3.2-7.2-4.6-1-.6-2.2-1.4-3.2-2-10.4-6.6-21.4-12.6-32.4-18.2-3.8-1.8-7.4-3.6-11.2-5.4l.4-1c1.4.6,2.8-.2,4.2-1.2,1.2-1,2.4-1.8,3.8-1.2s1.6,2,1.6,3.6c.2,1.6.2,3.2,1.6,4s2.8-.2,4.2-1c1.2-.8,2.6-1.6,3.8-1,1.4.6,1.4,2.2,1.6,3.8,0,1.6.2,3.2,1.6,4s2.8-.2,4.2-1,2.6-1.6,4-.8c1.2.8,1.4,2.2,1.4,3.8s0,3.2,1.4,4,2.8,0,4.2-.8,2.6-1.6,4-.8,1.2,2.2,1.2,3.8,0,3.2,1.2,4.2c1.4.8,2.8.2,4.2-.6s2.6-1.4,4-.6c1.2.8,1.2,2.2,1.2,3.8-.2,1.6-.2,3.2,1.2,4s2.8.2,4.2-.6c1.4-.6,2.8-1.2,4-.4s1.2,2.4,1,4C604.8,73.2,604.6,74.8,606,75.8Z" style="fill:#182755"/><path d="M541.2,38.6l-.4,1c-7.6-3.4-15.2-6.4-23-9.4A363.57,363.57,0,0,0,482.4,19c-8-2.2-16-4-24.2-5.4-4-.8-8.2-1.6-12.2-2.2L433.8,9.6h0l.2-1.4c1.6.2,2.6-1.2,3.6-2.4s1.8-2.4,3.4-2.2,2,1.6,2.6,3,1.2,3,2.8,3.4S449,9,450,7.8s2-2.2,3.4-2c1.6.2,2,1.6,2.6,3,.6,1.6,1,3,2.6,3.4,1.6.2,2.6-1,3.8-2.2,1-1.2,2-2.2,3.6-2,1.4.4,2,1.8,2.4,3.2.4,1.6,1,3,2.6,3.4s2.8-.8,3.8-2,2.2-2.2,3.6-1.8,1.8,1.8,2.4,3.2c.4,1.4.8,3,2.4,3.6,1.6.4,2.8-.6,3.8-1.8,1.2-1,2.2-2,3.6-1.6s1.8,1.8,2.2,3.4.8,3.2,2.4,3.6,2.8-.6,4-1.8c1.2-1,2.2-2,3.6-1.6s1.8,2,2,3.4c.4,1.6.6,3.2,2.2,3.6,1.6.6,2.8-.6,4-1.6s2.2-2,3.8-1.6c1.4.4,1.8,2,2,3.4.2,1.6.6,3.2,2,3.8,1.6.6,2.8-.4,4-1.4s2.4-1.8,3.8-1.4c1.4.6,1.6,2,1.8,3.6s.4,3.2,2,3.8,2.8-.4,4-1.4,2.4-1.8,3.8-1.2,1.6,2.2,1.6,3.6C539.6,36.4,539.8,38,541.2,38.6Z" style="fill:#182755"/><path d="M508.6,744.6l.4,1.2c-1.6.6-1.8,2.2-2.2,3.6-.4,1.6-.6,3-2,3.4s-2.6-.4-3.6-1.6c-1.2-1-2.4-2.2-4-1.8s-2,2-2.2,3.6c-.4,1.6-.8,3-2.2,3.4s-2.6-.6-3.6-1.8c-1.2-1.2-2.2-2.2-3.8-1.8s-2,2-2.4,3.6-.8,3-2.2,3.2c-1.4.4-2.4-.8-3.6-1.8-1.2-1.2-2.2-2.4-3.8-2l-.2-1.2c8-1.8,16-4,24-6.4C500.6,747.2,504.6,746,508.6,744.6Z" style="fill:#182755"/><path d="M472.8,754.8l.2,1.2c-1.6.4-2,2-2.6,3.4-.4,1.4-.8,2.8-2.4,3.2-1.4.4-2.4-.8-3.6-1.8-1-1.2-2.2-2.4-3.8-2-1.6.2-2.2,1.8-2.6,3.2-.6,1.4-1,2.8-2.4,3.2-1.6.2-2.4-.8-3.4-2s-2-2.4-3.6-2.2-2.2,1.8-2.8,3.4c-.6,1.4-1.2,3-2.6,3-1.6.2-2.4-1-3.4-2.2s-2-2.6-3.6-2.4-2.2,1.8-2.8,3.2-1.2,2.8-2.8,3-2.4-1-3.2-2.2c-1-1.2-2-2.6-3.6-2.4s-2.2,1.6-3,3c-.6,1.4-1.2,2.8-2.8,2.8s-2.4-1-3.2-2.4c-1-1.2-1.8-2.6-3.4-2.6-1.6.2-2.4,1.6-3,3s-1.4,2.8-2.8,2.8c-1.6,0-2.4-1.2-3.2-2.6s-1.8-2.8-3.4-2.8-2.4,1.4-3.2,2.8-1.4,2.6-3,2.6-2.2-1.2-3-2.6-1.6-2.8-3.2-2.8-2.4,1.4-3.2,2.8-1.6,2.6-3,2.6c-1.6,0-2.2-1.4-3-2.8s-1.6-2.8-3.2-2.8V764c4.2.2,8.2.2,12.4.2s8.2,0,12.4-.2l12.4-.6c4.2-.2,8.2-.6,12.4-1s8.2-.8,12.4-1.4,8.2-1.2,12.2-1.8,8.2-1.4,12.2-2.2h0a82,82,0,0,0,12.2-2.2Z" style="fill:#182755"/><path d="M433.8,8.4l-.2,1.4c-4.2-.6-8.2-1-12.4-1.4s-8.2-.8-12.4-1l-12.4-.6V5.4c1.6,0,2.4-1.4,3.2-2.8S401.2,0,402.8,0s2.2,1.2,3,2.8c.8,1.4,1.4,3,3,3,1.6.2,2.6-1.2,3.4-2.6S414,.8,415.4.8c1.6,0,2.2,1.4,2.8,2.8s1.4,3,3,3c1.6.2,2.6-1.2,3.6-2.6.8-1.2,1.8-2.4,3.2-2.2,1.6.2,2.2,1.6,2.8,3C431.6,6.6,432.2,8.2,433.8,8.4Z" style="fill:#182755"/><path d="M396.6,5.6V7h0c-4.2-.2-8.2-.2-12.2-.2-4.2,0-8.4,0-12.4.2l-12.2.6c-4.2.2-8.4.6-12.6,1s-8.2.8-12.4,1.4c-8.2,1-16.4,2.4-24.4,4-4,.8-8.2,1.6-12.2,2.6l-.2-1.2c1.6-.4,2-2,2.6-3.4.4-1.4.8-3,2.4-3.2,1.4-.4,2.4.8,3.6,1.8,1,1.2,2.2,2.4,3.8,2,1.6-.2,2.2-1.8,2.6-3.4.6-1.4,1-2.8,2.4-3.2,1.6-.2,2.4.8,3.4,2s2,2.4,3.6,2.2,2.2-1.8,2.8-3.4c.6-1.4,1.2-3,2.6-3,1.6-.2,2.4,1,3.4,2.2s2,2.6,3.6,2.4,2.2-1.6,2.8-3.2c.6-1.4,1.2-2.8,2.6-3,1.6-.2,2.4,1,3.4,2.2s2,2.6,3.6,2.4,2.2-1.6,3-3c.6-1.4,1.2-2.8,2.8-2.8,1.6-.2,2.4,1.2,3.2,2.4,1,1.4,1.8,2.6,3.4,2.6,1.6-.2,2.4-1.6,3-3S364,.2,365.4.2c1.6,0,2.4,1.2,3.2,2.6s1.8,2.8,3.4,2.8,2.4-1.4,3.2-2.8,1.4-2.6,3-2.6,2.2,1.2,3,2.6,1.6,2.8,3.2,2.8,2.4-1.4,3.2-2.8,1.6-2.6,3-2.6c1.6,0,2.2,1.4,3,2.6.6,1.2,1.4,2.6,3,2.8Z" style="fill:#182755"/><path d="M374.2,764.6V766c-1.6,0-2.4,1.4-3.4,2.8-.8,1.4-1.6,2.6-3.2,2.6s-2.2-1.2-3-2.8c-.8-1.4-1.4-2.8-3-3s-2.6,1.2-3.4,2.6c-.8,1.2-1.8,2.4-3.2,2.4-1.6,0-2.2-1.4-2.8-2.8s-1.4-3-3-3c-1.6-.2-2.6,1.2-3.6,2.6-.8,1.2-1.8,2.4-3.2,2.2-1.6-.2-2.2-1.6-2.8-3s-1.2-3-2.8-3.2-2.6,1-3.6,2.4c-1,1.2-1.8,2.4-3.4,2.2s-2-1.6-2.6-3-1.2-3-2.8-3.4c-1.6-.2-2.6,1-3.6,2.2s-2,2.2-3.4,2-2-1.6-2.4-3c-.6-1.6-1-3-2.6-3.4-1.6-.2-2.6,1-3.8,2.2-1,1.2-2,2.2-3.6,2-1.4-.4-2-1.8-2.4-3.2-.4-1.6-1-3.2-2.6-3.4-1.6-.4-2.6.8-3.8,2-1,1.2-2,2.2-3.6,1.8-1.4-.4-1.8-1.8-2.4-3.2-.4-1.4-.8-3-2.4-3.6-1.6-.4-2.8.8-3.8,1.8s-2.2,2.2-3.6,1.6c-1.4-.4-1.8-1.8-2.2-3.4s-.8-3.2-2.4-3.6-2.8.8-4,1.8-2.2,2-3.6,1.6-1.8-2-2-3.4c-.4-1.6-.6-3.2-2.2-3.6l.4-1.2c4,1.4,7.8,2.6,11.8,3.8s8,2.2,12,3.4l12,3c4,1,8,1.8,12.2,2.6,4,.8,8.2,1.6,12.2,2.2l12.2,1.8c4.2.6,8.2,1,12.4,1.4s8.2.8,12.4,1C366,764.4,370.2,764.6,374.2,764.6Z" style="fill:#182755"/><path d="M297.6,15.4l.2,1.2c-8,1.8-16,4-24,6.4h0c-4,1.2-8,2.4-11.8,3.8l-.4-1.2c1.6-.6,1.8-2.2,2.2-3.6.4-1.6.6-3,2-3.4s2.6.4,3.6,1.6c1.2,1,2.4,2.2,4,1.6,1.6-.4,2-2,2.2-3.6.4-1.6.8-3,2.2-3.4s2.6.6,3.6,1.6c1.2,1.2,2.2,2.2,3.8,1.8s2-2,2.4-3.6.8-3,2.2-3.4,2.4.8,3.6,1.8C295,14.6,296.2,15.8,297.6,15.4Z" style="fill:#182755"/><path d="M264.6,745.4l-.4,1.2c-1.6-.6-2.8.6-4,1.6s-2.4,2-3.8,1.6-1.6-2-2-3.4c-.4-1.6-.6-3.2-2-3.8-1.6-.6-2.8.4-4,1.4s-2.4,1.8-3.8,1.4c-1.4-.6-1.6-2-1.8-3.6s-.4-3.2-2-3.8-2.8.4-4,1.4-2.4,1.8-3.8,1.2-1.6-2-1.8-3.6-.4-3.2-1.8-3.8l.4-1.2c7.6,3.4,15.2,6.6,23,9.4C256.8,742.8,260.8,744,264.6,745.4Z" style="fill:#182755"/><path d="M261.8,25.8l.4,1.2c-7.8,2.6-15.6,5.6-23.2,8.8-5.8,2.4-11.4,5-17,7.6-1.8,1-3.8,1.8-5.6,2.8-3.6,1.8-7.4,3.8-11,5.8l-9.6,5.4-1.2.6c-7.2,4-14.2,8.4-21,13-7,4.6-13.6,9.4-20.2,14.4l-.8-1c1.2-1,1-2.6.8-4.2s-.4-3,.8-4c1.2-.8,2.6-.2,4,.4s3,1.4,4.2.4c1.4-1,1.2-2.6,1-4.2s-.2-3,1-4c1.2-.8,2.6-.2,4,.4s2.8,1.4,4.2.4c1.4-.8,1.2-2.4,1.2-4s-.2-3,1.2-3.8c1.2-.8,2.6-.2,4,.6s2.8,1.4,4.2.6,1.2-2.6,1.2-4.2,0-3,1.2-3.8c1.4-.8,2.6,0,4,.8s2.8,1.6,4.2.8a2.41,2.41,0,0,0,1-1,7.29,7.29,0,0,0,.4-3c0-1.6,0-3,1.4-3.8s2.6,0,3.8.8c1.4.8,2.8,1.6,4.2.8s1.6-2.4,1.6-4,.2-3,1.4-3.6c1.4-.6,2.6,0,4,1,1.4.8,2.6,1.8,4.2,1s1.6-2.4,1.6-4c.2-1.6.2-3,1.6-3.6s2.6.2,3.8,1.2c1.4,1,2.6,1.8,4.2,1.2,1.4-.6,1.6-2.4,1.8-3.8.2-1.6.4-3,1.6-3.6,1.4-.6,2.6.2,3.8,1.2s2.6,1.8,4,1.4c1.6-.6,1.8-2.2,2-3.8s.4-3,1.8-3.6,2.6.4,3.8,1.4,2.6,2,4,1.4c1.6-.6,1.8-2.2,2-3.8s.4-3,2-3.6c1.4-.4,2.6.4,3.8,1.6C259,25.2,260.4,26.4,261.8,25.8Z" style="fill:#182755"/><path d="M230,731.8l-.4,1.2c-1.4-.6-2.8.2-4.2,1.2-1.2.8-2.4,1.8-3.8,1.2s-1.6-2-1.6-3.6c-.2-1.6-.2-3.2-1.6-4s-2.8.2-4.2,1c-1.2.8-2.6,1.6-3.8,1-1.4-.6-1.4-2.2-1.6-3.8,0-1.6-.2-3.2-1.6-4s-2.8.2-4.2,1-2.6,1.6-3.8.8c-1.4-.8-1.4-2.2-1.4-3.8s0-3.2-1.4-4a1.64,1.64,0,0,0-1.4-.2,5,5,0,0,0-2.8,1.2c-1.4.8-2.6,1.6-4,.8s-1.2-2.2-1.2-3.8,0-3.2-1.2-4.2c-1.4-.8-2.8-.2-4.2.6s-2.6,1.4-4,.6-1.2-2.2-1.2-3.8.2-3.2-1.2-4-2.8-.2-4.2.6c-1.4.6-2.8,1.2-4,.4s-1.2-2.4-1-4,.2-3.2-1-4.2c-1.4-1-2.8-.2-4.2.4s-2.8,1.2-4,.4-1.2-2.2-.8-3.8c.2-1.6.4-3.2-.8-4.2s-2.8-.4-4.2.2-2.8,1.2-4,.2-1-2.4-.8-4,.4-3.2-.8-4.2-2.8-.4-4.2.2-2.8,1-4,0-.8-2.4-.6-4c.4-1.6.6-3.2-.6-4.2l.8-1a342.61,342.61,0,0,0,34.4,26.6c1.8,1.2,3.4,2.4,5.2,3.4,3.4,2.2,6.8,4.6,10.4,6.8,3.2,2,6.4,3.8,9.6,5.6l1.2.6c3.6,2,7.2,4.2,10.8,6C215,724.8,222.6,728.4,230,731.8Z" style="fill:#182755"/><path d="M152.8,84.6l.8,1c-3.2,2.6-6.6,5.2-9.8,7.8a296.37,296.37,0,0,0-27.4,25.2h0a327.92,327.92,0,0,0-24.8,27.8c-2.6,3.2-5.2,6.4-7.6,9.8h0c-2.4,3.4-5,6.6-7.4,10l-1.2-.8c1-1.4.2-2.8-.4-4.2s-1.2-2.8-.4-4,2.2-1.2,3.8-.8c1.6.2,3.2.4,4.2-.8s.4-2.8-.2-4.2-1.2-2.8-.2-4,2.4-1,4-.8,3.2.4,4.2-.8.4-2.8-.2-4.2-1-2.8,0-4,2.4-.8,4-.6c1.6.4,3.2.6,4.2-.6s.6-2.8,0-4.2c-.6-1.6-1-2.8,0-4s2.4-.8,4-.4,3.2.8,4.2-.4c1.2-1.2.6-2.8.2-4.2-.4-1.6-.8-3,.2-4,1-1.2,2.4-.8,4-.4s3.2.8,4.2-.4c1.2-1.2.8-2.8.4-4.2s-.8-2.8.4-4c1-1,2.6-.6,4-.2,1.6.4,3,.8,4.2-.2,1.2-1.2.8-2.8.4-4.2-.4-1.6-.6-3,.4-4s2.6-.6,4,0c1.6.6,3,1,4.4,0,1.2-1,.8-2.6.6-4.2s-.6-3,.6-4,2.6-.4,4,0c1.4.6,3,1.2,4.2,0,1.2-1,1-2.6.8-4.2s-.4-3,.8-4,2.6-.4,4,.2C150,85,151.6,85.6,152.8,84.6Z" style="fill:#182755"/><path d="M136.4,671.8l-.8,1c-1.2-1-2.8-.6-4.2,0-1.6.4-2.8,1-4,0s-.8-2.4-.4-4,.8-3.2-.4-4.2c-1.2-1.2-2.8-.6-4.2-.2-1.6.4-3,.8-4-.2s-.8-2.4-.4-4,.8-3-.4-4.2c-1.2-1-2.8-.8-4.2-.4s-2.8.8-4-.4c-1-1-.6-2.6-.2-4,.4-1.6.8-3.2-.2-4.2-1.2-1.2-2.8-.8-4.2-.4-1.6.4-3,.6-4-.4s-.6-2.6,0-4c.4-1.6,1-3,0-4.4-1-1.2-2.6-1-4.2-.6-1.6.2-3,.6-4-.6s-.4-2.6,0-4c.6-1.4,1.2-3,0-4.2-1-1.2-2.6-1-4.2-.8s-3,.4-4-.8-.4-2.6.2-4,1.2-3,.2-4.2-2.6-1-4.2-.8-3,.4-4-.8c-.8-1.2-.2-2.6.4-4s1.4-3,.4-4.2-2.6-1.2-4.2-1-3,.2-3.8-1-.2-2.6.4-4,1.4-2.8.4-4.2c-.8-1.4-2.4-1.2-4-1.2s-3,.2-3.8-1.2c-.8-1.2-.2-2.6.6-4s1.4-2.8.6-4.2-2.6-1.2-4.2-1.2-3,0-3.8-1.2,0-2.6.8-4,1.6-2.8.8-4.2-2.4-1.4-4-1.4-3,0-3.8-1.4,0-2.6.8-3.8c.8-1.4,1.6-2.8.8-4.2s-2.4-1.6-4-1.6-3-.2-3.6-1.4c-.6-1.4.2-2.6,1-3.8.8-1.4,1.8-2.8,1-4.2s-2.4-1.6-4-1.6c-1.6-.2-3-.2-3.6-1.6s.2-2.6,1.2-3.8,1.8-2.6,1.2-4.2c-.6-1.4-2.4-1.6-3.8-1.8-1.6-.2-3-.4-3.6-1.8s.2-2.6,1.2-3.8,1.8-2.6,1.4-4c-.6-1.6-2.2-1.8-3.8-2s-3-.4-3.6-1.8.4-2.6,1.4-3.8,2-2.6,1.4-4c-.6-1.6-2.2-1.8-3.8-2s-3-.4-3.6-2c-.4-1.4.4-2.6,1.6-3.8,1-1.2,2.2-2.4,1.6-4s-2.2-1.8-3.6-2.2c-1.6-.2-3-.6-3.4-2s.4-2.6,1.6-3.6c1-1.2,2.2-2.4,1.6-4-.4-1.6-2-2-3.6-2.2-1.6-.4-3-.8-3.4-2.2s.6-2.6,1.6-3.6c1.2-1.2,2.2-2.2,1.8-3.8s-2-2-3.6-2.4-3-.8-3.4-2.2.8-2.4,1.8-3.6c1.2-1.2,2.4-2.2,2-3.8s-2-2-3.4-2.6c-1.4-.4-3-.8-3.2-2.4-.4-1.4.8-2.4,1.8-3.6,1.2-1,2.4-2.2,2-3.8-.2-1.6-1.8-2.2-3.4-2.6-1.4-.6-2.8-1-3.2-2.4-.2-1.6.8-2.4,2-3.4s2.4-2,2.2-3.6-1.8-2.2-3.4-2.8c-1.4-.6-3-1-3-2.6-.2-1.6,1-2.4,2.2-3.4s2.6-2,2.4-3.6-1.6-2.2-3.2-2.8c-1.4-.6-2.8-1.2-3-2.8s1-2.4,2.2-3.2c1.2-1,2.6-2,2.4-3.6s-1.6-2.2-3-3c-1.4-.6-2.8-1.2-2.8-2.8-.2-1.6,1.2-2.4,2.4-3.2,1.4-1,2.6-1.8,2.6-3.4H7.8c.2,4.2.6,8.2,1,12.4,1.2,12.4,3.2,24.6,5.6,36.8,1.6,8.2,3.6,16.2,5.8,24.2h0c1,4,2.2,8,3.4,11.8,1.2,4,2.4,7.8,3.8,11.8,1.4,3.8,2.8,7.8,4.2,11.6s3,7.8,4.6,11.6,3.2,7.6,5,11.4,3.4,7.4,5.4,11.2c1.8,3.8,3.8,7.4,5.8,11l6,10.8c2,3.6,4.2,7.2,6.4,10.6,2.2,3.6,4.4,7,6.8,10.4,2.2,3.4,4.6,6.8,7,10.2s4.8,6.6,7.4,10c2.6,3.2,5,6.6,7.8,9.8h0a361.88,361.88,0,0,0,25,27.6C124,660.8,130,666.4,136.4,671.8Z" style="fill:#182755"/><path d="M75.4,165.2l1.2.8c-2.4,3.4-4.8,6.8-7,10.2s-4.6,7-6.8,10.4c-2.2,3.6-4.2,7-6.4,10.6l-1.2-.6c.8-1.4,0-2.8-.8-4.2s-1.6-2.6-.8-4,2.2-1.2,3.8-1.2,3.2,0,4.2-1.2c.8-1.4.2-2.8-.6-4.2s-1.4-2.6-.6-4c.8-1.2,2.2-1.2,3.8-1.2,1.6.2,3.2.2,4-1.2s.2-2.8-.6-4.2c-.6-1.4-1.2-2.8-.4-4s2.4-1.2,4-1S74.4,166.6,75.4,165.2Z" style="fill:#182755"/><path d="M55.2,196.6l1.2.6-6,10.8c-2,3.6-3.8,7.4-5.6,11s-3.6,7.4-5.2,11.2h0l-1.2-.6c.6-1.4-.2-2.8-1.2-4.2-1-1.2-1.8-2.4-1.2-3.8s2-1.6,3.6-1.6c1.6-.2,3.2-.2,4-1.6s-.2-2.8-1-4.2c-.8-1.2-1.6-2.6-1-3.8.6-1.4,2.2-1.4,3.6-1.6,1.6,0,3.2-.2,4-1.6s-.2-2.8-1-4.2-1.6-2.6-.8-3.8c.8-1.4,2.2-1.4,3.8-1.4C52.8,198,54.4,198,55.2,196.6Z" style="fill:#182755"/><path d="M38.2,230l1.2.6c-1.6,3.8-3.4,7.6-5,11.4s-3.2,7.6-4.6,11.6c-3,7.8-5.6,15.6-8,23.4-2.4,8-4.6,16-6.4,24l-1.2-.2c.4-1.6-.8-2.8-2-3.8s-2.2-2-1.8-3.6c.4-1.4,1.8-1.8,3.2-2.4,1.4-.4,3-.8,3.6-2.4.4-1.6-.6-2.8-1.8-3.8-1-1-2-2.2-1.6-3.6s1.8-1.8,3.4-2.2,3.2-.8,3.6-2.4-.6-2.8-1.8-4c-1-1.2-2-2.2-1.6-3.6s2-1.8,3.4-2c1.6-.4,3.2-.6,3.6-2.2.6-1.6-.6-2.8-1.6-4s-2-2.4-1.6-3.8,2-1.8,3.4-2c1.6-.4,3.2-.6,3.8-2,.6-1.6-.4-2.8-1.4-4s-1.8-2.4-1.4-3.8c.6-1.4,2-1.6,3.6-1.8s3.2-.4,3.8-2-.4-2.8-1.4-4-1.8-2.4-1.2-3.8,2.2-1.6,3.6-1.8C36,231.6,37.6,231.4,38.2,230Z" style="fill:#182755"/><path d="M14.6,300.6l1.2.2c-1.8,8-3.4,16.2-4.8,24.4-.6,4-1.2,8.2-1.8,12.2L8,337.2c.2-1.6-1.2-2.6-2.4-3.6s-2.4-1.8-2.2-3.4,1.6-2,3-2.6,3-1.2,3.4-2.8-1-2.6-2.2-3.6-2.2-2-2-3.4,1.6-2,3-2.4c1.6-.6,3-1,3.4-2.6.2-1.6-1-2.6-2.2-3.8-1.2-1-2.2-2-2-3.6s1.8-2,3.2-2.4C12.6,302.6,14.2,302.2,14.6,300.6Z" style="fill:#182755"/><path d="M8,337.4l1.2.2c-1,8.2-1.8,16.6-2.2,25-.2,2.8-.2,5.6-.4,8.4-.2,5.4-.4,10.8-.4,16.2,0,8.4.2,16.6.8,24.8H5.8c-.2-1.6-1.6-2.4-3-3S0,407.6,0,406.2c0-1.6,1.2-2.4,2.6-3.2s2.8-1.8,2.8-3.4-1.4-2.4-2.8-3.2S0,395,0,393.4s1.2-2.2,2.6-3,2.8-1.6,2.8-3.2S4,384.8,2.6,384,0,382.4,0,381c0-1.6,1.4-2.2,2.6-3,1.4-.8,2.8-1.6,2.8-3.2s-1.4-2.4-2.8-3.4c-1.4-.8-2.6-1.6-2.6-3.2s1.2-2.2,2.8-3c1.4-.8,3-1.4,3-3,.2-1.6-1.2-2.6-2.6-3.4S.8,357,.8,355.6c0-1.6,1.4-2.2,2.8-2.8s3-1.4,3-3c.2-1.6-1.2-2.6-2.6-3.6-1.2-.8-2.4-1.8-2.2-3.2.2-1.6,1.6-2.2,3-2.8S7.8,339,8,337.4Z" style="fill:#182755"/></g></g></g></svg>