<svg id="Layer_2" data-name="Layer 2" xmlns="http://www.w3.org/2000/svg" width="5939.44" height="350.47" viewBox="0 0 5939.44 350.47"><title>Months</title><path d="M51.71,630s-40.39-323.13,0-336.6S83.39,603.88,61.22,630" transform="translate(-33.76 -293.01)" style="fill:#fff"/><path d="M587.46,630s-40.39-323.13,0-336.6S619.14,603.88,597,630" transform="translate(-33.76 -293.01)" style="fill:#fff"/><path d="M1123.22,630s-40.4-323.13,0-336.6,31.68,310.47,9.5,336.6" transform="translate(-33.76 -293.01)" style="fill:#fff"/><path d="M1659,630s-40.39-323.13,0-336.6,31.68,310.47,9.5,336.6" transform="translate(-33.76 -293.01)" style="fill:#fff"/><path d="M2194.72,630s-40.39-323.13,0-336.6,31.68,310.47,9.5,336.6" transform="translate(-33.76 -293.01)" style="fill:#fff"/><path d="M2730.47,630s-40.39-323.13,0-336.6S2762.15,603.88,2740,630" transform="translate(-33.76 -293.01)" style="fill:#fff"/><path d="M3266.22,630s-40.39-323.13,0-336.6,31.68,310.47,9.51,336.6" transform="translate(-33.76 -293.01)" style="fill:#fff"/><path d="M3802,630s-40.4-323.13,0-336.6,31.68,310.47,9.5,336.6" transform="translate(-33.76 -293.01)" style="fill:#fff"/><path d="M4337.73,643.48s-40.39-323.14,0-336.6,31.68,310.46,9.5,336.6" transform="translate(-33.76 -293.01)" style="fill:#fff"/><path d="M4873.48,643.48s-40.39-323.14,0-336.6,31.68,310.46,9.5,336.6" transform="translate(-33.76 -293.01)" style="fill:#fff"/><path d="M5409.23,643.48s-40.39-323.14,0-336.6,31.68,310.46,9.51,336.6" transform="translate(-33.76 -293.01)" style="fill:#fff"/><path d="M5945,643.48s-40.39-323.14,0-336.6,31.68,310.46,9.51,336.6" transform="translate(-33.76 -293.01)" style="fill:#fff"/><path d="M188.87,358.84h8.27v42.87c0,17-8.36,22.24-19.39,22.24a26.67,26.67,0,0,1-8.84-1.52l1.24-6.75a19.6,19.6,0,0,0,6.94,1.24c7.41,0,11.78-3.33,11.78-15.87Z" transform="translate(-33.76 -293.01)" style="fill:#fff"/><path d="M236.11,422.91l-.67-5.8h-.28A17.15,17.15,0,0,1,221.09,424c-9.31,0-14.07-6.56-14.07-13.21,0-11.12,9.89-17.2,27.66-17.11v-.95c0-3.8-1-10.64-10.45-10.64a22.93,22.93,0,0,0-12,3.42l-1.9-5.51a28.45,28.45,0,0,1,15.11-4.09c14.07,0,17.49,9.6,17.49,18.82v17.2a64.9,64.9,0,0,0,.76,11Zm-1.24-23.48c-9.12-.19-19.48,1.43-19.48,10.36,0,5.42,3.61,8,7.89,8a11.45,11.45,0,0,0,11.12-7.69,8.93,8.93,0,0,0,.47-2.67Z" transform="translate(-33.76 -293.01)" style="fill:#fff"/><path d="M256.44,389.35c0-4.75-.09-8.64-.38-12.45h7.42l.47,7.61h.19a16.91,16.91,0,0,1,15.21-8.65c6.37,0,16.25,3.8,16.25,19.58v27.47h-8.36V396.39c0-7.42-2.76-13.59-10.65-13.59a11.87,11.87,0,0,0-11.21,8.55,12.05,12.05,0,0,0-.57,3.9v27.66h-8.37Z" transform="translate(-33.76 -293.01)" style="fill:#fff"/><path d="M347.68,410.36c0,4.75.1,8.93.38,12.55h-7.41l-.47-7.51H340A17.34,17.34,0,0,1,324.78,424c-7.23,0-15.87-4-15.87-20.15V376.9h8.36v25.48c0,8.74,2.66,14.63,10.26,14.63a11.76,11.76,0,0,0,11.79-11.88V376.9h8.36Z" transform="translate(-33.76 -293.01)" style="fill:#fff"/><path d="M387,422.91l-.67-5.8h-.28A17.15,17.15,0,0,1,372,424c-9.31,0-14.07-6.56-14.07-13.21,0-11.12,9.89-17.2,27.66-17.11v-.95c0-3.8-1-10.64-10.45-10.64a22.93,22.93,0,0,0-12,3.42l-1.9-5.51a28.48,28.48,0,0,1,15.11-4.09c14.07,0,17.49,9.6,17.49,18.82v17.2a64.9,64.9,0,0,0,.76,11Zm-1.24-23.48c-9.12-.19-19.48,1.43-19.48,10.36,0,5.42,3.61,8,7.89,8a11.44,11.44,0,0,0,11.12-7.69,8.93,8.93,0,0,0,.47-2.67Z" transform="translate(-33.76 -293.01)" style="fill:#fff"/><path d="M407.37,391.26c0-5.42-.1-10.08-.38-14.36h7.31l.29,9H415c2.09-6.18,7.13-10.07,12.74-10.07a9,9,0,0,1,2.37.28V384a12.55,12.55,0,0,0-2.85-.28c-5.89,0-10.07,4.46-11.21,10.74a22.44,22.44,0,0,0-.39,3.89v24.53h-8.26Z" transform="translate(-33.76 -293.01)" style="fill:#fff"/><path d="M443.86,376.9l10.08,27.19c1,3,2.18,6.65,2.94,9.41h.19c.86-2.76,1.81-6.28,2.95-9.6l9.12-27H478l-12.54,32.79c-6,15.78-10.08,23.86-15.78,28.8a22.62,22.62,0,0,1-10.27,5.42l-2.09-7a22.24,22.24,0,0,0,7.32-4.09,25.35,25.35,0,0,0,7-9.31,6.06,6.06,0,0,0,.67-2,7.31,7.31,0,0,0-.57-2.19l-17-42.39Z" transform="translate(-33.76 -293.01)" style="fill:#fff"/><path d="M696.1,358.84h34.5v6.94H704.37v21.29h24.24v6.85H704.37v29H696.1Z" transform="translate(-33.76 -293.01)" style="fill:#fff"/><path d="M743.81,401.43c.19,11.31,7.41,16,15.78,16A30.21,30.21,0,0,0,772.32,415l1.43,6a37.07,37.07,0,0,1-15.3,2.86c-14.16,0-22.62-9.32-22.62-23.19s8.17-24.81,21.57-24.81c15,0,19,13.21,19,21.67a33,33,0,0,1-.28,3.9Zm24.52-6c.1-5.32-2.18-13.59-11.59-13.59-8.46,0-12.17,7.79-12.83,13.59Z" transform="translate(-33.76 -293.01)" style="fill:#fff"/><path d="M786.39,422.91c.19-3.14.38-7.8.38-11.88V355.42H795v28.9h.19c2.94-5.14,8.27-8.46,15.68-8.46,11.4,0,19.48,9.5,19.39,23.47,0,16.45-10.36,24.62-20.63,24.62-6.65,0-12-2.56-15.39-8.65H794l-.38,7.61ZM795,404.47a15.7,15.7,0,0,0,.38,3A12.89,12.89,0,0,0,808,417.3c8.75,0,14-7.13,14-17.68,0-9.22-4.76-17.11-13.69-17.11a13.34,13.34,0,0,0-12.74,10.27,16.5,16.5,0,0,0-.47,3.42Z" transform="translate(-33.76 -293.01)" style="fill:#fff"/><path d="M840.84,391.26c0-5.42-.09-10.08-.38-14.36h7.32l.29,9h.38c2.09-6.18,7.13-10.07,12.73-10.07a9.09,9.09,0,0,1,2.38.28V384a12.55,12.55,0,0,0-2.85-.28c-5.89,0-10.08,4.46-11.22,10.74a23.52,23.52,0,0,0-.38,3.89v24.53h-8.27Z" transform="translate(-33.76 -293.01)" style="fill:#fff"/><path d="M910.42,410.36c0,4.75.09,8.93.38,12.55h-7.42l-.47-7.51h-.19A17.34,17.34,0,0,1,887.51,424c-7.22,0-15.87-4-15.87-20.15V376.9H880v25.48c0,8.74,2.66,14.63,10.27,14.63a11.76,11.76,0,0,0,11.78-11.88V376.9h8.37Z" transform="translate(-33.76 -293.01)" style="fill:#fff"/><path d="M949.76,422.91l-.66-5.8h-.29A17.15,17.15,0,0,1,934.74,424c-9.31,0-14.06-6.56-14.06-13.21,0-11.12,9.88-17.2,27.66-17.11v-.95c0-3.8-1.05-10.64-10.46-10.64a23,23,0,0,0-12,3.42L924,380a28.51,28.51,0,0,1,15.12-4.09c14.06,0,17.48,9.6,17.48,18.82v17.2a64.9,64.9,0,0,0,.76,11Zm-1.23-23.48c-9.13-.19-19.49,1.43-19.49,10.36,0,5.42,3.61,8,7.89,8a11.44,11.44,0,0,0,11.12-7.69,8.65,8.65,0,0,0,.48-2.67Z" transform="translate(-33.76 -293.01)" style="fill:#fff"/><path d="M970.1,391.26c0-5.42-.1-10.08-.38-14.36H977l.28,9h.38c2.09-6.18,7.13-10.07,12.74-10.07a9,9,0,0,1,2.37.28V384a12.55,12.55,0,0,0-2.85-.28c-5.89,0-10.07,4.46-11.21,10.74a23.52,23.52,0,0,0-.38,3.89v24.53H970.1Z" transform="translate(-33.76 -293.01)" style="fill:#fff"/><path d="M1006.59,376.9l10.08,27.19c1,3,2.18,6.65,2.94,9.41h.19c.86-2.76,1.81-6.28,3-9.6l9.12-27h8.84l-12.54,32.79c-6,15.78-10.08,23.86-15.78,28.8a22.57,22.57,0,0,1-10.27,5.42l-2.09-7a22.24,22.24,0,0,0,7.32-4.09,25.47,25.47,0,0,0,7-9.31,6,6,0,0,0,.66-2,7.31,7.31,0,0,0-.57-2.19l-17-42.39Z" transform="translate(-33.76 -293.01)" style="fill:#fff"/><path d="M1315.51,402.76l-6.66,20.15h-8.55l21.77-64.07h10l21.86,64.07h-8.84l-6.85-20.15Zm21-6.47-6.27-18.44c-1.43-4.18-2.38-8-3.33-11.69h-.19c-1,3.8-2,7.7-3.23,11.6l-6.27,18.53Z" transform="translate(-33.76 -293.01)" style="fill:#fff"/><path d="M1362.74,391.92c0-5.89-.19-10.64-.38-15h7.51l.38,7.89h.19c3.42-5.61,8.84-8.93,16.35-8.93,11.12,0,19.48,9.41,19.48,23.38,0,16.54-10.07,24.71-20.91,24.71-6.08,0-11.4-2.66-14.16-7.22H1371v25h-8.27Zm8.27,12.26a18.72,18.72,0,0,0,.38,3.42,12.91,12.91,0,0,0,12.55,9.79c8.84,0,14-7.22,14-17.77,0-9.22-4.85-17.11-13.69-17.11a13.35,13.35,0,0,0-12.64,10.36,13.82,13.82,0,0,0-.57,3.42Z" transform="translate(-33.76 -293.01)" style="fill:#fff"/><path d="M1416.82,391.26c0-5.42-.1-10.08-.38-14.36h7.32l.28,9h.38c2.09-6.18,7.13-10.07,12.74-10.07a9.14,9.14,0,0,1,2.38.28V384a12.7,12.7,0,0,0-2.86-.28c-5.89,0-10.07,4.46-11.21,10.74a23.52,23.52,0,0,0-.38,3.89v24.53h-8.27Z" transform="translate(-33.76 -293.01)" style="fill:#fff"/><path d="M1457.59,364c.1,2.85-2,5.13-5.32,5.13a5,5,0,0,1-5-5.13,5.1,5.1,0,0,1,5.23-5.23A5,5,0,0,1,1457.59,364Zm-9.31,58.93v-46h8.36v46Z" transform="translate(-33.76 -293.01)" style="fill:#fff"/><path d="M1470.52,355.42h8.36v67.49h-8.36Z" transform="translate(-33.76 -293.01)" style="fill:#fff"/><path d="M1907.2,394.77c-.48-8.93-1-19.67-1-27.66H1906c-2.18,7.51-4.84,15.5-8.08,24.34l-11.31,31.08h-6.27L1869.94,392c-3-9-5.61-17.3-7.41-24.91h-.19c-.19,8-.67,18.73-1.24,28.33l-1.71,27.47h-7.89l4.47-64.07h10.55l10.93,31c2.66,7.89,4.85,14.92,6.46,21.58h.29c1.61-6.47,3.89-13.5,6.74-21.58l11.41-31h10.55l4,64.07h-8.08Z" transform="translate(-33.76 -293.01)" style="fill:#fff"/><path d="M1955.38,422.91l-.67-5.8h-.28a17.15,17.15,0,0,1-14.07,6.84c-9.31,0-14.06-6.56-14.06-13.21,0-11.12,9.88-17.2,27.65-17.11v-.95c0-3.8-1-10.64-10.45-10.64a22.93,22.93,0,0,0-12,3.42l-1.9-5.51a28.48,28.48,0,0,1,15.11-4.09c14.07,0,17.49,9.6,17.49,18.82v17.2a64.9,64.9,0,0,0,.76,11Zm-1.24-23.48c-9.12-.19-19.48,1.43-19.48,10.36,0,5.42,3.61,8,7.89,8a11.44,11.44,0,0,0,11.12-7.69,8.93,8.93,0,0,0,.47-2.67Z" transform="translate(-33.76 -293.01)" style="fill:#fff"/><path d="M1978,376.9l10.07,27.19c1,3,2.19,6.65,3,9.41h.19c.85-2.76,1.81-6.28,3-9.6l9.12-27h8.84l-12.55,32.79c-6,15.78-10.07,23.86-15.77,28.8a22.62,22.62,0,0,1-10.27,5.42l-2.09-7a22.24,22.24,0,0,0,7.32-4.09,25.35,25.35,0,0,0,7-9.31,6.06,6.06,0,0,0,.67-2,7.31,7.31,0,0,0-.57-2.19l-17-42.39Z" transform="translate(-33.76 -293.01)" style="fill:#fff"/><path d="M2395.38,358.84h8.27v42.87c0,17-8.36,22.24-19.39,22.24a26.71,26.71,0,0,1-8.84-1.52l1.24-6.75a19.6,19.6,0,0,0,6.94,1.24c7.41,0,11.78-3.33,11.78-15.87Z" transform="translate(-33.76 -293.01)" style="fill:#fff"/><path d="M2455.64,410.36c0,4.75.1,8.93.38,12.55h-7.41l-.48-7.51h-.19a17.31,17.31,0,0,1-15.21,8.55c-7.22,0-15.87-4-15.87-20.15V376.9h8.37v25.48c0,8.74,2.66,14.63,10.26,14.63a12.09,12.09,0,0,0,11-7.6,12.39,12.39,0,0,0,.76-4.28V376.9h8.36Z" transform="translate(-33.76 -293.01)" style="fill:#fff"/><path d="M2469.51,389.35c0-4.75-.09-8.64-.38-12.45h7.42l.47,7.61h.19a16.91,16.91,0,0,1,15.21-8.65c6.37,0,16.25,3.8,16.25,19.58v27.47h-8.36V396.39c0-7.42-2.76-13.59-10.65-13.59a11.87,11.87,0,0,0-11.21,8.55,12.05,12.05,0,0,0-.57,3.9v27.66h-8.37Z" transform="translate(-33.76 -293.01)" style="fill:#fff"/><path d="M2526.92,401.43c.19,11.31,7.41,16,15.77,16a30.29,30.29,0,0,0,12.74-2.37l1.43,6a37.12,37.12,0,0,1-15.31,2.86c-14.16,0-22.62-9.32-22.62-23.19s8.18-24.81,21.58-24.81c15,0,19,13.21,19,21.67a30.54,30.54,0,0,1-.29,3.9Zm24.52-6c.09-5.32-2.19-13.59-11.6-13.59-8.46,0-12.16,7.79-12.83,13.59Z" transform="translate(-33.76 -293.01)" style="fill:#fff"/><path d="M2933.94,358.84h8.27v42.87c0,17-8.36,22.24-19.39,22.24a26.67,26.67,0,0,1-8.84-1.52l1.24-6.75a19.6,19.6,0,0,0,6.94,1.24c7.41,0,11.78-3.33,11.78-15.87Z" transform="translate(-33.76 -293.01)" style="fill:#fff"/><path d="M2994.2,410.36c0,4.75.09,8.93.38,12.55h-7.41l-.48-7.51h-.19a17.31,17.31,0,0,1-15.21,8.55c-7.22,0-15.87-4-15.87-20.15V376.9h8.37v25.48c0,8.74,2.66,14.63,10.26,14.63a12.1,12.1,0,0,0,11-7.6,12.39,12.39,0,0,0,.76-4.28V376.9h8.36Z" transform="translate(-33.76 -293.01)" style="fill:#fff"/><path d="M3008.07,355.42h8.37v67.49h-8.37Z" transform="translate(-33.76 -293.01)" style="fill:#fff"/><path d="M3033.54,376.9l10.08,27.19c1,3,2.18,6.65,2.94,9.41h.19c.86-2.76,1.81-6.28,2.95-9.6l9.13-27h8.83l-12.54,32.79c-6,15.78-10.08,23.86-15.78,28.8a22.6,22.6,0,0,1-10.26,5.42l-2.1-7a22.15,22.15,0,0,0,7.32-4.09,25.36,25.36,0,0,0,7-9.31,6,6,0,0,0,.66-2,7.31,7.31,0,0,0-.57-2.19l-17-42.39Z" transform="translate(-33.76 -293.01)" style="fill:#fff"/><path d="M3433.32,402.76l-6.66,20.15h-8.55l21.76-64.07h10l21.86,64.07h-8.83L3456,402.76Zm21-6.47-6.27-18.44c-1.43-4.18-2.38-8-3.33-11.69h-.19c-1,3.8-2,7.7-3.23,11.6L3435,396.29Z" transform="translate(-33.76 -293.01)" style="fill:#fff"/><path d="M3518.19,410.36c0,4.75.09,8.93.38,12.55h-7.41l-.48-7.51h-.19a17.32,17.32,0,0,1-15.21,8.55c-7.22,0-15.87-4-15.87-20.15V376.9h8.36v25.48c0,8.74,2.67,14.63,10.27,14.63a11.79,11.79,0,0,0,11.79-11.88V376.9h8.36Z" transform="translate(-33.76 -293.01)" style="fill:#fff"/><path d="M3571.7,376.9c-.19,3.33-.38,7-.38,12.64v26.71c0,10.55-2.09,17-6.56,21-4.47,4.18-10.93,5.51-16.73,5.51-5.51,0-11.6-1.33-15.3-3.8l2.09-6.37a25.94,25.94,0,0,0,13.5,3.61c8.55,0,14.82-4.46,14.82-16.06V415H3563c-2.56,4.27-7.51,7.7-14.63,7.7-11.41,0-19.58-9.7-19.58-22.43,0-15.59,10.17-24.43,20.72-24.43,8,0,12.35,4.18,14.35,8h.19l.38-6.94Zm-8.65,18.16a11.88,11.88,0,0,0-.48-3.8,12,12,0,0,0-11.69-8.84c-8,0-13.68,6.75-13.68,17.39,0,9,4.56,16.54,13.59,16.54a12.21,12.21,0,0,0,11.59-8.56,14.37,14.37,0,0,0,.67-4.46Z" transform="translate(-33.76 -293.01)" style="fill:#fff"/><path d="M3623.68,410.36c0,4.75.1,8.93.38,12.55h-7.41l-.48-7.51H3616a17.3,17.3,0,0,1-15.2,8.55c-7.23,0-15.88-4-15.88-20.15V376.9h8.37v25.48c0,8.74,2.66,14.63,10.26,14.63a12.09,12.09,0,0,0,11-7.6,12.39,12.39,0,0,0,.76-4.28V376.9h8.36Z" transform="translate(-33.76 -293.01)" style="fill:#fff"/><path d="M3636.41,414.35a21.93,21.93,0,0,0,11,3.33c6.08,0,8.93-3,8.93-6.85,0-4-2.37-6.17-8.55-8.45-8.27-2.95-12.17-7.51-12.17-13,0-7.41,6-13.49,15.88-13.49a23,23,0,0,1,11.31,2.85l-2.09,6.08a18,18,0,0,0-9.41-2.66c-5,0-7.7,2.85-7.7,6.27,0,3.81,2.75,5.52,8.74,7.8,8,3,12.07,7,12.07,13.88,0,8.07-6.27,13.78-17.2,13.78a26.25,26.25,0,0,1-12.93-3.14Z" transform="translate(-33.76 -293.01)" style="fill:#fff"/><path d="M3685.27,363.69V376.9h12v6.37h-12v24.81c0,5.7,1.61,8.93,6.27,8.93a18.48,18.48,0,0,0,4.85-.57l.38,6.28a20.66,20.66,0,0,1-7.42,1.14c-3.89,0-7-1.24-9-3.52-2.37-2.47-3.23-6.56-3.23-12V383.27H3670V376.9h7.13v-11Z" transform="translate(-33.76 -293.01)" style="fill:#fff"/><path d="M3865.33,412.83a29.34,29.34,0,0,0,14.83,4.18c8.46,0,13.4-4.46,13.4-10.93,0-6-3.42-9.41-12.07-12.73-10.45-3.71-16.92-9.13-16.92-18.16,0-10,8.27-17.39,20.72-17.39,6.56,0,11.32,1.52,14.17,3.14l-2.28,6.74a25.57,25.57,0,0,0-12.17-3c-8.74,0-12.07,5.23-12.07,9.6,0,6,3.9,8.94,12.73,12.36,10.84,4.18,16.35,9.41,16.35,18.82,0,9.88-7.32,18.44-22.43,18.44-6.18,0-12.92-1.81-16.35-4.09Z" transform="translate(-33.76 -293.01)" style="fill:#fff"/><path d="M3918.27,401.43c.19,11.31,7.42,16,15.78,16a30.29,30.29,0,0,0,12.74-2.37l1.42,6a37.07,37.07,0,0,1-15.3,2.86c-14.16,0-22.62-9.32-22.62-23.19s8.17-24.81,21.57-24.81c15,0,19,13.21,19,21.67a33,33,0,0,1-.28,3.9Zm24.52-6c.1-5.32-2.18-13.59-11.59-13.59-8.46,0-12.17,7.79-12.83,13.59Z" transform="translate(-33.76 -293.01)" style="fill:#fff"/><path d="M3961.23,391.92c0-5.89-.19-10.64-.38-15h7.51l.38,7.89h.19c3.42-5.61,8.84-8.93,16.35-8.93,11.12,0,19.48,9.41,19.48,23.38,0,16.54-10.08,24.71-20.91,24.71-6.08,0-11.41-2.66-14.16-7.22h-.19v25h-8.27Zm8.27,12.26a18.72,18.72,0,0,0,.38,3.42,12.9,12.9,0,0,0,12.54,9.79c8.84,0,14-7.22,14-17.77,0-9.22-4.85-17.11-13.69-17.11a14.49,14.49,0,0,0-13.21,13.78Z" transform="translate(-33.76 -293.01)" style="fill:#fff"/><path d="M4025.38,363.69V376.9h12v6.37h-12v24.81c0,5.7,1.62,8.93,6.27,8.93a18.36,18.36,0,0,0,4.85-.57l.38,6.28a20.56,20.56,0,0,1-7.41,1.14c-3.9,0-7-1.24-9-3.52-2.38-2.47-3.23-6.56-3.23-12V383.27h-7.13V376.9h7.13v-11Z" transform="translate(-33.76 -293.01)" style="fill:#fff"/><path d="M4050.85,401.43c.19,11.31,7.41,16,15.78,16a30.21,30.21,0,0,0,12.73-2.37l1.43,6a37.07,37.07,0,0,1-15.3,2.86c-14.16,0-22.62-9.32-22.62-23.19s8.17-24.81,21.57-24.81c15,0,19,13.21,19,21.67a33,33,0,0,1-.28,3.9Zm24.52-6c.1-5.32-2.18-13.59-11.59-13.59-8.46,0-12.17,7.79-12.83,13.59Z" transform="translate(-33.76 -293.01)" style="fill:#fff"/><path d="M4093.81,389.35c0-4.75-.1-8.64-.38-12.45h7.32l.38,7.42h.28c2.57-4.37,6.84-8.46,14.45-8.46a13.6,13.6,0,0,1,13,9.22h.19a19,19,0,0,1,5.13-6,15.72,15.72,0,0,1,10.17-3.23c6.09,0,15.12,4,15.12,20v27.09h-8.18V396.86c0-8.84-3.23-14.16-10-14.16-4.75,0-8.46,3.52-9.88,7.6a13.88,13.88,0,0,0-.67,4.19v28.42h-8.17V395.34c0-7.32-3.23-12.64-9.6-12.64-5.23,0-9,4.18-10.36,8.37a11.39,11.39,0,0,0-.67,4.08v27.76h-8.17Z" transform="translate(-33.76 -293.01)" style="fill:#fff"/><path d="M4172.69,422.91c.19-3.14.38-7.8.38-11.88V355.42h8.27v28.9h.19c2.95-5.14,8.27-8.46,15.68-8.46,11.41,0,19.49,9.5,19.39,23.47,0,16.45-10.36,24.62-20.62,24.62-6.66,0-12-2.56-15.4-8.65h-.29l-.38,7.61Zm8.65-18.44a15.7,15.7,0,0,0,.38,3,12.9,12.9,0,0,0,12.55,9.79c8.74,0,14-7.13,14-17.68,0-9.22-4.75-17.11-13.69-17.11a13.35,13.35,0,0,0-12.74,10.27,16.5,16.5,0,0,0-.47,3.42Z" transform="translate(-33.76 -293.01)" style="fill:#fff"/><path d="M4231.8,401.43c.19,11.31,7.42,16,15.78,16a30.29,30.29,0,0,0,12.74-2.37l1.42,6c-2.94,1.34-8,2.86-15.3,2.86-14.16,0-22.62-9.32-22.62-23.19s8.17-24.81,21.58-24.81c15,0,19,13.21,19,21.67a32.53,32.53,0,0,1-.29,3.9Zm24.53-6c.09-5.32-2.19-13.59-11.6-13.59-8.46,0-12.17,7.79-12.83,13.59Z" transform="translate(-33.76 -293.01)" style="fill:#fff"/><path d="M4274.76,391.26c0-5.42-.09-10.08-.38-14.36h7.32l.28,9h.38c2.1-6.18,7.13-10.07,12.74-10.07a9.09,9.09,0,0,1,2.38.28V384a12.61,12.61,0,0,0-2.85-.28c-5.9,0-10.08,4.46-11.22,10.74a23.52,23.52,0,0,0-.38,3.89v24.53h-8.27Z" transform="translate(-33.76 -293.01)" style="fill:#fff"/><path d="M4515.22,390.21c0,22.05-13.4,33.74-29.75,33.74-16.92,0-28.8-13.12-28.8-32.5,0-20.34,12.64-33.65,29.75-33.65C4503.91,357.8,4515.22,371.2,4515.22,390.21Zm-49.71,1.05c0,13.68,7.42,25.94,20.44,25.94s20.53-12.07,20.53-26.61c0-12.74-6.65-26-20.44-26S4465.51,377.19,4465.51,391.26Z" transform="translate(-33.76 -293.01)" style="fill:#fff"/><path d="M4558.84,421.2a30.78,30.78,0,0,1-13.21,2.66c-13.87,0-22.9-9.41-22.9-23.48s9.69-24.43,24.71-24.43a27.93,27.93,0,0,1,11.59,2.38l-1.9,6.46a19.38,19.38,0,0,0-9.69-2.18c-10.55,0-16.25,7.79-16.25,17.39,0,10.65,6.84,17.2,16,17.2a23.71,23.71,0,0,0,10.27-2.28Z" transform="translate(-33.76 -293.01)" style="fill:#fff"/><path d="M4579.94,363.69V376.9h12v6.37h-12v24.81c0,5.7,1.61,8.93,6.27,8.93a18.42,18.42,0,0,0,4.85-.57l.38,6.28a20.6,20.6,0,0,1-7.41,1.14c-3.9,0-7-1.24-9-3.52-2.38-2.47-3.23-6.56-3.23-12V383.27h-7.13V376.9h7.13v-11Z" transform="translate(-33.76 -293.01)" style="fill:#fff"/><path d="M4642.38,399.52c0,17-11.78,24.43-22.9,24.43-12.45,0-22.06-9.12-22.06-23.66,0-15.4,10.08-24.43,22.82-24.43C4633.45,375.86,4642.38,385.46,4642.38,399.52Zm-36.5.48c0,10.08,5.8,17.68,14,17.68,8,0,14-7.51,14-17.87,0-7.79-3.9-17.68-13.78-17.68S4605.88,391.26,4605.88,400Z" transform="translate(-33.76 -293.01)" style="fill:#fff"/><path d="M4652.55,422.91c.19-3.14.38-7.8.38-11.88V355.42h8.27v28.9h.19c2.94-5.14,8.27-8.46,15.68-8.46,11.41,0,19.49,9.5,19.39,23.47,0,16.45-10.36,24.62-20.63,24.62-6.65,0-12-2.56-15.39-8.65h-.29l-.38,7.61Zm8.65-18.44a15.7,15.7,0,0,0,.38,3,12.89,12.89,0,0,0,12.54,9.79c8.75,0,14-7.13,14-17.68,0-9.22-4.76-17.11-13.69-17.11a13.34,13.34,0,0,0-12.74,10.27,16.5,16.5,0,0,0-.47,3.42Z" transform="translate(-33.76 -293.01)" style="fill:#fff"/><path d="M4711.66,401.43c.19,11.31,7.42,16,15.78,16a30.29,30.29,0,0,0,12.74-2.37l1.42,6c-2.94,1.34-8,2.86-15.3,2.86-14.16,0-22.62-9.32-22.62-23.19s8.17-24.81,21.57-24.81c15,0,19,13.21,19,21.67a33,33,0,0,1-.28,3.9Zm24.52-6c.1-5.32-2.18-13.59-11.59-13.59-8.46,0-12.17,7.79-12.83,13.59Z" transform="translate(-33.76 -293.01)" style="fill:#fff"/><path d="M4754.62,391.26c0-5.42-.1-10.08-.38-14.36h7.32l.28,9h.38c2.09-6.18,7.13-10.07,12.74-10.07a9,9,0,0,1,2.37.28V384a12.55,12.55,0,0,0-2.85-.28c-5.89,0-10.07,4.46-11.21,10.74a23.52,23.52,0,0,0-.38,3.89v24.53h-8.27Z" transform="translate(-33.76 -293.01)" style="fill:#fff"/><path d="M4946.76,422.91V358.84h9l20.53,32.42a180.54,180.54,0,0,1,11.5,20.81l.19-.09c-.76-8.56-.95-16.35-.95-26.33V358.84h7.8v64.07h-8.37l-20.34-32.51a202.51,202.51,0,0,1-12-21.39l-.29.1c.48,8.08.67,15.78.67,26.42v27.38Z" transform="translate(-33.76 -293.01)" style="fill:#fff"/><path d="M5050.64,399.52c0,17-11.78,24.43-22.9,24.43-12.45,0-22.05-9.12-22.05-23.66,0-15.4,10.07-24.43,22.81-24.43C5041.71,375.86,5050.64,385.46,5050.64,399.52Zm-36.49.48c0,10.08,5.79,17.68,14,17.68,8,0,14-7.51,14-17.87,0-7.79-3.9-17.68-13.78-17.68S5014.15,391.26,5014.15,400Z" transform="translate(-33.76 -293.01)" style="fill:#fff"/><path d="M5063.76,376.9l9,25.86a118.16,118.16,0,0,1,3.7,11.78h.29c1-3.8,2.37-7.6,3.9-11.78l8.93-25.86h8.74l-18.06,46h-8l-17.49-46Z" transform="translate(-33.76 -293.01)" style="fill:#fff"/><path d="M5110,401.43c.19,11.31,7.41,16,15.77,16a30.29,30.29,0,0,0,12.74-2.37l1.42,6c-2.94,1.34-8,2.86-15.3,2.86-14.16,0-22.62-9.32-22.62-23.19s8.18-24.81,21.58-24.81c15,0,19,13.21,19,21.67a30.54,30.54,0,0,1-.29,3.9Zm24.52-6c.09-5.32-2.19-13.59-11.6-13.59-8.46,0-12.16,7.79-12.83,13.59Z" transform="translate(-33.76 -293.01)" style="fill:#fff"/><path d="M5152.9,389.35c0-4.75-.09-8.64-.38-12.45h7.32l.38,7.42h.29c2.56-4.37,6.84-8.46,14.44-8.46a13.58,13.58,0,0,1,13,9.22h.2a18.9,18.9,0,0,1,5.13-6,15.68,15.68,0,0,1,10.17-3.23c6.08,0,15.11,4,15.11,20v27.09h-8.17V396.86c0-8.84-3.24-14.16-10-14.16-4.76,0-8.46,3.52-9.89,7.6a13.89,13.89,0,0,0-.66,4.19v28.42h-8.18V395.34c0-7.32-3.23-12.64-9.6-12.64-5.23,0-9,4.18-10.36,8.37a11.61,11.61,0,0,0-.66,4.08v27.76h-8.18Z" transform="translate(-33.76 -293.01)" style="fill:#fff"/><path d="M5231.79,422.91c.19-3.14.38-7.8.38-11.88V355.42h8.27v28.9h.18c2.95-5.14,8.27-8.46,15.69-8.46,11.4,0,19.48,9.5,19.39,23.47,0,16.45-10.36,24.62-20.63,24.62-6.65,0-12-2.56-15.4-8.65h-.28l-.38,7.61Zm8.65-18.44a15,15,0,0,0,.38,3,12.89,12.89,0,0,0,12.54,9.79c8.75,0,14-7.13,14-17.68,0-9.22-4.75-17.11-13.68-17.11a13.33,13.33,0,0,0-12.74,10.27,16.5,16.5,0,0,0-.47,3.42Z" transform="translate(-33.76 -293.01)" style="fill:#fff"/><path d="M5290.9,401.43c.19,11.31,7.41,16,15.78,16a30.21,30.21,0,0,0,12.73-2.37l1.43,6a37.07,37.07,0,0,1-15.3,2.86c-14.16,0-22.62-9.32-22.62-23.19s8.17-24.81,21.57-24.81c15,0,19,13.21,19,21.67a33,33,0,0,1-.28,3.9Zm24.52-6c.1-5.32-2.18-13.59-11.59-13.59-8.46,0-12.17,7.79-12.84,13.59Z" transform="translate(-33.76 -293.01)" style="fill:#fff"/><path d="M5333.86,391.26c0-5.42-.1-10.08-.38-14.36h7.31l.29,9h.38c2.09-6.18,7.13-10.07,12.74-10.07a9,9,0,0,1,2.37.28V384a12.55,12.55,0,0,0-2.85-.28c-5.89,0-10.07,4.46-11.21,10.74a23.46,23.46,0,0,0-.39,3.89v24.53h-8.26Z" transform="translate(-33.76 -293.01)" style="fill:#fff"/><path d="M5483.74,359.7a118.46,118.46,0,0,1,17.58-1.33c11.88,0,20.34,2.76,26,8s9,12.64,9,23-3.23,19-9.22,24.91-15.87,9.22-28.32,9.22a134.66,134.66,0,0,1-15-.76Zm8.27,56.65a52.27,52.27,0,0,0,8.36.47c17.68,0,27.28-9.88,27.28-27.18.1-15.11-8.46-24.71-25.95-24.71a47.39,47.39,0,0,0-9.69.85Z" transform="translate(-33.76 -293.01)" style="fill:#fff"/><path d="M5551.79,401.43c.19,11.31,7.41,16,15.77,16A30.29,30.29,0,0,0,5580.3,415l1.43,6a37.12,37.12,0,0,1-15.31,2.86c-14.16,0-22.62-9.32-22.62-23.19s8.18-24.81,21.58-24.81c15,0,19,13.21,19,21.67a30.54,30.54,0,0,1-.29,3.9Zm24.52-6c.09-5.32-2.19-13.59-11.6-13.59-8.46,0-12.16,7.79-12.83,13.59Z" transform="translate(-33.76 -293.01)" style="fill:#fff"/><path d="M5627.53,421.2a30.78,30.78,0,0,1-13.21,2.66c-13.87,0-22.9-9.41-22.9-23.48s9.69-24.43,24.71-24.43a27.93,27.93,0,0,1,11.59,2.38l-1.9,6.46a19.38,19.38,0,0,0-9.69-2.18c-10.55,0-16.25,7.79-16.25,17.39,0,10.65,6.84,17.2,16,17.2a23.71,23.71,0,0,0,10.27-2.28Z" transform="translate(-33.76 -293.01)" style="fill:#fff"/><path d="M5641.41,401.43c.19,11.31,7.41,16,15.78,16a30.24,30.24,0,0,0,12.73-2.37l1.43,6a37.11,37.11,0,0,1-15.3,2.86c-14.17,0-22.63-9.32-22.63-23.19s8.18-24.81,21.58-24.81c15,0,19,13.21,19,21.67a30.54,30.54,0,0,1-.29,3.9Zm24.52-6c.1-5.32-2.19-13.59-11.6-13.59-8.45,0-12.16,7.79-12.83,13.59Z" transform="translate(-33.76 -293.01)" style="fill:#fff"/><path d="M5684.37,389.35c0-4.75-.1-8.64-.38-12.45h7.31l.38,7.42h.29c2.57-4.37,6.84-8.46,14.45-8.46a13.6,13.6,0,0,1,13,9.22h.19a18.9,18.9,0,0,1,5.13-6,15.72,15.72,0,0,1,10.17-3.23c6.08,0,15.11,4,15.11,20v27.09h-8.17V396.86c0-8.84-3.23-14.16-10-14.16-4.75,0-8.46,3.52-9.89,7.6a13.89,13.89,0,0,0-.66,4.19v28.42h-8.18V395.34c0-7.32-3.23-12.64-9.6-12.64-5.22,0-9,4.18-10.36,8.37a11.61,11.61,0,0,0-.66,4.08v27.76h-8.17Z" transform="translate(-33.76 -293.01)" style="fill:#fff"/><path d="M5763.25,422.91c.19-3.14.38-7.8.38-11.88V355.42h8.27v28.9h.19c2.94-5.14,8.27-8.46,15.68-8.46,11.41,0,19.49,9.5,19.39,23.47,0,16.45-10.36,24.62-20.62,24.62-6.66,0-12-2.56-15.4-8.65h-.29l-.38,7.61Zm8.65-18.44a15.7,15.7,0,0,0,.38,3,12.89,12.89,0,0,0,12.54,9.79c8.75,0,14-7.13,14-17.68,0-9.22-4.76-17.11-13.69-17.11a13.34,13.34,0,0,0-12.74,10.27,16.5,16.5,0,0,0-.47,3.42Z" transform="translate(-33.76 -293.01)" style="fill:#fff"/><path d="M5822.36,401.43c.19,11.31,7.42,16,15.78,16a30.29,30.29,0,0,0,12.74-2.37l1.42,6c-2.94,1.34-8,2.86-15.3,2.86-14.16,0-22.62-9.32-22.62-23.19s8.17-24.81,21.57-24.81c15,0,19,13.21,19,21.67a33,33,0,0,1-.28,3.9Zm24.52-6c.1-5.32-2.18-13.59-11.59-13.59-8.46,0-12.17,7.79-12.83,13.59Z" transform="translate(-33.76 -293.01)" style="fill:#fff"/><path d="M5865.32,391.26c0-5.42-.1-10.08-.38-14.36h7.32l.28,9h.38c2.09-6.18,7.13-10.07,12.74-10.07a9.09,9.09,0,0,1,2.38.28V384a12.7,12.7,0,0,0-2.86-.28c-5.89,0-10.07,4.46-11.21,10.74a23.52,23.52,0,0,0-.38,3.89v24.53h-8.27Z" transform="translate(-33.76 -293.01)" style="fill:#fff"/></svg>
